<svg width="170" height="27" viewBox="0 0 170 27" fill="none" xmlns="http://www.w3.org/2000/svg">
<g style="mix-blend-mode:multiply">
<path d="M8.84766 1.68359H12.7852L21.6445 20H17.7422L16.2773 16.918H5.57812L4.16016 20H0.246094L8.84766 1.68359ZM14.8125 13.8594L10.8516 5.53906L6.99609 13.8594H14.8125ZM23.2266 13.1211C23.2266 12.1055 23.4102 11.1602 23.7773 10.2852C24.1523 9.40234 24.6953 8.64062 25.4062 8C26.125 7.35156 27 6.84375 28.0312 6.47656C29.0703 6.10938 30.2539 5.92578 31.582 5.92578C32.1602 5.92578 32.7422 5.96094 33.3281 6.03125C33.9141 6.10156 34.4766 6.20312 35.0156 6.33594C35.5625 6.46094 36.0742 6.61328 36.5508 6.79297C37.0273 6.96484 37.4414 7.15625 37.793 7.36719L36.1875 9.98047C35.4297 9.62891 34.7109 9.37109 34.0312 9.20703C33.3594 9.04297 32.6758 8.96094 31.9805 8.96094C31.1836 8.96094 30.4688 9.06641 29.8359 9.27734C29.2031 9.48047 28.6641 9.76953 28.2188 10.1445C27.7812 10.5117 27.4453 10.9492 27.2109 11.457C26.9844 11.957 26.8711 12.5039 26.8711 13.0977C26.8711 13.6914 26.9922 14.2422 27.2344 14.75C27.4844 15.25 27.832 15.6836 28.2773 16.0508C28.7305 16.4102 29.2734 16.6953 29.9062 16.9062C30.5469 17.1094 31.2578 17.2109 32.0391 17.2109C32.8984 17.2109 33.707 17.0898 34.4648 16.8477C35.2305 16.6055 35.9414 16.2812 36.5977 15.875L38.2031 18.4883C37.7891 18.7383 37.3398 18.9727 36.8555 19.1914C36.3711 19.4023 35.8516 19.5859 35.2969 19.7422C34.75 19.8984 34.1719 20.0195 33.5625 20.1055C32.9609 20.1992 32.3359 20.2461 31.6875 20.2461C30.3672 20.2461 29.1836 20.0664 28.1367 19.707C27.0898 19.3477 26.2031 18.8516 25.4766 18.2188C24.75 17.5781 24.1914 16.8242 23.8008 15.957C23.418 15.0898 23.2266 14.1445 23.2266 13.1211ZM41.2852 15.6406C41.2852 14.9766 41.4297 14.3711 41.7188 13.8242C42.0078 13.2773 42.4414 12.8086 43.0195 12.418C43.5977 12.0195 44.3164 11.7148 45.1758 11.5039C46.043 11.2852 47.0508 11.1758 48.1992 11.1758C49.0508 11.1758 49.9453 11.2383 50.8828 11.3633C51.8281 11.4883 52.8008 11.6797 53.8008 11.9375C53.7617 11.5 53.6289 11.0977 53.4023 10.7305C53.1758 10.3555 52.8594 10.0352 52.4531 9.76953C52.0547 9.49609 51.5703 9.28516 51 9.13672C50.4375 8.98828 49.7969 8.91406 49.0781 8.91406C48.6875 8.91406 48.2578 8.9375 47.7891 8.98438C47.3203 9.03125 46.8359 9.10156 46.3359 9.19531C45.8359 9.28906 45.3398 9.40625 44.8477 9.54688C44.3633 9.6875 43.9102 9.85547 43.4883 10.0508L42.4336 7.20312C42.957 7.01562 43.5156 6.84375 44.1094 6.6875C44.7109 6.53125 45.3242 6.39844 45.9492 6.28906C46.5742 6.17188 47.1992 6.08203 47.8242 6.01953C48.4492 5.95703 49.0547 5.92578 49.6406 5.92578C52.2266 5.92578 54.1484 6.58594 55.4062 7.90625C56.6641 9.22656 57.293 11.25 57.293 13.9766V20H53.8242V18.6992C53.4648 18.9102 53.0703 19.1094 52.6406 19.2969C52.2188 19.4844 51.7578 19.6484 51.2578 19.7891C50.7578 19.9297 50.2188 20.0391 49.6406 20.1172C49.0703 20.2031 48.4648 20.2461 47.8242 20.2461C46.7461 20.2461 45.7969 20.1289 44.9766 19.8945C44.1641 19.6602 43.4844 19.3359 42.9375 18.9219C42.3906 18.5078 41.9766 18.0234 41.6953 17.4688C41.4219 16.9062 41.2852 16.2969 41.2852 15.6406ZM44.9414 15.5234C44.9414 15.75 45 15.9688 45.1172 16.1797C45.2344 16.3828 45.4219 16.5664 45.6797 16.7305C45.9375 16.8867 46.2656 17.0156 46.6641 17.1172C47.0703 17.2109 47.5586 17.2578 48.1289 17.2578C48.7383 17.2578 49.3281 17.2031 49.8984 17.0938C50.4688 16.9844 51 16.8398 51.4922 16.6602C51.9844 16.4805 52.4297 16.2734 52.8281 16.0391C53.2266 15.8047 53.5586 15.5625 53.8242 15.3125V14.7031C53.293 14.5547 52.7656 14.4297 52.2422 14.3281C51.7266 14.2266 51.2305 14.1484 50.7539 14.0938C50.2852 14.0312 49.8398 13.9883 49.418 13.9648C49.0039 13.9414 48.6406 13.9297 48.3281 13.9297C47.6797 13.9297 47.1406 13.9727 46.7109 14.0586C46.2812 14.1445 45.9336 14.2617 45.668 14.4102C45.4023 14.5508 45.2148 14.7188 45.1055 14.9141C44.9961 15.1094 44.9414 15.3125 44.9414 15.5234ZM60.8203 13.1445C60.8203 12.043 61.0273 11.0508 61.4414 10.168C61.8555 9.27734 62.4258 8.51953 63.1523 7.89453C63.8867 7.26172 64.7539 6.77734 65.7539 6.44141C66.7617 6.09766 67.8516 5.92578 69.0234 5.92578C69.5234 5.92578 70.0156 5.95703 70.5 6.01953C70.9922 6.08203 71.4609 6.16797 71.9062 6.27734C72.3594 6.38672 72.7812 6.51953 73.1719 6.67578C73.5703 6.82422 73.9219 6.98828 74.2266 7.16797V0.558594H77.6953V20H74.2266V18.6992C73.9219 18.9102 73.5625 19.1094 73.1484 19.2969C72.7344 19.4844 72.2891 19.6484 71.8125 19.7891C71.3359 19.9297 70.8398 20.0391 70.3242 20.1172C69.8164 20.2031 69.3125 20.2461 68.8125 20.2461C67.6406 20.2461 66.5625 20.0742 65.5781 19.7305C64.6016 19.3867 63.7617 18.9023 63.0586 18.2773C62.3555 17.6523 61.8047 16.9062 61.4062 16.0391C61.0156 15.1641 60.8203 14.1992 60.8203 13.1445ZM64.4648 13.1445C64.4648 13.6992 64.5742 14.2227 64.793 14.7148C65.0195 15.207 65.3398 15.6406 65.7539 16.0156C66.1758 16.3828 66.6797 16.6758 67.2656 16.8945C67.8594 17.1055 68.5234 17.2109 69.2578 17.2109C69.7266 17.2109 70.1953 17.168 70.6641 17.082C71.1328 16.9883 71.582 16.8594 72.0117 16.6953C72.4492 16.5312 72.8555 16.332 73.2305 16.0977C73.6133 15.8633 73.9453 15.6016 74.2266 15.3125V10.5195C73.875 10.2383 73.5039 10 73.1133 9.80469C72.7227 9.60938 72.3242 9.44922 71.918 9.32422C71.5117 9.19922 71.1016 9.10938 70.6875 9.05469C70.2734 8.99219 69.8711 8.96094 69.4805 8.96094C68.6836 8.96094 67.9727 9.07031 67.3477 9.28906C66.7305 9.5 66.207 9.79297 65.7773 10.168C65.3555 10.543 65.0312 10.9844 64.8047 11.4922C64.5781 12 64.4648 12.5508 64.4648 13.1445ZM81.293 13.0391C81.293 12.1016 81.4844 11.207 81.8672 10.3555C82.25 9.49609 82.8008 8.73828 83.5195 8.08203C84.2383 7.42578 85.1172 6.90234 86.1562 6.51172C87.2031 6.12109 88.3906 5.92578 89.7188 5.92578C91.0391 5.92578 92.2266 6.125 93.2812 6.52344C94.3438 6.91406 95.2422 7.45312 95.9766 8.14062C96.7188 8.82812 97.2852 9.63672 97.6758 10.5664C98.0742 11.4961 98.2734 12.4922 98.2734 13.5547C98.2734 13.6875 98.2695 13.832 98.2617 13.9883C98.2617 14.1367 98.2539 14.2734 98.2383 14.3984H85.1602C85.3086 14.8125 85.5469 15.1914 85.875 15.5352C86.2109 15.8789 86.6289 16.1758 87.1289 16.4258C87.6289 16.6758 88.207 16.8711 88.8633 17.0117C89.5195 17.1445 90.2461 17.2109 91.043 17.2109C91.8398 17.2109 92.6328 17.1289 93.4219 16.9648C94.2109 16.793 94.9648 16.5781 95.6836 16.3203L96.8555 18.9688C96.4023 19.1797 95.9414 19.3672 95.4727 19.5312C95.0117 19.6875 94.5273 19.8203 94.0195 19.9297C93.5195 20.0312 92.9922 20.1094 92.4375 20.1641C91.8906 20.2188 91.3125 20.2461 90.7031 20.2461C89.1484 20.2461 87.7852 20.0586 86.6133 19.6836C85.4414 19.3086 84.4609 18.7969 83.6719 18.1484C82.8828 17.5 82.2891 16.7383 81.8906 15.8633C81.4922 14.9883 81.293 14.0469 81.293 13.0391ZM94.5938 11.6914C94.4688 11.3086 94.2734 10.9531 94.0078 10.625C93.75 10.2891 93.4258 10 93.0352 9.75781C92.6445 9.50781 92.1914 9.3125 91.6758 9.17188C91.1602 9.03125 90.5938 8.96094 89.9766 8.96094C89.3203 8.96094 88.7227 9.03516 88.1836 9.18359C87.6445 9.33203 87.1719 9.53125 86.7656 9.78125C86.3594 10.0312 86.0195 10.3203 85.7461 10.6484C85.4805 10.9766 85.2852 11.3242 85.1602 11.6914H94.5938ZM102.105 6.17188H105.574V7.34375C106.441 6.8125 107.285 6.44531 108.105 6.24219C108.934 6.03125 109.742 5.92578 110.531 5.92578C111.633 5.92578 112.645 6.10156 113.566 6.45312C114.488 6.80469 115.277 7.33594 115.934 8.04688C116.441 7.65625 116.941 7.32812 117.434 7.0625C117.926 6.78906 118.418 6.57031 118.91 6.40625C119.402 6.23438 119.902 6.11328 120.41 6.04297C120.918 5.96484 121.441 5.92578 121.98 5.92578C123.113 5.92578 124.141 6.08203 125.062 6.39453C125.984 6.69922 126.77 7.15625 127.418 7.76562C128.074 8.375 128.578 9.13672 128.93 10.0508C129.289 10.957 129.469 12.0078 129.469 13.2031V20H126.012V13.7656C126.012 13.0078 125.902 12.332 125.684 11.7383C125.473 11.1367 125.172 10.6328 124.781 10.2266C124.398 9.8125 123.938 9.5 123.398 9.28906C122.867 9.07031 122.281 8.96094 121.641 8.96094C121.289 8.96094 120.93 8.99609 120.562 9.06641C120.195 9.12891 119.836 9.23047 119.484 9.37109C119.141 9.51172 118.816 9.69141 118.512 9.91016C118.207 10.1211 117.941 10.3711 117.715 10.6602V20H114.258V13.7656C114.258 13.0078 114.148 12.332 113.93 11.7383C113.719 11.1367 113.418 10.6328 113.027 10.2266C112.645 9.8125 112.18 9.5 111.633 9.28906C111.094 9.07031 110.5 8.96094 109.852 8.96094C109.453 8.96094 109.051 9.00391 108.645 9.08984C108.246 9.16797 107.859 9.28125 107.484 9.42969C107.117 9.57812 106.77 9.75781 106.441 9.96875C106.121 10.1797 105.832 10.418 105.574 10.6836V20H102.105V6.17188ZM135.668 4.28516C135.324 4.28516 135.012 4.23828 134.73 4.14453C134.457 4.04297 134.223 3.91016 134.027 3.74609C133.832 3.57422 133.68 3.37891 133.57 3.16016C133.469 2.93359 133.418 2.69531 133.418 2.44531C133.418 2.1875 133.469 1.94922 133.57 1.73047C133.68 1.50391 133.832 1.30859 134.027 1.14453C134.223 0.980469 134.457 0.851562 134.73 0.757812C135.012 0.65625 135.324 0.605469 135.668 0.605469C136.02 0.605469 136.332 0.65625 136.605 0.757812C136.887 0.851562 137.125 0.980469 137.32 1.14453C137.516 1.30859 137.664 1.50391 137.766 1.73047C137.875 1.94922 137.93 2.1875 137.93 2.44531C137.93 2.69531 137.875 2.93359 137.766 3.16016C137.664 3.37891 137.516 3.57422 137.32 3.74609C137.125 3.91016 136.887 4.04297 136.605 4.14453C136.332 4.23828 136.02 4.28516 135.668 4.28516ZM133.934 6.17188H137.402V20H133.934V6.17188Z" fill="black"/>
<path d="M143.367 8.77344H141V6.17188H143.367C143.367 5.23438 143.5 4.40234 143.766 3.67578C144.031 2.94141 144.414 2.32422 144.914 1.82422C145.422 1.31641 146.035 0.929688 146.754 0.664062C147.48 0.398437 148.297 0.265625 149.203 0.265625C149.836 0.265625 150.457 0.328125 151.066 0.453125C151.676 0.570312 152.215 0.742188 152.684 0.96875L151.453 3.88672C151.266 3.77734 151 3.67578 150.656 3.58203C150.32 3.48828 149.949 3.44141 149.543 3.44141C148.746 3.44141 148.102 3.66797 147.609 4.12109C147.125 4.56641 146.867 5.25 146.836 6.17188H151.207V8.77344H146.836V20H143.367V8.77344ZM155.531 21.7344C155.891 21.9688 156.281 22.1758 156.703 22.3555C157.125 22.5352 157.562 22.6836 158.016 22.8008C158.477 22.918 158.945 23.0039 159.422 23.0586C159.898 23.1211 160.371 23.1523 160.84 23.1523C162.434 23.1523 163.66 22.8086 164.52 22.1211C165.387 21.4414 165.82 20.418 165.82 19.0508V18.582C165.516 18.793 165.172 18.9883 164.789 19.168C164.414 19.3398 164.008 19.4883 163.57 19.6133C163.141 19.7383 162.684 19.8359 162.199 19.9062C161.723 19.9688 161.238 20 160.746 20C159.691 20 158.746 19.8477 157.91 19.543C157.082 19.2305 156.379 18.7773 155.801 18.1836C155.23 17.582 154.793 16.8438 154.488 15.9688C154.184 15.0938 154.031 14.0938 154.031 12.9688V6.17188H157.488V12.0078C157.488 13.6797 157.805 14.9141 158.438 15.7109C159.078 16.5 160.086 16.8945 161.461 16.8945C162.43 16.8945 163.285 16.7266 164.027 16.3906C164.777 16.0469 165.375 15.6094 165.82 15.0781V6.17188H169.289V18.418C169.289 19.7383 169.102 20.8828 168.727 21.8516C168.352 22.8281 167.805 23.6367 167.086 24.2773C166.375 24.918 165.5 25.3945 164.461 25.707C163.422 26.0273 162.242 26.1875 160.922 26.1875C159.633 26.1875 158.43 26.0508 157.312 25.7773C156.195 25.5039 155.172 25.1328 154.242 24.6641L155.531 21.7344Z" fill="#8912FF"/>
</g>
</svg>
