<svg width="48" height="48" viewBox="0 0 48 48" fill="none" xmlns="http://www.w3.org/2000/svg">
<rect x="0.5" y="0.5" width="47" height="47" rx="9.5" fill="white" stroke="#525466"/>
<path fill-rule="evenodd" clip-rule="evenodd" d="M23.7183 15.818C24.4507 16.6299 24.2185 17.5497 23.5709 18.4225C23.4173 18.6294 23.2404 18.8333 23.0266 19.0579C22.924 19.1658 22.844 19.2469 22.6766 19.4144C22.2966 19.7948 21.9771 20.1145 21.7182 20.3734C21.5926 20.4989 22.4499 22.212 24.1136 23.8774C25.7765 25.5419 27.4895 26.3997 27.6156 26.2735L28.5734 25.3152C29.1009 24.7872 29.3802 24.5325 29.764 24.2806C30.562 23.7571 31.4324 23.6149 32.1664 24.2713C34.5632 25.9857 35.9194 27.0377 36.5839 27.7281C37.8799 29.0747 37.71 31.1476 36.5912 32.3301C36.2033 32.7401 35.7114 33.2323 35.1304 33.7924C31.616 37.3088 24.1989 35.1688 18.5145 29.4789C12.8288 23.7876 10.69 16.3698 14.1971 12.8609C14.8267 12.2213 15.0343 12.0139 15.6475 11.4097C16.7891 10.2847 18.9576 10.1086 20.2758 11.4108C20.9692 12.0957 22.0746 13.518 23.7183 15.818ZM30.3404 27.0827L29.3824 28.0413C27.754 29.6705 24.9808 28.2817 22.3465 25.6448C19.7103 23.006 18.323 20.2338 19.9519 18.605C20.2105 18.3465 20.5297 18.0271 20.9095 17.647C21.0627 17.4936 21.1328 17.4226 21.2169 17.3341C21.3315 17.2137 21.4257 17.1079 21.5011 17.0143C20.0444 14.9851 19.0542 13.7171 18.5203 13.1898C18.2446 12.9175 17.6273 12.9676 17.4007 13.1909C16.7962 13.7865 16.5976 13.9851 15.9705 14.6219C13.7151 16.8786 15.4417 22.8667 20.2817 27.7115C25.1201 32.5547 31.1074 34.2821 33.3799 32.0086C33.9519 31.4569 34.418 30.9906 34.7767 30.6114C35.0359 30.3374 35.0823 29.7721 34.7841 29.4622C34.2874 28.9461 33.0714 27.9981 30.9719 26.4903C30.8188 26.6135 30.6307 26.7922 30.3404 27.0827Z" fill="black"/>
</svg>
