<svg width="48" height="48" viewBox="0 0 48 48" fill="none" xmlns="http://www.w3.org/2000/svg">
<rect x="0.5" y="0.5" width="47" height="47" rx="9.5" fill="white" stroke="#525466"/>
<path d="M32 29C31.7663 29.0005 31.5399 28.9191 31.36 28.77L26.84 25H25C22.8783 25 20.8434 24.1571 19.3431 22.6569C17.8429 21.1566 17 19.1217 17 17C17 14.8783 17.8429 12.8434 19.3431 11.3431C20.8434 9.84285 22.8783 9 25 9H31C32.9431 9.00555 34.8178 9.71814 36.274 11.0047C37.7303 12.2913 38.6684 14.0639 38.9133 15.9916C39.1583 17.9192 38.6933 19.8701 37.6051 21.48C36.5169 23.0899 34.88 24.2487 33 24.74V28C33.0005 28.1913 32.9461 28.3787 32.8433 28.5399C32.7405 28.7012 32.5936 28.8297 32.42 28.91C32.2882 28.9701 32.1449 29.0008 32 29ZM25 11C23.4087 11 21.8826 11.6321 20.7574 12.7574C19.6321 13.8826 19 15.4087 19 17C19 18.5913 19.6321 20.1174 20.7574 21.2426C21.8826 22.3679 23.4087 23 25 23H27.2C27.4337 22.9995 27.6601 23.0809 27.84 23.23L31 25.86V23.92C30.9976 23.6773 31.0835 23.4421 31.2418 23.2581C31.4 23.0741 31.6197 22.954 31.86 22.92C33.3378 22.6778 34.6716 21.8918 35.5994 20.7163C36.5272 19.5408 36.9819 18.0609 36.8741 16.5672C36.7663 15.0736 36.1039 13.6742 35.017 12.6441C33.9301 11.614 32.4973 11.0275 31 11H25Z" fill="#101820"/>
<path d="M29 16H27V18H29V16Z" fill="#101820"/>
<path d="M24 16H22V18H24V16Z" fill="#101820"/>
<path d="M34 16H32V18H34V16Z" fill="#101820"/>
<path d="M16.0001 37C15.8552 37.0008 15.7119 36.9701 15.5801 36.91C15.4065 36.8297 15.2596 36.7012 15.1568 36.5399C15.054 36.3786 14.9996 36.1913 15.0001 36V32.74C13.4089 32.3161 11.9874 31.4115 10.9294 30.1498C9.87141 28.888 9.22855 27.3305 9.08855 25.6898C8.94854 24.0492 9.31822 22.4053 10.1471 20.9825C10.976 19.5597 12.2238 18.4274 13.7201 17.74C13.8408 17.6763 13.9734 17.6381 14.1095 17.6276C14.2456 17.6171 14.3824 17.6346 14.5115 17.679C14.6406 17.7234 14.7592 17.7938 14.8601 17.8858C14.961 17.9778 15.0419 18.0894 15.098 18.2139C15.1541 18.3383 15.1841 18.473 15.1862 18.6095C15.1882 18.746 15.1623 18.8815 15.1101 19.0076C15.0578 19.1337 14.9803 19.2477 14.8822 19.3428C14.7842 19.4378 14.6678 19.5117 14.5401 19.56C13.36 20.095 12.3848 20.9977 11.7604 22.133C11.136 23.2684 10.8959 24.5753 11.076 25.8585C11.2561 27.1416 11.8467 28.3319 12.7595 29.2515C13.6723 30.1711 14.8583 30.7705 16.1401 30.96C16.3803 30.9939 16.6001 31.1141 16.7583 31.2981C16.9165 31.4821 17.0025 31.7173 17.0001 31.96V33.9L20.1601 31.27C20.3343 31.1064 20.5613 31.0106 20.8001 31H23.0001C23.8009 31.0015 24.5938 30.841 25.331 30.5283C26.0682 30.2155 26.7346 29.7569 27.2901 29.18C27.4757 28.989 27.7296 28.8796 27.9959 28.8759C28.1278 28.874 28.2587 28.8982 28.3813 28.9469C28.5038 28.9957 28.6155 29.0681 28.7101 29.16C28.8046 29.2519 28.8801 29.3616 28.9323 29.4827C28.9845 29.6038 29.0123 29.734 29.0142 29.8658C29.016 29.9977 28.9919 30.1286 28.9431 30.2512C28.8944 30.3737 28.822 30.4854 28.7301 30.58C27.9849 31.3455 27.094 31.954 26.1099 32.3697C25.1258 32.7853 24.0684 32.9996 23.0001 33H21.1601L16.6401 36.77C16.4602 36.9191 16.2337 37.0004 16.0001 37Z" fill="#101820"/>
</svg>
