<svg width="48" height="48" viewBox="0 0 48 48" fill="none" xmlns="http://www.w3.org/2000/svg">
<rect x="0.5" y="0.5" width="47" height="47" rx="9.5" fill="white" stroke="#525466"/>
<path d="M11.8718 39.804L13.4758 32.9636C12.256 30.45 11.5537 27.5013 11.5537 24.3479C11.5537 15.1502 17.5279 7.694 24.8975 7.694C32.267 7.694 38.2412 15.1502 38.2412 24.3479C38.2412 33.5457 32.267 41.0019 24.8975 41.0019C21.8044 41.0019 18.9572 39.6884 16.6942 37.4841L11.8718 39.804Z" stroke="black" stroke-width="2" stroke-linecap="round" stroke-linejoin="round"/>
<path d="M21.7441 21.9113C22.3024 21.9113 22.7551 21.2589 22.7551 20.4534C22.7551 19.6479 22.3024 18.9962 21.7441 18.9962C21.1859 18.9962 20.7344 19.6478 20.7344 20.4534C20.7344 21.259 21.1864 21.9113 21.7441 21.9113Z" fill="#040000"/>
<path d="M28.3975 21.9113C28.9557 21.9113 29.4084 21.2589 29.4084 20.4534C29.4084 19.6479 28.9557 18.9962 28.3975 18.9962C27.8392 18.9962 27.3877 19.6478 27.3877 20.4534C27.3877 21.259 27.8397 21.9113 28.3975 21.9113Z" fill="#040000"/>
<path d="M25.2752 29.9339C24.8228 29.9316 24.3755 29.7672 23.9591 29.4501C23.5428 29.1331 23.1657 28.6698 22.8497 28.0871C22.7914 27.9795 22.7591 27.8345 22.7598 27.6836C22.7606 27.5328 22.7944 27.3885 22.8538 27.2821C22.8835 27.2289 22.9186 27.1868 22.9573 27.1582C22.996 27.1296 23.0374 27.1152 23.0791 27.1156C23.1209 27.116 23.1621 27.1314 23.2005 27.1608C23.2389 27.1902 23.2737 27.233 23.3028 27.2868C23.5612 27.7605 23.8688 28.1373 24.2083 28.3957C24.5477 28.6542 24.9122 28.7892 25.281 28.7931C25.6498 28.797 26.0156 28.6696 26.3576 28.4183C26.6996 28.167 27.0111 27.7967 27.2742 27.3286C27.3039 27.2753 27.339 27.2332 27.3777 27.2047C27.4164 27.1761 27.4578 27.1616 27.4995 27.162C27.5413 27.1625 27.5825 27.1778 27.6209 27.2072C27.6593 27.2366 27.6941 27.2794 27.7232 27.3333C27.7815 27.4409 27.8139 27.5859 27.8131 27.7367C27.8123 27.8876 27.7786 28.0319 27.7191 28.1383C27.3973 28.7143 27.0156 29.1696 26.5961 29.4778C26.1766 29.7861 25.7276 29.9411 25.2752 29.9339Z" fill="black"/>
</svg>
