<svg width="1439" height="921" viewBox="0 0 1439 921" fill="none" xmlns="http://www.w3.org/2000/svg">
<path d="M0 922V440.74C0 440.3 0.287312 439.912 0.707846 439.784L1438.71 0.394845C1439.35 0.198477 1440 0.679182 1440 1.35117V922C1440 922.552 1439.55 923 1439 923H1C0.447715 923 0 922.552 0 922Z" fill="#492DBC"/>
<path d="M1138.45 406.077C1138.45 407.71 1137.53 409.373 1135.67 410.707C1133.81 412.038 1131.14 412.923 1128.11 412.923C1125.07 412.923 1122.41 412.038 1120.55 410.707C1118.69 409.373 1117.77 407.71 1117.77 406.077C1117.77 404.444 1118.69 402.78 1120.55 401.447C1122.41 400.116 1125.07 399.231 1128.11 399.231C1131.14 399.231 1133.81 400.116 1135.67 401.447C1137.53 402.78 1138.45 404.444 1138.45 406.077Z" stroke="#6141E3" stroke-width="4"/>
<path d="M1007.67 195.538C1007.67 197.171 1006.75 198.835 1004.9 200.168C1003.04 201.499 1000.37 202.385 997.337 202.385C994.301 202.385 991.635 201.499 989.779 200.168C987.919 198.835 987 197.171 987 195.538C987 193.906 987.919 192.242 989.779 190.909C991.635 189.578 994.301 188.692 997.337 188.692C1000.37 188.692 1003.04 189.578 1004.9 190.909C1006.75 192.242 1007.67 193.906 1007.67 195.538Z" stroke="#6141E3" stroke-width="4"/>
<path d="M1113.77 266.308C1113.77 267.94 1112.85 269.604 1110.99 270.938C1109.14 272.268 1106.47 273.154 1103.44 273.154C1100.4 273.154 1097.73 272.268 1095.88 270.938C1094.02 269.604 1093.1 267.94 1093.1 266.308C1093.1 264.675 1094.02 263.011 1095.88 261.678C1097.73 260.347 1100.4 259.462 1103.44 259.462C1106.47 259.462 1109.14 260.347 1110.99 261.678C1112.85 263.011 1113.77 264.675 1113.77 266.308Z" stroke="#6141E3" stroke-width="4"/>
<path d="M1160.65 186.692C1160.65 188.325 1159.73 189.989 1157.87 191.322C1156.02 192.653 1153.35 193.538 1150.32 193.538C1147.28 193.538 1144.61 192.653 1142.76 191.322C1140.9 189.989 1139.98 188.325 1139.98 186.692C1139.98 185.06 1140.9 183.396 1142.76 182.062C1144.61 180.732 1147.28 179.846 1150.32 179.846C1153.35 179.846 1156.02 180.732 1157.87 182.062C1159.73 183.396 1160.65 185.06 1160.65 186.692Z" stroke="#6141E3" stroke-width="4"/>
<path d="M1306.23 154.846C1306.23 156.479 1305.31 158.143 1303.45 159.476C1301.59 160.807 1298.93 161.692 1295.89 161.692C1292.85 161.692 1290.19 160.807 1288.33 159.476C1286.47 158.143 1285.55 156.479 1285.55 154.846C1285.55 153.213 1286.47 151.55 1288.33 150.216C1290.19 148.885 1292.85 148 1295.89 148C1298.93 148 1301.59 148.885 1303.45 150.216C1305.31 151.55 1306.23 153.213 1306.23 154.846Z" stroke="#6141E3" stroke-width="4"/>
<path d="M1281.55 229.154C1281.55 230.787 1280.63 232.45 1278.77 233.784C1276.92 235.115 1274.25 236 1271.22 236C1268.18 236 1265.51 235.115 1263.66 233.784C1261.8 232.45 1260.88 230.787 1260.88 229.154C1260.88 227.521 1261.8 225.857 1263.66 224.524C1265.51 223.193 1268.18 222.308 1271.22 222.308C1274.25 222.308 1276.92 223.193 1278.77 224.524C1280.63 225.857 1281.55 227.521 1281.55 229.154Z" stroke="#6141E3" stroke-width="4"/>
<path d="M1362.98 284C1362.98 285.633 1362.06 287.297 1360.2 288.63C1358.34 289.961 1355.68 290.846 1352.64 290.846C1349.6 290.846 1346.94 289.961 1345.08 288.63C1343.22 287.297 1342.3 285.633 1342.3 284C1342.3 282.367 1343.22 280.703 1345.08 279.37C1346.94 278.039 1349.6 277.154 1352.64 277.154C1355.68 277.154 1358.34 278.039 1360.2 279.37C1362.06 280.703 1362.98 282.367 1362.98 284Z" stroke="#6141E3" stroke-width="4"/>
<path d="M1207.53 356.538C1207.53 358.171 1206.61 359.835 1204.75 361.168C1202.9 362.499 1200.23 363.385 1197.2 363.385C1194.16 363.385 1191.49 362.499 1189.64 361.168C1187.78 359.835 1186.86 358.171 1186.86 356.538C1186.86 354.906 1187.78 353.242 1189.64 351.909C1191.49 350.578 1194.16 349.692 1197.2 349.692C1200.23 349.692 1202.9 350.578 1204.75 351.909C1206.61 353.242 1207.53 354.906 1207.53 356.538Z" stroke="#6141E3" stroke-width="4"/>
<path d="M1375.31 388.385C1375.31 390.017 1374.4 391.681 1372.54 393.014C1370.68 394.345 1368.01 395.231 1364.98 395.231C1361.94 395.231 1359.28 394.345 1357.42 393.014C1355.56 391.681 1354.64 390.017 1354.64 388.385C1354.64 386.752 1355.56 385.088 1357.42 383.755C1359.28 382.424 1361.94 381.538 1364.98 381.538C1368.01 381.538 1370.68 382.424 1372.54 383.755C1374.4 385.088 1375.31 386.752 1375.31 388.385Z" stroke="#6141E3" stroke-width="4"/>
<path d="M1437 469.769C1437 471.402 1436.08 473.066 1434.22 474.399C1432.37 475.73 1429.7 476.615 1426.66 476.615C1423.63 476.615 1420.96 475.73 1419.11 474.399C1417.25 473.066 1416.33 471.402 1416.33 469.769C1416.33 468.137 1417.25 466.473 1419.11 465.139C1420.96 463.809 1423.63 462.923 1426.66 462.923C1429.7 462.923 1432.37 463.809 1434.22 465.139C1436.08 466.473 1437 468.137 1437 469.769Z" stroke="#6141E3" stroke-width="4"/>
<path d="M1291.42 452.077C1291.42 453.71 1290.5 455.373 1288.65 456.707C1286.79 458.038 1284.12 458.923 1281.09 458.923C1278.05 458.923 1275.38 458.038 1273.53 456.707C1271.67 455.373 1270.75 453.71 1270.75 452.077C1270.75 450.444 1271.67 448.78 1273.53 447.447C1275.38 446.116 1278.05 445.231 1281.09 445.231C1284.12 445.231 1286.79 446.116 1288.65 447.447C1290.5 448.78 1291.42 450.444 1291.42 452.077Z" stroke="#6141E3" stroke-width="4"/>
<path d="M1266.75 533.462C1266.75 535.094 1265.83 536.758 1263.97 538.091C1262.12 539.422 1259.45 540.308 1256.41 540.308C1253.38 540.308 1250.71 539.422 1248.86 538.091C1247 536.758 1246.08 535.094 1246.08 533.462C1246.08 531.829 1247 530.165 1248.86 528.832C1250.71 527.501 1253.38 526.615 1256.41 526.615C1259.45 526.615 1262.12 527.501 1263.97 528.832C1265.83 530.165 1266.75 531.829 1266.75 533.462Z" stroke="#6141E3" stroke-width="4"/>
<path d="M1437 643.154C1437 644.787 1436.08 646.45 1434.22 647.784C1432.37 649.115 1429.7 650 1426.66 650C1423.63 650 1420.96 649.115 1419.11 647.784C1417.25 646.45 1416.33 644.787 1416.33 643.154C1416.33 641.521 1417.25 639.857 1419.11 638.524C1420.96 637.193 1423.63 636.308 1426.66 636.308C1429.7 636.308 1432.37 637.193 1434.22 638.524C1436.08 639.857 1437 641.521 1437 643.154Z" stroke="#6141E3" stroke-width="4"/>
</svg>
