<svg width="1281" height="320" viewBox="0 0 1281 320" fill="none" xmlns="http://www.w3.org/2000/svg">
<path d="M0 323.952V133.545L1281 1V323.952H0Z" fill="#492DBC" stroke="black"/>
<path d="M1031.68 188.505C1031.68 188.589 1031.54 189.272 1029.89 190.052C1028.39 190.759 1026.18 191.25 1023.63 191.25C1021.08 191.25 1018.87 190.759 1017.37 190.052C1015.72 189.272 1015.58 188.589 1015.58 188.505C1015.58 188.422 1015.72 187.739 1017.37 186.959C1018.87 186.252 1021.08 185.76 1023.63 185.76C1026.18 185.76 1028.39 186.252 1029.89 186.959C1031.54 187.739 1031.68 188.422 1031.68 188.505Z" stroke="#6141E3" stroke-width="4"/>
<path d="M925.109 75.5724C925.109 75.6561 924.963 76.3391 923.31 77.119C921.813 77.8258 919.603 78.3175 917.054 78.3175C914.506 78.3175 912.296 77.8258 910.798 77.119C909.146 76.3391 909 75.6561 909 75.5724C909 75.4888 909.146 74.8058 910.798 74.0258C912.296 73.319 914.506 72.8273 917.054 72.8273C919.603 72.8273 921.813 73.319 923.31 74.0258C924.963 74.8058 925.109 75.4888 925.109 75.5724Z" stroke="#6141E3" stroke-width="4"/>
<path d="M1011.58 113.533C1011.58 113.617 1011.43 114.3 1009.78 115.08C1008.28 115.786 1006.07 116.278 1003.52 116.278C1000.97 116.278 998.764 115.786 997.266 115.08C995.614 114.3 995.468 113.617 995.468 113.533C995.468 113.449 995.614 112.766 997.266 111.986C998.764 111.28 1000.97 110.788 1003.52 110.788C1006.07 110.788 1008.28 111.28 1009.78 111.986C1011.43 112.766 1011.58 113.449 1011.58 113.533Z" stroke="#6141E3" stroke-width="4"/>
<path d="M1049.78 70.8274C1049.78 70.911 1049.64 71.594 1047.98 72.374C1046.49 73.0807 1044.28 73.5724 1041.73 73.5724C1039.18 73.5724 1036.97 73.0807 1035.47 72.374C1033.82 71.594 1033.67 70.911 1033.67 70.8274C1033.67 70.7437 1033.82 70.0607 1035.47 69.2808C1036.97 68.574 1039.18 68.0823 1041.73 68.0823C1044.28 68.0823 1046.49 68.574 1047.98 69.2808C1049.64 70.0607 1049.78 70.7437 1049.78 70.8274Z" stroke="#6141E3" stroke-width="4"/>
<path d="M1168.42 53.7451C1168.42 53.8287 1168.28 54.5117 1166.62 55.2917C1165.13 55.9985 1162.92 56.4902 1160.37 56.4902C1157.82 56.4902 1155.61 55.9985 1154.11 55.2917C1152.46 54.5117 1152.31 53.8287 1152.31 53.7451C1152.31 53.6614 1152.46 52.9784 1154.11 52.1985C1155.61 51.4917 1157.82 51 1160.37 51C1162.92 51 1165.13 51.4917 1166.62 52.1985C1168.28 52.9784 1168.42 53.6614 1168.42 53.7451Z" stroke="#6141E3" stroke-width="4"/>
<path d="M1148.31 93.6037C1148.31 93.6874 1148.17 94.3704 1146.52 95.1503C1145.02 95.8571 1142.81 96.3488 1140.26 96.3488C1137.71 96.3488 1135.5 95.8571 1134 95.1503C1132.35 94.3704 1132.21 93.6874 1132.21 93.6037C1132.21 93.5201 1132.35 92.8371 1134 92.0572C1135.5 91.3504 1137.71 90.8587 1140.26 90.8587C1142.81 90.8587 1145.02 91.3504 1146.52 92.0572C1148.17 92.8371 1148.31 93.5201 1148.31 93.6037Z" stroke="#6141E3" stroke-width="4"/>
<path d="M1214.67 123.023C1214.67 123.107 1214.53 123.79 1212.87 124.57C1211.38 125.277 1209.17 125.768 1206.62 125.768C1204.07 125.768 1201.86 125.277 1200.36 124.57C1198.71 123.79 1198.56 123.107 1198.56 123.023C1198.56 122.94 1198.71 122.257 1200.36 121.477C1201.86 120.77 1204.07 120.278 1206.62 120.278C1209.17 120.278 1211.38 120.77 1212.87 121.477C1214.53 122.257 1214.67 122.94 1214.67 123.023Z" stroke="#6141E3" stroke-width="4"/>
<path d="M1087.99 161.933C1087.99 162.016 1087.84 162.699 1086.19 163.479C1084.69 164.186 1082.48 164.678 1079.94 164.678C1077.39 164.678 1075.18 164.186 1073.68 163.479C1072.03 162.699 1071.88 162.016 1071.88 161.933C1071.88 161.849 1072.03 161.166 1073.68 160.386C1075.18 159.679 1077.39 159.188 1079.94 159.188C1082.48 159.188 1084.69 159.679 1086.19 160.386C1087.84 161.166 1087.99 161.849 1087.99 161.933Z" stroke="#6141E3" stroke-width="4"/>
<path d="M1224.73 179.015C1224.73 179.099 1224.58 179.782 1222.93 180.562C1221.43 181.268 1219.22 181.76 1216.67 181.76C1214.12 181.76 1211.92 181.268 1210.42 180.562C1208.77 179.782 1208.62 179.099 1208.62 179.015C1208.62 178.931 1208.77 178.248 1210.42 177.469C1211.92 176.762 1214.12 176.27 1216.67 176.27C1219.22 176.27 1221.43 176.762 1222.93 177.469C1224.58 178.248 1224.73 178.931 1224.73 179.015Z" stroke="#6141E3" stroke-width="4"/>
<path d="M1275 222.67C1275 222.753 1274.85 223.436 1273.2 224.216C1271.7 224.923 1269.49 225.415 1266.95 225.415C1264.4 225.415 1262.19 224.923 1260.69 224.216C1259.04 223.436 1258.89 222.753 1258.89 222.67C1258.89 222.586 1259.04 221.903 1260.69 221.123C1262.19 220.416 1264.4 219.925 1266.95 219.925C1269.49 219.925 1271.7 220.416 1273.2 221.123C1274.85 221.903 1275 222.586 1275 222.67Z" stroke="#6141E3" stroke-width="4"/>
<path d="M1156.36 213.18C1156.36 213.263 1156.21 213.946 1154.56 214.726C1153.06 215.433 1150.85 215.925 1148.3 215.925C1145.76 215.925 1143.55 215.433 1142.05 214.726C1140.4 213.946 1140.25 213.263 1140.25 213.18C1140.25 213.096 1140.4 212.413 1142.05 211.633C1143.55 210.926 1145.76 210.435 1148.3 210.435C1150.85 210.435 1153.06 210.926 1154.56 211.633C1156.21 212.413 1156.36 213.096 1156.36 213.18Z" stroke="#6141E3" stroke-width="4"/>
<path d="M1136.25 256.834C1136.25 256.918 1136.1 257.601 1134.45 258.381C1132.95 259.088 1130.74 259.579 1128.2 259.579C1125.65 259.579 1123.44 259.088 1121.94 258.381C1120.29 257.601 1120.14 256.918 1120.14 256.834C1120.14 256.751 1120.29 256.068 1121.94 255.288C1123.44 254.581 1125.65 254.089 1128.2 254.089C1130.74 254.089 1132.95 254.581 1134.45 255.288C1136.1 256.068 1136.25 256.751 1136.25 256.834Z" stroke="#6141E3" stroke-width="4"/>
<path d="M1275 315.673C1275 315.757 1274.85 316.44 1273.2 317.22C1271.7 317.927 1269.49 318.418 1266.95 318.418C1264.4 318.418 1262.19 317.927 1260.69 317.22C1259.04 316.44 1258.89 315.757 1258.89 315.673C1258.89 315.59 1259.04 314.907 1260.69 314.127C1262.19 313.42 1264.4 312.928 1266.95 312.928C1269.49 312.928 1271.7 313.42 1273.2 314.127C1274.85 314.907 1275 315.59 1275 315.673Z" stroke="#6141E3" stroke-width="4"/>
</svg>
