<svg width="312" height="298" viewBox="0 0 312 298" fill="none" xmlns="http://www.w3.org/2000/svg">
<path d="M312 227.909H0V228.058H312V227.909Z" fill="#EBEBEB"/>
<path d="M280.738 237.502H260.07V237.651H280.738V237.502Z" fill="#EBEBEB"/>
<path d="M206.681 239.12H201.257V239.269H206.681V239.12Z" fill="#EBEBEB"/>
<path d="M259.446 231.968H247.47V232.117H259.446V231.968Z" fill="#EBEBEB"/>
<path d="M59.6868 232.969H32.7344V233.118H59.6868V232.969Z" fill="#EBEBEB"/>
<path d="M69.195 232.969H65.2432V233.118H69.195V232.969Z" fill="#EBEBEB"/>
<path d="M140.492 235.486H82.0381V235.635H140.492V235.486Z" fill="#EBEBEB"/>
<path d="M147.897 201.329H27.4031C25.4394 201.329 23.8413 199.802 23.8413 197.927V36.1534C23.8413 34.2778 25.4394 32.7514 27.4031 32.7514H147.897C149.86 32.7514 151.458 34.2778 151.458 36.1534V197.927C151.458 199.802 149.86 201.329 147.897 201.329ZM27.4031 32.901C25.5249 32.901 23.9973 34.36 23.9973 36.154V197.927C23.9973 199.721 25.5249 201.18 27.4031 201.18H147.897C149.774 201.18 151.302 199.721 151.302 197.927V36.1534C151.302 34.36 149.774 32.9004 147.897 32.9004L27.4031 32.901Z" fill="#EBEBEB"/>
<path d="M282.865 201.329H162.372C160.408 201.329 158.811 199.802 158.811 197.927V36.1534C158.811 34.2778 160.409 32.7514 162.372 32.7514H282.865C284.83 32.7514 286.427 34.2778 286.427 36.1534V197.927C286.428 199.802 284.83 201.329 282.865 201.329ZM162.372 32.901C160.495 32.901 158.967 34.36 158.967 36.154V197.927C158.967 199.721 160.495 201.18 162.372 201.18H282.865C284.744 201.18 286.271 199.721 286.271 197.927V36.1534C286.271 34.36 284.744 32.9004 282.865 32.9004L162.372 32.901Z" fill="#EBEBEB"/>
<path d="M113.61 177.21H173.001L173.001 49.4207H113.61L113.61 177.21Z" fill="#EBEBEB"/>
<path d="M170.761 174.813L170.761 51.8175L115.851 51.8175L115.851 174.813H170.761Z" fill="#FAFAFA"/>
<path d="M142.675 176.012H143.938L143.938 51.2019H142.675L142.675 176.012Z" fill="#F5F5F5"/>
<path d="M112.24 53.772L174.373 53.772V47.7577L112.24 47.7577V53.772Z" fill="#E0E0E0"/>
<path d="M112.24 55.1508L174.373 55.1508V54.4379L112.24 54.4379V55.1508Z" fill="#F5F5F5"/>
<path d="M112.24 56.7689L174.373 56.7689V56.0561L112.24 56.0561V56.7689Z" fill="#F5F5F5"/>
<path d="M112.24 58.3865L174.373 58.3865V57.6737L112.24 57.6737V58.3865Z" fill="#F5F5F5"/>
<path d="M112.24 60.0046L174.373 60.0046V59.2918L112.24 59.2918V60.0046Z" fill="#F5F5F5"/>
<path d="M112.24 61.6221L174.373 61.6221V60.9093L112.24 60.9093V61.6221Z" fill="#F5F5F5"/>
<path d="M112.24 63.2402L174.373 63.2402V62.5274L112.24 62.5274V63.2402Z" fill="#F5F5F5"/>
<path d="M112.24 64.8579L174.373 64.8579V64.1451L112.24 64.1451V64.8579Z" fill="#F5F5F5"/>
<path d="M112.24 66.4761L174.373 66.4761V65.7633L112.24 65.7633V66.4761Z" fill="#F5F5F5"/>
<path d="M112.24 68.0936L174.373 68.0936V67.3808L112.24 67.3808V68.0936Z" fill="#F5F5F5"/>
<path d="M112.24 69.7111L174.373 69.7111V68.9983L112.24 68.9983V69.7111Z" fill="#F5F5F5"/>
<path d="M112.24 71.3293L174.373 71.3293V70.6165L112.24 70.6165V71.3293Z" fill="#F5F5F5"/>
<path d="M112.24 72.9468L174.373 72.9468V72.234L112.24 72.234V72.9468Z" fill="#F5F5F5"/>
<path d="M112.24 74.5649L174.373 74.5649V73.8521L112.24 73.8521V74.5649Z" fill="#F5F5F5"/>
<path d="M112.24 76.1826L174.373 76.1826V75.4697L112.24 75.4697V76.1826Z" fill="#F5F5F5"/>
<path d="M112.24 77.8007L174.373 77.8007V77.0878L112.24 77.0878V77.8007Z" fill="#F5F5F5"/>
<path d="M112.24 79.4183L174.373 79.4183V78.7055L112.24 78.7055V79.4183Z" fill="#F5F5F5"/>
<path d="M112.24 81.0364L174.373 81.0364V80.3236L112.24 80.3236V81.0364Z" fill="#F5F5F5"/>
<path d="M112.24 82.654L174.373 82.654V81.9412L112.24 81.9412V82.654Z" fill="#F5F5F5"/>
<path d="M43.2959 177.21H102.687L102.687 49.4207H43.2959L43.2959 177.21Z" fill="#EBEBEB"/>
<path d="M100.446 174.813L100.446 51.8174L45.5357 51.8174L45.5357 174.813H100.446Z" fill="#FAFAFA"/>
<path d="M72.3597 176.012H73.6221L73.6221 51.2019H72.3597L72.3597 176.012Z" fill="#F5F5F5"/>
<path d="M41.9248 53.772L104.057 53.772V47.7577L41.9248 47.7577V53.772Z" fill="#E0E0E0"/>
<path d="M41.9248 55.1507L104.057 55.1507V54.4379L41.9248 54.4379V55.1507Z" fill="#F5F5F5"/>
<path d="M41.9248 56.7689L104.057 56.7689V56.056L41.9248 56.056V56.7689Z" fill="#F5F5F5"/>
<path d="M41.9248 58.3864L104.057 58.3864V57.6736L41.9248 57.6736V58.3864Z" fill="#F5F5F5"/>
<path d="M41.9248 60.0046L104.057 60.0046V59.2918L41.9248 59.2918V60.0046Z" fill="#F5F5F5"/>
<path d="M41.9248 61.6221L104.057 61.6221V60.9093L41.9248 60.9093V61.6221Z" fill="#F5F5F5"/>
<path d="M41.9248 63.2402L104.057 63.2402V62.5274L41.9248 62.5274V63.2402Z" fill="#F5F5F5"/>
<path d="M41.9248 64.8578L104.057 64.8578V64.145L41.9248 64.145V64.8578Z" fill="#F5F5F5"/>
<path d="M41.9248 66.476L104.057 66.476V65.7632L41.9248 65.7632V66.476Z" fill="#F5F5F5"/>
<path d="M41.9248 68.0935L104.057 68.0935V67.3807L41.9248 67.3807V68.0935Z" fill="#F5F5F5"/>
<path d="M41.9248 69.7111L104.057 69.7111V68.9982L41.9248 68.9982V69.7111Z" fill="#F5F5F5"/>
<path d="M41.9248 71.3292L104.057 71.3292V70.6164L41.9248 70.6164V71.3292Z" fill="#F5F5F5"/>
<path d="M41.9248 72.9468L104.057 72.9468V72.234L41.9248 72.234V72.9468Z" fill="#F5F5F5"/>
<path d="M41.9248 74.5649L104.057 74.5649V73.8521L41.9248 73.8521V74.5649Z" fill="#F5F5F5"/>
<path d="M41.9248 76.1825L104.057 76.1825V75.4697L41.9248 75.4697V76.1825Z" fill="#F5F5F5"/>
<path d="M41.9248 77.8006L104.057 77.8006V77.0878L41.9248 77.0878V77.8006Z" fill="#F5F5F5"/>
<path d="M41.9248 79.4182L104.057 79.4182V78.7054L41.9248 78.7054V79.4182Z" fill="#F5F5F5"/>
<path d="M41.9248 81.0364L104.057 81.0364V80.3236L41.9248 80.3236V81.0364Z" fill="#F5F5F5"/>
<path d="M41.9248 82.6539L104.057 82.6539V81.9411L41.9248 81.9411V82.6539Z" fill="#F5F5F5"/>
<path d="M270.075 103.676V48.2087L195.341 48.2087V103.676L270.075 103.676Z" fill="#E0E0E0"/>
<path d="M269.04 49.1981H196.378V102.687H269.04V49.1981Z" fill="#EBEBEB"/>
<path d="M233.928 58.8604V66.3194" stroke="#E0E0E0" stroke-width="1.0351" stroke-miterlimit="10"/>
<path d="M251.686 90.3316V66.3193H218.723V80.0935" stroke="#E0E0E0" stroke-width="1.0351" stroke-miterlimit="10"/>
<path d="M227.252 87.4243V80.0935H209.131V87.6806" stroke="#E0E0E0" stroke-width="1.0351" stroke-miterlimit="10"/>
<path d="M225.593 61.601H242.263V56.1196H225.593V61.601Z" fill="#F5F5F5"/>
<path d="M210.533 75.2253H226.421V69.2713H210.533V75.2253Z" fill="#F5F5F5"/>
<path d="M221.795 90.4958H232.708V84.3535H221.795V90.4958Z" fill="#F5F5F5"/>
<path d="M203.288 90.0131H214.975V85.3476H203.288V90.0131Z" fill="#F5F5F5"/>
<path d="M241.304 78.4867H259.354V70.5319H241.304V78.4867Z" fill="#F5F5F5"/>
<path d="M245.921 93.2385H257.449V87.4245H245.921V93.2385Z" fill="#F5F5F5"/>
<path d="M233.931 68.8914L236.42 66.5141L233.931 64.1368L231.442 66.5141L233.931 68.8914Z" fill="#F5F5F5"/>
<path d="M218.726 82.4701L221.215 80.0928L218.726 77.7155L216.237 80.0928L218.726 82.4701Z" fill="#F5F5F5"/>
<path d="M235.143 198.06C235.151 197.817 236.011 173.583 240.138 169.75C244.152 166.023 248.759 169.611 248.953 169.765L249.366 169.291C249.314 169.249 244.115 165.196 239.687 169.307C235.375 173.312 234.531 197.032 234.498 198.04L235.143 198.06Z" fill="#E0E0E0"/>
<path d="M234.789 202.823C234.818 202.533 237.61 173.73 226.597 161.659L226.11 162.064C236.94 173.935 234.175 202.476 234.146 202.763L234.789 202.823Z" fill="#E0E0E0"/>
<path d="M235.196 199.776L235.841 199.735C235.818 199.409 233.685 166.991 241.764 159.894L241.326 159.44C233.022 166.736 235.103 198.431 235.196 199.776Z" fill="#E0E0E0"/>
<path d="M234.144 199.758L234.79 199.753C234.782 198.86 234.524 177.856 228.277 174.437C226.889 173.676 225.529 173.549 224.235 174.06C220.458 175.552 218.586 181.973 218.508 182.246L219.132 182.408C219.15 182.344 220.998 176.007 224.483 174.63C225.582 174.197 226.75 174.312 227.956 174.972C233.884 178.217 234.143 199.543 234.144 199.758Z" fill="#E0E0E0"/>
<path d="M236.577 199.773L237.221 199.738C237.211 199.572 236.279 183.14 240.922 177.35C242.047 175.948 243.269 175.279 244.559 175.365C247.601 175.568 250.153 179.82 250.177 179.863L250.74 179.559C250.63 179.373 247.994 174.976 244.605 174.75C243.089 174.647 241.676 175.397 240.41 176.975C235.621 182.946 236.536 199.09 236.577 199.773Z" fill="#E0E0E0"/>
<path d="M235.559 202.008C235.686 200.414 238.594 162.893 233.476 156.281L232.957 156.648C237.933 163.077 234.946 201.573 234.915 201.961L235.559 202.008Z" fill="#E0E0E0"/>
<path d="M222.844 177.863C222.844 177.863 225.914 178.944 225.002 181.496C224.089 184.049 214.38 188.25 214.38 188.25C214.38 188.25 210.314 184.69 214.048 178.9C217.781 173.111 222.761 176.037 222.844 177.863Z" fill="#EBEBEB"/>
<path d="M236.191 173.005C236.191 173.005 232.921 172.874 232.736 175.565C232.55 178.256 239.819 185.702 239.819 185.702C239.819 185.702 245.006 183.911 243.892 177.195C242.778 170.479 237.004 171.349 236.191 173.005Z" fill="#EBEBEB"/>
<path d="M238.96 160.121C238.96 160.121 236.78 159.898 236.955 158.63C237.131 157.361 245.429 154.098 250.325 159.375C250.325 159.375 247.19 164.519 242.658 164.586C238.126 164.653 238.96 160.121 238.96 160.121Z" fill="#EBEBEB"/>
<path d="M234.898 157.042C234.898 157.042 236.872 157.953 237.425 156.789C237.978 155.623 232.743 148.662 225.665 150.668C225.665 150.668 225.477 156.617 229.286 158.963C233.095 161.309 234.898 157.042 234.898 157.042Z" fill="#EBEBEB"/>
<path d="M245.219 176.837C245.219 176.837 243.714 175.677 245.338 175.111C246.961 174.545 254.928 174.706 255.011 182.243C255.011 182.243 245.733 183.715 244.584 180.844C243.435 177.973 245.219 176.837 245.219 176.837Z" fill="#EBEBEB"/>
<path d="M226.298 159.932C226.298 159.932 227.803 158.772 226.179 158.206C224.555 157.64 216.589 157.801 216.506 165.338C216.506 165.338 225.784 166.81 226.933 163.939C228.081 161.068 226.298 159.932 226.298 159.932Z" fill="#EBEBEB"/>
<path d="M231.203 166.004C231.203 166.004 231.335 164.594 230.143 165.146C228.951 165.699 224.798 169.979 229.103 174.039C229.103 174.039 234.898 169.94 233.854 167.805C232.809 165.671 231.203 166.004 231.203 166.004Z" fill="#EBEBEB"/>
<path d="M246.563 168.014C246.563 168.014 245.664 166.888 246.981 166.748C248.298 166.609 254.201 168.114 252.826 173.742C252.826 173.742 245.635 173.226 245.327 170.888C245.019 168.55 246.563 168.014 246.563 168.014Z" fill="#EBEBEB"/>
<path d="M222.27 220.649H246.943L249.604 194.848H219.608L222.27 220.649Z" fill="#F0F0F0"/>
<path d="M218.291 197.695H250.921V192.001H218.291V197.695Z" fill="#E6E6E6"/>
<path d="M156 254.826C222.819 254.826 276.987 251.805 276.987 248.078C276.987 244.351 222.819 241.329 156 241.329C89.1808 241.329 35.0132 244.351 35.0132 248.078C35.0132 251.805 89.1808 254.826 156 254.826Z" fill="#F5F5F5"/>
<path d="M237.084 97.6585C244.269 90.7956 244.269 79.6687 237.084 72.8059C229.898 65.943 218.249 65.943 211.063 72.8058C203.878 79.6687 203.878 90.7956 211.063 97.6585C218.249 104.521 229.898 104.521 237.084 97.6585Z" fill="#407BFF"/>
<path opacity="0.5" d="M237.084 97.6585C244.269 90.7956 244.269 79.6687 237.084 72.8059C229.898 65.943 218.249 65.943 211.063 72.8058C203.878 79.6687 203.878 90.7956 211.063 97.6585C218.249 104.521 229.898 104.521 237.084 97.6585Z" fill="white"/>
<path d="M233.66 72.7442V94.0214L229.782 97.7184H214.49V72.7442H233.66Z" fill="#263238"/>
<path opacity="0.9" d="M233.66 72.7442V94.0214L229.782 97.7184H214.49V72.7442H233.66Z" fill="white"/>
<path opacity="0.2" d="M233.66 94.0214L229.782 97.7184V94.0214H233.66Z" fill="black"/>
<g opacity="0.2">
<path d="M231.35 75.6295H219.003V76.331H231.35V75.6295Z" fill="black"/>
<path d="M231.35 77.3865H216.8V78.088H231.35V77.3865Z" fill="black"/>
<path d="M231.35 79.1447H216.8V79.8461H231.35V79.1447Z" fill="black"/>
<path d="M221.802 80.9023H216.8V81.6038H221.802V80.9023Z" fill="black"/>
<path d="M231.35 82.6599H219.003V83.3613H231.35V82.6599Z" fill="black"/>
<path d="M231.35 84.4169H216.8V85.1184H231.35V84.4169Z" fill="black"/>
<path d="M231.35 86.1751H216.8V86.8766H231.35V86.1751Z" fill="black"/>
<path d="M231.35 87.9327H216.8V88.6342H231.35V87.9327Z" fill="black"/>
<path d="M231.35 89.6903H216.8V90.3918H231.35V89.6903Z" fill="black"/>
<path d="M226.209 91.4479H216.8V92.1494H226.209V91.4479Z" fill="black"/>
</g>
<path d="M234.207 68.4697C243.899 73.814 247.22 85.6512 241.624 94.9083C236.029 104.165 223.635 107.337 213.943 101.992C204.251 96.648 200.93 84.8108 206.526 75.5537C212.122 66.2967 224.515 63.1254 234.207 68.4697Z" stroke="#407BFF" stroke-width="1.0415" stroke-miterlimit="10" stroke-dasharray="12.88 5.37 2.15 12.88 5.37 2.15"/>
<path d="M223.66 104.584V109.073L207.991 124.04" stroke="#407BFF" stroke-width="1.0415" stroke-miterlimit="10"/>
<path d="M207.991 125.783C207.487 126.265 206.669 126.265 206.165 125.783C205.661 125.302 205.661 124.521 206.165 124.04C206.669 123.558 207.487 123.558 207.991 124.04C208.495 124.521 208.495 125.302 207.991 125.783Z" stroke="#407BFF" stroke-width="1.0415" stroke-miterlimit="10"/>
<path d="M115.061 70.7059C122.246 63.843 122.246 52.7161 115.061 45.8532C107.876 38.9903 96.2262 38.9903 89.0409 45.8532C81.8556 52.7161 81.8556 63.843 89.0409 70.7059C96.2262 77.5687 107.876 77.5688 115.061 70.7059Z" fill="#407BFF"/>
<path opacity="0.5" d="M115.061 70.7059C122.246 63.843 122.246 52.7161 115.061 45.8532C107.876 38.9903 96.2262 38.9903 89.0409 45.8532C81.8556 52.7161 81.8556 63.843 89.0409 70.7059C96.2262 77.5687 107.876 77.5688 115.061 70.7059Z" fill="white"/>
<path d="M112.184 41.5173C121.876 46.8617 125.197 58.6988 119.601 67.9559C114.005 77.2129 101.612 80.3849 91.9201 75.0399C82.2282 69.695 78.9072 57.8584 84.5026 48.6008C90.0987 39.3449 102.492 36.173 112.184 41.5173Z" stroke="#407BFF" stroke-width="1.0415" stroke-miterlimit="10" stroke-dasharray="12.88 5.37 2.15 12.88 5.37 2.15"/>
<path d="M102.965 86.9987C102.461 87.4803 101.643 87.4803 101.138 86.9987C100.634 86.5171 100.634 85.7364 101.138 85.2548C101.643 84.7732 102.46 84.7732 102.965 85.2548C103.469 85.7358 103.469 86.5171 102.965 86.9987Z" stroke="#407BFF" stroke-width="1.0415" stroke-miterlimit="10"/>
<path d="M102.052 84.893V77.6087" stroke="#407BFF" stroke-width="1.0415" stroke-miterlimit="10"/>
<path opacity="0.9" d="M106.643 66.4922C106.643 68.8196 104.667 70.7071 102.23 70.7071C100.015 70.7071 98.1881 69.1551 97.8692 67.1317C97.8305 66.9267 97.8105 66.7097 97.8105 66.4922C97.8105 64.1708 99.7599 62.2963 102.184 62.2713H102.23C104.667 62.2713 106.643 64.1582 106.643 66.4922Z" fill="white"/>
<path opacity="0.1" d="M106.145 66.4898C106.145 68.5561 104.391 70.2315 102.227 70.2315C100.064 70.2315 98.3091 68.5561 98.3091 66.4898C98.3091 64.4235 100.063 62.7481 102.227 62.7481C104.391 62.7475 106.145 64.4229 106.145 66.4898Z" fill="black"/>
<path d="M102.925 71.0863V64.4697H103.349V71.0863H102.925ZM104.352 66.4547C104.321 66.1928 104.195 65.9895 103.975 65.8447C103.754 65.7 103.484 65.6276 103.163 65.6276C102.929 65.6276 102.724 65.6655 102.548 65.7413C102.374 65.8172 102.238 65.9214 102.14 66.0541C102.043 66.1868 101.995 66.3375 101.995 66.5064C101.995 66.6477 102.029 66.7692 102.096 66.8708C102.165 66.9708 102.253 67.0543 102.359 67.1215C102.466 67.187 102.578 67.2413 102.695 67.2843C102.813 67.3257 102.92 67.3593 103.018 67.3851L103.556 67.5299C103.694 67.5661 103.847 67.616 104.016 67.6798C104.187 67.7435 104.35 67.8306 104.505 67.9408C104.661 68.0494 104.791 68.189 104.892 68.3595C104.994 68.5301 105.045 68.7395 105.045 68.9876C105.045 69.2736 104.97 69.5321 104.82 69.763C104.672 69.9939 104.455 70.1774 104.169 70.3135C103.884 70.4496 103.539 70.5177 103.132 70.5177C102.753 70.5177 102.425 70.4565 102.147 70.3342C101.872 70.2118 101.655 70.0412 101.496 69.8224C101.339 69.6036 101.251 69.3494 101.23 69.06H101.892C101.909 69.2598 101.976 69.4252 102.093 69.5562C102.212 69.6854 102.362 69.7819 102.543 69.8457C102.726 69.9077 102.922 69.9387 103.132 69.9387C103.377 69.9387 103.597 69.8991 103.791 69.8198C103.986 69.7388 104.14 69.6268 104.254 69.4838C104.368 69.3391 104.424 69.1702 104.424 68.9773C104.424 68.8015 104.375 68.6585 104.277 68.5482C104.179 68.4379 104.05 68.3483 103.889 68.2794C103.729 68.2105 103.556 68.1502 103.37 68.0985L102.719 67.9124C102.305 67.7935 101.978 67.6238 101.737 67.4032C101.495 67.1827 101.375 66.8941 101.375 66.5374C101.375 66.241 101.455 65.9826 101.615 65.762C101.777 65.5397 101.994 65.3674 102.266 65.2451C102.54 65.121 102.846 65.059 103.184 65.059C103.525 65.059 103.828 65.1202 104.094 65.2425C104.359 65.3631 104.569 65.5285 104.724 65.7388C104.881 65.949 104.964 66.1876 104.972 66.4547H104.352Z" fill="white"/>
<path opacity="0.1" d="M102.185 62.2713C102.145 62.6253 102.074 62.9662 101.964 63.3018C101.366 65.1452 99.8192 66.5977 97.8692 67.1317C97.8305 66.9267 97.8105 66.7097 97.8105 66.4922C97.8105 64.1708 99.7605 62.2963 102.185 62.2713Z" fill="black"/>
<path opacity="0.9" d="M102.23 60.1609C102.23 60.7503 102.139 61.3219 101.964 61.8618C101.203 64.2083 98.9094 65.9212 96.1994 65.9212C92.866 65.9212 90.1685 63.3387 90.1685 60.1609C90.1685 56.983 92.8654 54.4005 96.1994 54.4005C96.9663 54.4005 97.6945 54.537 98.3703 54.7855C100.625 55.6169 102.23 57.7155 102.23 60.1609Z" fill="white"/>
<path opacity="0.1" d="M101.546 60.1609C101.546 62.9817 99.1518 65.2692 96.1978 65.2692C93.2444 65.2692 90.8501 62.9823 90.8501 60.1609C90.8501 57.34 93.2444 55.0532 96.1978 55.0532C99.1518 55.0526 101.546 57.3394 101.546 60.1609Z" fill="black"/>
<path d="M97.1519 66.88V57.8479H97.7305V66.88H97.1519ZM99.0995 60.5575C99.0571 60.2 98.8854 59.9224 98.5844 59.7248C98.2833 59.5273 97.914 59.4285 97.4765 59.4285C97.1566 59.4285 96.8767 59.4802 96.6368 59.5837C96.3993 59.6872 96.2134 59.8295 96.0794 60.0106C95.9476 60.1917 95.8818 60.3975 95.8818 60.6281C95.8818 60.8209 95.9277 60.9868 96.0194 61.1255C96.1135 61.2619 96.2334 61.376 96.3793 61.4678C96.5251 61.5571 96.678 61.6312 96.8379 61.69C96.9979 61.7465 97.1449 61.7923 97.2789 61.8276L98.0128 62.0252C98.201 62.0746 98.4103 62.1428 98.6408 62.2298C98.8737 62.3169 99.0959 62.4356 99.3076 62.5862C99.5217 62.7344 99.6981 62.9249 99.8369 63.1577C99.9756 63.3906 100.045 63.6764 100.045 64.0151C100.045 64.4055 99.9427 64.7584 99.7381 65.0735C99.5358 65.3887 99.2394 65.6392 98.849 65.825C98.4609 66.0109 97.9893 66.1038 97.4342 66.1038C96.9167 66.1038 96.4686 66.0203 96.09 65.8533C95.7136 65.6863 95.4172 65.4534 95.2009 65.1547C94.9868 64.856 94.8657 64.509 94.8375 64.1139H95.7407C95.7642 64.3867 95.8559 64.6125 96.0159 64.7913C96.1782 64.9677 96.3828 65.0994 96.6298 65.1864C96.8791 65.2711 97.1472 65.3135 97.4342 65.3135C97.7682 65.3135 98.0681 65.2594 98.3339 65.1512C98.5997 65.0406 98.8102 64.8877 98.9654 64.6925C99.1206 64.4949 99.1983 64.2644 99.1983 64.001C99.1983 63.7611 99.1312 63.5658 98.9972 63.4153C98.8631 63.2648 98.6867 63.1425 98.4679 63.0484C98.2492 62.9543 98.0128 62.872 97.7588 62.8014L96.8697 62.5474C96.3052 62.3851 95.8583 62.1534 95.529 61.8523C95.1997 61.5513 95.035 61.1573 95.035 60.6704C95.035 60.2658 95.1444 59.913 95.3632 59.6119C95.5842 59.3085 95.8806 59.0733 96.2522 58.9063C96.6262 58.737 97.0437 58.6523 97.5047 58.6523C97.9705 58.6523 98.3844 58.7358 98.7467 58.9028C99.1089 59.0674 99.3958 59.2932 99.6075 59.5802C99.8216 59.8671 99.9345 60.1929 99.9462 60.5575H99.0995Z" fill="white"/>
<path opacity="0.1" d="M102.23 60.1608C102.23 60.7503 102.139 61.3219 101.964 61.8618C99.7736 60.5953 98.3115 58.2924 98.3115 55.667C98.3115 55.369 98.3309 55.0776 98.3702 54.7855C100.625 55.6169 102.23 57.7155 102.23 60.1608Z" fill="black"/>
<path opacity="0.9" d="M113.854 54.357C113.854 58.3579 110.458 61.6008 106.27 61.6008C102.081 61.6008 98.686 58.3573 98.686 54.357C98.686 50.356 102.082 47.1126 106.27 47.1126C110.458 47.1132 113.854 50.356 113.854 54.357Z" fill="white"/>
<path opacity="0.1" d="M112.997 54.357C112.997 57.9056 109.985 60.7825 106.269 60.7825C102.554 60.7825 99.542 57.9056 99.542 54.357C99.542 50.8084 102.554 47.9315 106.269 47.9315C109.985 47.9315 112.997 50.8084 112.997 54.357Z" fill="black"/>
<path d="M107.47 62.2304V50.8688H108.197V62.2304H107.47ZM109.919 54.2773C109.866 53.8276 109.65 53.4785 109.272 53.2299C108.893 52.9814 108.428 52.8571 107.878 52.8571C107.476 52.8571 107.123 52.9222 106.822 53.0524C106.523 53.1826 106.289 53.3616 106.12 53.5894C105.955 53.8172 105.872 54.0761 105.872 54.3661C105.872 54.6087 105.93 54.8173 106.045 54.9918C106.163 55.1635 106.314 55.307 106.498 55.4223C106.681 55.5348 106.873 55.628 107.075 55.7019C107.276 55.773 107.461 55.8306 107.629 55.875L108.553 56.1236C108.789 56.1857 109.053 56.2715 109.343 56.381C109.635 56.4904 109.915 56.6399 110.181 56.8292C110.451 57.0156 110.672 57.2553 110.847 57.5482C111.022 57.8411 111.109 58.2006 111.109 58.6267C111.109 59.1178 110.98 59.5616 110.723 59.9581C110.468 60.3546 110.096 60.6697 109.604 60.9034C109.116 61.1371 108.523 61.254 107.825 61.254C107.174 61.254 106.61 61.149 106.134 60.9389C105.66 60.7288 105.288 60.4359 105.015 60.0602C104.746 59.6844 104.594 59.248 104.558 58.7509H105.694C105.724 59.0941 105.839 59.3782 106.041 59.603C106.245 59.8249 106.502 59.9906 106.813 60.1001C107.126 60.2066 107.464 60.2599 107.825 60.2599C108.245 60.2599 108.622 60.1918 108.956 60.0557C109.291 59.9167 109.556 59.7243 109.751 59.4788C109.946 59.2302 110.044 58.9403 110.044 58.6089C110.044 58.3071 109.959 58.0615 109.791 57.8722C109.622 57.6828 109.4 57.529 109.125 57.4106C108.85 57.2923 108.553 57.1887 108.233 57.0999L107.115 56.7804C106.404 56.5762 105.842 56.2848 105.428 55.9061C105.014 55.5274 104.807 55.0318 104.807 54.4193C104.807 53.9104 104.944 53.4666 105.22 53.0879C105.498 52.7062 105.87 52.4103 106.338 52.2003C106.808 51.9872 107.334 51.8807 107.913 51.8807C108.499 51.8807 109.02 51.9858 109.476 52.1958C109.931 52.403 110.292 52.687 110.559 53.048C110.828 53.4089 110.97 53.8187 110.985 54.2773H109.919Z" fill="white"/>
<path d="M268.537 129.616H215.061V247.871H268.537V129.616Z" fill="#407BFF"/>
<path opacity="0.5" d="M268.537 129.616H215.061V247.871H268.537V129.616Z" fill="white"/>
<path opacity="0.2" d="M215.061 129.616V247.871H245.569V129.616H215.061ZM243.517 243.7H217.035V222.871H243.517V243.7ZM243.517 220.924H217.035V200.094H243.517V220.924ZM243.517 198.147H217.035V177.318H243.517V198.147ZM243.517 175.371H217.035V154.541H243.517V175.371ZM243.517 152.595H217.035V131.765H243.517V152.595Z" fill="white"/>
<path opacity="0.2" d="M243.515 154.541H217.035V166.263H243.515V154.541Z" fill="black"/>
<path opacity="0.2" d="M243.517 172.995L215.06 192.885L214.808 173.896L243.517 172.995Z" fill="black"/>
<path d="M225.613 140.97C225.284 140.97 225.017 141.225 225.017 141.54V143.692H225.65V143.259C225.65 142.944 225.917 142.69 226.246 142.69H232.67C232.999 142.69 233.266 142.945 233.266 143.259V143.692H233.898V141.54C233.898 141.225 233.631 140.97 233.302 140.97H225.613Z" fill="#407BFF"/>
<path opacity="0.2" d="M233.298 136.396H225.617V139.62H233.298V136.396Z" fill="white"/>
<path d="M225.613 186.565C225.284 186.565 225.017 186.82 225.017 187.135V189.287H225.65V188.854C225.65 188.539 225.917 188.285 226.246 188.285H232.67C232.999 188.285 233.266 188.54 233.266 188.854V189.287H233.898V187.135C233.898 186.82 233.631 186.565 233.302 186.565H225.613Z" fill="#407BFF"/>
<path opacity="0.2" d="M233.298 181.992H225.617V185.215H233.298V181.992Z" fill="white"/>
<path d="M225.613 209.219C225.284 209.219 225.017 209.474 225.017 209.788V211.941H225.65V211.507C225.65 211.193 225.917 210.937 226.246 210.937H232.67C232.999 210.937 233.266 211.193 233.266 211.507V211.941H233.898V209.788C233.898 209.474 233.631 209.219 233.302 209.219H225.613Z" fill="#407BFF"/>
<path opacity="0.2" d="M233.298 204.645H225.617V207.868H233.298V204.645Z" fill="white"/>
<path d="M225.613 231.501C225.284 231.501 225.017 231.756 225.017 232.07V234.223H225.65V233.789C225.65 233.475 225.917 233.22 226.246 233.22H232.67C232.999 233.22 233.266 233.475 233.266 233.789V234.223H233.898V232.07C233.898 231.756 233.631 231.501 233.302 231.501H225.613Z" fill="#407BFF"/>
<path opacity="0.2" d="M233.298 226.927H225.617V230.15H233.298V226.927Z" fill="white"/>
<path d="M243.514 157.127V171.131H223.037V158.065C223.037 157.804 223.141 157.574 223.316 157.407C223.492 157.233 223.745 157.127 224.018 157.127H234.618C235.021 157.127 235.385 156.885 235.528 156.525L235.827 155.78L235.84 155.749C235.899 155.6 236.055 155.501 236.223 155.501H242.585C242.754 155.501 242.91 155.6 242.968 155.749L243.514 157.127Z" fill="#407BFF"/>
<path opacity="0.2" d="M241.799 157.407V171.131H223.037V158.065C223.037 157.804 223.141 157.574 223.316 157.407H232.895C233.162 157.407 233.415 157.301 233.59 157.127H234.617C235.021 157.127 235.384 156.885 235.527 156.525L235.826 155.78H240.863C241.038 155.78 241.188 155.88 241.253 156.035L241.799 157.407Z" fill="black"/>
<path d="M240.554 158.109V172.113H220.076V159.047C220.076 158.786 220.18 158.556 220.356 158.389C220.531 158.215 220.784 158.109 221.058 158.109H231.658C232.061 158.109 232.425 157.867 232.567 157.507L232.866 156.762L232.879 156.731C232.938 156.582 233.094 156.483 233.263 156.483H239.625C239.794 156.483 239.95 156.582 240.008 156.731L240.554 158.109Z" fill="#407BFF"/>
<path opacity="0.2" d="M238.839 158.389V172.113H220.076V159.047C220.076 158.786 220.18 158.556 220.356 158.389H229.935C230.201 158.389 230.455 158.283 230.631 158.109H231.658C232.061 158.109 232.425 157.867 232.567 157.507L232.866 156.762H237.903C238.078 156.762 238.228 156.862 238.293 157.017L238.839 158.389Z" fill="black"/>
<path d="M237.594 159.092V173.095H217.116V160.029C217.116 159.769 217.22 159.539 217.395 159.371C217.571 159.197 217.824 159.092 218.097 159.092H228.697C229.1 159.092 229.464 158.85 229.607 158.49L229.906 157.745L229.919 157.714C229.978 157.565 230.133 157.465 230.302 157.465H236.664C236.833 157.465 236.99 157.565 237.048 157.714L237.594 159.092Z" fill="#407BFF"/>
<path opacity="0.2" d="M235.878 159.371V173.095H217.115V160.029C217.115 159.769 217.219 159.539 217.395 159.371H226.974C227.24 159.371 227.494 159.266 227.669 159.092H228.696C229.099 159.092 229.463 158.85 229.606 158.49L229.905 157.745H234.942C235.117 157.745 235.267 157.844 235.332 157.999L235.878 159.371Z" fill="black"/>
<path d="M234.633 160.074V174.078H214.155V161.012C214.155 160.751 214.259 160.521 214.434 160.354C214.61 160.18 214.863 160.074 215.136 160.074H225.736C226.139 160.074 226.503 159.832 226.646 159.472L226.945 158.727L226.958 158.696C227.017 158.547 227.173 158.448 227.341 158.448H233.703C233.873 158.448 234.029 158.547 234.087 158.696L234.633 160.074Z" fill="#407BFF"/>
<path opacity="0.2" d="M232.917 160.353V174.077H214.155V161.011C214.155 160.751 214.259 160.521 214.434 160.353H224.013C224.28 160.353 224.533 160.248 224.709 160.074H225.736C226.139 160.074 226.503 159.832 226.646 159.472L226.945 158.727H231.981C232.157 158.727 232.306 158.826 232.371 158.981L232.917 160.353Z" fill="black"/>
<path d="M231.673 161.056V175.06H211.195V161.993C211.195 161.733 211.299 161.503 211.474 161.335C211.65 161.161 211.903 161.056 212.176 161.056H222.776C223.179 161.056 223.543 160.814 223.685 160.454L223.984 159.709L223.997 159.678C224.055 159.529 224.211 159.429 224.381 159.429H230.743C230.912 159.429 231.068 159.529 231.126 159.678L231.673 161.056Z" fill="#407BFF"/>
<path opacity="0.2" d="M229.957 161.335V175.06H211.194V161.993C211.194 161.733 211.299 161.503 211.474 161.335H221.053C221.319 161.335 221.573 161.23 221.748 161.056H222.775C223.178 161.056 223.542 160.814 223.685 160.454L223.984 159.709H229.021C229.196 159.709 229.346 159.809 229.411 159.963L229.957 161.335Z" fill="black"/>
<path d="M225.434 167.675L243.516 161.536V172.375L227.319 178.643L225.434 167.675Z" fill="#407BFF"/>
<path opacity="0.5" d="M225.434 167.675L243.516 161.536V172.375L227.319 178.643L225.434 167.675Z" fill="white"/>
<path d="M201.391 158.586L204.22 157.95H228.815L229.93 179.143L228.815 179.391L201.391 158.586Z" fill="#407BFF"/>
<path d="M228.815 179.391H202.334L201.391 158.586H227.872L228.815 179.391Z" fill="#407BFF"/>
<path opacity="0.5" d="M228.815 179.391H202.334L201.391 158.586H227.872L228.815 179.391Z" fill="white"/>
<path opacity="0.7" d="M228.815 157.95L227.872 158.586H201.391L204.22 157.95H228.815Z" fill="white"/>
<path opacity="0.4" d="M228.814 157.95L229.93 179.143L228.814 179.391L227.872 158.586L228.814 157.95Z" fill="white"/>
<path d="M210.613 168.183C210.283 168.183 210.03 168.442 210.047 168.761L210.164 170.943H210.797L210.774 170.504C210.757 170.185 211.009 169.926 211.339 169.926H217.763C218.092 169.926 218.373 170.185 218.39 170.504L218.414 170.943H219.046L218.929 168.761C218.912 168.442 218.63 168.183 218.301 168.183H210.613Z" fill="#407BFF"/>
<path opacity="0.2" d="M218.223 166.814H210.543L210.367 163.547H218.048L218.223 166.814Z" fill="white"/>
<path d="M104.522 195.984H44.6364C42.0393 195.984 39.9346 193.973 39.9346 191.493V98.4151C39.9346 95.9352 42.0393 93.9243 44.6364 93.9243H104.522C107.118 93.9243 109.224 95.9346 109.224 98.4151V191.494C109.224 193.974 107.119 195.984 104.522 195.984Z" fill="#263238"/>
<g opacity="0.2">
<path d="M39.9346 121.182V191.307C39.9346 193.89 42.1267 195.984 44.8311 195.984H104.326C107.031 195.984 109.224 193.89 109.224 191.307V121.182H39.9346Z" fill="white"/>
</g>
<path d="M57.1185 148.446H47.3279C46.908 148.446 46.5679 148.122 46.5679 147.72V142.254C46.5679 141.853 46.908 141.529 47.3279 141.529H57.1191C57.539 141.529 57.8791 141.853 57.8791 142.254V147.72C57.8785 148.122 57.5384 148.446 57.1185 148.446Z" fill="#263238"/>
<path d="M72.0297 148.446H62.2385C61.8186 148.446 61.4785 148.122 61.4785 147.72V142.254C61.4785 141.853 61.8186 141.529 62.2385 141.529H72.0297C72.4497 141.529 72.7898 141.853 72.7898 142.254V147.72C72.7898 148.122 72.4491 148.446 72.0297 148.446Z" fill="#263238"/>
<path d="M86.9399 148.446H77.1487C76.7288 148.446 76.3887 148.122 76.3887 147.72V142.254C76.3887 141.853 76.7288 141.529 77.1487 141.529H86.9399C87.3598 141.529 87.6999 141.853 87.6999 142.254V147.72C87.6999 148.122 87.3598 148.446 86.9399 148.446Z" fill="#263238"/>
<path d="M101.851 148.446H92.0593C91.6394 148.446 91.2993 148.122 91.2993 147.72V142.254C91.2993 141.853 91.6394 141.529 92.0593 141.529H101.851C102.27 141.529 102.611 141.853 102.611 142.254V147.72C102.611 148.122 102.27 148.446 101.851 148.446Z" fill="#263238"/>
<path d="M101.851 131.614H92.0593C91.6394 131.614 91.2993 131.289 91.2993 130.888V125.422C91.2993 125.021 91.6394 124.696 92.0593 124.696H101.851C102.27 124.696 102.611 125.021 102.611 125.422V130.888C102.611 131.289 102.27 131.614 101.851 131.614Z" fill="#263238"/>
<path d="M86.6796 131.614H76.8885C76.4685 131.614 76.1284 131.289 76.1284 130.888V125.422C76.1284 125.021 76.4685 124.696 76.8885 124.696H86.6796C87.0996 124.696 87.4397 125.021 87.4397 125.422V130.888C87.4397 131.289 87.099 131.614 86.6796 131.614Z" fill="#263238"/>
<g opacity="0.3">
<path d="M52.5495 138.442H47.3079C46.8879 138.442 46.5479 138.117 46.5479 137.716V135.354C46.5479 134.953 46.8879 134.628 47.3079 134.628H52.5495C52.9694 134.628 53.3095 134.953 53.3095 135.354V137.716C53.3095 138.117 52.9688 138.442 52.5495 138.442Z" fill="white"/>
</g>
<g opacity="0.3">
<path d="M62.4098 138.442H57.1682C56.7483 138.442 56.4082 138.117 56.4082 137.716V135.354C56.4082 134.953 56.7483 134.628 57.1682 134.628H62.4098C62.8298 134.628 63.1699 134.953 63.1699 135.354V137.716C63.1692 138.117 62.8292 138.442 62.4098 138.442Z" fill="white"/>
</g>
<g opacity="0.3">
<path d="M72.2697 138.442H67.0281C66.6081 138.442 66.2681 138.117 66.2681 137.716V135.354C66.2681 134.953 66.6081 134.628 67.0281 134.628H72.2697C72.6897 134.628 73.0297 134.953 73.0297 135.354V137.716C73.0297 138.117 72.6897 138.442 72.2697 138.442Z" fill="white"/>
</g>
<g opacity="0.3">
<path d="M82.1301 138.442H76.8885C76.4685 138.442 76.1284 138.117 76.1284 137.716V135.354C76.1284 134.953 76.4685 134.628 76.8885 134.628H82.1301C82.55 134.628 82.8901 134.953 82.8901 135.354V137.716C82.8901 138.117 82.55 138.442 82.1301 138.442Z" fill="white"/>
</g>
<g opacity="0.3">
<path d="M91.9909 138.442H86.7493C86.3293 138.442 85.9893 138.117 85.9893 137.716V135.354C85.9893 134.953 86.3293 134.628 86.7493 134.628H91.9909C92.4108 134.628 92.7509 134.953 92.7509 135.354V137.716C92.7509 138.117 92.4102 138.442 91.9909 138.442Z" fill="white"/>
</g>
<g opacity="0.3">
<path d="M101.85 138.442H96.6087C96.1887 138.442 95.8486 138.117 95.8486 137.716V135.354C95.8486 134.953 96.1887 134.628 96.6087 134.628H101.85C102.27 134.628 102.61 134.953 102.61 135.354V137.716C102.61 138.117 102.27 138.442 101.85 138.442Z" fill="white"/>
</g>
<g opacity="0.2">
<path d="M49.9287 124.696H46.5479V131.614H49.9287V124.696Z" fill="black"/>
</g>
<g opacity="0.2">
<path d="M53.9135 124.696H50.5327V131.614H53.9135V124.696Z" fill="black"/>
</g>
<g opacity="0.2">
<path d="M57.8984 124.696H54.5176V131.614H57.8984V124.696Z" fill="black"/>
</g>
<g opacity="0.2">
<path d="M61.8838 124.696H58.5029V131.614H61.8838V124.696Z" fill="black"/>
</g>
<g opacity="0.2">
<path d="M65.8686 124.696H62.4878V131.614H65.8686V124.696Z" fill="black"/>
</g>
<g opacity="0.2">
<path d="M69.8535 124.696H66.4727V131.614H69.8535V124.696Z" fill="black"/>
</g>
<path d="M57.1191 158.068H47.3279C46.908 158.068 46.5679 157.743 46.5679 157.342V151.876C46.5679 151.475 46.908 151.15 47.3279 151.15H57.1191C57.539 151.15 57.8791 151.475 57.8791 151.876V157.342C57.8785 157.743 57.5384 158.068 57.1191 158.068Z" fill="#263238"/>
<path d="M72.0297 158.068H62.2385C61.8186 158.068 61.4785 157.743 61.4785 157.342V151.876C61.4785 151.475 61.8186 151.15 62.2385 151.15H72.0297C72.4497 151.15 72.7898 151.475 72.7898 151.876V157.342C72.7898 157.743 72.4491 158.068 72.0297 158.068Z" fill="#263238"/>
<path d="M86.9399 158.068H77.1487C76.7288 158.068 76.3887 157.743 76.3887 157.342V151.876C76.3887 151.475 76.7288 151.15 77.1487 151.15H86.9399C87.3598 151.15 87.6999 151.475 87.6999 151.876V157.342C87.6999 157.743 87.3598 158.068 86.9399 158.068Z" fill="#263238"/>
<path d="M101.851 158.068H92.0593C91.6394 158.068 91.2993 157.743 91.2993 157.342V151.876C91.2993 151.475 91.6394 151.15 92.0593 151.15H101.851C102.27 151.15 102.611 151.475 102.611 151.876V157.342C102.611 157.743 102.27 158.068 101.851 158.068Z" fill="#263238"/>
<path d="M57.1191 167.69H47.3279C46.908 167.69 46.5679 167.365 46.5679 166.964V161.498C46.5679 161.097 46.908 160.772 47.3279 160.772H57.1191C57.539 160.772 57.8791 161.097 57.8791 161.498V166.964C57.8785 167.365 57.5384 167.69 57.1191 167.69Z" fill="#263238"/>
<path d="M72.0297 167.69H62.2385C61.8186 167.69 61.4785 167.365 61.4785 166.964V161.498C61.4785 161.097 61.8186 160.772 62.2385 160.772H72.0297C72.4497 160.772 72.7898 161.097 72.7898 161.498V166.964C72.7898 167.365 72.4491 167.69 72.0297 167.69Z" fill="#263238"/>
<path d="M86.9399 167.69H77.1487C76.7288 167.69 76.3887 167.365 76.3887 166.964V161.498C76.3887 161.097 76.7288 160.772 77.1487 160.772H86.9399C87.3598 160.772 87.6999 161.097 87.6999 161.498V166.964C87.6999 167.365 87.3598 167.69 86.9399 167.69Z" fill="#263238"/>
<path d="M101.851 167.69H92.0593C91.6394 167.69 91.2993 167.365 91.2993 166.964V161.498C91.2993 161.097 91.6394 160.772 92.0593 160.772H101.851C102.27 160.772 102.611 161.097 102.611 161.498V166.964C102.611 167.365 102.27 167.69 101.851 167.69Z" fill="#263238"/>
<path d="M57.1191 177.312H47.3279C46.908 177.312 46.5679 176.987 46.5679 176.586V171.12C46.5679 170.719 46.908 170.394 47.3279 170.394H57.1191C57.539 170.394 57.8791 170.719 57.8791 171.12V176.586C57.8785 176.987 57.5384 177.312 57.1191 177.312Z" fill="#263238"/>
<path d="M72.0297 177.312H62.2385C61.8186 177.312 61.4785 176.987 61.4785 176.586V171.12C61.4785 170.719 61.8186 170.394 62.2385 170.394H72.0297C72.4497 170.394 72.7898 170.719 72.7898 171.12V176.586C72.7898 176.987 72.4491 177.312 72.0297 177.312Z" fill="#263238"/>
<path d="M86.9399 177.312H77.1487C76.7288 177.312 76.3887 176.987 76.3887 176.586V171.12C76.3887 170.719 76.7288 170.394 77.1487 170.394H86.9399C87.3598 170.394 87.6999 170.719 87.6999 171.12V176.586C87.6999 176.987 87.3598 177.312 86.9399 177.312Z" fill="#263238"/>
<path d="M57.1191 186.934H47.3279C46.908 186.934 46.5679 186.609 46.5679 186.208V180.742C46.5679 180.341 46.908 180.016 47.3279 180.016H57.1191C57.539 180.016 57.8791 180.341 57.8791 180.742V186.208C57.8785 186.609 57.5384 186.934 57.1191 186.934Z" fill="#263238"/>
<path d="M72.0297 186.934H62.2385C61.8186 186.934 61.4785 186.609 61.4785 186.208V180.742C61.4785 180.341 61.8186 180.016 62.2385 180.016H72.0297C72.4497 180.016 72.7898 180.341 72.7898 180.742V186.208C72.7898 186.609 72.4491 186.934 72.0297 186.934Z" fill="#263238"/>
<path d="M86.9399 186.934H77.1487C76.7288 186.934 76.3887 186.609 76.3887 186.208V180.742C76.3887 180.341 76.7288 180.016 77.1487 180.016H86.9399C87.3598 180.016 87.6999 180.341 87.6999 180.742V186.208C87.6999 186.609 87.3598 186.934 86.9399 186.934Z" fill="#263238"/>
<path d="M101.819 170.395H92.0912C91.6537 170.395 91.2993 170.733 91.2993 171.15V180.772V182.763V186.177C91.2993 186.595 91.6537 186.933 92.0912 186.933H101.819C102.257 186.933 102.611 186.595 102.611 186.177V182.763V180.772V171.15C102.611 170.733 102.256 170.395 101.819 170.395Z" fill="#263238"/>
<g opacity="0.4">
<path d="M102.611 102.77H46.5479V115.922H102.611V102.77Z" fill="white"/>
</g>
<path d="M59.1644 114.577V115.418H58.6658V114.577C57.902 114.54 57.1769 114.287 56.772 113.93L57.0603 113.349C57.4265 113.669 58.0343 113.908 58.6658 113.945V112.217C57.8084 112.016 56.9043 111.755 56.9043 110.743C56.9043 110.007 57.4577 109.366 58.6658 109.269V108.421H59.1644V109.262C59.7491 109.284 60.3338 109.448 60.7462 109.716L60.4891 110.311C60.0686 110.058 59.6006 109.917 59.1644 109.894V111.628C60.0374 111.837 60.9727 112.083 60.9727 113.102C60.9721 113.84 60.3955 114.481 59.1644 114.577ZM58.6652 111.51V109.902C57.9713 109.984 57.6674 110.319 57.6674 110.714C57.6674 111.175 58.1042 111.369 58.6652 111.51ZM60.2083 113.148C60.2083 112.672 59.741 112.485 59.1638 112.337V113.938C59.8889 113.871 60.2083 113.55 60.2083 113.148Z" fill="#263238"/>
<path d="M63.2823 109.314V114.526H62.5104V109.962H61.2793V109.314H63.2823Z" fill="#263238"/>
<path d="M68.2091 112.991C68.2091 113.87 67.5314 114.585 66.1437 114.585C65.3643 114.585 64.6005 114.346 64.1406 113.952L64.4994 113.363C64.8657 113.691 65.4735 113.922 66.1437 113.922C66.9624 113.922 67.4297 113.565 67.4297 112.999C67.4297 112.448 67.0166 112.091 66.0813 112.091H65.6445V111.57L67.016 109.962H64.3896V109.314H67.9907V109.821L66.5642 111.503C67.6556 111.6 68.2091 112.187 68.2091 112.991Z" fill="#263238"/>
<path d="M68.9214 114.057C68.9214 113.759 69.1629 113.55 69.4512 113.55C69.732 113.55 69.9653 113.759 69.9653 114.057C69.9653 114.354 69.7313 114.57 69.4512 114.57C69.1629 114.57 68.9214 114.354 68.9214 114.057Z" fill="#263238"/>
<path d="M74.5187 112.991C74.5187 113.87 73.8404 114.585 72.4532 114.585C71.6739 114.585 70.9101 114.346 70.4502 113.952L70.8084 113.363C71.1747 113.691 71.7824 113.922 72.4526 113.922C73.2713 113.922 73.7387 113.565 73.7387 112.999C73.7387 112.448 73.3256 112.091 72.3902 112.091H71.9534V111.57L73.325 109.962H70.6992V109.314H74.3003V109.821L72.8738 111.503C73.9652 111.6 74.5187 112.187 74.5187 112.991Z" fill="#263238"/>
<path d="M79.3063 111.853C79.3063 113.632 78.2543 114.585 76.7267 114.585C76.2126 114.585 75.7208 114.487 75.3702 114.279L75.6659 113.698C75.9542 113.877 76.3211 113.944 76.718 113.944C77.825 113.944 78.5263 113.281 78.5263 111.979V111.793C78.2069 112.247 77.6297 112.478 76.952 112.478C75.8687 112.478 75.0894 111.86 75.0894 110.9C75.0894 109.895 75.9311 109.255 77.0144 109.255C78.4802 109.255 79.3063 110.193 79.3063 111.853ZM78.3479 110.863C78.3479 110.327 77.8955 109.858 77.0462 109.858C76.3367 109.858 75.8456 110.252 75.8456 110.87C75.8456 111.481 76.3211 111.875 77.0849 111.875C77.8331 111.875 78.3479 111.436 78.3479 110.863Z" fill="#263238"/>
<path d="M83.8692 113.878V114.526H79.9486V114.02L82.1701 111.972C82.7466 111.437 82.8558 111.109 82.8558 110.781C82.8558 110.245 82.4584 109.917 81.6946 109.917C81.1099 109.917 80.6344 110.096 80.2993 110.483L79.7695 110.044C80.1901 109.545 80.9152 109.255 81.7651 109.255C82.9033 109.255 83.6358 109.813 83.6358 110.706C83.6358 111.212 83.4798 111.667 82.7391 112.344L81.0712 113.877H83.8692V113.878Z" fill="#263238"/>
<path d="M84.5723 114.057C84.5723 113.759 84.8138 113.55 85.102 113.55C85.3828 113.55 85.6162 113.759 85.6162 114.057C85.6162 114.354 85.3822 114.57 85.102 114.57C84.8138 114.57 84.5723 114.354 84.5723 114.057Z" fill="#263238"/>
<path d="M86.2646 111.92C86.2646 110.222 87.2156 109.255 88.4936 109.255C89.764 109.255 90.715 110.222 90.715 111.92C90.715 113.617 89.764 114.585 88.4936 114.585C87.2163 114.585 86.2646 113.617 86.2646 111.92ZM89.9363 111.92C89.9363 110.587 89.3441 109.917 88.4942 109.917C87.6368 109.917 87.044 110.587 87.044 111.92C87.044 113.253 87.6362 113.922 88.4942 113.922C89.3435 113.922 89.9363 113.253 89.9363 111.92Z" fill="#263238"/>
<path d="M91.4663 111.92C91.4663 110.222 92.4173 109.255 93.6952 109.255C94.9657 109.255 95.9167 110.222 95.9167 111.92C95.9167 113.617 94.9657 114.585 93.6952 114.585C92.4173 114.585 91.4663 113.617 91.4663 111.92ZM95.1373 111.92C95.1373 110.587 94.5451 109.917 93.6952 109.917C92.8379 109.917 92.2457 110.587 92.2457 111.92C92.2457 113.253 92.8379 113.922 93.6952 113.922C94.5451 113.922 95.1373 113.253 95.1373 111.92Z" fill="#263238"/>
<path d="M96.668 111.92C96.668 110.222 97.6189 109.255 98.8969 109.255C100.167 109.255 101.118 110.222 101.118 111.92C101.118 113.617 100.167 114.585 98.8969 114.585C97.6189 114.585 96.668 113.617 96.668 111.92ZM100.34 111.92C100.34 110.587 99.7468 109.917 98.8975 109.917C98.0401 109.917 97.4473 110.587 97.4473 111.92C97.4473 113.253 98.0401 113.922 98.8975 113.922C99.7468 113.922 100.34 113.253 100.34 111.92Z" fill="#263238"/>
<path d="M166.126 195.76H129.366V212.159H166.126V195.76Z" fill="#407BFF"/>
<path opacity="0.6" d="M166.126 195.76H129.366V212.159H166.126V195.76Z" fill="white"/>
<path opacity="0.2" d="M166.126 198.215H139.828L166.126 198.952V198.215Z" fill="black"/>
<path opacity="0.2" d="M134.855 200.65L159.196 200.368L134.855 201.384V200.65Z" fill="black"/>
<path opacity="0.2" d="M166.126 203.828C165.538 203.864 140.6 204.355 140.6 204.355L166.126 205.289V203.828Z" fill="black"/>
<path opacity="0.2" d="M134.855 207.314L154.225 207.711L134.855 208.12V207.314Z" fill="black"/>
<path opacity="0.2" d="M166.126 209.219L147.369 209.874H166.126V209.219Z" fill="black"/>
<path d="M134.856 196.495V211.424H167.759V212.746H81.5518V195.173H167.759V196.495H134.856Z" fill="#407BFF"/>
<path opacity="0.2" d="M134.856 196.495V211.424H167.759V212.746H81.5518V195.173H167.759V196.495H134.856Z" fill="white"/>
<path opacity="0.2" d="M134.855 196.495V211.424H167.759V212.746H132.438V195.173H167.759V196.495H134.855Z" fill="black"/>
<path opacity="0.6" d="M126.251 200.977H98.6924V206.943H126.251V200.977Z" fill="white"/>
<path opacity="0.6" d="M91.115 207.527C93.1776 207.527 94.8497 205.93 94.8497 203.96C94.8497 201.989 93.1776 200.392 91.115 200.392C89.0524 200.392 87.3804 201.989 87.3804 203.96C87.3804 205.93 89.0524 207.527 91.115 207.527Z" fill="white"/>
<path opacity="0.2" d="M93.7546 204.728C93.3103 206.12 91.769 206.905 90.3107 206.481C88.8531 206.056 88.0313 204.584 88.4756 203.191C88.9198 201.799 90.4611 201.014 91.9194 201.438C93.3771 201.863 94.1989 203.336 93.7546 204.728Z" fill="black"/>
<path d="M173.274 213.333H136.514V229.732H173.274V213.333Z" fill="#407BFF"/>
<path opacity="0.6" d="M173.274 213.333H136.514V229.732H173.274V213.333Z" fill="white"/>
<path opacity="0.2" d="M173.274 215.788H146.975L173.274 216.525V215.788Z" fill="black"/>
<path opacity="0.2" d="M142.003 218.222L166.343 217.94L142.003 218.957V218.222Z" fill="black"/>
<path opacity="0.2" d="M173.273 221.4C172.685 221.436 147.746 221.927 147.746 221.927L173.273 222.861V221.4Z" fill="black"/>
<path opacity="0.2" d="M142.003 224.887L161.373 225.283L142.003 225.693V224.887Z" fill="black"/>
<path opacity="0.2" d="M173.273 226.792L154.517 227.447H173.273V226.792Z" fill="black"/>
<path d="M142.003 214.068V228.996H174.907V230.319H88.6992V212.746H174.907V214.068H142.003Z" fill="#263238"/>
<path opacity="0.2" d="M142.003 214.068V228.996H174.906V230.319H139.585V212.746H174.906V214.068H142.003Z" fill="black"/>
<path opacity="0.6" d="M133.399 218.55H105.84V224.516H133.399V218.55Z" fill="white"/>
<path opacity="0.6" d="M101.998 221.532C101.998 223.502 100.325 225.1 98.2631 225.1C96.2002 225.1 94.5278 223.502 94.5278 221.532C94.5278 219.562 96.2002 217.964 98.2631 217.964C100.325 217.965 101.998 219.562 101.998 221.532Z" fill="white"/>
<path opacity="0.2" d="M100.902 222.3C100.458 223.693 98.9159 224.477 97.4582 224.053C96.0005 223.629 95.1787 222.156 95.623 220.764C96.0673 219.372 97.6086 218.587 99.0669 219.011C100.525 219.435 101.346 220.908 100.902 222.3Z" fill="black"/>
<path d="M168.155 230.885H131.396V247.285H168.155V230.885Z" fill="#407BFF"/>
<path opacity="0.6" d="M168.155 230.885H131.396V247.285H168.155V230.885Z" fill="white"/>
<path opacity="0.2" d="M168.155 233.341H141.857L168.155 234.077V233.341Z" fill="black"/>
<path opacity="0.2" d="M136.885 235.775L161.225 235.493L136.885 236.509V235.775Z" fill="black"/>
<path opacity="0.2" d="M168.156 238.953C167.567 238.988 142.629 239.479 142.629 239.479L168.156 240.413V238.953Z" fill="black"/>
<path opacity="0.2" d="M136.885 242.439L156.254 242.835L136.885 243.245V242.439Z" fill="black"/>
<path opacity="0.2" d="M168.155 244.344L149.398 244.999H168.155V244.344Z" fill="black"/>
<path d="M136.885 231.621V246.549H169.788V247.871H83.5815V230.299H169.788V231.621H136.885Z" fill="#407BFF"/>
<path opacity="0.2" d="M136.885 231.621V246.549H169.788V247.871H134.467V230.299H169.788V231.621H136.885Z" fill="black"/>
<path opacity="0.6" d="M128.281 236.102H100.722V242.068H128.281V236.102Z" fill="white"/>
<path opacity="0.6" d="M96.8797 239.085C96.8797 241.055 95.2074 242.652 93.1444 242.652C91.0815 242.652 89.4092 241.055 89.4092 239.085C89.4092 237.114 91.0815 235.517 93.1444 235.517C95.2074 235.517 96.8797 237.114 96.8797 239.085Z" fill="white"/>
<path opacity="0.2" d="M95.7839 239.852C95.3396 241.245 93.7977 242.03 92.34 241.605C90.8824 241.181 90.0606 239.709 90.5049 238.316C90.9491 236.924 92.4904 236.139 93.9481 236.563C95.4064 236.988 96.2282 238.46 95.7839 239.852Z" fill="black"/>
<path d="M123.372 153.539C123.217 156.387 122.956 159.185 122.587 162.016C122.402 163.431 122.187 164.848 121.924 166.282C121.786 167.004 121.649 167.729 121.462 168.477C121.38 168.843 121.255 169.254 121.15 169.639C121.099 169.83 121.003 170.082 120.929 170.299L120.808 170.635L120.771 170.731L120.686 170.923C120.625 171.055 120.563 171.171 120.504 171.266C120.255 171.683 120.013 171.953 119.792 172.181C119.565 172.416 119.358 172.591 119.152 172.76C118.747 173.084 118.363 173.333 117.989 173.56C117.241 174.011 116.525 174.366 115.812 174.701C114.388 175.361 112.972 175.893 111.556 176.395C108.716 177.384 105.872 178.172 102.944 178.823C102.092 179.013 101.241 178.507 101.043 177.693C100.873 176.998 101.236 176.302 101.877 175.997L101.904 175.984C104.49 174.753 107.104 173.502 109.622 172.233C110.881 171.598 112.115 170.935 113.262 170.255C113.831 169.917 114.381 169.565 114.838 169.219C115.065 169.048 115.267 168.875 115.411 168.737C115.476 168.67 115.537 168.606 115.551 168.577C115.574 168.546 115.557 168.538 115.483 168.647L115.423 168.755L115.392 168.826C115.387 168.839 115.396 168.806 115.397 168.798L115.435 168.632C115.46 168.512 115.49 168.435 115.516 168.284C115.566 167.985 115.628 167.72 115.672 167.397C115.765 166.772 115.853 166.115 115.934 165.454C116.082 164.119 116.206 162.758 116.332 161.391L117.031 153.148L117.033 153.136C117.174 151.465 118.708 150.22 120.458 150.355C122.173 150.487 123.46 151.905 123.372 153.539Z" fill="#FF8B7B"/>
<path d="M102.567 175.388L98.3301 175.612L100.024 180.196C100.024 180.196 103.835 179.548 103.802 177.558L102.567 175.388Z" fill="#FF8B7B"/>
<path d="M95.3646 178.728L96.242 180.239C96.5914 180.84 97.3452 181.112 98.0235 180.88L100.024 180.196L98.3299 175.613L95.9649 176.804C95.2355 177.171 94.9646 178.039 95.3646 178.728Z" fill="#FF8B7B"/>
<path d="M114.959 150.733C121.04 151.225 124.805 150.607 124.191 156.918C123.576 163.228 122.874 165.373 122.874 165.373H115.234C115.234 165.373 114.217 153.834 114.217 152.744C114.216 151.654 114.959 150.733 114.959 150.733Z" fill="#407BFF"/>
<path opacity="0.7" d="M124.192 156.92C124.145 157.41 124.098 157.874 124.052 158.312C123.779 160.755 123.506 162.453 123.286 163.573C123.04 164.851 122.873 165.373 122.873 165.373H115.235C115.235 165.373 115.195 164.896 115.128 164.132C114.862 161.13 114.216 153.612 114.216 152.741C114.216 151.653 114.962 150.731 114.962 150.731C121.042 151.227 124.804 150.61 124.192 156.92Z" fill="white"/>
<path d="M114.882 164.151L124.717 163.48L122.961 166.919H114.882V164.151Z" fill="#407BFF"/>
<path d="M124.717 163.477L122.96 166.919H114.881V164.152L115.128 164.132L119.284 163.853L123.286 163.573L124.717 163.477Z" fill="#407BFF"/>
<path opacity="0.6" d="M124.717 163.477L122.96 166.919H114.881V164.152L115.128 164.132L119.284 163.853L123.286 163.573L124.717 163.477Z" fill="white"/>
<path opacity="0.2" d="M124.718 163.477L122.96 166.919H121.515C120.895 166.537 120.396 166.003 120.003 165.373C119.709 164.909 119.47 164.4 119.283 163.853C117.945 160.106 118.703 154.859 118.703 154.859C120.655 155.247 122.552 156.609 124.051 158.313C123.778 160.755 123.505 162.453 123.286 163.573L124.718 163.477Z" fill="black"/>
<path d="M118.529 238.473L113.819 238.76L110.104 230.416L114.813 230.129L118.529 238.473Z" fill="#E4897B"/>
<path opacity="0.2" d="M114.813 230.129L110.104 230.416L112.024 234.72L116.733 234.433L114.813 230.129Z" fill="black"/>
<path d="M112.045 237.406L116.715 235.292C116.873 235.222 117.061 235.264 117.168 235.396L119.548 238.322C119.758 238.585 119.704 238.961 119.429 239.162C119.392 239.189 119.352 239.212 119.309 239.23C117.787 239.891 116.642 240.3 114.745 241.159C113.577 241.688 110.109 243.4 108.495 244.131C106.882 244.861 105.917 243.434 106.507 242.995C109.164 241.037 110.97 239.173 111.515 237.931C111.615 237.697 111.805 237.51 112.045 237.406Z" fill="#263238"/>
<path d="M111.093 238.625C110.841 238.764 110.548 238.815 110.262 238.772C110.061 238.724 109.902 238.58 109.839 238.392C109.785 238.29 109.799 238.166 109.875 238.078C110.197 237.675 111.8 237.842 111.978 237.864C112.018 237.865 112.053 237.892 112.064 237.929C112.077 237.967 112.064 238.008 112.033 238.034C111.744 238.264 111.429 238.462 111.093 238.625ZM110.143 238.123C110.101 238.138 110.064 238.165 110.037 238.2C110.013 238.211 110 238.257 110.03 238.329C110.072 238.453 110.176 238.55 110.307 238.587C110.831 238.578 111.332 238.38 111.709 238.032C111.186 237.967 110.654 237.998 110.143 238.123Z" fill="#407BFF"/>
<path d="M122.521 173.959C122.488 169.714 121.81 156.737 114.957 150.733C114.957 150.733 116.407 149.094 119.221 147.378C121.84 145.776 125.644 144.107 130.557 143.631C133.279 143.368 133.787 143.476 137.18 144.169C137.18 144.169 144.95 153.03 145.504 173.959H122.521Z" fill="#407BFF"/>
<path opacity="0.7" d="M145.501 173.96H122.52C122.514 173.317 122.493 172.478 122.44 171.492C122.347 169.756 122.147 167.555 121.734 165.208C120.836 160.081 118.944 154.229 114.962 150.737C114.962 150.737 116.407 149.097 119.217 147.379C121.841 145.776 125.643 144.11 130.558 143.632C133.281 143.365 133.787 143.473 137.177 144.166C137.177 144.166 138.142 145.273 139.421 147.62C140.113 148.886 140.899 150.52 141.665 152.543C141.978 153.357 142.284 154.235 142.577 155.183C143.356 157.632 144.069 160.519 144.601 163.865C145.075 166.855 145.401 170.219 145.501 173.96Z" fill="white"/>
<path d="M112.011 238.05L111.968 238.07C111.47 238.044 110.301 237.583 110.187 237.16C110.149 237.014 110.223 236.863 110.366 236.799C110.497 236.718 110.658 236.695 110.808 236.736C111.425 236.88 112.041 237.893 112.072 237.943C112.088 237.974 112.086 238.012 112.067 238.042C112.05 238.05 112.031 238.053 112.011 238.05ZM110.5 236.91L110.456 236.93C110.339 236.983 110.361 237.052 110.368 237.078C110.437 237.339 111.23 237.729 111.767 237.834C111.534 237.428 111.176 237.099 110.743 236.891C110.661 236.869 110.575 236.876 110.5 236.91Z" fill="#407BFF"/>
<path d="M146.209 179.706L145.429 170.93L122.487 172.475L121.465 179.843C121.465 179.843 94.6289 178.836 91.3448 185.671C86.2929 196.184 110.022 232.81 110.022 232.81L116.056 232.129C116.056 232.129 102.737 195.999 104.421 194.497C105.583 193.461 130.267 193.699 130.267 193.699C130.267 193.699 147.773 193.76 146.209 179.706Z" fill="#263238"/>
<path opacity="0.4" d="M130.265 193.699C130.265 193.699 123.526 193.636 116.926 193.718C110.893 193.801 104.973 194.005 104.42 194.494C104.254 194.641 104.234 195.111 104.327 195.849V195.856C105.206 202.693 116.054 232.129 116.054 232.129L110.021 232.81C110.021 232.81 86.2936 196.186 91.348 185.673C94.6308 178.836 121.468 179.847 121.468 179.847L122.487 172.475L145.428 170.929L146.208 179.706C147.772 193.763 130.265 193.699 130.265 193.699Z" fill="white"/>
<path d="M109.525 234.14L117.146 232.978L116.415 230.997L108.124 232.647L109.525 234.14Z" fill="#407BFF"/>
<path opacity="0.5" d="M109.525 234.14L117.146 232.978L116.415 230.997L108.124 232.647L109.525 234.14Z" fill="white"/>
<path d="M137.294 171.994L137.415 174.792L122.527 174.731L122.494 172.669L137.294 171.994Z" fill="#263238"/>
<path d="M138.153 171.956L145.54 171.619L145.697 174.827L138.153 174.796V171.956Z" fill="#263238"/>
<path d="M127.05 174.827L129.941 174.964C130.229 174.977 130.467 174.788 130.467 174.542V172.572C130.467 172.325 130.229 172.137 129.941 172.15L127.05 172.288C126.82 172.298 126.636 172.482 126.636 172.697V174.418C126.636 174.633 126.82 174.816 127.05 174.827Z" fill="white"/>
<path d="M128.018 238.899L123.305 238.68L120.593 229.99L125.306 230.21L128.018 238.899Z" fill="#E4897B"/>
<path opacity="0.2" d="M125.306 230.21L120.593 229.99L121.995 234.472L126.708 234.692L125.306 230.21Z" fill="black"/>
<path d="M122.625 238.046L127.206 235.76C127.36 235.684 127.55 235.72 127.662 235.847L130.16 238.683C130.381 238.938 130.343 239.315 130.075 239.526C130.04 239.554 130 239.579 129.959 239.599C128.465 240.316 127.338 240.767 125.478 241.696C124.331 242.268 120.936 244.108 119.354 244.898C117.771 245.688 116.748 244.298 117.32 243.837C119.895 241.782 121.624 239.852 122.118 238.591C122.207 238.354 122.39 238.159 122.625 238.046Z" fill="#263238"/>
<path d="M121.724 239.3C121.479 239.447 121.187 239.51 120.9 239.478C120.698 239.438 120.532 239.299 120.462 239.113C120.404 239.013 120.413 238.89 120.485 238.799C120.79 238.385 122.399 238.491 122.578 238.506C122.618 238.505 122.655 238.531 122.666 238.567C122.681 238.604 122.67 238.647 122.64 238.674C122.359 238.914 122.052 239.125 121.724 239.3ZM120.754 238.834C120.713 238.851 120.677 238.879 120.652 238.914C120.628 238.926 120.617 238.973 120.65 239.044C120.697 239.166 120.805 239.259 120.937 239.291C121.46 239.263 121.953 239.047 122.315 238.685C121.79 238.638 121.26 238.689 120.754 238.834Z" fill="#407BFF"/>
<path d="M122.618 238.691L122.575 238.712C122.076 238.705 120.889 238.288 120.758 237.87C120.714 237.725 120.783 237.571 120.923 237.501C121.05 237.415 121.211 237.387 121.362 237.422C121.985 237.543 122.642 238.533 122.674 238.581C122.692 238.612 122.692 238.649 122.673 238.68C122.657 238.69 122.637 238.693 122.618 238.691ZM121.061 237.608L121.018 237.629C120.903 237.687 120.929 237.756 120.936 237.781C121.016 238.039 121.824 238.399 122.365 238.485C122.116 238.088 121.745 237.772 121.303 237.581C121.221 237.561 121.135 237.571 121.061 237.608Z" fill="#407BFF"/>
<path d="M119.951 233.141L127.636 233.817L127.441 231.725L118.98 231.364L119.951 233.141Z" fill="#407BFF"/>
<path opacity="0.5" d="M119.951 233.141L127.636 233.817L127.441 231.725L118.98 231.364L119.951 233.141Z" fill="white"/>
<path opacity="0.2" d="M116.926 193.718C110.893 193.801 104.973 194.005 104.42 194.494C104.253 194.641 104.233 195.111 104.327 195.849C100.199 182.759 121.008 182.759 121.008 182.759C122.879 185.692 120.482 190.277 116.926 193.718Z" fill="black"/>
<path d="M145.505 176.85C145.505 176.85 148.893 187.935 143.416 192.829C137.938 197.722 120.426 195.471 120.426 195.471L126.639 232.341H119.983C119.983 232.341 103.706 197.138 107.378 188.551C111.051 179.964 136.62 181.757 136.62 181.757L145.505 176.85Z" fill="#263238"/>
<path opacity="0.4" d="M145.505 176.85C145.505 176.85 148.893 187.935 143.416 192.829C137.938 197.722 120.426 195.471 120.426 195.471L126.639 232.341H119.983C119.983 232.341 103.706 197.138 107.378 188.551C111.051 179.964 136.62 181.757 136.62 181.757L145.505 176.85Z" fill="white"/>
<path d="M124.897 143.786C128.002 142.815 132.456 143.786 132.456 143.786L128.19 151.504L125.085 149.994L123.971 152.018C123.971 152.018 120.593 148.879 121.047 147.325C121.45 145.947 124.897 143.786 124.897 143.786Z" fill="#407BFF"/>
<path d="M121.757 146.779C121.415 147.092 121.047 147.326 121.047 147.326C121.047 147.326 122.595 149.96 126.099 149.438C129.598 148.911 130.609 143.916 130.609 143.916C130.609 143.916 128.326 143.94 127.31 143.496C126.293 143.057 124.164 140.052 124.164 140.052L123.525 140.579L119.562 143.852C119.562 143.852 122.391 145.394 122.325 145.975C122.298 146.233 122.033 146.536 121.757 146.779Z" fill="#E4897B"/>
<path opacity="0.2" d="M144.602 163.865C141.045 171.409 131.323 172.573 132.455 170.932C133.707 169.107 135.072 156.335 135.072 156.335C135.072 156.335 139.421 154.624 142.577 155.184C143.356 157.632 144.069 160.52 144.602 163.865Z" fill="black"/>
<path opacity="0.2" d="M122.324 145.974C122.298 146.233 122.032 146.535 121.757 146.779C124.724 146.199 123.851 140.598 123.851 140.598C123.851 140.598 123.733 140.588 123.524 140.578L119.56 143.852C119.56 143.852 122.391 145.394 122.324 145.974Z" fill="black"/>
<path d="M110.515 134.43C110.515 134.43 110.449 139.089 113.835 140.823C117.221 142.558 115.754 132.23 115.754 132.23L110.515 134.43Z" fill="#263238"/>
<path d="M112.818 142.744C113.048 143.247 113.298 143.715 113.564 144.14C113.651 144.271 113.733 144.398 113.824 144.515C113.855 144.554 113.885 144.593 113.916 144.632C114.861 145.832 116.215 146.574 117.634 146.808C117.869 146.847 118.109 146.872 118.345 146.886C120.275 146.974 122.216 146.135 123.309 144.252C123.35 144.193 123.381 144.135 123.411 144.076C124.806 141.505 124.009 139.256 122.987 135.348C122.777 134.504 122.374 133.723 121.787 133.06C119.744 130.728 116.107 130.421 113.675 132.372C110.693 134.719 111.296 139.446 112.818 142.744Z" fill="#E4897B"/>
<path d="M117.238 138.252C117.362 138.555 117.253 138.868 117.035 138.933C116.817 138.998 116.564 138.793 116.46 138.482C116.356 138.171 116.45 137.864 116.663 137.801C116.876 137.738 117.132 137.936 117.238 138.252Z" fill="#263238"/>
<path d="M113.537 139.361C113.662 139.664 113.547 139.979 113.335 140.042C113.122 140.105 112.864 139.902 112.76 139.592C112.656 139.281 112.75 138.973 112.963 138.91C113.175 138.847 113.439 139.065 113.537 139.361Z" fill="#263238"/>
<path d="M114.763 139.162C114.688 140.235 114.457 141.293 114.078 142.306C114.635 142.48 115.245 142.41 115.744 142.115L114.763 139.162Z" fill="#DE5753"/>
<path d="M117.621 135.991C117.559 136.032 117.479 136.039 117.411 136.008C116.956 135.784 116.417 135.777 115.956 135.991C115.861 136.045 115.738 136.016 115.681 135.926C115.625 135.836 115.655 135.718 115.75 135.664L115.751 135.663C116.326 135.379 117.01 135.378 117.585 135.663C117.686 135.706 117.731 135.819 117.685 135.915C117.684 135.917 117.684 135.918 117.683 135.92C117.666 135.946 117.646 135.97 117.621 135.991Z" fill="#263238"/>
<path d="M116.702 143.325C117.508 142.747 117.968 141.831 117.935 140.868C117.929 140.813 117.877 140.772 117.819 140.776C117.762 140.779 117.719 140.826 117.723 140.879C117.723 140.882 117.723 140.884 117.723 140.887C117.734 141.778 117.306 142.62 116.567 143.163C116.521 143.195 116.51 143.256 116.543 143.3C116.546 143.303 116.548 143.306 116.55 143.309C116.583 143.353 116.647 143.363 116.694 143.331C116.696 143.33 116.699 143.327 116.702 143.325Z" fill="#263238"/>
<path d="M111.487 138.286C111.447 138.29 111.406 138.283 111.37 138.265C111.285 138.197 111.273 138.077 111.343 137.995C111.344 137.994 111.345 137.993 111.346 137.992C111.756 137.511 112.386 137.25 113.034 137.294C113.144 137.308 113.222 137.404 113.207 137.508C113.19 137.612 113.091 137.685 112.983 137.674C112.47 137.653 111.977 137.866 111.655 138.248C111.608 138.283 111.547 138.297 111.487 138.286Z" fill="#263238"/>
<path d="M125.262 141.146C124.731 141.55 123.93 141.245 123.854 140.599C123.707 139.333 123.319 138.252 122.98 138.247C122.387 138.237 122.522 138.871 122.522 138.871C121.118 138.268 119.646 136.245 119.83 134.656C119.962 133.517 118.654 132.838 117.597 133.334C117.597 133.334 121.687 130.52 122.855 131.368C124.022 132.216 125.594 135.077 125.612 138.726C125.617 139.72 125.472 140.512 125.262 141.146Z" fill="#263238"/>
<path d="M125.777 137.972C125.617 138.975 125.046 139.875 124.191 140.477C123.054 141.265 121.997 140.404 121.901 139.134C121.828 138.005 122.312 136.201 123.658 135.927C125.004 135.652 125.958 136.739 125.777 137.972Z" fill="#E4897B"/>
<path d="M119.561 132.689C119.561 132.689 113.174 137.26 109.662 135.449C106.149 133.639 109.662 129.864 109.662 129.864C109.662 129.864 109.75 131.548 110.891 131.209C110.891 131.209 110.088 129.613 111.806 128.942C111.806 128.942 111.47 130.116 112.717 130.116C113.964 130.116 115.594 128.103 119.039 128.186C122.483 128.271 124.955 131.258 123.972 133.303C122.988 135.348 119.561 132.689 119.561 132.689Z" fill="#263238"/>
<path d="M129.192 143.197L125.084 149.56L121.461 146.379C121.461 146.379 119.569 148.871 123.846 152.746L125.118 150.267L128.585 152.019L132.456 143.786L129.192 143.197Z" fill="#407BFF"/>
<path opacity="0.6" d="M129.192 143.197L125.084 149.56L121.461 146.379C121.461 146.379 119.569 148.871 123.846 152.746L125.118 150.267L128.585 152.019L132.456 143.786L129.192 143.197Z" fill="white"/>
<path d="M142.833 154.122C142.798 156.825 142.649 159.462 142.336 162.158C142.188 163.507 141.994 164.849 141.725 166.249C141.659 166.599 141.573 166.962 141.493 167.316C141.405 167.678 141.291 168.067 141.188 168.44L140.962 169.082L140.834 169.421C140.783 169.541 140.728 169.66 140.668 169.777C140.612 169.88 140.556 169.971 140.497 170.067C140.031 170.766 139.616 171.102 139.233 171.426C138.473 172.029 137.784 172.406 137.102 172.773C136.421 173.131 135.755 173.442 135.09 173.734C133.752 174.298 132.433 174.804 131.097 175.25C128.433 176.159 125.762 176.889 123.013 177.499C122.161 177.688 121.31 177.181 121.112 176.368C120.943 175.672 121.306 174.977 121.947 174.672L121.973 174.66C124.399 173.505 126.849 172.328 129.224 171.147C130.405 170.542 131.583 169.948 132.684 169.305C133.237 168.993 133.776 168.672 134.267 168.346C134.755 168.025 135.213 167.673 135.485 167.408C135.61 167.292 135.684 167.155 135.573 167.292C135.555 167.316 135.543 167.337 135.527 167.366C135.501 167.407 135.48 167.451 135.462 167.496C135.459 167.488 135.479 167.406 135.487 167.366L135.558 167.065L135.687 166.266L135.797 165.392C135.942 164.197 136.008 162.926 136.094 161.661L136.478 153.978L136.48 153.941C136.564 152.266 138.053 150.973 139.806 151.053C141.52 151.13 142.852 152.497 142.833 154.122Z" fill="#FF8B7B"/>
<path d="M122.636 174.064L118.399 174.288L120.094 178.872C120.094 178.872 123.905 178.224 123.872 176.235L122.636 174.064Z" fill="#FF8B7B"/>
<path d="M115.434 177.404L116.311 178.914C116.661 179.516 117.415 179.788 118.093 179.556L120.093 178.872L118.399 174.288L116.034 175.48C115.305 175.847 115.034 176.715 115.434 177.404Z" fill="#FF8B7B"/>
<path d="M136.598 144.051C142.679 144.542 144.209 149.283 143.594 155.594C142.979 161.904 142.943 164.048 142.943 164.048H135.303C135.303 164.048 134.952 152.51 134.952 151.42C134.952 150.329 136.598 144.051 136.598 144.051Z" fill="#407BFF"/>
<path opacity="0.7" d="M136.598 144.051C142.679 144.542 144.209 149.283 143.594 155.594C142.979 161.904 142.943 164.048 142.943 164.048H135.303C135.303 164.048 134.952 152.51 134.952 151.42C134.952 150.329 136.598 144.051 136.598 144.051Z" fill="white"/>
<path d="M134.952 162.827L144.787 162.155L143.031 165.594H134.952V162.827Z" fill="#407BFF"/>
<path d="M134.952 162.827L144.787 162.155L143.031 165.594H134.952V162.827Z" fill="#407BFF"/>
<path opacity="0.6" d="M134.952 162.827L144.787 162.155L143.031 165.594H134.952V162.827Z" fill="white"/>
<path d="M90.3774 179.222V180.813C90.3774 181.22 90.8804 181.388 91.3022 181.388H124.581C125.009 181.388 125.523 181.221 125.523 180.813V179.222H90.3774Z" fill="#407BFF"/>
<path opacity="0.4" d="M90.3774 179.222V180.813C90.3774 181.22 90.8804 181.388 91.3022 181.388H124.581C125.009 181.388 125.523 181.221 125.523 180.813V179.222H90.3774Z" fill="white"/>
<path opacity="0.2" d="M90.3774 179.222V180.813C90.3774 181.22 90.8804 181.388 91.3022 181.388H113.252C113.679 181.388 114.186 181.221 114.186 180.813V179.222H90.3774Z" fill="black"/>
<path d="M84.8089 162.708L88.7707 179.872C88.8992 180.437 89.4758 180.847 90.0568 180.847H111.698C112.274 180.847 112.644 180.334 112.511 179.769L108.554 162.737C108.42 162.176 107.849 161.897 107.268 161.897H85.627C85.0461 161.896 84.6804 162.148 84.8089 162.708Z" fill="#407BFF"/>
<path opacity="0.4" d="M84.8089 162.708L88.7707 179.872C88.8992 180.437 89.4758 180.847 90.0568 180.847H110.962C111.544 180.847 111.909 180.334 111.78 179.769L107.818 162.737C107.69 162.176 107.113 161.897 106.532 161.897H85.627C85.0461 161.896 84.6804 162.148 84.8089 162.708Z" fill="white"/>
<path opacity="0.2" d="M95.4795 171.432V171.436C95.4795 172.906 97.1294 174.1 98.338 174.1C99.5474 174.1 100.264 172.906 99.9193 171.436C99.5742 169.996 98.3711 168.822 97.188 168.778C97.5331 170.247 96.7943 171.436 95.5899 171.436C95.5644 171.436 95.4795 171.436 95.4795 171.432Z" fill="black"/>
<path d="M192.32 132.376L193.867 137.069C194.381 138.634 194.889 140.199 195.419 141.738C195.681 142.508 195.951 143.271 196.233 144.007C196.372 144.375 196.512 144.736 196.655 145.069C196.726 145.24 196.796 145.39 196.863 145.534L196.952 145.712C196.969 145.74 196.985 145.774 196.988 145.788C196.94 145.813 197.085 146.025 197.289 146.21C197.493 146.404 197.764 146.624 198.067 146.828C198.659 147.243 199.385 147.681 200.051 148.106L199.493 150.409C198.477 150.432 197.548 150.355 196.552 150.103C196.061 149.976 195.555 149.818 195.03 149.563C194.511 149.299 193.948 149.005 193.383 148.36C193.248 148.213 193.159 148.065 193.056 147.92L192.83 147.554C192.7 147.329 192.578 147.108 192.471 146.901C192.254 146.481 192.058 146.077 191.876 145.677C191.514 144.873 191.183 144.083 190.862 143.292C190.227 141.71 189.642 140.13 189.089 138.542C188.541 136.95 188.015 135.367 187.534 133.747L192.32 132.376Z" fill="#B97864"/>
<path d="M184.984 130.827C184.18 132.819 189.707 140.819 189.707 140.819L195.937 137.531C195.937 137.531 193.316 130.411 190.739 129.188C188.55 128.149 186.008 128.288 184.984 130.827Z" fill="#407BFF"/>
<path opacity="0.6" d="M184.984 130.827C184.18 132.819 189.707 140.819 189.707 140.819L195.937 137.531C195.937 137.531 193.316 130.411 190.739 129.188C188.55 128.149 186.008 128.288 184.984 130.827Z" fill="white"/>
<path d="M169.026 235.133L171.593 236.574C171.593 236.574 172.837 234.884 175.494 232.158V232.153C176.237 231.402 177.019 230.57 177.832 229.676C179.458 227.895 181.216 225.86 183.06 223.672C183.602 223.028 184.155 222.368 184.712 221.698C191.137 213.978 198.082 204.904 200.68 198.768C201.487 196.859 201.881 195.241 201.706 194.028C201.18 190.364 199.687 184.846 197.981 179.518C195.388 171.372 192.471 163.652 192.471 163.652L185.303 175.249C185.303 175.249 187.502 180.258 189.506 185.593C191.477 190.83 193.258 196.387 192.599 197.834C192.535 197.976 192.455 198.143 192.365 198.321C191.174 200.676 187.88 206.01 184.139 211.903C183.762 212.497 183.379 213.096 182.996 213.695C180.988 216.841 178.899 220.074 176.966 223.043C176.211 224.211 175.478 225.337 174.782 226.403C171.486 231.463 169.026 235.133 169.026 235.133Z" fill="#B97964"/>
<path opacity="0.2" d="M184.858 221.698C181.467 225.768 178.21 229.464 175.787 232.153C175.441 230.499 175.091 228.54 174.815 226.403C177.615 222.11 181.042 216.811 184.156 211.903C184.13 214.502 184.23 218.344 184.858 221.698Z" fill="black"/>
<path d="M172.066 188.141C172.953 193.921 174.218 199.159 175.041 202.28C175.536 204.153 175.87 205.259 175.87 205.259C175.823 211.091 176.311 217.339 176.965 223.043C177.235 225.367 177.528 227.6 177.831 229.676C178.946 237.36 180.121 242.877 180.121 242.877L183.176 242.496L183.059 223.672L182.996 213.694L182.911 200.118L182.879 197.753L182.73 187.429L182.513 172.203L171.885 167.636C170.461 173.422 170.992 181.177 172.066 188.141Z" fill="#B97964"/>
<path opacity="0.2" d="M200.504 188.235C197.788 190.027 194.122 191.103 191.614 191.681C191.035 189.788 190.285 187.662 189.504 185.591C187.501 180.257 185.301 175.247 185.301 175.247L192.469 163.65C192.469 163.65 195.386 171.37 197.979 179.516C198.931 182.48 199.813 185.505 200.504 188.235Z" fill="black"/>
<path opacity="0.2" d="M182.82 193.818C178.84 193.717 175.583 193.463 172.942 193.138C172.634 191.55 172.331 189.87 172.065 188.139C170.992 181.176 170.46 173.42 171.884 167.635L182.511 172.202L182.729 187.428L182.82 193.818Z" fill="black"/>
<path d="M201.018 187.226C194.371 190.957 174.818 192.539 174.818 192.539L171.619 183.952L171.968 192.446H171.021C171.021 192.446 163.875 169.356 173.367 154.221L190.371 152.968L192.231 161.332C192.231 161.332 197.022 173.32 201.018 187.226Z" fill="#263238"/>
<path d="M188.55 246.618C188.048 246.33 187.496 246.134 186.92 246.037C186.92 246.037 185.043 244.7 183.552 240.112L181.318 239.867C180.543 239.795 179.803 240.193 179.467 240.864C179.419 240.956 179.387 241.053 179.37 241.153C179.334 241.672 179.332 242.192 179.367 242.71C179.386 244.329 180.102 247.871 180.102 247.871L180.491 247.818L180.165 244.56C180.059 243.453 181.131 244.623 181.559 245.772C181.987 246.921 182.71 248.108 185.241 247.825C188.191 247.481 189.396 247.206 188.55 246.618Z" fill="#2E353A"/>
<path d="M182.935 238.484C182.935 238.484 183.732 240.562 184.794 242.846C185.857 245.13 186.92 246.037 186.92 246.037C186.92 246.037 185.074 246.61 184.077 245.504C183.081 244.399 181.377 240.406 179.465 240.865C179.465 240.865 179.605 240.388 179.892 239.936C180.179 239.484 182.935 238.484 182.935 238.484Z" fill="#B97964"/>
<path d="M169.827 244.813C169.72 244.264 169.508 243.738 169.203 243.262C169.203 243.262 169.006 241.033 171.616 236.927L170.327 235.167C169.87 234.565 169.067 234.3 168.319 234.503C168.216 234.529 168.118 234.57 168.028 234.625C167.597 234.943 167.189 235.286 166.805 235.654C165.549 236.741 163.246 239.6 163.246 239.6L163.546 239.844L165.884 237.451C166.682 236.642 166.475 238.184 165.858 239.252C165.241 240.32 164.789 241.623 166.688 243.247C168.913 245.128 169.927 245.808 169.827 244.813Z" fill="#2E353A"/>
<path d="M172.483 235.406C172.483 235.406 171.382 237.353 170.296 239.627C169.21 241.901 169.203 243.262 169.203 243.262C169.203 243.262 167.53 242.321 167.737 240.876C167.943 239.43 169.945 235.565 168.318 234.503C168.318 234.503 168.785 234.287 169.329 234.192C169.873 234.097 172.483 235.406 172.483 235.406Z" fill="#B97964"/>
<path d="M173.214 152.56L173.118 155.011L190.691 154.358L190.806 151.46L173.214 152.56Z" fill="#263238"/>
<path opacity="0.2" d="M173.214 152.56L173.118 155.011L190.691 154.358L190.806 151.46L173.214 152.56Z" fill="white"/>
<path d="M179.131 151.745L178.26 151.756L178.319 155.992L179.19 155.981L179.131 151.745Z" fill="#263238"/>
<path d="M189.881 151.008L189.01 151.019L189.069 155.255L189.94 155.244L189.881 151.008Z" fill="#263238"/>
<path d="M186.474 151.901C186.263 151.714 185.979 151.616 185.691 151.64L183.615 151.796C183.077 151.836 182.669 152.255 182.665 152.77L182.655 154.035C182.653 154.31 182.773 154.576 182.984 154.763C183.173 154.931 183.422 155.024 183.678 155.027C183.708 155.027 183.738 155.026 183.768 155.023L185.844 154.863C186.38 154.822 186.788 154.403 186.791 153.889L186.801 152.628C186.804 152.354 186.685 152.088 186.474 151.901ZM185.802 154.357L183.727 154.518C183.585 154.53 183.45 154.484 183.346 154.391C183.243 154.3 183.186 154.174 183.187 154.039L183.197 152.773C183.199 152.524 183.397 152.321 183.657 152.301L185.732 152.145C185.747 152.144 185.762 152.143 185.777 152.143C185.901 152.144 186.019 152.189 186.112 152.271C186.215 152.363 186.272 152.489 186.271 152.624L186.269 152.816C186.242 152.811 186.216 152.803 186.188 152.805L185.607 152.844C185.414 152.857 185.266 153.019 185.28 153.204C185.294 153.388 185.463 153.529 185.656 153.516L186.237 153.477C186.247 153.477 186.255 153.471 186.265 153.47L186.262 153.885C186.259 154.135 186.062 154.338 185.802 154.357Z" fill="white"/>
<path d="M168.439 131.098C168.817 132.016 168.663 132.366 168.974 133.188C169.319 134.069 169.635 134.896 169.918 135.682C170.602 137.528 171.135 139.125 171.563 140.542C172.874 144.919 173.096 153.332 173.096 153.332L190.778 152.151C192.005 136.496 189.192 128.765 189.192 128.765C189.192 128.765 188.748 128.728 188.037 128.679C186.687 128.589 184.371 128.456 182.26 128.473C179.761 128.546 177.278 128.775 174.817 129.146C173.146 129.384 170.469 129.801 168.439 131.098Z" fill="#407BFF"/>
<g opacity="0.6">
<path d="M168.439 131.098C168.817 132.016 168.663 132.366 168.974 133.188C169.319 134.069 169.635 134.896 169.918 135.682C170.602 137.528 171.135 139.125 171.563 140.542C172.874 144.919 173.096 153.332 173.096 153.332L190.778 152.151C192.005 136.496 189.192 128.765 189.192 128.765C189.192 128.765 188.748 128.728 188.037 128.679C186.687 128.589 184.371 128.456 182.26 128.473C179.761 128.546 177.278 128.775 174.817 129.146C173.146 129.384 170.469 129.801 168.439 131.098Z" fill="white"/>
</g>
<path d="M181.324 132.114C177.438 130.554 176.704 128.59 176.704 128.59C179.929 126.963 178.964 122.409 178.964 122.409L183.563 124.557C183.213 125.289 182.972 125.917 182.807 126.458C181.954 129.259 183.277 129.639 183.277 129.639C183.687 131.388 181.324 132.114 181.324 132.114Z" fill="#B97964"/>
<path opacity="0.2" d="M183.562 124.557C183.212 125.289 182.971 125.917 182.806 126.458C180.618 125.321 178.963 122.409 178.963 122.409L183.562 124.557Z" fill="black"/>
<path d="M175.93 128.988L178.668 134.703L181.622 132.296L184.75 133.53L184.389 128.498L182.499 127.09L181.622 131.931L177.454 127.311L175.93 128.988Z" fill="#407BFF"/>
<path opacity="0.4" d="M175.93 128.988L178.668 134.703L181.622 132.296L184.75 133.53L184.389 128.498L182.499 127.09L181.622 131.931L177.454 127.311L175.93 128.988Z" fill="white"/>
<path d="M191.662 110.743C191.662 110.743 193.677 110.777 194.041 113.095C194.405 115.412 192.823 115.663 192.823 115.663C192.823 115.663 193.627 118.204 190.968 118.068C188.309 117.932 178.437 117.703 178.437 117.703C178.437 117.703 176.744 116.742 176.704 115.339C176.664 113.935 177.763 113.095 177.763 113.095C177.763 113.095 175.856 111.205 178.352 109.355C180.85 107.504 191.662 110.743 191.662 110.743Z" fill="#263238"/>
<path d="M184.75 106.614C184.75 106.614 186.347 105.161 184.598 103.247C184.598 103.247 185.307 100.726 182.85 100.031C180.393 99.3353 179.108 100.9 179.108 100.9C179.108 100.9 176.909 98.6404 175.057 100.118C173.206 101.595 174.389 103.777 174.389 103.777C174.389 103.777 171.423 103.888 172.36 106.217C173.298 108.546 175.058 108.286 175.058 108.286C175.058 108.286 173.907 109.155 175.058 110.371C176.209 111.588 179.599 110.371 179.599 110.371L184.75 106.614Z" fill="#263238"/>
<path d="M187.488 113.095C187.488 113.095 188.055 117.951 187.572 119.734C188.767 121.676 191.995 117 192.823 113.49C188.88 113.658 187.488 113.095 187.488 113.095Z" fill="#263238"/>
<path d="M179.37 114.04C178.25 118.109 177.684 119.809 179.086 122.52C181.196 126.599 186.674 127.024 189.044 123.356C191.178 120.056 192.653 113.956 189.114 111.081C185.626 108.248 180.491 109.971 179.37 114.04Z" fill="#B97964"/>
<path d="M178.185 111.539C178.185 111.539 178.35 115.43 177.86 116.821C178.696 118.429 181.538 114.886 182.402 112.14C183.048 109.654 178.185 111.539 178.185 111.539Z" fill="#263238"/>
<path d="M179.252 105.977C177.996 106.937 177.593 108.449 178.352 109.355C179.111 110.26 180.744 110.215 182 109.254C183.255 108.293 183.658 106.781 182.9 105.876C182.141 104.971 180.508 105.016 179.252 105.977Z" fill="#407BFF"/>
<path d="M191.661 110.743C191.417 108.692 187.757 105.929 182.992 106.242C178.697 106.524 176.209 111.2 178.844 112.297C181.48 113.394 185.593 111.927 185.593 111.927L191.661 110.743Z" fill="#263238"/>
<path d="M177.176 117.078C177.143 117.95 177.535 118.754 178.055 119.271C178.837 120.048 179.8 119.512 180.06 118.521C180.294 117.629 180.17 116.15 179.155 115.742C178.155 115.341 177.213 116.081 177.176 117.078Z" fill="#B97964"/>
<path d="M185.73 117.299C185.617 117.624 185.707 117.944 185.929 118.013C186.152 118.083 186.422 117.877 186.535 117.552C186.647 117.227 186.558 116.907 186.335 116.837C186.113 116.768 185.842 116.975 185.73 117.299Z" fill="#263238"/>
<path d="M189.573 118.51C189.461 118.835 189.55 119.155 189.772 119.224C189.994 119.294 190.266 119.088 190.377 118.763C190.49 118.438 190.4 118.118 190.178 118.049C189.956 117.978 189.685 118.185 189.573 118.51Z" fill="#263238"/>
<path d="M190.074 118.035L190.968 118.068C190.968 118.068 190.338 118.545 190.074 118.035Z" fill="#263238"/>
<path d="M187.954 118.599C187.954 118.599 188.048 120.179 188.45 121.053C187.863 121.312 187.163 120.888 187.163 120.888L187.954 118.599Z" fill="#A24E3F"/>
<path d="M184.926 121.521C183.842 120.939 183.568 119.996 183.556 119.95C183.543 119.905 183.571 119.86 183.617 119.848C183.664 119.836 183.712 119.862 183.724 119.907C183.728 119.919 184.088 121.145 185.584 121.616C185.632 121.63 185.655 121.678 185.64 121.722C185.625 121.766 185.576 121.789 185.529 121.775C185.305 121.704 185.104 121.617 184.926 121.521Z" fill="#263238"/>
<path d="M184.319 115.048C184.292 115.033 184.269 115.012 184.253 114.984C184.206 114.904 184.235 114.803 184.319 114.757C185.315 114.219 186.165 114.629 186.201 114.647C186.288 114.698 186.32 114.79 186.276 114.871C186.232 114.952 186.126 114.985 186.041 114.943C186.012 114.929 185.318 114.602 184.491 115.048C184.436 115.077 184.37 115.076 184.319 115.048Z" fill="#263238"/>
<path d="M191.508 117.371C191.483 117.357 191.462 117.337 191.445 117.312C190.945 116.532 190.153 116.502 190.145 116.502C190.048 116.499 189.973 116.422 189.975 116.33C189.978 116.238 190.058 116.166 190.155 116.168C190.195 116.169 191.147 116.206 191.743 117.138C191.793 117.217 191.767 117.32 191.685 117.368C191.63 117.401 191.562 117.399 191.508 117.371Z" fill="#263238"/>
<path d="M186.231 116.825L187.125 116.857C187.125 116.857 186.496 117.335 186.231 116.825Z" fill="#263238"/>
<path d="M189.446 107.874C189.446 107.874 192.586 107.434 193.404 109.685C194.223 111.936 189.956 113.993 188.45 113.095C188.45 113.095 185.126 115.814 183.033 113.31C183.033 113.31 180.989 114.396 179.6 112.775C178.211 111.154 186.215 104.855 189.446 107.874Z" fill="#263238"/>
<path d="M189.249 131.842L188.227 131.079L182.605 137.952L183.628 138.715L189.249 131.842Z" fill="#263238"/>
<path d="M194.862 124.519C194.771 124.451 194.411 124.182 194.319 124.113C192.872 123.034 190.356 123.802 188.698 125.829C187.041 127.855 186.869 130.373 188.316 131.453C188.408 131.521 188.768 131.79 188.859 131.858C190.306 132.938 192.822 132.17 194.48 130.143C196.138 128.116 196.309 125.599 194.862 124.519ZM189.785 126.64C191.068 125.072 192.967 124.33 194.14 124.867C194.97 125.825 194.674 127.764 193.392 129.332C192.11 130.899 190.211 131.643 189.038 131.105C188.208 130.147 188.503 128.209 189.785 126.64ZM194.191 129.403C194.11 129.516 194.026 129.628 193.936 129.738C193.846 129.848 193.753 129.953 193.658 130.055C193.753 129.952 193.846 129.848 193.936 129.738C194.026 129.628 194.11 129.516 194.191 129.403ZM189.519 125.919C189.425 126.021 189.332 126.126 189.243 126.235C189.153 126.344 189.07 126.455 188.989 126.567C189.069 126.455 189.153 126.344 189.243 126.235C189.331 126.126 189.424 126.021 189.519 125.919Z" fill="#263238"/>
<path opacity="0.2" d="M194.862 124.519C193.416 123.44 190.9 124.208 189.242 126.235C187.585 128.261 187.413 130.779 188.859 131.858C190.306 132.938 192.822 132.17 194.48 130.143C196.138 128.116 196.309 125.599 194.862 124.519ZM189.284 131.339C188.159 130.5 188.389 128.348 189.785 126.64C191.182 124.933 193.312 124.199 194.437 125.038C195.562 125.878 195.333 128.03 193.936 129.737C192.539 131.445 190.409 132.179 189.284 131.339Z" fill="white"/>
<path opacity="0.2" d="M174.867 138.429C174.867 138.429 176.595 143.862 172.486 145.347C168.378 146.833 174.867 138.429 174.867 138.429Z" fill="black"/>
<path d="M174.162 135.508L173.852 141.655C173.811 142.662 173.792 143.677 173.829 144.572C173.856 144.99 173.895 145.392 173.917 145.44C173.918 145.468 173.882 145.385 173.673 145.241C173.472 145.094 173.143 145.066 173.073 145.088C172.911 145.143 173.274 145.087 173.592 144.91C173.934 144.733 174.318 144.485 174.704 144.21C175.477 143.652 176.248 142.977 177.009 142.282C178.519 140.878 180.014 139.343 181.445 137.814L183.476 139.165C182.35 141.065 181.128 142.855 179.7 144.591C178.986 145.46 178.222 146.303 177.327 147.123C176.877 147.533 176.389 147.934 175.796 148.315C175.494 148.505 175.166 148.693 174.767 148.862C174.367 149.028 173.893 149.191 173.251 149.234C172.631 149.291 171.741 149.117 171.091 148.664C170.427 148.217 170.081 147.674 169.85 147.229C169.409 146.313 169.343 145.648 169.22 145.028C169.046 143.827 168.994 142.733 168.959 141.635C168.902 139.446 168.986 137.326 169.179 135.161L174.162 135.508Z" fill="#B97864"/>
<path d="M181.393 137.6L183.753 134.559L185.893 138.49C185.893 138.49 183.728 139.643 181.927 139.26L181.393 137.6Z" fill="#B97964"/>
<path d="M186.692 133.842L187.711 137.044L185.894 138.49L183.753 134.559L186.692 133.842Z" fill="#B97964"/>
<path d="M168.828 130.871C167.01 132.114 167.02 141.697 167.02 141.697L174.116 142.223C174.116 142.223 176.027 134.9 174.578 132.525C173.348 130.508 171.145 129.29 168.828 130.871Z" fill="#407BFF"/>
<path opacity="0.6" d="M168.828 130.871C167.01 132.114 167.02 141.697 167.02 141.697L174.116 142.223C174.116 142.223 176.027 134.9 174.578 132.525C173.348 130.508 171.145 129.29 168.828 130.871Z" fill="white"/>
<path d="M197.003 143.914C197.003 143.914 197.316 138.113 203.798 137.136L203.047 138.309L204.48 137.5L197.929 145.348L197.003 143.914Z" fill="#407BFF"/>
<path opacity="0.8" d="M197.003 143.914C197.003 143.914 197.316 138.113 203.798 137.136L203.047 138.309L204.48 137.5L197.929 145.348L197.003 143.914Z" fill="white"/>
<path d="M186.736 137.476L188.989 137.405L199.773 140.902L189.946 155.241L180.276 152.934C179.613 152.776 179.287 152.061 179.618 151.49L183.523 144.743C183.601 144.609 183.599 144.447 183.521 144.314L182.988 143.416C182.883 143.238 182.88 143.022 182.98 142.842L185.601 138.149C185.826 137.748 186.259 137.491 186.736 137.476Z" fill="#407BFF"/>
<path d="M199.772 140.901L205.913 137.135L195.815 151.46L189.946 155.241L199.772 140.901Z" fill="#407BFF"/>
<path opacity="0.2" d="M199.772 140.901L205.913 137.135L195.815 151.46L189.946 155.241L199.772 140.901Z" fill="black"/>
<path d="M200.818 146.412L198.223 145.348L196.697 148.359L197.588 149.845C197.588 149.845 197.929 151.001 199.253 150.587C199.905 150.383 200.682 149.105 200.886 148.479C201.049 147.986 200.818 146.412 200.818 146.412Z" fill="#B97964"/>
</svg>
