<svg width="235" height="56" viewBox="0 0 235 56" fill="none" xmlns="http://www.w3.org/2000/svg">
<rect width="235" height="56" rx="10" fill="white"/>
<g style="mix-blend-mode:multiply">
<path d="M40.8477 18.6836H44.7852L53.6445 37H49.7422L48.2773 33.918H37.5781L36.1602 37H32.2461L40.8477 18.6836ZM46.8125 30.8594L42.8516 22.5391L38.9961 30.8594H46.8125ZM55.2266 30.1211C55.2266 29.1055 55.4102 28.1602 55.7773 27.2852C56.1523 26.4023 56.6953 25.6406 57.4062 25C58.125 24.3516 59 23.8438 60.0312 23.4766C61.0703 23.1094 62.2539 22.9258 63.582 22.9258C64.1602 22.9258 64.7422 22.9609 65.3281 23.0312C65.9141 23.1016 66.4766 23.2031 67.0156 23.3359C67.5625 23.4609 68.0742 23.6133 68.5508 23.793C69.0273 23.9648 69.4414 24.1562 69.793 24.3672L68.1875 26.9805C67.4297 26.6289 66.7109 26.3711 66.0312 26.207C65.3594 26.043 64.6758 25.9609 63.9805 25.9609C63.1836 25.9609 62.4688 26.0664 61.8359 26.2773C61.2031 26.4805 60.6641 26.7695 60.2188 27.1445C59.7812 27.5117 59.4453 27.9492 59.2109 28.457C58.9844 28.957 58.8711 29.5039 58.8711 30.0977C58.8711 30.6914 58.9922 31.2422 59.2344 31.75C59.4844 32.25 59.832 32.6836 60.2773 33.0508C60.7305 33.4102 61.2734 33.6953 61.9062 33.9062C62.5469 34.1094 63.2578 34.2109 64.0391 34.2109C64.8984 34.2109 65.707 34.0898 66.4648 33.8477C67.2305 33.6055 67.9414 33.2812 68.5977 32.875L70.2031 35.4883C69.7891 35.7383 69.3398 35.9727 68.8555 36.1914C68.3711 36.4023 67.8516 36.5859 67.2969 36.7422C66.75 36.8984 66.1719 37.0195 65.5625 37.1055C64.9609 37.1992 64.3359 37.2461 63.6875 37.2461C62.3672 37.2461 61.1836 37.0664 60.1367 36.707C59.0898 36.3477 58.2031 35.8516 57.4766 35.2188C56.75 34.5781 56.1914 33.8242 55.8008 32.957C55.418 32.0898 55.2266 31.1445 55.2266 30.1211ZM73.2852 32.6406C73.2852 31.9766 73.4297 31.3711 73.7188 30.8242C74.0078 30.2773 74.4414 29.8086 75.0195 29.418C75.5977 29.0195 76.3164 28.7148 77.1758 28.5039C78.043 28.2852 79.0508 28.1758 80.1992 28.1758C81.0508 28.1758 81.9453 28.2383 82.8828 28.3633C83.8281 28.4883 84.8008 28.6797 85.8008 28.9375C85.7617 28.5 85.6289 28.0977 85.4023 27.7305C85.1758 27.3555 84.8594 27.0352 84.4531 26.7695C84.0547 26.4961 83.5703 26.2852 83 26.1367C82.4375 25.9883 81.7969 25.9141 81.0781 25.9141C80.6875 25.9141 80.2578 25.9375 79.7891 25.9844C79.3203 26.0312 78.8359 26.1016 78.3359 26.1953C77.8359 26.2891 77.3398 26.4062 76.8477 26.5469C76.3633 26.6875 75.9102 26.8555 75.4883 27.0508L74.4336 24.2031C74.957 24.0156 75.5156 23.8438 76.1094 23.6875C76.7109 23.5312 77.3242 23.3984 77.9492 23.2891C78.5742 23.1719 79.1992 23.082 79.8242 23.0195C80.4492 22.957 81.0547 22.9258 81.6406 22.9258C84.2266 22.9258 86.1484 23.5859 87.4062 24.9062C88.6641 26.2266 89.293 28.25 89.293 30.9766V37H85.8242V35.6992C85.4648 35.9102 85.0703 36.1094 84.6406 36.2969C84.2188 36.4844 83.7578 36.6484 83.2578 36.7891C82.7578 36.9297 82.2188 37.0391 81.6406 37.1172C81.0703 37.2031 80.4648 37.2461 79.8242 37.2461C78.7461 37.2461 77.7969 37.1289 76.9766 36.8945C76.1641 36.6602 75.4844 36.3359 74.9375 35.9219C74.3906 35.5078 73.9766 35.0234 73.6953 34.4688C73.4219 33.9062 73.2852 33.2969 73.2852 32.6406ZM76.9414 32.5234C76.9414 32.75 77 32.9688 77.1172 33.1797C77.2344 33.3828 77.4219 33.5664 77.6797 33.7305C77.9375 33.8867 78.2656 34.0156 78.6641 34.1172C79.0703 34.2109 79.5586 34.2578 80.1289 34.2578C80.7383 34.2578 81.3281 34.2031 81.8984 34.0938C82.4688 33.9844 83 33.8398 83.4922 33.6602C83.9844 33.4805 84.4297 33.2734 84.8281 33.0391C85.2266 32.8047 85.5586 32.5625 85.8242 32.3125V31.7031C85.293 31.5547 84.7656 31.4297 84.2422 31.3281C83.7266 31.2266 83.2305 31.1484 82.7539 31.0938C82.2852 31.0312 81.8398 30.9883 81.418 30.9648C81.0039 30.9414 80.6406 30.9297 80.3281 30.9297C79.6797 30.9297 79.1406 30.9727 78.7109 31.0586C78.2812 31.1445 77.9336 31.2617 77.668 31.4102C77.4023 31.5508 77.2148 31.7188 77.1055 31.9141C76.9961 32.1094 76.9414 32.3125 76.9414 32.5234ZM92.8203 30.1445C92.8203 29.043 93.0273 28.0508 93.4414 27.168C93.8555 26.2773 94.4258 25.5195 95.1523 24.8945C95.8867 24.2617 96.7539 23.7773 97.7539 23.4414C98.7617 23.0977 99.8516 22.9258 101.023 22.9258C101.523 22.9258 102.016 22.957 102.5 23.0195C102.992 23.082 103.461 23.168 103.906 23.2773C104.359 23.3867 104.781 23.5195 105.172 23.6758C105.57 23.8242 105.922 23.9883 106.227 24.168V17.5586H109.695V37H106.227V35.6992C105.922 35.9102 105.562 36.1094 105.148 36.2969C104.734 36.4844 104.289 36.6484 103.812 36.7891C103.336 36.9297 102.84 37.0391 102.324 37.1172C101.816 37.2031 101.312 37.2461 100.812 37.2461C99.6406 37.2461 98.5625 37.0742 97.5781 36.7305C96.6016 36.3867 95.7617 35.9023 95.0586 35.2773C94.3555 34.6523 93.8047 33.9062 93.4062 33.0391C93.0156 32.1641 92.8203 31.1992 92.8203 30.1445ZM96.4648 30.1445C96.4648 30.6992 96.5742 31.2227 96.793 31.7148C97.0195 32.207 97.3398 32.6406 97.7539 33.0156C98.1758 33.3828 98.6797 33.6758 99.2656 33.8945C99.8594 34.1055 100.523 34.2109 101.258 34.2109C101.727 34.2109 102.195 34.168 102.664 34.082C103.133 33.9883 103.582 33.8594 104.012 33.6953C104.449 33.5312 104.855 33.332 105.23 33.0977C105.613 32.8633 105.945 32.6016 106.227 32.3125V27.5195C105.875 27.2383 105.504 27 105.113 26.8047C104.723 26.6094 104.324 26.4492 103.918 26.3242C103.512 26.1992 103.102 26.1094 102.688 26.0547C102.273 25.9922 101.871 25.9609 101.48 25.9609C100.684 25.9609 99.9727 26.0703 99.3477 26.2891C98.7305 26.5 98.207 26.793 97.7773 27.168C97.3555 27.543 97.0312 27.9844 96.8047 28.4922C96.5781 29 96.4648 29.5508 96.4648 30.1445ZM113.293 30.0391C113.293 29.1016 113.484 28.207 113.867 27.3555C114.25 26.4961 114.801 25.7383 115.52 25.082C116.238 24.4258 117.117 23.9023 118.156 23.5117C119.203 23.1211 120.391 22.9258 121.719 22.9258C123.039 22.9258 124.227 23.125 125.281 23.5234C126.344 23.9141 127.242 24.4531 127.977 25.1406C128.719 25.8281 129.285 26.6367 129.676 27.5664C130.074 28.4961 130.273 29.4922 130.273 30.5547C130.273 30.6875 130.27 30.832 130.262 30.9883C130.262 31.1367 130.254 31.2734 130.238 31.3984H117.16C117.309 31.8125 117.547 32.1914 117.875 32.5352C118.211 32.8789 118.629 33.1758 119.129 33.4258C119.629 33.6758 120.207 33.8711 120.863 34.0117C121.52 34.1445 122.246 34.2109 123.043 34.2109C123.84 34.2109 124.633 34.1289 125.422 33.9648C126.211 33.793 126.965 33.5781 127.684 33.3203L128.855 35.9688C128.402 36.1797 127.941 36.3672 127.473 36.5312C127.012 36.6875 126.527 36.8203 126.02 36.9297C125.52 37.0312 124.992 37.1094 124.438 37.1641C123.891 37.2188 123.312 37.2461 122.703 37.2461C121.148 37.2461 119.785 37.0586 118.613 36.6836C117.441 36.3086 116.461 35.7969 115.672 35.1484C114.883 34.5 114.289 33.7383 113.891 32.8633C113.492 31.9883 113.293 31.0469 113.293 30.0391ZM126.594 28.6914C126.469 28.3086 126.273 27.9531 126.008 27.625C125.75 27.2891 125.426 27 125.035 26.7578C124.645 26.5078 124.191 26.3125 123.676 26.1719C123.16 26.0312 122.594 25.9609 121.977 25.9609C121.32 25.9609 120.723 26.0352 120.184 26.1836C119.645 26.332 119.172 26.5312 118.766 26.7812C118.359 27.0312 118.02 27.3203 117.746 27.6484C117.48 27.9766 117.285 28.3242 117.16 28.6914H126.594ZM134.105 23.1719H137.574V24.3438C138.441 23.8125 139.285 23.4453 140.105 23.2422C140.934 23.0312 141.742 22.9258 142.531 22.9258C143.633 22.9258 144.645 23.1016 145.566 23.4531C146.488 23.8047 147.277 24.3359 147.934 25.0469C148.441 24.6562 148.941 24.3281 149.434 24.0625C149.926 23.7891 150.418 23.5703 150.91 23.4062C151.402 23.2344 151.902 23.1133 152.41 23.043C152.918 22.9648 153.441 22.9258 153.98 22.9258C155.113 22.9258 156.141 23.082 157.062 23.3945C157.984 23.6992 158.77 24.1562 159.418 24.7656C160.074 25.375 160.578 26.1367 160.93 27.0508C161.289 27.957 161.469 29.0078 161.469 30.2031V37H158.012V30.7656C158.012 30.0078 157.902 29.332 157.684 28.7383C157.473 28.1367 157.172 27.6328 156.781 27.2266C156.398 26.8125 155.938 26.5 155.398 26.2891C154.867 26.0703 154.281 25.9609 153.641 25.9609C153.289 25.9609 152.93 25.9961 152.562 26.0664C152.195 26.1289 151.836 26.2305 151.484 26.3711C151.141 26.5117 150.816 26.6914 150.512 26.9102C150.207 27.1211 149.941 27.3711 149.715 27.6602V37H146.258V30.7656C146.258 30.0078 146.148 29.332 145.93 28.7383C145.719 28.1367 145.418 27.6328 145.027 27.2266C144.645 26.8125 144.18 26.5 143.633 26.2891C143.094 26.0703 142.5 25.9609 141.852 25.9609C141.453 25.9609 141.051 26.0039 140.645 26.0898C140.246 26.168 139.859 26.2812 139.484 26.4297C139.117 26.5781 138.77 26.7578 138.441 26.9688C138.121 27.1797 137.832 27.418 137.574 27.6836V37H134.105V23.1719ZM167.668 21.2852C167.324 21.2852 167.012 21.2383 166.73 21.1445C166.457 21.043 166.223 20.9102 166.027 20.7461C165.832 20.5742 165.68 20.3789 165.57 20.1602C165.469 19.9336 165.418 19.6953 165.418 19.4453C165.418 19.1875 165.469 18.9492 165.57 18.7305C165.68 18.5039 165.832 18.3086 166.027 18.1445C166.223 17.9805 166.457 17.8516 166.73 17.7578C167.012 17.6562 167.324 17.6055 167.668 17.6055C168.02 17.6055 168.332 17.6562 168.605 17.7578C168.887 17.8516 169.125 17.9805 169.32 18.1445C169.516 18.3086 169.664 18.5039 169.766 18.7305C169.875 18.9492 169.93 19.1875 169.93 19.4453C169.93 19.6953 169.875 19.9336 169.766 20.1602C169.664 20.3789 169.516 20.5742 169.32 20.7461C169.125 20.9102 168.887 21.043 168.605 21.1445C168.332 21.2383 168.02 21.2852 167.668 21.2852ZM165.934 23.1719H169.402V37H165.934V23.1719Z" fill="black"/>
<path d="M175.367 25.7734H173V23.1719H175.367C175.367 22.2344 175.5 21.4023 175.766 20.6758C176.031 19.9414 176.414 19.3242 176.914 18.8242C177.422 18.3164 178.035 17.9297 178.754 17.6641C179.48 17.3984 180.297 17.2656 181.203 17.2656C181.836 17.2656 182.457 17.3281 183.066 17.4531C183.676 17.5703 184.215 17.7422 184.684 17.9688L183.453 20.8867C183.266 20.7773 183 20.6758 182.656 20.582C182.32 20.4883 181.949 20.4414 181.543 20.4414C180.746 20.4414 180.102 20.668 179.609 21.1211C179.125 21.5664 178.867 22.25 178.836 23.1719H183.207V25.7734H178.836V37H175.367V25.7734ZM187.531 38.7344C187.891 38.9688 188.281 39.1758 188.703 39.3555C189.125 39.5352 189.562 39.6836 190.016 39.8008C190.477 39.918 190.945 40.0039 191.422 40.0586C191.898 40.1211 192.371 40.1523 192.84 40.1523C194.434 40.1523 195.66 39.8086 196.52 39.1211C197.387 38.4414 197.82 37.418 197.82 36.0508V35.582C197.516 35.793 197.172 35.9883 196.789 36.168C196.414 36.3398 196.008 36.4883 195.57 36.6133C195.141 36.7383 194.684 36.8359 194.199 36.9062C193.723 36.9688 193.238 37 192.746 37C191.691 37 190.746 36.8477 189.91 36.543C189.082 36.2305 188.379 35.7773 187.801 35.1836C187.23 34.582 186.793 33.8438 186.488 32.9688C186.184 32.0938 186.031 31.0938 186.031 29.9688V23.1719H189.488V29.0078C189.488 30.6797 189.805 31.9141 190.438 32.7109C191.078 33.5 192.086 33.8945 193.461 33.8945C194.43 33.8945 195.285 33.7266 196.027 33.3906C196.777 33.0469 197.375 32.6094 197.82 32.0781V23.1719H201.289V35.418C201.289 36.7383 201.102 37.8828 200.727 38.8516C200.352 39.8281 199.805 40.6367 199.086 41.2773C198.375 41.918 197.5 42.3945 196.461 42.707C195.422 43.0273 194.242 43.1875 192.922 43.1875C191.633 43.1875 190.43 43.0508 189.312 42.7773C188.195 42.5039 187.172 42.1328 186.242 41.6641L187.531 38.7344Z" fill="#8912FF"/>
</g>
</svg>
