<svg width="439" height="414" viewBox="0 0 439 414" fill="none" xmlns="http://www.w3.org/2000/svg">
<path d="M437.045 0H0V414H437.045V0Z" fill="white"/>
<path d="M219.5 354.021C313.518 354.021 389.734 349.823 389.734 344.645C389.734 339.467 313.518 335.27 219.5 335.27C125.482 335.27 49.2654 339.467 49.2654 344.645C49.2654 349.823 125.482 354.021 219.5 354.021Z" fill="#F5F5F5"/>
<path d="M126.14 206.039C126.14 200.585 129.947 196.148 134.624 196.148C139.302 196.148 143.108 200.585 143.108 206.039C143.108 211.493 139.302 215.929 134.624 215.929C129.947 215.93 126.14 211.493 126.14 206.039ZM127.896 206.039C127.896 210.579 130.915 214.273 134.624 214.273C138.334 214.273 141.352 210.579 141.352 206.039C141.352 201.499 138.334 197.804 134.624 197.804C130.915 197.805 127.896 201.499 127.896 206.039Z" fill="#263238"/>
<path d="M109.448 206.039C109.448 200.585 113.254 196.148 117.932 196.148C122.61 196.148 126.415 200.585 126.415 206.039C126.415 211.493 122.609 215.929 117.932 215.929C113.254 215.93 109.448 211.493 109.448 206.039ZM111.204 206.039C111.204 210.579 114.223 214.273 117.932 214.273C121.642 214.273 124.659 210.579 124.659 206.039C124.659 201.499 121.642 197.804 117.932 197.804C114.223 197.804 111.204 201.499 111.204 206.039Z" fill="#263238"/>
<path d="M92.7561 206.039C92.7561 200.585 96.5614 196.148 101.24 196.148C105.918 196.148 109.723 200.585 109.723 206.039C109.723 211.493 105.917 215.929 101.24 215.929C96.5614 215.93 92.7561 211.493 92.7561 206.039ZM94.5121 206.039C94.5121 210.579 97.5307 214.273 101.24 214.273C104.95 214.273 107.967 210.579 107.967 206.039C107.967 201.499 104.95 197.804 101.24 197.804C97.5298 197.805 94.5121 201.499 94.5121 206.039Z" fill="#263238"/>
<path d="M76.0627 206.039C76.0627 200.585 79.8689 196.148 84.5469 196.148C89.2248 196.148 93.0301 200.585 93.0301 206.039C93.0301 211.493 89.2248 215.929 84.5469 215.929C79.8689 215.93 76.0627 211.493 76.0627 206.039ZM77.8187 206.039C77.8187 210.579 80.8373 214.273 84.5469 214.273C88.2564 214.273 91.2741 210.579 91.2741 206.039C91.2741 201.499 88.2564 197.804 84.5469 197.804C80.8373 197.805 77.8187 201.499 77.8187 206.039Z" fill="#263238"/>
<path d="M142.833 206.039C142.833 200.585 146.638 196.148 151.317 196.148C155.995 196.148 159.8 200.585 159.8 206.039C159.8 211.493 155.994 215.929 151.317 215.929C146.639 215.93 142.833 211.493 142.833 206.039ZM144.589 206.039C144.589 210.579 147.608 214.273 151.317 214.273C155.027 214.273 158.044 210.579 158.044 206.039C158.044 201.499 155.027 197.804 151.317 197.804C147.608 197.804 144.589 201.499 144.589 206.039Z" fill="#263238"/>
<path d="M65.0175 342.616H169.573L169.573 206.229H65.0175L65.0175 342.616Z" fill="#263238"/>
<path opacity="0.7" d="M65.0175 342.616H169.573L169.573 206.229H65.0175L65.0175 342.616Z" fill="white"/>
<path opacity="0.6" d="M74.4463 342.616H169.573L169.573 206.229H74.4463L74.4463 342.616Z" fill="white"/>
<path opacity="0.2" d="M68.1563 342.616L67.7173 215.155L67.2783 342.616H68.1563Z" fill="black"/>
<path opacity="0.2" d="M72.5343 342.616L72.0953 223.095L71.6562 342.616H72.5343Z" fill="black"/>
<path opacity="0.2" d="M69.4663 206.332L69.9053 302.155L70.3443 206.332H69.4663Z" fill="black"/>
<path d="M153.842 212.714C153.842 214.268 154.944 215.528 156.304 215.528C157.664 215.528 158.766 214.268 158.766 212.714C158.766 211.16 157.664 209.9 156.304 209.9C154.944 209.9 153.842 211.16 153.842 212.714Z" fill="#263238"/>
<path d="M156.455 213.548C156.702 213.548 156.947 213.45 157.121 213.261C158.824 211.399 159.8 208.767 159.8 206.039C159.8 200.585 155.994 196.148 151.317 196.148C147.87 196.148 144.792 198.543 143.476 202.248C143.323 202.681 143.57 203.151 144.03 203.296C144.491 203.44 144.988 203.208 145.142 202.774C146.214 199.755 148.637 197.804 151.317 197.804C155.027 197.804 158.044 201.498 158.044 206.039C158.044 208.376 157.222 210.613 155.791 212.179C155.475 212.525 155.516 213.049 155.883 213.347C156.049 213.482 156.252 213.548 156.455 213.548Z" fill="#263238"/>
<g opacity="0.4">
<path d="M156.455 213.548C156.702 213.548 156.947 213.45 157.121 213.261C158.824 211.399 159.8 208.767 159.8 206.039C159.8 200.585 155.994 196.148 151.317 196.148C147.87 196.148 144.792 198.543 143.476 202.248C143.323 202.681 143.57 203.151 144.03 203.296C144.491 203.44 144.988 203.208 145.142 202.774C146.214 199.755 148.637 197.804 151.317 197.804C155.027 197.804 158.044 201.498 158.044 206.039C158.044 208.376 157.222 210.613 155.791 212.179C155.475 212.525 155.516 213.049 155.883 213.347C156.049 213.482 156.252 213.548 156.455 213.548Z" fill="white"/>
</g>
<path d="M137.149 212.714C137.149 214.268 138.251 215.528 139.611 215.528C140.971 215.528 142.073 214.268 142.073 212.714C142.073 211.16 140.97 209.9 139.611 209.9C138.251 209.9 137.149 211.16 137.149 212.714Z" fill="#263238"/>
<path d="M139.763 213.548C140.01 213.548 140.255 213.45 140.429 213.261C142.131 211.399 143.109 208.767 143.109 206.039C143.109 200.585 139.302 196.148 134.625 196.148C131.178 196.148 128.1 198.543 126.785 202.248C126.631 202.681 126.879 203.151 127.339 203.296C127.799 203.44 128.297 203.208 128.45 202.774C129.522 199.755 131.946 197.804 134.625 197.804C138.335 197.804 141.353 201.498 141.353 206.039C141.353 208.376 140.531 210.613 139.1 212.179C138.784 212.525 138.824 213.049 139.191 213.347C139.356 213.482 139.56 213.548 139.763 213.548Z" fill="#263238"/>
<g opacity="0.4">
<path d="M139.763 213.548C140.01 213.548 140.255 213.45 140.429 213.261C142.131 211.399 143.109 208.767 143.109 206.039C143.109 200.585 139.302 196.148 134.625 196.148C131.178 196.148 128.1 198.543 126.785 202.248C126.631 202.681 126.879 203.151 127.339 203.296C127.799 203.44 128.297 203.208 128.45 202.774C129.522 199.755 131.946 197.804 134.625 197.804C138.335 197.804 141.353 201.498 141.353 206.039C141.353 208.376 140.531 210.613 139.1 212.179C138.784 212.525 138.824 213.049 139.191 213.347C139.356 213.482 139.56 213.548 139.763 213.548Z" fill="white"/>
</g>
<path d="M120.457 212.714C120.457 214.268 121.559 215.528 122.919 215.528C124.279 215.528 125.381 214.268 125.381 212.714C125.381 211.16 124.279 209.9 122.919 209.9C121.559 209.9 120.457 211.16 120.457 212.714Z" fill="#263238"/>
<path d="M123.071 213.548C123.318 213.548 123.563 213.45 123.737 213.261C125.439 211.399 126.416 208.767 126.416 206.039C126.416 200.585 122.61 196.148 117.933 196.148C114.486 196.148 111.408 198.543 110.092 202.248C109.939 202.681 110.186 203.151 110.646 203.296C111.107 203.44 111.604 203.208 111.758 202.774C112.83 199.755 115.254 197.804 117.933 197.804C121.643 197.804 124.66 201.498 124.66 206.039C124.66 208.376 123.838 210.613 122.407 212.179C122.091 212.525 122.132 213.049 122.499 213.347C122.664 213.482 122.867 213.548 123.071 213.548Z" fill="#263238"/>
<g opacity="0.4">
<path d="M123.071 213.548C123.318 213.548 123.563 213.45 123.737 213.261C125.439 211.399 126.416 208.767 126.416 206.039C126.416 200.585 122.61 196.148 117.933 196.148C114.486 196.148 111.408 198.543 110.092 202.248C109.939 202.681 110.186 203.151 110.646 203.296C111.107 203.44 111.604 203.208 111.758 202.774C112.83 199.755 115.254 197.804 117.933 197.804C121.643 197.804 124.66 201.498 124.66 206.039C124.66 208.376 123.838 210.613 122.407 212.179C122.091 212.525 122.132 213.049 122.499 213.347C122.664 213.482 122.867 213.548 123.071 213.548Z" fill="white"/>
</g>
<path d="M103.765 212.714C103.765 214.268 104.867 215.528 106.227 215.528C107.587 215.528 108.688 214.268 108.688 212.714C108.688 211.16 107.586 209.9 106.227 209.9C104.867 209.9 103.765 211.16 103.765 212.714Z" fill="#263238"/>
<path d="M106.378 213.548C106.625 213.548 106.87 213.45 107.044 213.261C108.747 211.399 109.724 208.767 109.724 206.039C109.724 200.585 105.917 196.148 101.24 196.148C97.7933 196.148 94.715 198.543 93.3998 202.248C93.2461 202.681 93.4937 203.151 93.9538 203.296C94.4139 203.44 94.9117 203.208 95.0654 202.774C96.1374 199.755 98.5607 197.804 101.24 197.804C104.95 197.804 107.968 201.498 107.968 206.039C107.968 208.376 107.146 210.613 105.715 212.179C105.399 212.525 105.439 213.049 105.806 213.347C105.971 213.482 106.175 213.548 106.378 213.548Z" fill="#263238"/>
<g opacity="0.4">
<path d="M106.378 213.548C106.625 213.548 106.87 213.45 107.044 213.261C108.747 211.399 109.724 208.767 109.724 206.039C109.724 200.585 105.917 196.148 101.24 196.148C97.7933 196.148 94.715 198.543 93.3998 202.248C93.2461 202.681 93.4937 203.151 93.9538 203.296C94.4139 203.44 94.9117 203.208 95.0654 202.774C96.1374 199.755 98.5607 197.804 101.24 197.804C104.95 197.804 107.968 201.498 107.968 206.039C107.968 208.376 107.146 210.613 105.715 212.179C105.399 212.525 105.439 213.049 105.806 213.347C105.971 213.482 106.175 213.548 106.378 213.548Z" fill="white"/>
</g>
<path d="M87.072 212.714C87.072 214.268 88.1748 215.528 89.5339 215.528C90.894 215.528 91.9958 214.268 91.9958 212.714C91.9958 211.16 90.8931 209.9 89.5339 209.9C88.1739 209.9 87.072 211.16 87.072 212.714Z" fill="#263238"/>
<path d="M89.6858 213.548C89.9325 213.548 90.1774 213.45 90.3513 213.261C92.0537 211.399 93.031 208.767 93.031 206.039C93.031 200.585 89.2257 196.148 84.5477 196.148C81.1007 196.148 78.0224 198.543 76.7072 202.248C76.5535 202.681 76.8011 203.151 77.2612 203.296C77.7213 203.44 78.2191 203.208 78.3727 202.774C79.4448 199.755 81.8681 197.804 84.5477 197.804C88.2573 197.804 91.275 201.498 91.275 206.039C91.275 208.376 90.4531 210.613 89.022 212.179C88.7059 212.525 88.7463 213.049 89.1133 213.347C89.2784 213.482 89.4821 213.548 89.6858 213.548Z" fill="#263238"/>
<g opacity="0.4">
<path d="M89.6858 213.548C89.9325 213.548 90.1774 213.45 90.3513 213.261C92.0537 211.399 93.031 208.767 93.031 206.039C93.031 200.585 89.2257 196.148 84.5477 196.148C81.1007 196.148 78.0224 198.543 76.7072 202.248C76.5535 202.681 76.8011 203.151 77.2612 203.296C77.7213 203.44 78.2191 203.208 78.3727 202.774C79.4448 199.755 81.8681 197.804 84.5477 197.804C88.2573 197.804 91.275 201.498 91.275 206.039C91.275 208.376 90.4531 210.613 89.022 212.179C88.7059 212.525 88.7463 213.049 89.1133 213.347C89.2784 213.482 89.4821 213.548 89.6858 213.548Z" fill="white"/>
</g>
<path d="M101.917 268.977H94.5588V280.808H101.917V268.977Z" fill="#407BFF"/>
<path d="M113.837 260.366H106.479V280.808H113.837V260.366Z" fill="#407BFF"/>
<path d="M125.758 263.595H118.399V280.808H125.758V263.595Z" fill="#407BFF"/>
<path d="M137.678 254.985H130.32V280.808H137.678V254.985Z" fill="#407BFF"/>
<path d="M149.597 246.375H142.24V280.808H149.597V246.375Z" fill="#407BFF"/>
<path opacity="0.5" d="M101.917 268.977H94.5588V280.808H101.917V268.977Z" fill="white"/>
<path opacity="0.5" d="M113.837 260.366H106.479V280.808H113.837V260.366Z" fill="white"/>
<path opacity="0.5" d="M125.758 263.595H118.399V280.808H125.758V263.595Z" fill="white"/>
<path opacity="0.5" d="M137.678 254.985H130.32V280.808H137.678V254.985Z" fill="white"/>
<path opacity="0.5" d="M149.597 246.375H142.24V280.808H149.597V246.375Z" fill="white"/>
<path d="M159.409 279.17H84.4539V282.446H159.409V279.17Z" fill="#263238"/>
<path d="M86.8086 270.45L110.158 252.927L122.078 259.451L154.896 233.07" stroke="#407BFF" stroke-width="2.9675" stroke-miterlimit="10"/>
<path d="M156.812 231.547L151.928 232.261L155.369 235.726L156.812 231.547Z" fill="#407BFF"/>
<g opacity="0.3">
<path d="M126.963 293.089H84.5452C84.0606 293.089 83.6672 292.719 83.6672 292.261C83.6672 291.803 84.0606 291.433 84.5452 291.433H126.963C127.448 291.433 127.841 291.803 127.841 292.261C127.841 292.719 127.448 293.089 126.963 293.089Z" fill="black"/>
</g>
<g opacity="0.3">
<path d="M159.721 300.489H90.5982C90.1136 300.489 89.7202 300.119 89.7202 299.661C89.7202 299.204 90.1136 298.833 90.5982 298.833H159.721C160.206 298.833 160.599 299.204 160.599 299.661C160.599 300.119 160.206 300.489 159.721 300.489Z" fill="black"/>
<path d="M159.819 304.639H84.5452C84.0606 304.639 83.6672 304.268 83.6672 303.811C83.6672 303.353 84.0606 302.983 84.5452 302.983H159.818C160.303 302.983 160.696 303.353 160.696 303.811C160.697 304.268 160.303 304.639 159.819 304.639Z" fill="black"/>
<path d="M159.915 308.789H84.6426C84.158 308.789 83.7646 308.418 83.7646 307.961C83.7646 307.503 84.158 307.133 84.6426 307.133H159.915C160.4 307.133 160.793 307.503 160.793 307.961C160.793 308.418 160.4 308.789 159.915 308.789Z" fill="black"/>
<path d="M147.713 312.938H84.7384C84.2537 312.938 83.8604 312.568 83.8604 312.11C83.8604 311.652 84.2537 311.282 84.7384 311.282H147.712C148.197 311.282 148.59 311.652 148.59 312.11C148.591 312.567 148.198 312.938 147.713 312.938Z" fill="black"/>
</g>
<g opacity="0.3">
<path d="M159.721 320.375H90.5982C90.1136 320.375 89.7202 320.005 89.7202 319.547C89.7202 319.089 90.1136 318.719 90.5982 318.719H159.721C160.206 318.719 160.599 319.089 160.599 319.547C160.599 320.004 160.206 320.375 159.721 320.375Z" fill="black"/>
<path d="M159.819 324.523H84.5452C84.0606 324.523 83.6672 324.153 83.6672 323.695C83.6672 323.237 84.0606 322.867 84.5452 322.867H159.818C160.303 322.867 160.696 323.237 160.696 323.695C160.697 324.153 160.303 324.523 159.819 324.523Z" fill="black"/>
<path d="M159.915 328.673H84.6426C84.158 328.673 83.7646 328.303 83.7646 327.845C83.7646 327.387 84.158 327.017 84.6426 327.017H159.915C160.4 327.017 160.793 327.387 160.793 327.845C160.793 328.303 160.4 328.673 159.915 328.673Z" fill="black"/>
<path d="M147.713 332.822H84.7384C84.2537 332.822 83.8604 332.452 83.8604 331.994C83.8604 331.536 84.2537 331.166 84.7384 331.166H147.712C148.197 331.166 148.59 331.536 148.59 331.994C148.591 332.451 148.198 332.822 147.713 332.822Z" fill="black"/>
</g>
<g opacity="0.3">
<path d="M126.963 224.322H84.5452C84.0606 224.322 83.6672 223.952 83.6672 223.494C83.6672 223.036 84.0606 222.666 84.5452 222.666H126.963C127.448 222.666 127.841 223.036 127.841 223.494C127.841 223.951 127.448 224.322 126.963 224.322Z" fill="black"/>
</g>
<path d="M360.371 304.586H259.548C257.87 304.586 256.51 303.304 256.51 301.721V144.651C256.51 143.068 257.87 141.785 259.548 141.785H360.37C362.048 141.785 363.409 143.068 363.409 144.651V301.721C363.409 303.304 362.049 304.586 360.371 304.586Z" fill="#407BFF"/>
<path d="M338.789 146.873H281.13V141.54C281.13 141.245 281.384 141.006 281.697 141.006H338.223C338.536 141.006 338.79 141.245 338.79 141.54L338.789 146.873Z" fill="#263238"/>
<path opacity="0.9" d="M359.182 146.873H260.737V299.48H359.182V146.873Z" fill="white"/>
<path d="M329.262 153.895H311.943L311.745 153.324C311.493 152.591 310.777 152.099 309.964 152.099C309.151 152.099 308.435 152.591 308.182 153.324L307.985 153.896H290.665C289.265 153.896 288.127 152.826 288.127 151.512V145.5C288.127 144.185 289.265 143.116 290.665 143.116H329.262C330.656 143.116 331.79 144.185 331.79 145.5V151.512C331.791 152.826 330.657 153.895 329.262 153.895ZM313.156 152.239H329.262C329.688 152.239 330.035 151.912 330.035 151.511V145.499C330.035 145.098 329.688 144.771 329.262 144.771H290.665C290.227 144.771 289.884 145.091 289.884 145.499V151.511C289.884 151.919 290.227 152.239 290.665 152.239H306.772C307.397 151.145 308.611 150.443 309.964 150.443C311.317 150.443 312.53 151.145 313.156 152.239Z" fill="#263238"/>
<g opacity="0.5">
<path d="M329.262 153.895H311.943L311.745 153.324C311.493 152.591 310.777 152.099 309.964 152.099C309.151 152.099 308.435 152.591 308.182 153.324L307.985 153.896H290.665C289.265 153.896 288.127 152.826 288.127 151.512V145.5C288.127 144.185 289.265 143.116 290.665 143.116H329.262C330.656 143.116 331.79 144.185 331.79 145.5V151.512C331.791 152.826 330.657 153.895 329.262 153.895ZM313.156 152.239H329.262C329.688 152.239 330.035 151.912 330.035 151.511V145.499C330.035 145.098 329.688 144.771 329.262 144.771H290.665C290.227 144.771 289.884 145.091 289.884 145.499V151.511C289.884 151.919 290.227 152.239 290.665 152.239H306.772C307.397 151.145 308.611 150.443 309.964 150.443C311.317 150.443 312.53 151.145 313.156 152.239Z" fill="white"/>
</g>
<path d="M326.545 145.755H293.374C292.895 145.755 292.506 145.389 292.506 144.936V142.971C292.506 142.519 292.895 142.152 293.374 142.152H326.545C327.024 142.152 327.413 142.519 327.413 142.971V144.936C327.413 145.389 327.024 145.755 326.545 145.755Z" fill="#263238"/>
<path opacity="0.2" d="M326.545 145.755H293.374C292.895 145.755 292.506 145.389 292.506 144.936V142.971C292.506 142.519 292.895 142.152 293.374 142.152H326.545C327.024 142.152 327.413 142.519 327.413 142.971V144.936C327.413 145.389 327.024 145.755 326.545 145.755Z" fill="white"/>
<path d="M351.489 274.763C353.86 265.294 347.642 255.804 337.601 253.568C327.559 251.332 317.497 257.196 315.126 266.666C312.755 276.135 318.973 285.625 329.014 287.861C339.056 290.097 349.118 284.233 351.489 274.763Z" fill="#407BFF"/>
<path opacity="0.3" d="M333.306 270.686H351.988C351.988 280.352 343.555 288.305 333.306 288.305C323.057 288.305 314.624 280.352 314.624 270.686C314.624 261.021 323.057 253.068 333.306 253.068C333.328 253.068 333.35 253.068 333.373 253.068L333.306 270.686Z" fill="white"/>
<path opacity="0.3" d="M333.306 270.686L343.387 285.519C340.378 287.338 336.879 288.305 333.306 288.305C323.057 288.305 314.624 280.352 314.624 270.686C314.624 261.021 323.057 253.068 333.306 253.068C333.328 253.068 333.349 253.068 333.371 253.068L333.306 270.686Z" fill="white"/>
<path opacity="0.3" d="M333.306 270.686L317.554 280.161C315.64 277.331 314.623 274.043 314.623 270.686C314.623 261.021 323.056 253.068 333.305 253.068C333.327 253.068 333.348 253.068 333.37 253.068L333.306 270.686Z" fill="white"/>
<g opacity="0.5">
<path d="M267.834 174.2V215.785H352.085V174.2H267.834ZM351.427 180.694H336.843V174.821H351.427V180.694ZM304.847 180.694H289.837V174.821H304.847V180.694ZM305.505 174.821H320.516V180.694H305.505V174.821ZM304.847 181.315V215.164H289.837V181.315H304.847ZM305.505 181.315H320.516V215.164H305.505V181.315ZM321.174 181.315H336.185V215.164H321.174V181.315ZM321.174 180.694V174.821H336.185V180.694H321.174ZM289.178 174.821V180.694H268.492V174.821H289.178ZM268.492 181.315H289.178V215.164H268.492V181.315ZM336.843 215.164V181.315H351.427V215.164H336.843Z" fill="black"/>
<path d="M294.619 187.126H300.698C301.182 187.126 301.576 186.755 301.576 186.298C301.576 185.84 301.182 185.47 300.698 185.47H294.619C294.135 185.47 293.741 185.84 293.741 186.298C293.741 186.755 294.134 187.126 294.619 187.126Z" fill="black"/>
<path d="M309.96 194.64H316.557C317.041 194.64 317.435 194.27 317.435 193.812C317.435 193.354 317.041 192.984 316.557 192.984H309.96C309.475 192.984 309.082 193.354 309.082 193.812C309.082 194.269 309.475 194.64 309.96 194.64Z" fill="black"/>
<path d="M316.848 208.009H309.96C309.475 208.009 309.082 208.379 309.082 208.837C309.082 209.295 309.475 209.665 309.96 209.665H316.848C317.333 209.665 317.726 209.295 317.726 208.837C317.726 208.379 317.333 208.009 316.848 208.009Z" fill="black"/>
<path d="M332.121 200.496H324.842C324.357 200.496 323.964 200.866 323.964 201.324C323.964 201.782 324.357 202.152 324.842 202.152H332.121C332.606 202.152 332.999 201.782 332.999 201.324C332.999 200.866 332.606 200.496 332.121 200.496Z" fill="black"/>
<path d="M347.824 185.47H340.457C339.972 185.47 339.579 185.84 339.579 186.298C339.579 186.755 339.972 187.126 340.457 187.126H347.824C348.309 187.126 348.702 186.755 348.702 186.298C348.702 185.84 348.309 185.47 347.824 185.47Z" fill="black"/>
<path d="M346.883 208.009H340.457C339.972 208.009 339.579 208.379 339.579 208.837C339.579 209.295 339.972 209.665 340.457 209.665H346.883C347.368 209.665 347.761 209.295 347.761 208.837C347.761 208.379 347.368 208.009 346.883 208.009Z" fill="black"/>
<path d="M294.619 202.152H299.829C300.314 202.152 300.707 201.782 300.707 201.324C300.707 200.866 300.314 200.496 299.829 200.496H294.619C294.135 200.496 293.741 200.866 293.741 201.324C293.741 201.781 294.134 202.152 294.619 202.152Z" fill="black"/>
<path d="M300.697 208.009H294.618C294.134 208.009 293.74 208.379 293.74 208.837C293.74 209.295 294.134 209.665 294.618 209.665H300.697C301.181 209.665 301.575 209.295 301.575 208.837C301.575 208.379 301.182 208.009 300.697 208.009Z" fill="black"/>
<path d="M271.659 187.126H285.552C286.037 187.126 286.43 186.755 286.43 186.298C286.43 185.84 286.037 185.47 285.552 185.47H271.659C271.174 185.47 270.781 185.84 270.781 186.298C270.781 186.755 271.174 187.126 271.659 187.126Z" fill="black"/>
<path d="M271.659 194.64H280.909C281.394 194.64 281.787 194.27 281.787 193.812C281.787 193.354 281.394 192.984 280.909 192.984H271.659C271.174 192.984 270.781 193.354 270.781 193.812C270.781 194.269 271.174 194.64 271.659 194.64Z" fill="black"/>
<path d="M285.552 200.496H271.659C271.174 200.496 270.781 200.866 270.781 201.324C270.781 201.782 271.174 202.152 271.659 202.152H285.552C286.037 202.152 286.43 201.782 286.43 201.324C286.43 200.866 286.038 200.496 285.552 200.496Z" fill="black"/>
<path d="M278.605 208.009H271.659C271.174 208.009 270.781 208.379 270.781 208.837C270.781 209.295 271.174 209.665 271.659 209.665H278.605C279.09 209.665 279.483 209.295 279.483 208.837C279.483 208.379 279.091 208.009 278.605 208.009Z" fill="black"/>
</g>
<g opacity="0.5">
<path d="M301.585 165.482H268.712C268.227 165.482 267.834 165.111 267.834 164.654C267.834 164.197 268.227 163.826 268.712 163.826H301.585C302.07 163.826 302.463 164.197 302.463 164.654C302.463 165.111 302.07 165.482 301.585 165.482Z" fill="black"/>
</g>
<g opacity="0.5">
<path d="M290.056 170.132H268.712C268.227 170.132 267.834 169.761 267.834 169.304C267.834 168.847 268.227 168.476 268.712 168.476H290.056C290.541 168.476 290.934 168.847 290.934 169.304C290.934 169.761 290.541 170.132 290.056 170.132Z" fill="black"/>
</g>
<g opacity="0.5">
<path d="M311.129 222.966H268.712C268.227 222.966 267.834 222.596 267.834 222.138C267.834 221.68 268.227 221.31 268.712 221.31H311.129C311.614 221.31 312.007 221.68 312.007 222.138C312.007 222.596 311.615 222.966 311.129 222.966Z" fill="black"/>
</g>
<path d="M273.074 255.787H267.834V260.729H273.074V255.787Z" fill="#407BFF"/>
<g opacity="0.5">
<path d="M302.896 259.086H276.884C276.4 259.086 276.006 258.716 276.006 258.258C276.006 257.8 276.4 257.43 276.884 257.43H302.896C303.381 257.43 303.774 257.8 303.774 258.258C303.774 258.716 303.382 259.086 302.896 259.086Z" fill="black"/>
</g>
<path d="M273.074 264.073H267.834V269.015H273.074V264.073Z" fill="#407BFF"/>
<g opacity="0.5">
<path d="M302.896 267.372H276.884C276.4 267.372 276.006 267.002 276.006 266.544C276.006 266.086 276.4 265.716 276.884 265.716H302.896C303.381 265.716 303.774 266.086 303.774 266.544C303.774 267.001 303.382 267.372 302.896 267.372Z" fill="black"/>
</g>
<path d="M273.074 272.358H267.834V277.3H273.074V272.358Z" fill="#407BFF"/>
<g opacity="0.5">
<path d="M302.896 275.657H276.884C276.4 275.657 276.006 275.287 276.006 274.829C276.006 274.371 276.4 274.001 276.884 274.001H302.896C303.381 274.001 303.774 274.371 303.774 274.829C303.774 275.287 303.382 275.657 302.896 275.657Z" fill="black"/>
</g>
<path d="M273.074 280.643H267.834V285.585H273.074V280.643Z" fill="#407BFF"/>
<g opacity="0.5">
<path d="M302.896 283.942H276.884C276.4 283.942 276.006 283.572 276.006 283.114C276.006 282.656 276.4 282.286 276.884 282.286H302.896C303.381 282.286 303.774 282.656 303.774 283.114C303.774 283.572 303.382 283.942 302.896 283.942Z" fill="black"/>
</g>
<g opacity="0.5">
<path d="M350.917 230.367H274.765C274.28 230.367 273.887 229.997 273.887 229.539C273.887 229.081 274.28 228.711 274.765 228.711H350.917C351.401 228.711 351.795 229.081 351.795 229.539C351.795 229.997 351.401 230.367 350.917 230.367Z" fill="black"/>
<path d="M351.013 234.516H268.712C268.227 234.516 267.834 234.146 267.834 233.688C267.834 233.23 268.227 232.86 268.712 232.86H351.013C351.498 232.86 351.891 233.23 351.891 233.688C351.891 234.145 351.498 234.516 351.013 234.516Z" fill="black"/>
<path d="M351.11 238.665H268.809C268.324 238.665 267.931 238.295 267.931 237.837C267.931 237.379 268.324 237.009 268.809 237.009H351.11C351.594 237.009 351.988 237.379 351.988 237.837C351.988 238.295 351.595 238.665 351.11 238.665Z" fill="black"/>
<path d="M338.907 242.814H268.905C268.42 242.814 268.027 242.444 268.027 241.986C268.027 241.528 268.42 241.158 268.905 241.158H338.907C339.392 241.158 339.785 241.528 339.785 241.986C339.785 242.444 339.392 242.814 338.907 242.814Z" fill="black"/>
</g>
<path opacity="0.3" d="M273.074 264.073H267.834V269.015H273.074V264.073Z" fill="white"/>
<path opacity="0.5" d="M273.074 272.358H267.834V277.3H273.074V272.358Z" fill="white"/>
<path opacity="0.7" d="M273.074 280.643H267.834V285.585H273.074V280.643Z" fill="white"/>
<path d="M357.709 325.614C357.709 325.614 353.539 317.033 358.304 308.573C363.069 300.114 364.451 298.121 361.413 296.388C358.375 294.655 356.982 303.155 356.982 303.155C356.982 303.155 354.421 297.307 356.536 291.187C358.65 285.066 359.976 275.098 357.088 274.029C354.2 272.96 356.536 286.465 354.031 291.068C354.031 291.068 351.927 285.943 351.581 281.027C351.235 276.112 351.776 268.262 349.496 266.248C347.216 264.235 345.755 265.628 347.995 276.477C350.236 287.325 350.219 296.143 350.219 296.143C350.219 296.143 345.27 281.913 341.948 281.498C338.627 281.083 338.631 285.691 341.474 289.688C344.317 293.685 349.8 300.846 350.699 304.531C350.699 304.531 345.267 293.822 340.38 297.104C335.493 300.386 344.633 306.854 348.707 309.192C352.781 311.529 355.61 326.181 355.61 326.181L357.709 325.614Z" fill="#407BFF"/>
<path opacity="0.2" d="M357.709 325.614C357.709 325.614 353.539 317.033 358.304 308.573C363.069 300.114 364.451 298.121 361.413 296.388C358.375 294.655 356.982 303.155 356.982 303.155C356.982 303.155 354.421 297.307 356.536 291.187C358.65 285.066 359.976 275.098 357.088 274.029C354.2 272.96 356.536 286.465 354.031 291.068C354.031 291.068 351.927 285.943 351.581 281.027C351.235 276.112 351.776 268.262 349.496 266.248C347.216 264.235 345.755 265.628 347.995 276.477C350.236 287.325 350.219 296.143 350.219 296.143C350.219 296.143 345.27 281.913 341.948 281.498C338.627 281.083 338.631 285.691 341.474 289.688C344.317 293.685 349.8 300.846 350.699 304.531C350.699 304.531 345.267 293.822 340.38 297.104C335.493 300.386 344.633 306.854 348.707 309.192C352.781 311.529 355.61 326.181 355.61 326.181L357.709 325.614Z" fill="black"/>
<path d="M354.417 329.134C354.417 329.134 358.478 320.495 353.606 312.103C348.734 303.711 347.327 301.738 350.342 299.962C353.357 298.186 354.859 306.666 354.859 306.666C354.859 306.666 357.345 300.783 355.154 294.693C352.961 288.603 351.509 278.653 354.383 277.544C357.256 276.434 355.092 289.971 357.656 294.539C357.656 294.539 359.695 289.385 359.978 284.464C360.262 279.544 359.621 271.703 361.876 269.657C364.13 267.612 365.608 268.984 363.506 279.863C361.404 290.742 361.532 299.56 361.532 299.56C361.532 299.56 366.3 285.261 369.616 284.799C372.932 284.337 372.987 288.946 370.195 292.982C367.403 297.019 362.011 304.256 361.158 307.953C361.158 307.953 366.453 297.168 371.382 300.382C376.31 303.595 367.252 310.191 363.209 312.586C359.165 314.98 356.523 329.67 356.523 329.67L354.417 329.134Z" fill="#407BFF"/>
<path d="M373.147 322.975H339.598L342.314 345.615H370.433L373.147 322.975Z" fill="#263238"/>
<path d="M170.558 128.81H195.781C200.07 128.81 203.548 132.09 203.548 136.135V156.836C203.548 160.881 200.07 164.161 195.781 164.161H188.416L191.076 173.183L183.192 164.161H170.557C166.268 164.161 162.79 160.882 162.79 156.836V136.135C162.791 132.089 166.269 128.81 170.558 128.81Z" fill="#407BFF"/>
<path opacity="0.7" d="M170.558 128.81H195.781C200.07 128.81 203.548 132.09 203.548 136.135V156.836C203.548 160.881 200.07 164.161 195.781 164.161H188.416L191.076 173.183L183.192 164.161H170.557C166.268 164.161 162.79 160.882 162.79 156.836V136.135C162.791 132.089 166.269 128.81 170.558 128.81Z" fill="white"/>
<path opacity="0.7" d="M179.361 150.993C183.701 150.993 187.22 147.675 187.22 143.581C187.22 139.487 183.701 136.169 179.361 136.169C175.02 136.169 171.501 139.487 171.501 143.581C171.501 147.675 175.02 150.993 179.361 150.993Z" fill="white"/>
<path d="M179.361 150.993C183.701 150.993 187.22 147.675 187.22 143.581C187.22 139.487 183.701 136.169 179.361 136.169C175.02 136.169 171.501 139.487 171.501 143.581C171.501 147.675 175.02 150.993 179.361 150.993Z" stroke="#407BFF" stroke-width="2.5967" stroke-miterlimit="10"/>
<path d="M184.918 148.822L193.879 157.273" stroke="#407BFF" stroke-width="2.5967" stroke-miterlimit="10"/>
<path d="M187.993 151.723L194.838 158.177" stroke="#407BFF" stroke-width="3.895" stroke-miterlimit="10" stroke-linecap="round" stroke-linejoin="round"/>
<path d="M180.578 140.233C180.578 141.137 179.8 141.87 178.842 141.87C177.883 141.87 177.105 141.137 177.105 140.233C177.105 139.328 177.883 138.595 178.842 138.595C179.801 138.595 180.578 139.328 180.578 140.233Z" fill="white"/>
<path d="M183.183 141.44C183.183 141.892 182.795 142.259 182.315 142.259C181.836 142.259 181.447 141.892 181.447 141.44C181.447 140.988 181.836 140.621 182.315 140.621C182.795 140.621 183.183 140.988 183.183 141.44Z" fill="white"/>
<path d="M253.549 281.075H122.781V300.923H253.549V281.075Z" fill="#407BFF"/>
<path opacity="0.8" d="M253.549 281.075H122.781V300.923H253.549V281.075Z" fill="white"/>
<path opacity="0.2" d="M253.549 286.32V284.704L164.015 285.382L253.549 286.32Z" fill="black"/>
<path opacity="0.2" d="M253.549 293.278V292.031L213.355 293.387L253.549 293.278Z" fill="black"/>
<path opacity="0.2" d="M253.549 297.928V296.318L188.743 297.25L253.549 297.928Z" fill="black"/>
<path opacity="0.2" d="M152.016 281.075L150.121 295.872L152.357 293.62C153.391 297.789 156.472 300.923 156.472 300.923C156.472 300.923 158.551 298.486 159.772 295.23L220.842 294.568L160.346 293.322C160.527 292.525 160.643 291.703 160.643 290.871C160.643 290.166 160.56 289.476 160.427 288.806L250.041 288.593L160.22 287.93C159.894 286.749 159.411 285.658 158.901 284.712C160.161 283.643 161.817 283.017 163.581 283.017H253.549V281.076L152.016 281.075Z" fill="black"/>
<path d="M154.035 290.881C154.038 293.358 155.101 295.598 156.824 297.222C158.549 298.849 160.93 299.853 163.56 299.853H255.059C255.446 299.853 255.761 300.149 255.761 300.514V301.225C255.761 301.59 255.446 301.886 255.059 301.886H119.901C116.68 301.886 113.754 300.653 111.64 298.66C109.508 296.648 108.195 293.864 108.219 290.787C108.266 284.688 113.734 279.852 120.201 279.852H255.059C255.446 279.852 255.761 280.149 255.761 280.514V281.224C255.761 281.59 255.446 281.886 255.059 281.886H163.841C158.593 281.887 154.028 285.932 154.035 290.881Z" fill="#407BFF"/>
<path opacity="0.4" d="M154.035 290.881C154.038 293.358 155.101 295.598 156.824 297.222C158.549 298.849 160.93 299.853 163.56 299.853H255.059C255.446 299.853 255.761 300.149 255.761 300.514V301.225C255.761 301.59 255.446 301.886 255.059 301.886H119.901C116.68 301.886 113.754 300.653 111.64 298.66C109.508 296.648 108.195 293.864 108.219 290.787C108.266 284.688 113.734 279.852 120.201 279.852H255.059C255.446 279.852 255.761 280.149 255.761 280.514V281.224C255.761 281.59 255.446 281.886 255.059 281.886H163.841C158.593 281.887 154.028 285.932 154.035 290.881Z" fill="white"/>
<path d="M154.035 290.881C154.038 293.358 155.101 295.598 156.824 297.222C158.549 298.849 160.93 299.853 163.56 299.853H255.059C255.446 299.853 255.761 300.149 255.761 300.514V301.225C255.761 301.59 255.446 301.886 255.059 301.886H163.036C159.815 301.886 156.889 300.653 154.776 298.66C152.643 296.648 151.33 293.864 151.354 290.787C151.401 284.688 156.869 279.852 163.336 279.852H255.059C255.446 279.852 255.761 280.149 255.761 280.514V281.224C255.761 281.59 255.446 281.886 255.059 281.886H163.841C158.593 281.887 154.028 285.932 154.035 290.881Z" fill="#407BFF"/>
<path d="M171.267 285.535V293.492L174.321 290.611L177.281 293.403V285.535H171.267Z" fill="#263238"/>
<path opacity="0.6" d="M154.035 290.881C154.038 293.358 155.101 295.598 156.824 297.222C158.549 298.849 160.93 299.853 163.56 299.853H255.059C255.446 299.853 255.761 300.149 255.761 300.514V301.225C255.761 301.59 255.446 301.886 255.059 301.886H163.036C159.815 301.886 156.889 300.653 154.776 298.66C152.643 296.648 151.33 293.864 151.354 290.787C151.401 284.688 156.869 279.852 163.336 279.852H255.059C255.446 279.852 255.761 280.149 255.761 280.514V281.224C255.761 281.59 255.446 281.886 255.059 281.886H163.841C158.593 281.887 154.028 285.932 154.035 290.881Z" fill="white"/>
<path d="M259.863 324.805H129.095V344.652H259.863V324.805Z" fill="#407BFF"/>
<path opacity="0.7" d="M259.863 324.805H129.095V344.652H259.863V324.805Z" fill="white"/>
<path opacity="0.2" d="M259.862 330.05V328.433L170.328 329.111L259.862 330.05Z" fill="black"/>
<path opacity="0.2" d="M259.863 337.008V335.761L219.669 337.116L259.863 337.008Z" fill="black"/>
<path opacity="0.2" d="M259.863 341.657V340.048L195.057 340.979L259.863 341.657Z" fill="black"/>
<path opacity="0.2" d="M158.33 324.805L156.434 339.601L158.67 337.349C159.705 341.519 162.786 344.652 162.786 344.652C162.786 344.652 164.864 342.214 166.086 338.958L227.155 338.297L166.659 337.051C166.84 336.253 166.956 335.431 166.956 334.599C166.956 333.894 166.874 333.205 166.741 332.535L256.355 332.321L166.534 331.658C166.207 330.477 165.724 329.386 165.214 328.44C166.474 327.371 168.131 326.745 169.895 326.745H259.862V324.805H158.33Z" fill="black"/>
<path d="M160.349 334.611C160.353 337.087 161.416 339.327 163.139 340.951C164.864 342.578 167.244 343.582 169.875 343.582H261.374C261.761 343.582 262.075 343.878 262.075 344.244V344.954C262.075 345.319 261.761 345.616 261.374 345.616H119.026C115.806 345.616 112.879 344.382 110.766 342.389C108.633 340.378 107.321 337.593 107.344 334.516C107.392 328.417 112.859 323.582 119.326 323.582H261.374C261.762 323.582 262.076 323.878 262.076 324.243V324.954C262.076 325.319 261.762 325.615 261.374 325.615H170.155C164.908 325.616 160.342 329.662 160.349 334.611Z" fill="#263238"/>
<path opacity="0.2" d="M160.349 334.611C160.353 337.087 161.416 339.327 163.139 340.951C164.864 342.578 167.244 343.582 169.875 343.582H261.374C261.761 343.582 262.075 343.878 262.075 344.244V344.954C262.075 345.319 261.761 345.616 261.374 345.616H119.026C115.806 345.616 112.879 344.382 110.766 342.389C108.633 340.378 107.321 337.593 107.344 334.516C107.392 328.417 112.859 323.582 119.326 323.582H261.374C261.762 323.582 262.076 323.878 262.076 324.243V324.954C262.076 325.319 261.762 325.615 261.374 325.615H170.155C164.908 325.616 160.342 329.662 160.349 334.611Z" fill="white"/>
<path d="M160.349 334.611C160.353 337.087 161.416 339.327 163.139 340.951C164.864 342.578 167.244 343.582 169.875 343.582H261.374C261.761 343.582 262.075 343.878 262.075 344.244V344.954C262.075 345.319 261.761 345.616 261.374 345.616H169.35C166.129 345.616 163.203 344.382 161.089 342.389C158.957 340.378 157.644 337.593 157.668 334.516C157.715 328.417 163.183 323.582 169.65 323.582H261.374C261.761 323.582 262.075 323.878 262.075 324.243V324.954C262.075 325.319 261.761 325.615 261.374 325.615H170.155C164.908 325.616 160.342 329.662 160.349 334.611Z" fill="#263238"/>
<path d="M170.329 332.091V340.048L173.383 337.167L176.343 339.959V332.091H170.329Z" fill="#407BFF"/>
<path opacity="0.4" d="M160.349 334.611C160.353 337.087 161.416 339.327 163.139 340.951C164.864 342.578 167.244 343.582 169.875 343.582H261.374C261.761 343.582 262.075 343.878 262.075 344.244V344.954C262.075 345.319 261.761 345.616 261.374 345.616H169.35C166.129 345.616 163.203 344.382 161.089 342.389C158.957 340.378 157.644 337.593 157.668 334.516C157.715 328.417 163.183 323.582 169.65 323.582H261.374C261.761 323.582 262.075 323.878 262.075 324.243V324.954C262.075 325.319 261.761 325.615 261.374 325.615H170.155C164.908 325.616 160.342 329.662 160.349 334.611Z" fill="white"/>
<path d="M117.327 322.757H165.778V302.939H117.327V322.757Z" fill="#407BFF"/>
<path opacity="0.8" d="M117.327 322.757H165.778V302.939H117.327V322.757Z" fill="white"/>
<path opacity="0.2" d="M161.892 304.878H117.327V302.939H161.844L161.892 304.878Z" fill="black"/>
<path opacity="0.2" d="M161.893 306.568L121.688 307.377L161.893 308.185V306.568Z" fill="black"/>
<path opacity="0.2" d="M161.893 313.896L119.318 314.574L161.893 315.143V313.896Z" fill="black"/>
<path opacity="0.2" d="M161.893 318.183L119.697 318.988L161.893 319.793V318.183Z" fill="black"/>
<path opacity="0.2" d="M117.327 309.391L158.147 310.554L117.327 311.359V309.391Z" fill="black"/>
<path d="M225.461 312.746C225.457 315.222 224.394 317.462 222.671 319.086C220.946 320.713 218.566 321.717 215.935 321.717H115.091C114.704 321.717 114.389 322.013 114.389 322.379V323.089C114.389 323.454 114.704 323.75 115.091 323.75H216.46C219.681 323.75 222.607 322.517 224.721 320.524C226.853 318.513 228.166 315.728 228.142 312.651C228.095 306.552 222.627 301.717 216.16 301.717H115.091C114.704 301.717 114.389 302.013 114.389 302.378V303.089C114.389 303.454 114.704 303.75 115.091 303.75H215.655C220.903 303.751 225.468 307.797 225.461 312.746Z" fill="#263238"/>
<path opacity="0.4" d="M225.461 312.746C225.457 315.222 224.394 317.462 222.671 319.086C220.946 320.713 218.566 321.717 215.935 321.717H115.091C114.704 321.717 114.389 322.013 114.389 322.379V323.089C114.389 323.454 114.704 323.75 115.091 323.75H216.46C219.681 323.75 222.607 322.517 224.721 320.524C226.853 318.513 228.166 315.728 228.142 312.651C228.095 306.552 222.627 301.717 216.16 301.717H115.091C114.704 301.717 114.389 302.013 114.389 302.378V303.089C114.389 303.454 114.704 303.75 115.091 303.75H215.655C220.903 303.751 225.468 307.797 225.461 312.746Z" fill="white"/>
<path d="M262.24 312.863C262.24 318.344 257.528 322.787 251.717 322.787H161.894V302.94H251.717C257.528 302.94 262.24 307.383 262.24 312.863Z" fill="#407BFF"/>
<path opacity="0.7" d="M161.892 302.939V322.79H251.72C253.941 322.79 255.998 322.139 257.694 321.034C260.44 319.244 262.238 316.247 262.238 312.864C262.238 307.379 257.529 302.939 251.72 302.939H161.892Z" fill="white"/>
<path opacity="0.2" d="M161.893 308.185V306.568L251.427 307.246L161.893 308.185Z" fill="black"/>
<path opacity="0.2" d="M161.893 315.143V313.896L202.087 315.252L161.893 315.143Z" fill="black"/>
<path opacity="0.2" d="M161.893 319.793V318.183L226.699 319.115L161.893 319.793Z" fill="black"/>
<path opacity="0.2" d="M251.863 304.878C253.624 304.878 255.278 305.508 256.543 306.573C256.033 307.522 255.551 308.614 255.22 309.793L165.399 310.457L255.011 310.667C254.881 311.339 254.795 312.03 254.795 312.735C254.795 313.569 254.91 314.389 255.097 315.182L194.6 316.43L255.664 317.094C256.246 318.653 257.03 320.029 257.691 321.033C260.438 319.243 262.235 316.246 262.235 312.863C262.235 307.378 257.526 302.938 251.717 302.938H161.889V304.877L251.863 304.878Z" fill="black"/>
<path d="M261.407 312.746C261.404 315.222 260.34 317.462 258.618 319.086C256.892 320.713 254.513 321.717 251.882 321.717H160.383C159.995 321.717 159.681 322.013 159.681 322.379V323.089C159.681 323.454 159.995 323.75 160.383 323.75H252.407C255.627 323.75 258.554 322.517 260.667 320.524C262.8 318.513 264.112 315.728 264.089 312.651C264.041 306.552 258.574 301.717 252.106 301.717H160.383C159.995 301.717 159.681 302.013 159.681 302.378V303.089C159.681 303.454 159.995 303.75 160.383 303.75H251.601C256.849 303.751 261.413 307.797 261.407 312.746Z" fill="#263238"/>
<path d="M251.427 310.226V318.183L248.373 315.302L245.413 318.094V310.226H251.427Z" fill="#407BFF"/>
<path d="M275.156 198.383L272.96 198.422C272.133 198.437 271.366 198.827 270.899 199.47L268.716 202.474C267.843 203.676 267.642 205.201 268.175 206.567L268.505 207.413C272.154 207.584 276.229 205.233 276.229 205.233L277.47 204.684C278.574 204.196 279.051 203.037 278.565 202.025L277.444 199.692C277.056 198.886 276.147 198.366 275.156 198.383Z" fill="#EEC1BB"/>
<path d="M233.512 202.069L235.618 203.665C236.348 204.208 237.095 204.737 237.848 205.257C239.349 206.304 240.882 207.301 242.425 208.264C243.976 209.221 245.555 210.096 247.143 210.923C248.742 211.725 250.351 212.433 251.973 213.039L251.138 212.874C251.098 212.919 251.606 212.916 252.195 212.765C252.796 212.618 253.501 212.365 254.217 212.048C255.655 211.403 257.169 210.589 258.649 209.684C260.142 208.788 261.625 207.817 263.103 206.817C264.591 205.838 266.066 204.767 267.505 203.758L267.559 203.719C268.546 203.027 269.94 203.22 270.675 204.151C271.281 204.918 271.245 205.949 270.661 206.675C269.462 208.163 268.208 209.501 266.899 210.858C265.581 212.195 264.192 213.482 262.713 214.724C261.216 215.947 259.654 217.149 257.826 218.219C256.906 218.753 255.919 219.262 254.759 219.702C253.591 220.123 252.237 220.532 250.326 220.433C250.128 220.423 249.937 220.391 249.755 220.342L249.491 220.267C247.374 219.677 245.326 218.971 243.383 218.127C241.445 217.285 239.562 216.365 237.765 215.346C235.961 214.339 234.221 213.251 232.536 212.102C231.697 211.521 230.868 210.93 230.05 210.318C229.212 209.703 228.459 209.102 227.588 208.364C225.756 206.811 225.606 204.153 227.252 202.424C228.84 200.759 231.519 200.567 233.35 201.949L233.512 202.069Z" fill="#EBC0BB"/>
<path d="M221.72 196.18C219.667 201.575 222.977 206.947 230.936 213.261C234.903 212.709 240.243 205.047 240.243 205.047C240.243 205.047 229.048 194.484 221.72 196.18Z" fill="#407BFF"/>
<path d="M228.568 162.643C228.568 162.643 220.726 155.075 210.511 164.573C200.296 174.071 198.301 205.534 198.301 205.534L224.971 210.422C224.971 210.422 228.421 206.685 230.194 195.914C231.967 185.143 232.907 174.844 235.156 172.439C237.407 170.035 228.568 162.643 228.568 162.643Z" fill="#263238"/>
<path d="M251.477 321.987L245.699 319.815L247.956 311.872L250.038 304.587L257.342 306.112L254.241 314.518L251.477 321.987Z" fill="#EEC1BB"/>
<path opacity="0.2" d="M254.169 314.686L247.893 312.021L250.007 304.663L257.326 306.15L254.169 314.686Z" fill="black"/>
<path d="M207.759 250.435C207.759 250.435 256.035 244.296 269.466 252.376C282.897 260.456 256.9 309.674 256.9 309.674L248.771 307.98C248.771 307.98 254.863 268.968 254.408 267.333C253.952 265.698 231.215 276.346 200.092 277.354L207.759 250.435Z" fill="#263238"/>
<path opacity="0.2" d="M207.759 250.435C207.759 250.435 256.035 244.296 269.466 252.376C282.897 260.456 256.9 309.674 256.9 309.674L248.771 307.98C248.771 307.98 254.863 268.968 254.408 267.333C253.952 265.698 231.215 276.346 200.092 277.354L207.759 250.435Z" fill="black"/>
<path d="M248.321 305.53L258.553 308.659L256.719 313.059L247.319 310.043L248.321 305.53Z" fill="#263238"/>
<path d="M253.508 321.01C253.508 321.01 255.516 318.542 256.775 319.662C258.223 320.951 253.508 321.01 253.508 321.01ZM253.508 321.01C253.508 321.01 257.453 321.14 257.365 322.412C257.23 324.339 253.508 321.01 253.508 321.01Z" stroke="#577AFA" stroke-width="0.4831" stroke-miterlimit="10" stroke-linecap="round" stroke-linejoin="round"/>
<path d="M244.618 316.425C244.845 315.814 252.691 318.753 252.691 318.753C252.691 318.753 255.99 324.992 260.411 327.522C264.833 330.053 261.223 331.941 255.872 330.301C250.521 328.661 246.437 327.408 242.634 326.242C238.832 325.076 242.261 322.75 244.618 316.425Z" fill="#2E353A"/>
<path opacity="0.4" d="M248.321 305.53L258.553 308.659L256.719 313.059L247.319 310.043L248.321 305.53Z" fill="white"/>
<path d="M276.672 337.745L270.685 339.333L267.354 331.734L264.31 324.757L271.091 321.779L274.05 330.23L276.672 337.745Z" fill="#EEC1BB"/>
<path d="M268.029 335.341C268.062 334.694 276.471 335.399 276.471 335.399C276.471 335.399 281.52 340.491 286.523 341.726C291.527 342.961 288.638 345.743 283.013 345.611C277.387 345.478 273.095 345.377 269.098 345.283C265.102 345.189 267.685 342.038 268.029 335.341Z" fill="#2E353A"/>
<path d="M277.484 336.262C277.484 336.262 278.662 333.356 280.208 334.091C281.986 334.937 277.484 336.262 277.484 336.262ZM277.484 336.262C277.484 336.262 281.304 335.324 281.605 336.568C282.06 338.451 277.484 336.262 277.484 336.262Z" stroke="#577AFA" stroke-width="0.4831" stroke-miterlimit="10" stroke-linecap="round" stroke-linejoin="round"/>
<path opacity="0.2" d="M274.102 330.404L267.401 331.889L264.334 324.834L271.103 321.817L274.102 330.404Z" fill="black"/>
<path d="M221.456 256.323C221.456 256.323 220.761 247.314 220.439 245.476C220.108 243.526 219.672 241.244 219.258 240.082C217.135 234.073 188.749 241.138 188.749 241.138L187.943 245.254C187.943 245.254 175.135 268.029 183.693 276.234C186.295 278.729 191.395 279.851 196.605 279.811C196.605 279.811 212.523 280.537 242.122 279.236C242.122 279.236 239.933 295.496 264.334 327.359L272.496 324.895C272.496 324.895 256.358 267.056 255.004 266.025C243.2 257.033 221.456 256.323 221.456 256.323Z" fill="#263238"/>
<path d="M262.858 326.993L272.998 323.609L274.379 328.154L264.973 331.15L262.858 326.993Z" fill="#263238"/>
<path d="M231 200.492C231 200.492 229.982 202.843 228.559 206.95C228.217 207.911 227.866 208.971 227.497 210.113C227.014 211.612 226.496 213.26 225.978 215.048C225.6 216.34 225.223 217.689 224.854 219.114C224.477 220.554 224.09 222.078 223.713 223.643C223.678 223.825 223.625 224.015 223.59 224.198C222.159 230.275 220.903 236.154 220.113 243.647L188.926 241.08C188.926 241.08 188.821 231.997 189.989 221.755C190.621 216.216 191.622 210.345 193.211 205.377C194.449 201.502 196.047 198.174 198.101 195.996C198.101 195.996 215.012 190.763 231 200.492Z" fill="#407BFF"/>
<path d="M215.092 191.771C205.71 188.945 202.067 195.877 202.067 195.877L207.057 195.414L217.203 207.421L223.146 200.163L226.886 202.055C226.886 202.055 223.243 194.227 215.092 191.771Z" fill="#407BFF"/>
<path opacity="0.6" d="M215.092 191.771C205.71 188.945 202.067 195.877 202.067 195.877L207.057 195.414L217.203 207.421L223.146 200.163L226.886 202.055C226.886 202.055 223.243 194.227 215.092 191.771Z" fill="white"/>
<path d="M216.95 206.805L208.348 194.659C212.409 192.921 215.096 185.605 215.676 181.479L221.758 190.142C219.774 192.924 218.449 196.104 222.996 198.501C222.996 198.501 216.949 206.779 216.95 206.805Z" fill="#EEC1BB"/>
<path opacity="0.2" d="M218.155 185.013L221.755 190.138C221.283 190.795 220.853 191.476 220.532 192.165C218.737 191.405 216.825 188.873 217.271 187.083C217.494 186.192 217.845 185.372 218.155 185.013Z" fill="black"/>
<path d="M188.414 242.05L198.166 242.655L197.815 245.251L187.457 244.547L188.414 242.05Z" fill="black"/>
<path d="M220.863 246.806L198.991 245.326L199.342 242.73L220.507 244.041L220.863 246.806Z" fill="black"/>
<path d="M209.471 243.762L209.399 245.456C209.382 245.848 209.699 246.181 210.114 246.207L212.79 246.376C213.212 246.403 213.576 246.104 213.608 245.707L213.742 243.99C213.774 243.586 213.448 243.237 213.019 243.213L210.282 243.069C209.853 243.046 209.489 243.358 209.471 243.762Z" stroke="white" stroke-miterlimit="10"/>
<path opacity="0.5" d="M262.858 326.993L272.998 323.609L274.379 328.154L264.973 331.15L262.858 326.993Z" fill="white"/>
<path d="M236.995 179.025C236.995 179.025 236.075 177.306 234.338 177.166" stroke="#263238" stroke-width="0.554" stroke-miterlimit="10" stroke-linecap="round" stroke-linejoin="round"/>
<path d="M234.066 182.841C234.066 182.841 234.227 184.844 234.79 186.214C234.79 186.214 233.833 186.827 232.724 186.201L234.066 182.841Z" fill="#D4827D"/>
<path d="M236.003 181.602C235.778 182.119 235.301 182.423 234.935 182.283C234.57 182.142 234.456 181.609 234.68 181.092C234.904 180.575 235.382 180.271 235.747 180.411C236.113 180.552 236.227 181.085 236.003 181.602Z" fill="#263238"/>
<path d="M235.585 180.377L236.968 180.396C236.968 180.396 235.963 181.113 235.585 180.377Z" fill="#263238"/>
<path d="M215.794 186.058C215.832 186.145 215.87 186.231 215.928 186.299C216.015 186.463 216.112 186.618 216.208 186.782C216.778 187.747 217.49 188.707 218.46 189.453C221.456 191.8 224.041 192.546 226.348 191.944C226.46 191.918 226.572 191.882 226.685 191.847C226.694 191.857 226.694 191.857 226.694 191.857C230.129 190.634 232.844 186.861 235.128 181.84C236.188 179.543 236.891 177.445 237.04 175.621C237.041 175.602 237.072 175.546 237.072 175.527C237.074 175.451 237.097 175.356 237.1 175.28C237.249 172.703 236.357 170.569 234.083 168.763C233.292 168.135 232.338 167.541 231.202 166.99C221.187 162.108 210.978 176.966 215.794 186.058Z" fill="#EEC1BB"/>
<path d="M237.081 175.56C237.081 175.56 234.078 182.481 225.861 182.162C225.861 182.162 219.294 187.713 215.013 185.801C209.176 183.194 208.228 173.043 214.436 166.112C222.485 157.125 239.345 164.095 237.081 175.56Z" fill="#263238"/>
<path d="M230.271 181.86C230.823 180.82 230.87 178.656 229.032 178.079C227.129 177.482 223.946 181.134 227.809 184.123C228.363 184.552 229.117 184.03 230.271 181.86Z" fill="#EEC1BB"/>
<path d="M228.568 162.643C228.568 162.643 236.161 164.237 238.519 168.56C241.274 173.608 241.274 177.477 233.567 179.819C233.567 179.819 224.106 170.989 219.957 169.935C215.806 168.881 212.566 168.636 212.566 168.636C215.538 161.218 225.577 159.417 228.568 162.643Z" fill="#263238"/>
<path d="M225.861 182.162C221.085 191.157 210.578 206.451 199.387 195.661C199.387 195.661 203.405 183.463 211.53 178.422C219.656 173.382 225.861 182.162 225.861 182.162Z" fill="#263238"/>
<path d="M224.124 197.176C228.212 200.017 222.982 209.395 228.139 211.484C228.139 211.484 226.515 209.61 227.593 207.058C228.672 204.506 233.055 197.771 231.312 188.643L224.124 197.176Z" fill="#263238"/>
<path opacity="0.2" d="M202.973 216.961C202.973 216.961 196.301 221.225 189.988 221.755C190.62 216.216 191.621 210.345 193.21 205.377C194.237 204.897 195.15 204.632 195.853 204.648C200.541 204.731 202.253 208.88 202.253 208.88C202.253 208.88 203.088 213.036 202.973 216.961Z" fill="black"/>
<path d="M227.33 246.472L225.925 244.879C225.397 244.279 224.594 243.959 223.77 244.016L219.919 244.287C218.38 244.395 216.991 245.2 216.193 246.446L215.698 247.218C217.837 250.01 222.33 251.541 222.33 251.541L223.559 252.112C224.654 252.62 225.91 252.247 226.445 251.256L227.675 248.973C228.101 248.185 227.963 247.189 227.33 246.472Z" fill="#EEC1BB"/>
<path d="M200.298 208.41L200.294 210.958C200.301 211.835 200.329 212.715 200.369 213.594C200.44 215.354 200.574 217.106 200.741 218.845C200.918 220.583 201.18 222.293 201.488 223.979C201.824 225.657 202.242 227.285 202.754 228.858L202.369 228.14C202.675 228.653 203.259 229.367 203.844 230.055C204.442 230.752 205.093 231.46 205.766 232.162C207.12 233.565 208.52 234.986 209.96 236.384L214.295 240.606L218.642 244.86C219.495 245.695 219.468 247.024 218.583 247.828C217.83 248.513 216.693 248.595 215.846 248.088C214.031 247.003 212.307 245.854 210.563 244.7C208.835 243.531 207.137 242.322 205.454 241.077C203.784 239.818 202.115 238.541 200.493 237.155C199.68 236.462 198.871 235.747 198.062 234.977C197.246 234.195 196.462 233.401 195.605 232.266C195.489 232.112 195.395 231.951 195.322 231.785L195.22 231.547C194.386 229.619 193.69 227.671 193.175 225.714C192.66 223.76 192.247 221.799 191.967 219.84C191.673 217.882 191.486 215.922 191.385 213.963C191.342 212.982 191.313 212.003 191.308 211.017C191.293 210.016 191.32 209.087 191.387 207.983C191.528 205.664 193.635 203.892 196.094 204.024C198.466 204.152 200.298 206.006 200.299 208.217L200.298 208.41Z" fill="#EBC0BB"/>
<path d="M197.805 196.048C192.055 197.908 189.677 203.701 189.424 213.506C192.359 216.082 202.04 215.226 202.04 215.226C202.04 215.226 203.787 200.383 197.805 196.048Z" fill="#407BFF"/>
<path d="M259.77 254.092V256.707C259.77 257.378 258.933 257.653 258.23 257.653H202.818C202.106 257.653 201.25 257.378 201.25 256.707V254.092H259.77Z" fill="#263238"/>
<path opacity="0.4" d="M259.77 254.092V256.707C259.77 257.378 258.933 257.653 258.23 257.653H202.818C202.106 257.653 201.25 257.378 201.25 256.707V254.092H259.77Z" fill="white"/>
<path opacity="0.2" d="M259.77 254.092V256.707C259.77 257.378 258.933 257.653 258.23 257.653H221.683C220.972 257.653 220.128 257.378 220.128 256.707V254.092H259.77Z" fill="black"/>
<path d="M269.042 226.942L262.446 255.159C262.231 256.088 261.272 256.763 260.303 256.763H224.27C223.31 256.763 222.694 255.919 222.916 254.989L229.505 226.989C229.728 226.067 230.679 225.608 231.646 225.608H267.68C268.648 225.608 269.256 226.021 269.042 226.942Z" fill="#263238"/>
<path opacity="0.4" d="M269.042 226.942L262.445 255.159C262.231 256.088 261.272 256.763 260.303 256.763H225.495C224.527 256.763 223.919 255.919 224.132 254.989L230.73 226.989C230.944 226.067 231.903 225.608 232.871 225.608H267.68C268.648 225.608 269.256 226.021 269.042 226.942Z" fill="white"/>
<path opacity="0.2" d="M251.276 241.283V241.292C251.276 243.708 248.529 245.67 246.516 245.67C244.503 245.67 243.31 243.707 243.883 241.292C244.457 238.924 246.461 236.993 248.431 236.92C247.857 239.335 249.087 241.292 251.091 241.292C251.133 241.292 251.276 241.292 251.276 241.283Z" fill="black"/>
</svg>
