<svg width="440" height="414" viewBox="0 0 440 414" fill="none" xmlns="http://www.w3.org/2000/svg">
<path d="M439.43 0H0.430176V414H439.43V0Z" fill="white"/>
<path d="M336.018 71.1756C337.524 66.5607 334.771 61.67 329.87 60.2521C324.968 58.8341 319.773 61.4258 318.267 66.0408C316.761 70.6558 319.513 75.5465 324.415 76.9644C329.317 78.3824 334.512 75.7906 336.018 71.1756Z" fill="#E6EDFF"/>
<path d="M408.765 273.572C408.186 271.376 407.417 269.344 406.486 267.45C398.999 252.232 381.231 247.861 368.195 238.93C362.631 235.119 358.159 229.368 357.749 222.902C357.262 215.224 362.347 208.378 366.478 201.742C371.756 193.263 375.828 183.89 376.426 174.078C377.024 164.266 373.791 153.958 366.251 147.161C357.557 139.326 344.628 137.214 332.603 137.694C302.006 138.917 273.789 151.03 249.55 126.039C232.373 108.329 225.136 78.5483 207.382 60.9541C179.203 33.0294 130.477 37.767 99.8858 63.3702C72.2474 86.5022 63.2866 123.302 73.1377 156.319C79.4984 177.637 87.1471 199.296 71.3785 219.4C57.8846 236.604 36.5345 248.075 28.6501 269.019C21.0063 289.325 23.7613 314.438 42.0773 328.976C51.5281 336.477 63.6358 340.34 75.7065 342.847C75.7963 342.866 75.8844 342.881 75.9742 342.9H321.11C359.755 337.42 421.02 320.039 408.765 273.572Z" fill="#BFD2FF"/>
<path d="M312.791 100.727C316.631 91.9303 312.169 81.868 302.825 78.2527C293.481 74.6374 282.793 78.8381 278.952 87.6353C275.112 96.4325 279.574 106.495 288.918 110.11C298.263 113.725 308.951 109.525 312.791 100.727Z" fill="#BFD2FF"/>
<path d="M68.0427 196.054C68.0427 201.83 63.0682 206.514 56.9324 206.514C50.7966 206.514 45.822 201.83 45.822 196.054C45.822 190.277 50.7966 185.594 56.9324 185.594C63.0682 185.594 68.0427 190.277 68.0427 196.054Z" fill="#BFD2FF"/>
<path d="M120.002 340.827C123.702 341.528 127.41 342.185 131.125 342.81H135.01L120.002 340.827Z" fill="#BFD2FF"/>
<path d="M394.96 220.454C394.554 219.093 393.823 217.91 392.764 216.908C392.189 216.489 391.612 216.07 391.037 215.651C389.705 214.924 388.268 214.558 386.728 214.554H386.305C385.13 214.512 384.033 214.743 383.016 215.246C381.957 215.57 381.041 216.125 380.268 216.908C379.435 217.636 378.847 218.498 378.503 219.495C377.969 220.452 377.723 221.485 377.768 222.591C377.869 223.304 377.971 224.016 378.072 224.728C378.478 226.09 379.21 227.272 380.268 228.275C380.844 228.694 381.42 229.113 381.996 229.532C383.328 230.259 384.764 230.624 386.305 230.629H386.728C387.903 230.671 388.999 230.44 390.017 229.937C391.075 229.613 391.991 229.058 392.764 228.275C393.597 227.547 394.185 226.685 394.529 225.688C395.064 224.731 395.309 223.698 395.265 222.591C395.164 221.88 395.062 221.167 394.96 220.454Z" fill="#E6EDFF"/>
<path d="M293.811 339.718L99.2919 338.844C94.8403 338.824 91.2494 335.411 91.2708 331.22L91.7914 228.469C91.8128 224.279 95.4383 220.897 99.889 220.917L294.408 221.791C298.86 221.811 302.451 225.225 302.43 229.415L301.909 332.166C301.888 336.357 298.262 339.737 293.811 339.718Z" fill="#63738F"/>
<path d="M198.101 223.73C198.098 224.231 197.665 224.636 197.132 224.633C196.6 224.631 196.17 224.223 196.173 223.721C196.175 223.22 196.609 222.816 197.141 222.818C197.674 222.82 198.103 223.229 198.101 223.73Z" fill="#333842"/>
<path d="M317.463 339.974L75.639 338.887C75.6127 344.115 80.0922 348.373 85.6449 348.398L307.361 349.394C312.913 349.419 317.436 345.201 317.463 339.974Z" fill="#3E4D66"/>
<path d="M290.537 336L102.604 335.156C99.1255 335.14 96.3195 332.473 96.336 329.199L96.831 231.463C96.8475 228.189 99.6807 225.547 103.159 225.562L291.092 226.407C294.57 226.422 297.376 229.09 297.36 232.364L296.865 330.1C296.848 333.375 294.015 336.017 290.537 336Z" fill="#FEFEFF"/>
<path d="M333.255 128.511V135.008H360.467V128.511H333.255Z" fill="#FFB861"/>
<path d="M333.255 118.467V124.964H373.783V118.467H333.255Z" fill="#96B3FF"/>
<path d="M333.255 108.422V114.919H392.161V108.422H333.255Z" fill="#FF6EA1"/>
<path d="M333.255 98.3781V104.875H366.398V98.3781H333.255Z" fill="#3FD4C7"/>
<path d="M332.359 92.5897V139.594H396.49" stroke="#333842" stroke-width="0.6764" stroke-miterlimit="10" stroke-linecap="round"/>
<path d="M395.816 148.992H353.995V152.696H395.816V148.992Z" fill="#E0E9FF"/>
<path d="M395.816 155.957H353.995V159.66H395.816V155.957Z" fill="#E0E9FF"/>
<path d="M395.816 162.922H353.995V166.641H395.816V162.922Z" fill="#E0E9FF"/>
<path d="M350.452 148.992H332.359V166.64H350.452V148.992Z" fill="#E0E9FF"/>
<path d="M395.817 169.887H332.359V173.591H395.817V169.887Z" fill="#E0E9FF"/>
<path d="M395.817 176.852H332.359V180.556H395.817V176.852Z" fill="#E0E9FF"/>
<path d="M250.046 52.1332C248.751 52.3736 247.502 52.7287 246.311 53.1893C246.384 53.2761 246.463 53.3544 246.526 53.4498C247.502 54.9184 247.028 56.8545 245.468 57.7733C243.907 58.6922 241.851 58.2463 240.875 56.7777C240.806 56.6738 240.761 56.5637 240.707 56.456C239.722 57.2655 238.821 58.1634 238.02 59.1357C238.135 59.1791 238.253 59.2124 238.365 59.2683C239.991 60.0809 240.609 61.9806 239.745 63.5104C238.882 65.041 236.864 65.6225 235.239 64.8099C235.112 64.7464 235.002 64.6649 234.888 64.589C234.463 65.7482 234.156 66.9562 233.976 68.2023C234.113 68.1813 234.247 68.1534 234.389 68.1487C236.228 68.0875 237.772 69.4413 237.837 71.1727C237.902 72.9042 236.464 74.358 234.625 74.4193C234.464 74.4247 234.308 74.4061 234.152 74.3906C234.407 75.6374 234.789 76.8393 235.287 77.9845C235.407 77.8891 235.524 77.7922 235.661 77.7116C237.222 76.7927 239.278 77.2386 240.254 78.7079C241.23 80.1773 240.756 82.1126 239.196 83.0315C239.048 83.1191 238.891 83.1827 238.736 83.2455C239.614 84.1976 240.59 85.0669 241.65 85.8368C241.705 85.6872 241.761 85.5383 241.841 85.3941C242.705 83.8635 244.722 83.2819 246.347 84.0945C247.972 84.9071 248.591 86.8068 247.728 88.3367C247.64 88.4917 247.533 88.6297 247.425 88.7639C248.681 89.1702 249.993 89.4633 251.346 89.6292C251.312 89.4679 251.281 89.3067 251.274 89.1368C251.209 87.4054 252.648 85.9523 254.487 85.8903C256.326 85.8291 257.87 87.1829 257.935 88.9143C257.942 89.0911 257.923 89.2625 257.899 89.4323C259.238 89.1849 260.527 88.8127 261.754 88.3312C261.64 88.2079 261.527 88.0823 261.432 87.9397C260.456 86.4703 260.929 84.5349 262.489 83.6161C264.049 82.6973 266.106 83.1431 267.081 84.6125C267.177 84.7567 267.248 84.9079 267.316 85.0599C268.322 84.2263 269.238 83.3013 270.05 82.298C269.895 82.2468 269.74 82.1964 269.592 82.1219C267.966 81.3093 267.348 79.4097 268.211 77.8798C269.075 76.3492 271.092 75.7677 272.717 76.5803C272.866 76.6547 272.996 76.747 273.127 76.8377C273.546 75.6653 273.845 74.4433 274.014 73.1841C273.866 73.2081 273.721 73.236 273.567 73.2415C271.728 73.3027 270.184 71.9489 270.119 70.2175C270.054 68.486 271.492 67.0322 273.332 66.9709C273.482 66.9655 273.626 66.9849 273.771 66.9981C273.506 65.7652 273.118 64.5773 272.614 63.446C272.51 63.5251 272.412 63.6104 272.295 63.6787C270.735 64.5975 268.678 64.1516 267.702 62.6823C266.727 61.2137 267.2 59.2776 268.76 58.3588C268.874 58.2913 268.996 58.2463 269.116 58.1936C268.249 57.2709 267.29 56.4288 266.251 55.6798C266.207 55.7853 266.172 55.893 266.115 55.9954C265.251 57.526 263.234 58.1075 261.609 57.2949C259.984 56.4823 259.365 54.5826 260.229 53.0528C260.288 52.9481 260.365 52.859 260.434 52.7628C259.214 52.3751 257.944 52.0967 256.637 51.9347C256.652 52.0401 256.679 52.1425 256.683 52.2518C256.748 53.9833 255.31 55.4371 253.471 55.4984C251.632 55.5596 250.087 54.2058 250.022 52.4744C250.019 52.3581 250.038 52.2472 250.046 52.1332ZM253.49 58.0067C260.985 57.7571 267.277 63.2747 267.542 70.3315C267.807 77.3882 261.946 83.3114 254.451 83.5611C246.955 83.8107 240.664 78.2931 240.398 71.2363C240.133 64.1796 245.994 58.2564 253.49 58.0067Z" fill="#BFD2FF"/>
<path d="M125.245 147.898L125.245 59.9097L47.664 59.9097L47.664 147.898H125.245Z" fill="#E0E9FF"/>
<path d="M72.0729 94.6367H63.4177V113.917H72.0729V94.6367Z" fill="#3FD4C7"/>
<path d="M85.4538 85.2009H76.7986V113.916H85.4538V85.2009Z" fill="#FEFEFF"/>
<path d="M98.8349 72.1798H90.1797V113.916H98.8349V72.1798Z" fill="#96B3FF"/>
<path d="M112.215 90.4341H103.56V113.917H112.215V90.4341Z" fill="#628AEC"/>
<path d="M58.3245 72.9586V114.125H115.225" stroke="#333842" stroke-width="0.75" stroke-miterlimit="10" stroke-linecap="round"/>
<path d="M115.457 121.973H57.2026V127.224H115.457V121.973Z" fill="#FEFEFF"/>
<path d="M115.457 131.602H57.2026V136.854H115.457V131.602Z" fill="#FEFEFF"/>
<path d="M166.74 171.351L155.995 192.007L136.471 169.105L118.892 190.312L105.929 177.125L103.954 178.846L119.067 194.221L136.501 173.188L156.549 196.703L168.752 173.245L166.74 171.351Z" fill="white"/>
<path d="M159.871 194.356C159.871 192.559 158.324 191.103 156.416 191.103C154.508 191.103 152.96 192.559 152.96 194.356C152.96 196.152 154.507 197.609 156.416 197.609C158.324 197.609 159.871 196.152 159.871 194.356Z" fill="#FF6EA1"/>
<path d="M171.289 171.359C171.289 169.562 169.742 168.105 167.834 168.105C165.925 168.105 164.378 169.561 164.378 171.359C164.378 173.155 165.925 174.611 167.834 174.611C169.741 174.611 171.289 173.155 171.289 171.359Z" fill="#3FD4C7"/>
<path d="M136.354 174.612C138.262 174.612 139.809 173.155 139.809 171.359C139.809 169.562 138.262 168.106 136.354 168.106C134.446 168.106 132.899 169.562 132.899 171.359C132.899 173.155 134.446 174.612 136.354 174.612Z" fill="#333842"/>
<path d="M119.391 195.132C121.3 195.132 122.847 193.675 122.847 191.878C122.847 190.082 121.3 188.625 119.391 188.625C117.483 188.625 115.936 190.082 115.936 191.878C115.936 193.675 117.483 195.132 119.391 195.132Z" fill="#FFB861"/>
<path d="M109.146 178.603C109.146 176.806 107.599 175.35 105.69 175.35C103.781 175.35 102.235 176.806 102.235 178.603C102.235 180.399 103.782 181.856 105.69 181.856C107.598 181.856 109.146 180.399 109.146 178.603Z" fill="#628AEC"/>
<path d="M95.5898 163.425V206.866H173.262" stroke="#333842" stroke-width="0.75" stroke-miterlimit="10" stroke-linecap="round"/>
<path d="M142.123 324.041C156.668 321.842 166.564 308.958 164.228 295.265C161.892 281.572 148.207 272.255 133.662 274.454C119.118 276.654 109.221 289.538 111.558 303.231C113.894 316.924 127.579 326.241 142.123 324.041Z" fill="#BFC5D4"/>
<path d="M137.26 299.65L116.457 292.819C115.643 295.015 115.228 297.325 115.228 299.65C115.228 311.029 125.174 320.393 137.26 320.393C141.254 320.393 145.173 319.371 148.597 317.436L137.26 299.65Z" fill="#628AEC"/>
<path d="M138.402 299.263L149.884 316.966C153.106 315.114 155.769 312.512 157.616 309.412C159.464 306.312 160.434 302.817 160.434 299.263H138.402V299.263Z" fill="#E0E9FF"/>
<path d="M138.528 298.264L160.559 297.977C160.517 295.155 159.864 292.37 158.64 289.794C157.415 287.217 155.645 284.903 153.438 282.993L138.528 298.264Z" fill="#FEFEFF"/>
<path d="M168.77 258.119H107.017V261.338H168.77V258.119Z" fill="#333842"/>
<path d="M168.77 251.76H107.017V254.979H168.77V251.76Z" fill="#333842"/>
<path d="M168.77 245.403H107.017V248.622H168.77V245.403Z" fill="#333842"/>
<path d="M168.77 239.045H107.017V242.264H168.77V239.045Z" fill="#333842"/>
<path d="M168.77 264.019H107.017V267.238H168.77V264.019Z" fill="#333842"/>
<path d="M289.487 326.108H182.424V329.326H289.487V326.108Z" fill="#333842"/>
<path d="M289.487 319.75H182.424V322.969H289.487V319.75Z" fill="#333842"/>
<path d="M289.487 313.392H182.424V316.61H289.487V313.392Z" fill="#333842"/>
<path d="M176.995 106.475C190.986 103.954 200.157 91.2325 197.479 78.0606C194.801 64.8888 181.288 56.2548 167.297 58.7759C153.306 61.2971 144.135 74.0188 146.813 87.1907C149.491 100.362 163.004 108.997 176.995 106.475Z" fill="#E0E9FF"/>
<path d="M171.532 82.9905L151.416 76.385C150.629 78.5088 150.228 80.7411 150.228 82.9905C150.228 93.9932 159.845 103.047 171.532 103.047C175.393 103.047 179.183 102.058 182.494 100.188L171.532 82.9905Z" fill="#FF6EA1"/>
<path d="M172.635 82.6159L183.737 99.7333C186.853 97.9421 189.428 95.4268 191.214 92.4292C193 89.4315 193.938 86.0524 193.938 82.6151L172.635 82.6159Z" fill="#3FD4C7"/>
<path d="M172.758 81.6507L194.059 81.3731C194.019 78.6445 193.388 75.9516 192.204 73.4603C191.02 70.969 189.308 68.7312 187.174 66.8843L172.758 81.6507Z" fill="#FEFEFF"/>
<path d="M318.942 111.328H182.236V305.569H318.942V111.328Z" fill="#E0E9FF"/>
<path d="M234.908 204.897H225.186V243.443H234.908V204.897Z" fill="#FFB861"/>
<path d="M276.686 186.034H266.963V243.444H276.686V186.034Z" fill="#FF6EA1"/>
<path d="M297.576 160.002H287.854V243.444H297.576V160.002Z" fill="#3FD4C7"/>
<path d="M202.812 201.815C223.741 196.664 261.983 177.677 279.299 159.501" stroke="#333842" stroke-width="0.75" stroke-miterlimit="10" stroke-linecap="round"/>
<path d="M280.699 157.982L279.591 160.862L279.158 159.586L277.767 159.307L280.699 157.982Z" fill="#333842"/>
<path d="M255.797 196.496H246.074V243.443H255.797V196.496Z" fill="#FEFEFF"/>
<path d="M214.018 209.357H204.296V243.443H214.018V209.357Z" fill="#628AEC"/>
<path d="M306.309 243.451H196.226V155.843" stroke="#333842" stroke-width="0.75" stroke-miterlimit="10" stroke-linecap="round"/>
<path d="M307.662 124.984H196.242V131.304H307.662V124.984Z" fill="#FEFEFF"/>
<path d="M284.104 135.195H219.798V141.515H284.104V135.195Z" fill="#FEFEFF"/>
<path d="M307.675 251.551H196.226V257.359H307.675V251.551Z" fill="#FEFEFF"/>
<path d="M307.675 262.2H196.226V268.008H307.675V262.2Z" fill="#FEFEFF"/>
<path d="M307.675 272.849H196.226V278.657H307.675V272.849Z" fill="#FEFEFF"/>
<path d="M245.715 284.356H196.226V290.165H245.715V284.356Z" fill="#FEFEFF"/>
<path d="M319.228 349.003C320.991 348.836 322.737 348.513 324.499 348.344C325.987 348.201 327.481 348.121 328.963 347.915C330.013 347.768 331.101 347.57 332.106 347.175C332.742 346.925 332.334 345.356 332.242 344.918C332.023 343.875 332.032 342.734 332.074 341.671C330.382 341.642 328.687 341.612 326.998 341.544C326.685 341.532 326.362 341.52 326.066 341.629C325.672 341.772 325.378 342.106 325.073 342.401C323.745 343.685 322.008 344.384 320.376 345.205C318.743 346.026 317.098 347.082 316.272 348.76C316.207 348.892 316.149 349.047 316.161 349.189C317.184 349.161 318.207 349.099 319.228 349.003Z" fill="#333842"/>
<path d="M349.665 258.494C349.648 258.474 349.63 258.453 349.613 258.433C347.558 256.124 344.235 255.126 341.313 255.94C333.628 258.08 333.616 269.196 332.82 275.713C331.976 282.608 331.101 289.498 330.191 296.384C328.464 309.467 327.296 328.56 325.331 341.607C326.506 342.224 327.651 342.288 328.987 342.445C331.31 342.718 332.083 342.519 332.843 341.968C335.106 330.104 340.267 312.549 342.844 300.754C344.199 294.554 345.195 291.558 346.636 285.379C347.713 280.764 348.117 276.003 349.427 271.44C350.024 269.365 351.516 267.417 351.766 265.345C352.059 262.916 351.243 260.303 349.665 258.494Z" fill="#4F5D7A"/>
<path d="M340.598 310.002L337.669 309.385" stroke="#333842" stroke-width="0.75" stroke-miterlimit="10" stroke-linecap="round" stroke-linejoin="round"/>
<path d="M340.569 309.995L337.045 311.533" stroke="#333842" stroke-width="0.75" stroke-miterlimit="10" stroke-linecap="round" stroke-linejoin="round"/>
<path d="M349.502 348.356C349.541 348.368 349.585 348.376 349.628 348.383C349.967 348.388 350.305 348.399 350.643 348.413C350.73 348.414 350.815 348.418 350.898 348.424C351.303 348.444 351.706 348.467 352.11 348.497C355.258 348.732 358.477 349.263 361.583 349.326C362.668 349.347 363.81 349.318 364.794 348.956C367.335 348.023 364.238 346.799 363.231 346.257C362.173 345.689 361.255 345.154 360.125 344.678C358.692 344.075 357.315 343.33 356.017 342.457C354.205 342.874 352.34 343.044 350.485 342.96C349.534 342.916 348.119 347.938 349.502 348.356Z" fill="#333842"/>
<path d="M358.899 271.576C358.453 268.658 356.132 258.594 352.61 258.045C350.301 257.686 347.337 258.482 345.734 260.316C344.489 261.74 343.812 263.62 343.515 265.518C343.015 268.708 343.252 272.098 343.383 275.312C343.592 280.407 344.686 290.033 344.686 290.033C344.686 290.033 350.026 332.333 349.633 342.773C351.676 345.444 357.77 342.953 357.796 342.649C358.509 334.428 358.495 315.836 358.665 309.473C358.849 302.624 359.941 278.382 358.899 271.576Z" fill="#616E87"/>
<path d="M344.349 287.448C343.969 282.284 343.589 277.12 343.208 271.955" stroke="#333842" stroke-width="0.75" stroke-miterlimit="10"/>
<path d="M358.805 271.016C358.187 267.553 355.933 258.562 352.61 258.045C351.611 257.89 350.489 257.951 349.408 258.22C347.341 256.066 344.143 255.153 341.313 255.941C335.982 257.425 334.344 263.228 333.575 268.819C336.413 270.692 339.828 271.686 343.255 272.146V272.148C343.324 272.157 343.392 272.162 343.461 272.171C343.828 272.218 344.194 272.259 344.561 272.295C344.687 272.307 344.813 272.319 344.939 272.329C345.371 272.367 345.802 272.398 346.23 272.421C346.299 272.425 346.365 272.426 346.434 272.429C346.813 272.447 347.189 272.46 347.563 272.467C347.686 272.47 347.808 272.473 347.929 272.474C348.342 272.478 348.752 272.48 349.157 272.474V272.473C349.174 272.473 349.192 272.473 349.21 272.473C352.484 272.419 355.694 271.907 358.805 271.016Z" fill="#3C4966"/>
<path d="M350.707 218.396C350.742 218.689 350.763 218.98 350.779 219.258C350.842 220.374 350.906 221.489 350.969 222.604C351.033 223.723 351.234 224.923 351.16 226.04C351.055 227.643 350.69 229.18 349.103 229.963C348.114 230.422 346.944 230.382 345.943 229.976C345.17 229.662 344.191 229.168 343.886 228.354C343.685 227.821 343.686 227.238 343.689 226.67C343.699 224.807 343.656 222.944 343.736 221.082C343.787 219.885 343.694 218.592 344.241 217.485C344.992 215.966 346.919 214.476 348.709 215.139C350.118 215.662 350.549 217.057 350.707 218.396Z" fill="#F7B699"/>
<path d="M348.599 222.86C349.71 221.739 350.438 220.332 350.745 218.834C350.733 218.688 350.726 218.545 350.709 218.396C350.55 217.058 350.119 215.662 348.711 215.14C346.921 214.477 344.994 215.967 344.242 217.486C343.695 218.592 343.789 219.886 343.737 221.084C343.693 222.091 343.687 223.1 343.688 224.108C345.326 224.661 347.449 224.022 348.599 222.86Z" fill="#C46E58"/>
<path d="M358.69 266.373L356.281 254.864L357.106 229.006C356.886 229.008 357.225 226.716 356.48 226.271C355.328 225.58 351.634 225.092 351.166 224.977C351.171 225.465 351.166 225.916 351.048 226.333C350.91 226.817 350.015 227.731 349.371 228.184C347.42 229.554 344.959 229.426 343.909 226.581C343.769 226.203 343.703 225.518 343.685 225.078C342.668 225.202 341.028 225.608 339.857 225.981C338.435 226.433 337.443 227.645 337.337 229.056L336.07 254.798L332.837 264.499C340.647 270.4 349.656 270.346 358.69 266.373Z" fill="white"/>
<path d="M345.384 256.785C350.253 254.423 354.392 250.743 357.174 246.302" stroke="#333842" stroke-width="0.2994" stroke-miterlimit="10" stroke-linecap="round"/>
<path d="M343.361 266.615C348.619 263.187 352.886 258.425 355.59 252.969" stroke="#333842" stroke-width="0.2994" stroke-miterlimit="10" stroke-linecap="round"/>
<path d="M345.371 230.233C346.764 230.93 348.541 230.894 349.9 230.142" stroke="#333842" stroke-width="0.2994" stroke-miterlimit="10" stroke-linecap="round"/>
<path d="M334.917 229.569C330.997 233.86 327.431 243.234 327.059 248.823C326.967 250.211 327.24 251.664 328.104 252.79C328.969 253.917 330.499 254.643 331.946 254.363C333.475 254.067 334.556 252.79 335.33 251.514C336.586 249.444 338.415 244.212 338.91 241.955C339.465 239.425 340.676 237.043 341.158 234.46C341.457 232.853 343.059 225.311 339.152 226.301C338.49 226.468 337.922 226.865 337.394 227.278C336.494 227.978 335.669 228.746 334.917 229.569Z" fill="#6C7995"/>
<path d="M335.372 271.479C335.892 271.728 336.425 271.947 336.962 272.153C338.694 259.783 343.423 225.188 343.42 225.094C342.4 225.213 341.011 225.584 339.826 225.944C338.38 226.383 337.33 227.566 337.163 228.959L336.019 243.859L334.447 257.805L330.738 268.336C332.092 269.587 333.641 270.651 335.372 271.479Z" fill="#6C7995"/>
<path d="M343.421 225.093L338.955 228.646L341.471 229.166L338.71 234.887L340.822 244.298L343.421 225.093Z" fill="#ABC0D4"/>
<path d="M338.893 230.849C338.893 230.849 336.433 237.082 336.387 240.037C336.362 241.742 334.683 256.48 334.683 256.48" stroke="#333842" stroke-width="0.2994" stroke-miterlimit="10"/>
<path d="M337.41 250.65C337.41 253.379 335.06 255.591 332.162 255.591C329.263 255.591 326.914 253.379 326.914 250.65C326.914 247.922 329.263 245.71 332.162 245.71C335.06 245.71 337.41 247.922 337.41 250.65Z" fill="#6C7995"/>
<path d="M330.569 246.3C332.192 245.842 334.054 246.23 335.322 247.288C336.589 248.347 337.22 250.041 336.931 251.613" stroke="#333842" stroke-width="0.2994" stroke-miterlimit="10"/>
<path d="M333.276 245.134C334.395 245.687 335.298 246.618 335.782 247.717" stroke="#333842" stroke-width="0.2994" stroke-miterlimit="10"/>
<path d="M355.554 272.898C358.293 272.32 358.834 271.946 361.456 270.91L358.869 258.056L357.284 228.909C357.06 228.912 357.301 226.658 356.533 226.225C355.444 225.611 352.474 225.175 351.641 225.023V273.552C352.965 273.39 354.274 273.169 355.554 272.898Z" fill="#6C7995"/>
<path d="M360.394 230.019C362.363 232.75 363.536 236.338 364.741 239.424C365.933 242.48 367.974 246.478 367.896 249.785C367.867 251.02 367.347 252.293 366.295 253.031C365.199 253.799 363.699 253.879 362.369 253.582C358.429 252.698 357.336 249.529 356.104 246.388C354.603 242.565 353.563 238.285 353.314 234.217C353.212 232.545 352.529 224.678 356.44 226.17C357.103 226.423 357.638 226.897 358.131 227.382C358.97 228.206 359.723 229.089 360.394 230.019Z" fill="#6C7995"/>
<path d="M356.464 247.445C355.831 245.387 355.198 243.329 354.564 241.271" stroke="#333842" stroke-width="0.2994" stroke-miterlimit="10"/>
<path d="M355.316 243.942C354.871 243.275 354.425 242.608 353.979 241.941" stroke="#333842" stroke-width="0.2994" stroke-miterlimit="10"/>
<path d="M351.639 225.017L355.601 229.064L353.036 229.286L355.021 235.285L351.684 244.377L351.639 225.017Z" fill="#ABC0D4"/>
<path d="M364.35 254.461L358.288 256.192C355.748 256.918 353.064 255.567 352.294 253.176C351.523 250.785 352.957 248.258 355.497 247.533L361.56 245.801C364.1 245.075 366.784 246.426 367.554 248.817C368.325 251.209 366.891 253.736 364.35 254.461Z" fill="#6C7995"/>
<path d="M352.607 248.629C354.834 247.868 357.062 247.107 359.289 246.345C361.201 245.691 363.266 245.248 365.224 246.061" stroke="#333842" stroke-width="0.2994" stroke-miterlimit="10" stroke-linecap="round"/>
<path d="M353.471 241.94H336.578V263.596H353.471V241.94Z" fill="#78C2F4"/>
<path d="M334.934 255.825C337.258 255.825 339.142 254.052 339.142 251.864C339.142 249.676 337.258 247.903 334.934 247.903C332.61 247.903 330.726 249.676 330.726 251.864C330.726 254.052 332.61 255.825 334.934 255.825Z" fill="#F7B699"/>
<path d="M350.398 253.171C350.287 255.357 352.079 257.213 354.4 257.319C356.722 257.423 358.694 255.737 358.806 253.551C358.917 251.365 357.126 249.509 354.804 249.404C352.482 249.299 350.51 250.986 350.398 253.171Z" fill="#F7B699"/>
<path d="M339.446 214.365C339.453 214.663 339.534 214.96 339.688 215.221C340.29 216.24 341.745 215.895 342.137 214.898C342.301 214.482 342.283 214.002 342.139 213.582C341.902 212.891 341.281 212.326 340.492 212.711C340.033 212.935 339.676 213.339 339.527 213.805C339.469 213.987 339.443 214.176 339.446 214.365Z" fill="#C46E58"/>
<path d="M343.382 207.911C344.479 207.36 346.87 206.632 349.13 206.936C351.605 207.173 352.746 208.317 353.004 209.739C353.447 212.181 353.345 215.116 352.199 217.296C352.007 217.661 351.609 218.592 351.379 218.937C349.541 221.689 346.137 221.933 344.428 221.545C342.387 221.08 341.279 219.477 340.933 217.232C340.871 216.829 340.856 215.514 340.849 215.106C340.808 212.604 342.229 208.491 343.382 207.911Z" fill="#F7B699"/>
<path d="M342.895 205.491C344.199 204.713 345.918 204.368 347.525 204.168C351.626 203.657 354.667 206.277 354.701 210C354.713 211.273 354.039 214.148 352.504 214.721C350.637 215.416 350.82 213.393 351.06 212.135C351.15 211.667 351.311 211.209 351.321 210.733C351.331 210.257 351.153 209.739 350.709 209.465C350.398 209.273 350.007 209.229 349.634 209.195C348.351 209.077 341.118 209.635 341.211 207.354C341.217 207.188 341.3 207.034 341.393 206.891C341.767 206.311 342.286 205.853 342.895 205.491Z" fill="#333842"/>
<path d="M343.789 209.563C345.567 209.922 347.632 209.777 349.203 208.877" stroke="#333842" stroke-width="0.75" stroke-miterlimit="10" stroke-linecap="round" stroke-linejoin="round"/>
<path d="M352.819 205.892C352.504 204.818 351.45 203.971 350.273 203.847" stroke="#333842" stroke-width="0.75" stroke-miterlimit="10" stroke-linecap="round" stroke-linejoin="round"/>
<path d="M353.88 205.885C353.602 205.705 353.181 205.759 352.964 206.005" stroke="#333842" stroke-width="0.75" stroke-miterlimit="10" stroke-linecap="round" stroke-linejoin="round"/>
<path d="M340.712 213.902C340.729 213.989 340.751 214.075 340.775 214.157C340.832 214.14 340.948 214.099 340.979 214.047C341.795 212.635 341.329 210.54 342.583 209.371C343.011 208.973 343.667 208.682 343.73 208.119C343.757 207.874 343.656 207.633 343.548 207.409C343.49 207.29 343.425 207.167 343.313 207.088C343.162 206.981 342.958 206.977 342.772 206.998C340.314 207.27 340.476 209.925 340.587 211.621C340.634 212.33 340.57 213.194 340.712 213.902Z" fill="#333842"/>
<path d="M351.604 216.005C352.108 216.688 353.065 216.923 353.722 216.277C354.021 215.983 354.161 215.575 354.235 215.173C354.301 214.816 354.322 214.442 354.212 214.094C354.062 213.619 353.648 213.3 353.161 213.145C351.515 212.621 350.858 214.991 351.604 216.005Z" fill="#F7B699"/>
<path d="M342.403 211.651C342.815 211.543 343.255 211.527 343.674 211.607" stroke="#333842" stroke-width="0.4761" stroke-miterlimit="10" stroke-linecap="round"/>
<path d="M344.211 217.886C344.859 218.24 345.664 218.327 346.379 218.118" stroke="#333842" stroke-width="0.4761" stroke-miterlimit="10" stroke-linecap="round"/>
<path d="M347.64 211.528C348.244 211.462 348.869 211.573 349.406 211.841" stroke="#333842" stroke-width="0.4761" stroke-miterlimit="10" stroke-linecap="round"/>
<path d="M348.218 213.773C348.218 214.055 347.975 214.282 347.677 214.282C347.378 214.282 347.136 214.054 347.136 213.773C347.136 213.492 347.378 213.263 347.677 213.263C347.975 213.263 348.218 213.492 348.218 213.773Z" fill="#333842"/>
<path d="M343.459 213.535C343.459 213.817 343.217 214.044 342.918 214.044C342.619 214.044 342.377 213.816 342.377 213.535C342.377 213.254 342.619 213.026 342.918 213.026C343.217 213.026 343.459 213.254 343.459 213.535Z" fill="#333842"/>
<path d="M344.796 216.539C344.297 216.464 343.588 216.128 343.857 215.566C343.928 215.417 344.045 215.293 344.15 215.162C344.474 214.758 344.686 214.275 344.759 213.774" stroke="#333842" stroke-width="0.4761" stroke-miterlimit="10" stroke-linecap="round"/>
<path d="M92.9073 251.028H76.0144V272.685H92.9073V251.028Z" fill="#FFB861"/>
<path d="M74.3696 264.914C76.6935 264.914 78.5774 263.14 78.5774 260.952C78.5774 258.764 76.6935 256.991 74.3696 256.991C72.0457 256.991 70.1619 258.764 70.1619 260.952C70.1619 263.14 72.0457 264.914 74.3696 264.914Z" fill="#F7B699"/>
<path d="M89.8355 262.26C89.7243 264.446 91.5156 266.302 93.8373 266.408C96.1591 266.512 98.1308 264.826 98.2428 262.64C98.354 260.454 96.5626 258.598 94.2409 258.492C91.9192 258.388 89.9467 260.074 89.8355 262.26Z" fill="#F7B699"/>
<path d="M59.3578 361.113C59.0869 359.85 58.7121 358.624 58.199 357.504C57.4174 356.994 56.6754 356.414 56.0412 355.655C55.748 355.305 55.4672 354.908 55.0809 354.743C54.7902 354.619 54.4681 354.64 54.1552 354.663C52.4709 354.784 50.7817 354.86 49.0941 354.936C49.0958 356.22 49.062 357.602 48.8051 358.87C48.7136 359.322 48.3669 360.763 48.6445 361.365L59.3578 361.113Z" fill="#333842"/>
<path d="M70.6133 271.341C70.5952 271.321 70.577 271.302 70.5589 271.282C68.4439 269.022 65.096 268.103 62.1953 268.985C54.5687 271.304 54.8521 282.417 54.2278 288.951C53.5672 295.864 52.8738 302.772 52.1465 309.677C50.7654 322.797 50.1024 341.911 48.4832 355.001C49.6741 355.59 50.8205 355.627 52.1614 355.753C54.4905 355.971 55.2581 355.754 56.0026 355.186C57.9513 343.273 62.6466 325.601 64.9115 313.75C66.1024 307.52 67.0174 304.501 68.2957 298.29C69.2502 293.652 69.5286 288.882 70.7171 284.29C71.2582 282.201 72.6986 280.219 72.8938 278.142C73.1228 275.706 72.2391 273.114 70.6133 271.341Z" fill="#4F5D7A"/>
<path d="M62.9109 323.047L59.9666 322.499" stroke="#333842" stroke-width="0.75" stroke-miterlimit="10" stroke-linecap="round" stroke-linejoin="round"/>
<path d="M62.8805 323.04L59.3992 324.66" stroke="#333842" stroke-width="0.75" stroke-miterlimit="10" stroke-linecap="round" stroke-linejoin="round"/>
<path d="M72.8254 361.179C72.8658 361.19 72.9094 361.196 72.9531 361.203C73.2916 361.2 73.6301 361.203 73.9686 361.209C74.055 361.208 74.1407 361.21 74.2239 361.214C74.6283 361.224 75.0327 361.237 75.437 361.258C78.5898 361.419 81.8224 361.875 84.929 361.864C86.0145 361.86 87.1552 361.804 88.1295 361.42C90.6448 360.426 87.5168 359.276 86.4955 358.758C85.4224 358.214 84.4909 357.701 83.3485 357.251C81.9007 356.681 80.503 355.97 79.1828 355.127C77.3824 355.587 75.5219 355.8 73.6655 355.759C72.7142 355.74 71.4327 360.793 72.8254 361.179Z" fill="#333842"/>
<path d="M80.1892 284.203C79.6654 281.296 77.0793 271.289 73.5444 270.824C71.2268 270.52 68.2849 271.385 66.7308 273.256C65.5242 274.708 64.8974 276.603 64.6504 278.508C64.2353 281.708 64.5614 285.093 64.778 288.301C65.1215 293.391 66.4697 302.988 66.4697 302.988C66.4697 302.988 72.9267 345.15 72.8098 355.596C74.9231 358.219 80.9494 355.585 80.9675 355.281C81.4633 347.045 80.9576 328.46 80.9593 322.095C80.9601 315.243 81.4106 290.983 80.1892 284.203Z" fill="#6C7995"/>
<path d="M66.0637 300.412C65.5473 295.258 65.0309 290.105 64.5137 284.951" stroke="#333842" stroke-width="0.75" stroke-miterlimit="10"/>
<path d="M59.0113 288.361C61.4327 288.983 63.9834 289.455 66.4789 289.702C71.3563 290.183 76.0739 289.451 80.6069 287.966C80.4958 286.437 80.359 285.147 80.1894 284.203C79.6656 281.296 77.0795 271.289 73.5446 270.824C72.5414 270.693 71.4222 270.781 70.3482 271.074C68.2258 268.97 65.003 268.132 62.1946 268.986C55.4443 271.039 54.89 279.979 54.4189 286.537C55.8001 287.395 57.3996 287.948 59.0113 288.361Z" fill="#3C4966"/>
<path d="M72.3683 230.71C72.4029 231.003 72.4243 231.294 72.4399 231.572C72.5033 232.687 72.5667 233.803 72.6302 234.919C72.6936 236.037 72.8945 237.237 72.8212 238.354C72.7158 239.957 72.351 241.494 70.7639 242.277C69.7747 242.736 68.6044 242.697 67.6037 242.29C66.8312 241.976 65.8519 241.482 65.5464 240.669C65.3462 240.135 65.3471 239.553 65.3504 238.985C65.3603 237.122 65.3166 235.259 65.3965 233.397C65.4484 232.2 65.3545 230.907 65.9022 229.8C66.6525 228.281 68.5797 226.791 70.3702 227.454C71.7786 227.976 72.2101 229.372 72.3683 230.71Z" fill="#F7B699"/>
<path d="M76.6798 228.792L76.6946 228.771C76.6419 228.705 76.5941 228.648 76.5521 228.6C76.2515 228.128 76.0258 227.585 75.7689 227.096C75.7837 227.125 75.5358 227.409 75.5103 227.466C75.4238 227.658 75.4032 227.897 75.3719 228.102C75.3035 228.549 75.2829 229.001 75.3109 229.452C75.3217 229.621 75.3431 229.801 75.4518 229.937C75.7055 230.254 76.5908 229.963 76.9376 229.916C77.052 229.901 77.1879 229.869 77.2275 229.767C77.3461 229.457 76.8766 229.037 76.6798 228.792Z" fill="#F7B699"/>
<path d="M64.9832 222.327C65.9328 221.681 68.1095 220.729 70.3852 220.782C72.856 220.748 74.2248 221.728 74.7914 223.067C75.6595 225.119 76.012 227.341 76.0194 229.542C76.0227 230.645 75.9395 231.748 75.7806 232.842C75.6331 233.855 75.1489 234.572 73.9942 234.758C72.9243 234.93 71.8396 235.007 70.7558 235.022C69.7897 235.035 68.6292 235.125 67.7027 234.859C66.1131 234.402 65.194 232.925 64.6521 231.544C64.5022 231.164 64.1958 229.901 64.0994 229.51C63.5048 227.111 63.9833 223.006 64.9832 222.327Z" fill="#F7B699"/>
<path d="M73.9151 219.337C73.4671 218.305 72.3157 217.582 71.1313 217.589" stroke="#333842" stroke-width="0.75" stroke-miterlimit="10" stroke-linecap="round" stroke-linejoin="round"/>
<path d="M74.9684 219.213C74.6686 219.065 74.2585 219.166 74.074 219.434" stroke="#333842" stroke-width="0.75" stroke-miterlimit="10" stroke-linecap="round" stroke-linejoin="round"/>
<path d="M70.517 232.776C70.6167 232.754 70.7007 232.717 70.7517 232.655C70.9066 232.467 70.8679 231.805 70.9016 231.561C70.998 230.856 71.0943 230.15 71.1915 229.445C71.2525 229.002 71.2014 228.625 71.5893 228.347C71.9394 228.095 72.3923 227.998 72.8256 227.996C74.3698 227.991 74.766 228.162 74.5403 226.591C74.4332 225.845 74.243 225.081 74.3953 224.327C74.4925 223.845 74.6161 223.753 74.9175 223.427C75.3993 222.903 75.9264 222.728 76.0549 222.14C75.1102 219.095 72.0473 217.345 68.4424 218.211C66.8718 218.588 65.2081 219.122 64.0097 220.038C63.4505 220.466 62.9926 220.977 62.6936 221.595C62.6195 221.747 62.5561 221.909 62.5701 222.075C62.5816 222.207 62.6179 222.326 62.6739 222.434C61.7251 223.803 62.3082 225.628 62.594 227.106C62.7941 228.141 63.1326 229.151 63.5691 230.118C63.7874 230.602 64.0312 231.077 64.2964 231.54C64.4034 231.727 64.9256 232.854 65.0829 232.861C66.6626 232.928 68.2463 232.912 69.8244 232.813C70.0105 232.801 70.3012 232.823 70.517 232.776Z" fill="#333842"/>
<path d="M71.8511 229.462C72.4366 230.086 73.4167 230.212 73.9883 229.499C74.2486 229.173 74.3359 228.753 74.3598 228.346C74.3812 227.983 74.3548 227.61 74.2024 227.277C73.9941 226.822 73.5427 226.551 73.0403 226.451C71.3396 226.112 70.983 228.539 71.8511 229.462Z" fill="#F7B699"/>
<path d="M72.5654 227.465C72.6 227.254 72.8982 227.16 73.1065 227.245C73.3141 227.33 73.4401 227.53 73.5307 227.726C73.6814 228.051 73.7728 228.402 73.7984 228.757C73.6065 228.694 73.3709 228.801 73.3058 228.982C73.24 229.163 73.3561 229.384 73.5488 229.444" stroke="#333842" stroke-width="0.4761" stroke-miterlimit="10" stroke-linecap="round"/>
<path d="M74.8887 225.335C75.2848 225.181 75.7197 225.117 76.1463 225.151" stroke="#333842" stroke-width="0.4761" stroke-miterlimit="10" stroke-linecap="round"/>
<path d="M76.1728 227.088C76.2082 227.368 75.9957 227.622 75.6992 227.654C75.4027 227.687 75.1342 227.487 75.0988 227.208C75.0634 226.929 75.2759 226.675 75.5724 226.642C75.8689 226.61 76.1374 226.81 76.1728 227.088Z" fill="#333842"/>
<path d="M74.9172 231.434C75.1124 231.43 75.5473 231.382 75.7326 231.358" stroke="#333842" stroke-width="0.4761" stroke-miterlimit="10" stroke-linecap="round"/>
<path d="M60.0366 267.976H54.8496C51.9069 267.976 49.5217 265.73 49.5217 262.96C49.5217 260.189 51.9069 257.944 54.8496 257.944H60.0366C62.9794 257.944 65.3645 260.189 65.3645 262.96C65.3645 265.729 62.9785 267.976 60.0366 267.976Z" fill="#3D434F"/>
<path d="M57.1326 241.883C53.2123 246.174 49.6461 255.547 49.2746 261.137C49.1824 262.524 49.455 263.977 50.3198 265.104C51.1846 266.231 52.7148 266.956 54.161 266.677C55.6905 266.381 56.771 265.104 57.546 263.828C58.802 261.758 60.6312 256.526 61.1262 254.269C61.6813 251.739 62.892 249.357 63.3738 246.774C63.6736 245.167 65.2755 237.625 61.3684 238.615C60.7062 238.782 60.1387 239.179 59.61 239.591C58.7081 240.292 57.8837 241.06 57.1326 241.883Z" fill="#4F5D7A"/>
<path d="M63.668 238.034L65.1224 235.866L72.9409 235.638L74.8195 238.148L63.668 238.034Z" fill="white"/>
<path d="M80.5286 270.37L78.944 241.223C78.72 241.225 78.9613 238.971 78.1929 238.539C77.1041 237.924 74.1342 237.489 73.3007 237.337L65.0812 237.406C64.0616 237.526 62.6722 237.897 61.487 238.257C60.0416 238.696 58.9915 239.879 58.8243 241.272L57.6803 256.172L56.1081 270.118L52.3994 280.649C53.7534 281.9 55.3018 282.963 57.033 283.791C57.5535 284.04 58.0864 284.259 58.6234 284.465C58.6234 284.465 66.2202 287.343 73.3007 285.865C74.6251 285.702 75.9354 285.481 77.2137 285.211C79.9529 284.633 80.4941 284.257 83.1164 283.223L80.5286 270.37Z" fill="#6C7995"/>
<path d="M90.2794 267.976H85.0915C82.1496 267.976 79.7637 265.73 79.7637 262.96C79.7637 260.189 82.1488 257.944 85.0915 257.944H90.2794C93.2213 257.944 95.6073 260.189 95.6073 262.96C95.6073 265.729 93.2213 267.976 90.2794 267.976Z" fill="#6C7995"/>
<path d="M82.0546 242.333C84.0247 245.063 85.1975 248.651 86.4016 251.737C87.5942 254.793 89.6351 258.792 89.5568 262.099C89.528 263.334 89.0075 264.606 87.9549 265.344C86.8587 266.113 85.3589 266.193 84.0296 265.895C80.0887 265.012 78.9966 261.842 77.7637 258.701C76.2631 254.878 75.2229 250.598 74.9742 246.53C74.872 244.859 74.1893 236.992 78.0997 238.484C78.7627 238.736 79.2981 239.211 79.7914 239.695C80.6306 240.52 81.3842 241.403 82.0546 242.333Z" fill="#6C7995"/>
<path d="M80.2599 263.585C77.2299 257.756 76.8584 255.642 76.2251 253.584" stroke="#333842" stroke-width="0.2994" stroke-miterlimit="10"/>
<path d="M76.9766 256.255C76.531 255.588 76.0855 254.922 75.6399 254.254" stroke="#333842" stroke-width="0.2994" stroke-miterlimit="10"/>
<path d="M289.955 283.596C282.765 284.934 282.569 292.712 283.194 298.281C284.513 310.04 288.143 337.881 288.143 337.881L295.056 372.036L299.888 372.289L297.322 337.729C297.322 337.729 298.548 312.551 299.777 303.78C301.769 291.497 299.509 281.818 289.955 283.596Z" fill="#4F5D7A"/>
<path d="M300.186 371.138C298.263 371.342 296.89 371.331 294.971 371.094C294.969 371.094 294.966 371.093 294.964 371.093C294.548 371.042 294.138 371.226 293.91 371.557C293.771 371.759 293.637 371.947 293.504 372.105C292.79 372.951 291.846 373.432 290.743 373.671C290.704 373.685 290.671 373.705 290.63 373.717C289.319 373.871 288.123 374.503 287.974 375.683H300.058C300.48 374.147 300.681 372.533 300.186 371.138Z" fill="#628AEC"/>
<path d="M300.279 375.505H287.97V377H300.279V375.505Z" fill="#333842"/>
<path d="M291.222 283.797C283.905 283.401 281.651 290.887 280.779 296.425C278.936 308.123 275.923 336.051 275.923 336.051L278.588 372.076L283.629 371.889L286.445 336.241C286.445 336.241 291.859 313.855 295.378 305.65C300.566 294.225 300.945 284.322 291.222 283.797Z" fill="#616E87"/>
<path d="M284.055 371.138C282.132 371.342 280.76 371.331 278.841 371.094C278.589 371.063 278.33 371.028 278.082 371.083C277.858 371.131 277.66 371.25 277.463 371.362C275.616 372.422 272.983 373.161 270.855 373.531C269.631 373.744 268.312 373.863 267.34 374.596C266.991 374.859 266.703 375.295 266.745 375.683H283.927C284.35 374.147 284.551 372.533 284.055 371.138Z" fill="#628AEC"/>
<path d="M283.891 375.505H266.341V376.999H283.891V375.505Z" fill="#333842"/>
<path d="M292.135 246.192C292.176 245.412 292.121 244.635 291.961 243.879C293.184 244.267 294.463 244.298 295.713 243.981C296.327 243.825 296.917 243.594 297.493 243.34C297.698 243.249 298.067 242.966 298.408 242.789C297.66 245.387 297.719 248.097 299.427 250.329C298.136 251.382 296.455 251.922 294.776 252.192C293.333 252.424 289.882 252.639 290.711 250.353C290.983 249.604 291.565 249.03 291.796 248.255C291.994 247.585 292.099 246.884 292.135 246.192Z" fill="#F7B699"/>
<path d="M295.476 244.032C294.302 244.288 293.108 244.243 291.96 243.879C292.12 244.635 292.175 245.412 292.134 246.192C292.098 246.884 291.993 247.585 291.794 248.253C291.773 248.323 291.747 248.39 291.721 248.457C291.863 248.44 292.006 248.417 292.147 248.391C293.781 247.356 294.9 245.781 295.476 244.032Z" fill="#C46E58"/>
<path d="M288.649 241.312C288.749 241.333 288.847 241.346 288.943 241.35C289.245 241.362 289.211 241.005 289.193 240.798C289.148 240.252 289.147 239.682 289.051 239.143C288.842 239.348 288.756 239.597 288.583 239.824C288.357 240.121 288.128 240.416 287.901 240.711C287.87 240.753 287.838 240.795 287.83 240.845C287.813 240.963 287.937 241.053 288.05 241.105C288.23 241.19 288.44 241.267 288.649 241.312Z" fill="#F7B699"/>
<path d="M299.518 241.094C300.03 239.965 300.298 238.741 300.26 237.517C300.218 236.192 299.758 234.862 298.857 233.842C297.545 232.354 295.309 231.65 293.31 232.093C292.796 232.207 292.303 232.396 291.848 232.645C290.736 233.254 289.444 234.479 289.261 235.743C289.22 236.027 289.281 236.298 289.224 236.585C289.138 237.011 289.042 237.434 288.972 237.862C288.833 238.716 288.753 239.582 288.796 240.446C288.846 241.456 288.978 242.479 289.4 243.41C289.822 244.342 290.492 244.971 291.308 245.37C292.838 246.119 294.687 245.885 296.123 244.984C297.619 244.046 298.805 242.663 299.518 241.094Z" fill="#F7B699"/>
<path d="M289.23 242.407C289.44 242.495 289.651 242.584 289.861 242.672" stroke="#333842" stroke-width="0.4827" stroke-miterlimit="10" stroke-linecap="round"/>
<path d="M270.692 259.5C270.792 258.994 271.197 258.552 271.712 258.382C272.245 258.208 273.147 258.206 273.325 257.702C273.414 257.449 273.502 257.355 273.287 257.183C273.072 257.011 272.783 256.94 272.501 256.924C271.636 256.874 270.759 257.333 270.347 258.051C270.22 258.272 270.037 258.561 269.781 258.49C269.66 258.457 269.581 258.348 269.532 258.238C269.23 257.574 269.647 256.83 270.05 256.215C270.367 255.731 270.707 255.228 271.232 254.948C271.821 254.633 272.54 254.654 273.216 254.697C274.581 254.785 276.011 254.883 277.164 255.648C277.466 255.848 277.742 256.081 278.043 256.283C278.817 256.799 279.731 257.089 280.631 257.371C280.35 258.289 280.069 259.207 279.789 260.125C279.774 260.172 279.756 260.224 279.711 260.25C279.664 260.277 279.603 260.265 279.55 260.253C277.894 259.872 275.982 259.553 274.322 259.308C273.131 259.166 271.869 259.308 270.692 259.5Z" fill="#F7B699"/>
<path d="M290.775 259.813C289.91 259.425 288.983 259.085 288.028 258.777C286.387 258.247 284.661 257.814 283.012 257.404C282.387 257.248 279.995 256.683 279.353 256.586C277.559 257.961 277.052 258.881 277.052 260.913C278.944 262.104 283.539 264.542 285.625 265.478C286.793 266.003 287.953 266.552 289.235 266.914C290.518 267.275 291.956 267.438 293.278 267.163C293.97 267.02 294.651 266.731 294.954 266.262C295.143 265.969 295.168 265.637 295.156 265.315C295.078 263.114 293.376 260.977 290.775 259.813Z" fill="#628AEC"/>
<path d="M259.603 269.104C258.892 267.916 258.728 266.431 259.25 265.16C259.443 264.689 259.769 264.218 260.279 264.065C260.893 263.881 261.564 264.232 261.952 264.715C262.34 265.199 262.523 265.796 262.771 266.355C263.038 266.96 263.389 267.531 263.812 268.051C264.25 268.592 264.784 269.114 264.911 269.783C265.012 270.314 264.818 270.887 264.41 271.266C262.892 272.673 260.339 270.333 259.603 269.104Z" fill="#F7B699"/>
<path d="M276.706 268.238L267.532 272.425L255.395 262.053L264.57 257.866L276.706 268.238Z" fill="#F4AE2D"/>
<path d="M275.207 267.806L267.328 271.401L256.842 262.44L264.721 258.844L275.207 267.806Z" fill="white"/>
<path d="M265.918 260.741L259.37 263.728L258.732 263.182L265.279 260.194L265.918 260.741Z" fill="#C8DDF7"/>
<path d="M269.263 263.598L262.715 266.587L262.076 266.041L268.625 263.052L269.263 263.598Z" fill="#C8DDF7"/>
<path d="M270.372 264.546L263.823 267.534L263.185 266.988L269.732 264L270.372 264.546Z" fill="#C8DDF7"/>
<path d="M271.48 265.493L264.932 268.481L264.293 267.935L270.841 264.947L271.48 265.493Z" fill="#C8DDF7"/>
<path d="M272.588 266.44L266.04 269.428L265.401 268.882L271.95 265.894L272.588 266.44Z" fill="#C8DDF7"/>
<path d="M273.697 267.387L267.148 270.375L266.51 269.829L273.057 266.841L273.697 267.387Z" fill="#C8DDF7"/>
<path d="M264.33 259.688L258.825 262.199L256.483 260.198L261.988 257.686L264.33 259.688Z" fill="#333842"/>
<path d="M260.553 268.155C260.461 268.256 260.377 268.363 260.303 268.475C259.61 269.525 260.952 270.499 261.806 271.065C263.746 272.351 266.116 272.966 268.366 273.583C269.636 273.931 273.314 273.078 272.299 271.199C271.605 269.917 269.554 269.178 268.204 268.836C266.803 268.589 265.606 268.04 265.081 266.703C264.848 266.109 264.753 265.475 264.548 264.871C264.498 264.723 264.436 264.571 264.314 264.466C264.191 264.361 263.99 264.323 263.86 264.419C263.787 264.473 263.749 264.559 263.717 264.642C263.324 265.673 264.029 266.437 262.68 267.042C262.232 267.243 261.74 267.354 261.306 267.58C261.021 267.727 260.765 267.924 260.553 268.155Z" fill="#F7B699"/>
<path d="M301.179 293.518C301.179 293.518 301.491 293.398 301.729 293.29C303.04 292.656 303.482 291.05 303.612 289.634C303.91 286.384 302.813 283.324 302.947 279.887C303.087 276.251 303.989 272.512 304.534 268.599C305.008 265.186 305.193 261.497 304.379 257.98C303.771 255.354 302.937 252.436 301.233 250.385C300.41 249.393 298.917 248.999 297.766 248.737C296.329 248.409 294.826 248.44 293.389 248.848C291.529 249.376 289.811 250.525 288.478 252.1C287.464 253.298 286.96 255.331 286.442 256.855C285.275 260.29 284.467 263.838 284.036 267.266C283.585 270.861 284.134 269.71 283.939 273.245C283.743 276.784 284.827 279.597 282.896 282.544C281.881 284.095 280.587 285.445 279.943 287.129C279.312 288.783 279.515 290.948 281.002 292.02C280.917 292.649 280.815 293.274 280.754 293.896C283.743 295.265 287.7 295.561 290.895 295.833C293.814 296.082 296.755 296.092 299.686 295.87C300.535 295.87 301.19 295.704 301.19 295.704L301.179 293.518Z" fill="#628AEC"/>
<path d="M301.009 293.567C296.802 294.019 292.547 293.84 288.402 293.036" stroke="#333842" stroke-width="0.2918" stroke-miterlimit="10" stroke-linecap="round"/>
<path d="M292.363 260.265C292.156 259.888 291.903 259.518 291.527 259.283C291.127 259.034 290.626 258.965 290.147 258.985C288.049 259.073 286.387 260.686 285.266 262.359C284.145 264.031 283.282 265.921 281.683 267.205C278.893 269.446 269.499 268.806 266.379 268.152C264.751 268.289 262.891 270.314 263.85 272.421C268.033 274.151 280.647 280.466 285.215 278.419C286.807 277.706 287.992 276.465 288.969 275.059C289.534 274.247 290.03 273.379 290.495 272.525C291.536 270.614 292.535 268.654 293.012 266.553C293.49 264.453 293.409 262.175 292.363 260.265Z" fill="#628AEC"/>
<path d="M294.219 253.153C292.825 251.758 290.435 251.607 288.753 252.601C287.77 253.182 287.27 254.382 286.762 255.334C286.14 256.499 285.609 257.708 285.177 258.947C284.729 260.229 284.386 261.541 283.967 262.831C283.279 264.945 282.383 267.003 281.868 269.16C281.353 271.317 281.24 273.633 282.102 275.69C283.333 278.627 287.439 277.067 289.269 275.432C290.845 274.025 291.6 272.01 292.302 270.075C293.007 268.131 293.712 266.187 294.417 264.243C295.011 262.602 295.693 260.431 295.817 258.33C295.93 256.388 295.567 254.504 294.219 253.153Z" fill="#628AEC"/>
<path d="M283.022 266.276C283.791 261.932 285.995 256.838 288.182 252.946" stroke="#333842" stroke-width="0.2918" stroke-miterlimit="10"/>
<path d="M295.639 261.668C294.738 263.95 293.837 266.232 292.936 268.515C292.288 270.155 291.674 272.25 290.447 273.602C289.225 274.949 288.086 276.422 286.587 277.529C285.13 278.606 283.891 278.928 282.047 278.759" stroke="#333842" stroke-width="0.2918" stroke-miterlimit="10" stroke-linecap="round"/>
<path d="M296.619 262.274C295.809 262.71 295.13 263.36 294.684 264.132" stroke="#333842" stroke-width="0.2918" stroke-miterlimit="10"/>
<path d="M268.374 261.276L267.293 261.829L267.841 260.792L274.364 254.433C274.505 254.295 274.74 254.291 274.887 254.425C275.035 254.559 275.038 254.779 274.896 254.918L268.374 261.276Z" fill="#333842"/>
<path d="M289.491 239.784C289.136 239.514 288.803 239.223 288.518 238.886C286.709 236.746 287.881 234.379 289.329 232.475C290.944 230.355 294.019 229.193 296.73 229.336C298.278 229.417 299.748 229.888 300.846 230.941C301.354 231.429 301.73 231.947 301.889 232.626C301.937 232.828 302.09 234.419 301.741 234.452C304.414 234.203 304.279 239.676 304.254 241.175C304.189 245.003 304.125 248.831 304.06 252.658C304.036 254.037 303.973 255.525 303.065 256.608C302.169 257.676 300.571 258.097 299.153 257.83C297.734 257.562 296.504 256.686 295.631 255.601C294.889 254.679 293.993 253.302 293.97 252.111C293.943 250.775 294.136 249.396 294.132 248.046C294.124 245.707 293.639 243.201 291.881 241.548C291.164 240.876 290.274 240.38 289.491 239.784Z" fill="#333842"/>
</svg>
