<svg width="440" height="414" viewBox="0 0 440 414" fill="none" xmlns="http://www.w3.org/2000/svg">
<g clip-path="url(#clip0_123_4302)">
<path d="M439.51 0H0.509766V414H439.51V0Z" fill="white"/>
<path d="M378.515 339.126C420.211 309.226 438.781 226.319 371.078 185.664C326.256 158.754 298.38 174.105 247.956 156.303C186.4 134.576 177.225 68.9326 102.349 101.233C62.6808 118.339 35.1818 166.554 30.344 221.351C25.6028 275.013 45.7705 311.835 86.9838 337.031C183.766 340.914 280.741 340.21 378.515 339.126Z" fill="#DFF3FC"/>
<path d="M207.219 103.301C200.921 127.148 224.308 150.754 248.947 160.541C273.586 170.336 301.84 169.169 328.236 164.499C339.626 162.487 351.334 159.655 360.181 152.807C369.03 145.96 374.159 134.07 369.31 124.465C365.031 115.994 354.612 111.656 344.68 109.428C334.748 107.201 324.199 106.29 315.351 101.604C306.961 97.1575 301.009 89.7965 293.712 83.9674C280.229 73.2117 261.29 67.8794 243.761 71.2825C226.223 74.6855 212.572 83.0318 207.219 103.301Z" fill="#DFF3FC"/>
<path d="M395.869 212.983V194.943H388.615C387.744 191.789 386.415 188.815 384.714 186.075L389.843 181.23L376.315 168.472L371.178 173.309C368.273 171.705 365.119 170.453 361.774 169.631V162.791H342.644V169.631C339.3 170.453 336.146 171.705 333.241 173.309L328.104 168.472L314.576 181.23L319.705 186.075C318.003 188.814 316.684 191.788 315.804 194.943H308.551V212.983H315.804C316.684 216.137 318.003 219.111 319.705 221.851L314.576 226.696L328.104 239.453L333.241 234.616C336.145 236.221 339.299 237.465 342.644 238.295V245.135H361.774V238.295C365.119 237.465 368.272 236.221 371.178 234.616L376.315 239.453L389.843 226.696L384.714 221.851C386.415 219.112 387.743 216.138 388.615 212.983H395.869ZM352.215 219.593C343.06 219.593 335.636 212.592 335.636 203.958C335.636 195.333 343.06 188.333 352.215 188.333C361.362 188.333 368.784 195.333 368.784 203.958C368.784 212.593 361.362 219.593 352.215 219.593Z" fill="#A2C7EB"/>
<path d="M338.061 258.184L334.422 249.238L330.825 250.539C329.756 249.132 328.498 247.895 327.101 246.842L328.668 243.519L319.385 239.619L317.814 242.939C316.05 242.664 314.233 242.61 312.409 242.802L311.029 239.409L301.542 242.841L302.922 246.234C301.429 247.241 300.118 248.428 299.001 249.745L295.477 248.268L291.342 257.022L294.863 258.504C294.572 260.167 294.518 261.88 294.717 263.601L291.12 264.903L294.759 273.849L298.356 272.548C299.429 273.954 300.683 275.192 302.08 276.245L300.514 279.568L309.796 283.468L311.367 280.148C313.131 280.423 314.947 280.473 316.772 280.285L318.153 283.678L327.639 280.246L326.259 276.853C327.751 275.841 329.064 274.659 330.18 273.342L333.704 274.819L337.839 266.065L334.318 264.583C334.61 262.92 334.668 261.207 334.464 259.486L338.061 258.184ZM317.746 269.295C313.206 270.938 308.112 268.798 306.37 264.516C304.63 260.239 306.898 255.435 311.439 253.793C315.975 252.152 321.068 254.292 322.809 258.569C324.551 262.85 322.282 267.654 317.746 269.295Z" stroke="#A2C7EB" stroke-miterlimit="10"/>
<path d="M306.978 226.803L304.519 220.758L302.089 221.637C301.367 220.686 300.516 219.85 299.572 219.138L300.63 216.893L294.358 214.258L293.296 216.502C292.103 216.317 290.876 216.279 289.643 216.409L288.711 214.117L282.3 216.437L283.233 218.729C282.224 219.409 281.338 220.212 280.583 221.101L278.202 220.103L275.408 226.018L277.787 227.02C277.591 228.145 277.554 229.301 277.689 230.465L275.259 231.344L277.718 237.389L280.148 236.51C280.874 237.46 281.721 238.297 282.665 239.009L281.607 241.254L287.879 243.889L288.942 241.645C290.134 241.831 291.36 241.865 292.594 241.738L293.526 244.03L299.937 241.711L299.004 239.419C300.012 238.736 300.899 237.936 301.653 237.046L304.034 238.044L306.828 232.129L304.449 231.127C304.645 230.003 304.685 228.845 304.547 227.683L306.978 226.803ZM293.252 234.31C290.184 235.419 286.742 233.974 285.565 231.081C284.389 228.19 285.922 224.945 288.99 223.835C292.054 222.726 295.496 224.172 296.671 227.062C297.85 229.955 296.316 233.201 293.252 234.31Z" stroke="#A2C7EB" stroke-miterlimit="10"/>
<path d="M304.746 120.961C304.746 130.026 300.254 138.106 293.264 143.328C288.117 147.179 281.609 149.465 274.52 149.465C267.45 149.465 260.941 147.179 255.777 143.328C248.778 138.106 244.294 130.026 244.294 120.961C244.294 105.219 257.828 92.4561 274.52 92.4561C291.213 92.4561 304.746 105.219 304.746 120.961Z" fill="#0097D8" stroke="#0097D8" stroke-miterlimit="10"/>
<path d="M275.74 120.847C281.163 120.215 285.017 115.558 284.348 110.444C283.678 105.33 278.739 101.695 273.316 102.327C267.892 102.958 264.038 107.616 264.708 112.73C265.377 117.844 270.316 121.478 275.74 120.847Z" fill="white"/>
<path d="M293.264 139.733C288.117 143.584 281.609 145.87 274.52 145.87C267.45 145.87 260.941 143.585 255.777 139.733C257.71 131.712 259.489 124.787 261.341 123.033C263.955 120.568 270.899 119.129 274.511 119.129C278.123 119.129 285.394 120.876 286.737 122.142C289.479 124.718 291.839 131.832 293.264 139.733Z" fill="white"/>
<path d="M231.082 191.228V177.152C231.082 173.31 234.383 170.197 238.457 170.197H285.482C289.556 170.197 292.858 173.31 292.858 177.152V191.228C292.858 195.07 289.556 198.183 285.482 198.183H238.466C234.392 198.192 231.082 195.07 231.082 191.228Z" fill="#0097D8"/>
<path d="M250.942 190.491L228.184 211.398L265.069 193.82" fill="#0097D8"/>
<path d="M236.789 176.804V176.73C236.789 176.159 237.28 175.695 237.886 175.695H261.136C261.741 175.695 262.233 176.159 262.233 176.73V176.804C262.233 177.376 261.741 177.839 261.136 177.839H237.886C237.28 177.839 236.789 177.376 236.789 176.804Z" fill="white"/>
<path d="M263.278 176.804V176.73C263.278 176.159 263.77 175.695 264.375 175.695H284.666C285.272 175.695 285.763 176.159 285.763 176.73V176.804C285.763 177.376 285.272 177.839 284.666 177.839H264.375C263.77 177.839 263.278 177.376 263.278 176.804Z" fill="white"/>
<path d="M254.419 181.516V181.441C254.419 180.87 254.911 180.406 255.516 180.406H284.666C285.272 180.406 285.764 180.87 285.764 181.441V181.516C285.764 182.087 285.272 182.551 284.666 182.551H255.516C254.911 182.551 254.419 182.087 254.419 181.516Z" fill="white"/>
<path d="M236.789 181.516V181.441C236.789 180.87 237.28 180.406 237.886 180.406H250.907C251.513 180.406 252.004 180.87 252.004 181.441V181.516C252.004 182.087 251.513 182.551 250.907 182.551H237.886C237.28 182.551 236.789 182.087 236.789 181.516Z" fill="white"/>
<path d="M258.466 186.227V186.152C258.466 185.581 258.958 185.117 259.564 185.117H284.666C285.272 185.117 285.763 185.581 285.763 186.152V186.227C285.763 186.798 285.272 187.262 284.666 187.262H259.564C258.958 187.262 258.466 186.798 258.466 186.227Z" fill="white"/>
<path d="M236.789 186.227V186.152C236.789 185.581 237.28 185.117 237.886 185.117H255.227C255.832 185.117 256.324 185.581 256.324 186.152V186.227C256.324 186.798 255.832 187.262 255.227 187.262H237.886C237.28 187.262 236.789 186.798 236.789 186.227Z" fill="white"/>
<path d="M236.789 190.938V190.864C236.789 190.293 237.28 189.829 237.886 189.829H244.322C244.928 189.829 245.419 190.293 245.419 190.864V190.938C245.419 191.51 244.928 191.973 244.322 191.973H237.886C237.28 191.973 236.789 191.51 236.789 190.938Z" fill="white"/>
<path d="M247.693 190.938V190.864C247.693 190.293 248.185 189.829 248.791 189.829H284.666C285.272 189.829 285.763 190.293 285.763 190.864V190.938C285.763 191.51 285.272 191.973 284.666 191.973H248.791C248.185 191.973 247.693 191.51 247.693 190.938Z" fill="white"/>
<path d="M115.009 171.303C121.785 157.57 115.473 141.258 100.911 134.868C86.3498 128.478 69.0524 134.43 62.2766 148.163C55.5009 161.895 61.8126 178.208 76.3743 184.598C90.936 190.987 108.233 185.035 115.009 171.303Z" fill="#0097D8"/>
<path d="M84.1174 179.464C87.7894 178.248 89.7205 174.455 88.4308 170.992C87.141 167.529 83.1187 165.708 79.4468 166.924C75.7748 168.14 73.8437 171.934 75.1334 175.397C76.4232 178.859 80.4455 180.681 84.1174 179.464Z" fill="white"/>
<path d="M78.0802 175.578L77.7395 171.364L81.4403 168.979L85.4808 170.808L85.8206 175.023L82.1207 177.408L78.0802 175.578Z" fill="#0097D8"/>
<path d="M97.8502 152.527C101.515 151.292 103.423 147.489 102.113 144.033C100.803 140.577 96.7708 138.777 93.1062 140.013C89.4417 141.248 87.5329 145.051 88.8429 148.507C90.1529 151.963 94.1856 153.763 97.8502 152.527Z" fill="white"/>
<path d="M91.9902 148.257L92.2326 142.898L96.5146 139.368L100.555 141.198L100.313 146.557L96.0299 150.086L91.9902 148.257Z" fill="#0097D8"/>
<path d="M86.6608 170.122L81.2708 167.681L85.2542 159.014C85.5071 158.464 85.7819 157.924 86.0787 157.394L90.7593 149.042L96.1493 151.483L92.3072 160.018C92.0104 160.678 91.6803 161.325 91.3203 161.957L86.6608 170.122Z" fill="white"/>
<path d="M108.832 174.488C109.871 174.033 126.556 174.751 126.556 174.751L114.529 164.338L108.832 174.488Z" fill="#0097D8"/>
<path d="M182.461 113.361C188.728 99.6985 182.064 83.832 167.576 77.9221C153.088 72.0123 136.264 78.2971 129.997 91.9597C123.73 105.622 130.395 121.489 144.882 127.399C159.37 133.309 176.195 127.024 182.461 113.361Z" fill="#0097D8"/>
<path d="M157.189 79.6926H155.28V102.328H157.189V79.6926Z" fill="white"/>
<path d="M135.144 115.397L136.23 116.877L156.234 103.819L155.147 102.339L135.144 115.397Z" fill="white"/>
<path d="M158.865 102.662C158.865 104.032 157.688 105.143 156.234 105.143C154.781 105.143 153.604 104.032 153.604 102.662C153.604 101.292 154.781 100.181 156.234 100.181C157.688 100.181 158.865 101.293 158.865 102.662Z" fill="white"/>
<path d="M233.829 285.173C232.135 260.532 243.566 235.03 262.821 220.44C263.418 245.206 252.101 270.269 233.829 285.173Z" fill="#A2C7EB"/>
<path d="M259.678 227.073C251.565 241.331 244.55 256.251 238.72 271.644C231.634 290.332 226.059 310.187 213.925 325.853" stroke="#6F8BBF" stroke-miterlimit="10" stroke-linecap="round"/>
<path d="M227.754 300.673C237.499 280.114 256.842 264.581 278.168 260.184C269.09 282.217 248.668 299.026 227.754 300.673Z" fill="#A2C7EB"/>
<path d="M272.936 264.713C258.37 276.802 243.558 288.551 228.5 299.953" stroke="#6F8BBF" stroke-miterlimit="10" stroke-linecap="round"/>
<path d="M222.003 318.583C235.023 300.243 259.046 290.671 278.923 295.904C264.305 314.013 240.23 323.609 222.003 318.583Z" fill="#A2C7EB"/>
<path d="M274.156 297.229C257.088 307.297 238.676 314.733 219.694 319.204" stroke="#6F8BBF" stroke-miterlimit="10" stroke-linecap="round"/>
<path d="M229.035 294.439C233.197 273.788 226.955 250.77 213.056 235.543C207.358 255.837 212.792 279.617 229.035 294.439Z" fill="#A2C7EB"/>
<path d="M214.487 240.809C217.226 260.019 222.099 278.011 229.65 295.598" stroke="#6F8BBF" stroke-miterlimit="10" stroke-linecap="round"/>
<path d="M221.889 312.025C220.115 290.795 208.578 270.857 191.703 259.853C192.677 271.097 195.847 281.936 200.878 291.789C206.664 303.108 215.163 310.287 221.889 312.025Z" fill="#A2C7EB"/>
<path d="M194.205 264.15C200.843 281.853 210.395 298.264 222.31 312.472" stroke="#6F8BBF" stroke-miterlimit="10" stroke-linecap="round"/>
<path d="M352.21 306.933C361.42 284.337 382.607 266.005 405.97 260.424C395.733 282.714 374.836 300.681 352.21 306.933Z" fill="#A2C7EB"/>
<path d="M400.307 265.119C386.944 274.699 374.248 285.289 362.413 296.757C348.031 310.684 334.466 326.217 316.932 335.507" stroke="#6F8BBF" stroke-miterlimit="10" stroke-linecap="round"/>
<path d="M340.103 318.401C357.654 303.836 381.5 297.444 402.256 301.733C384.661 317.871 359.304 324.983 340.103 318.401Z" fill="#A2C7EB"/>
<path d="M395.662 303.762C377.532 308.928 359.331 313.689 341.068 318.053" stroke="#6F8BBF" stroke-miterlimit="10" stroke-linecap="round"/>
<path d="M327.231 332.146C346.714 320.819 372.106 321.539 387.4 333.851C366.609 344.35 341.156 343.63 327.231 332.146Z" fill="#A2C7EB"/>
<path d="M382.615 333.189C363.159 335.59 343.641 335.126 324.931 331.806" stroke="#6F8BBF" stroke-miterlimit="10" stroke-linecap="round"/>
<path d="M343.948 313.342C356.6 296.55 361.087 273.639 355.424 254.728C341.56 270.609 336.029 293.884 343.948 313.342Z" fill="#A2C7EB"/>
<path d="M354.396 259.96C348.461 278.127 344.958 296.028 343.992 314.608" stroke="#6F8BBF" stroke-miterlimit="10" stroke-linecap="round"/>
<path d="M329.988 326.258C337.644 306.668 336.116 284.461 325.984 268.166C321.963 278.557 320.049 289.429 320.216 300.143C320.4 312.447 324.79 322.118 329.988 326.258Z" fill="#A2C7EB"/>
<path d="M326.318 272.952C324.492 291.276 325.8 309.574 330.155 326.813" stroke="#6F8BBF" stroke-miterlimit="10" stroke-linecap="round"/>
<path d="M91.1782 267.426C81.7889 240.343 55.5867 218.46 25.1052 212.25C37.9205 235.679 61.1638 254.327 91.1782 267.426Z" fill="#A2C7EB"/>
<path d="M92.7682 271.627C72.201 260.659 46.4317 258.24 24.0928 265.174C44.8127 274.934 69.3633 277.653 92.7682 271.627Z" fill="#A2C7EB"/>
<path d="M98.4569 277.5C76.2285 274.595 52.951 279.762 34.8984 291.607C55.369 298.624 79.9275 294.073 98.4569 277.5Z" fill="#A2C7EB"/>
<path d="M105.388 290.33C83.3753 290.244 61.7326 300.109 48.7944 316.129C58.5912 317.98 68.9946 316.873 77.9818 313.035C86.969 309.196 94.4987 302.646 105.388 290.33Z" fill="#A2C7EB"/>
<path d="M120.906 311.796C99.2012 308.287 76.0747 314.629 60.4243 328.387C69.7662 331.732 80.2259 332.267 89.7829 329.89C99.3408 327.514 107.946 322.235 120.906 311.796Z" fill="#A2C7EB"/>
<path d="M97.4735 268.708C83.141 250.49 79.2514 225.94 87.394 205.054C93.612 214.984 98.9775 225.483 101.482 236.643C103.986 247.804 103.499 259.702 97.4735 268.708Z" fill="#A2C7EB"/>
<path d="M106.23 286.286C102.835 266.93 109.853 246.415 124.677 232.397C126.382 252.422 119.885 272.823 106.23 286.286Z" fill="#A2C7EB"/>
<path d="M31.7778 217.102C75.4004 243.424 109.516 282.657 127.525 327.231" stroke="#6F8BBF" stroke-miterlimit="10" stroke-linecap="round"/>
<path d="M88.7485 214.659C94.0543 234.977 97.2827 255.721 98.3749 276.526" stroke="#6F8BBF" stroke-miterlimit="10" stroke-linecap="round"/>
<path d="M121.417 240.256C119.679 256.648 114.307 272.67 105.726 287.101" stroke="#6F8BBF" stroke-miterlimit="10" stroke-linecap="round"/>
<path d="M33.2749 265.646C53.274 269.232 73.6014 271.176 93.9324 271.462" stroke="#6F8BBF" stroke-miterlimit="10" stroke-linecap="round"/>
<path d="M45.3262 289.996C63.7668 288.733 81.9089 284.52 98.6787 277.599" stroke="#6F8BBF" stroke-miterlimit="10" stroke-linecap="round"/>
<path d="M56.374 313.204C73.3897 305.2 90.4071 297.186 107.423 289.181" stroke="#6F8BBF" stroke-miterlimit="10" stroke-linecap="round"/>
<path d="M67.4414 327.339C89.6574 323.297 96.2582 318.473 120.915 311.797" stroke="#6F8BBF" stroke-miterlimit="10" stroke-linecap="round"/>
<path d="M208.086 288.966C208.086 288.966 210.009 305.584 212.16 306.917C216.006 309.31 260.52 314.841 260.52 314.841L259.063 325.762C259.063 325.762 198.095 330.929 195.505 328.055C191.009 323.071 183.107 299.026 183.107 299.026L208.086 288.966Z" fill="#E06A58"/>
<path d="M178.691 246.183L183.616 235.03C183.616 235.03 196.98 240.95 201.387 248.261C206.102 256.077 211.871 297.635 211.871 297.635C211.871 297.635 188.279 302.76 183.941 300.582C179.604 298.405 178.691 246.183 178.691 246.183Z" fill="#F2AE30"/>
<path d="M141.174 194.416C137.723 193.224 134.071 192.18 130.375 192.445C126.678 192.71 122.903 194.557 121.647 197.62C120.752 199.79 121.164 202.348 119.751 204.302C118.399 206.174 115.712 206.952 113.201 207.109C110.681 207.275 108.144 206.96 105.641 207.267C97.915 208.235 92.4011 216.151 94.9385 222.634C95.9482 225.218 98.0203 227.685 97.5462 230.376C97.0457 233.257 93.841 235.154 92.524 237.828C90.7768 241.388 92.8665 245.702 96.317 248.128C99.7675 250.546 104.254 251.465 108.609 252.078C114.606 252.922 120.796 253.32 126.722 252.128C132.649 250.935 138.312 247.988 141.376 243.384C142.737 241.347 143.562 239.045 145.143 237.133C148.409 233.183 154.195 231.651 158.752 228.853C163.73 225.781 167.382 219.802 164.45 215.124C161.623 210.628 154.265 209.626 151.315 205.197C150.094 203.367 149.805 201.189 149.015 199.194C148.207 197.19 146.275 196.18 141.174 194.416Z" fill="#0A2240"/>
<path d="M161.28 249.569C162.15 250.513 163.177 251.548 164.599 251.639C166.101 251.739 167.356 250.737 168.322 249.768C173.309 244.792 176.601 238.681 177.936 232.38C176.698 231.718 175.504 231.08 174.424 230.484C173.423 229.921 172.668 229.134 172.238 228.215C171.939 227.536 171.834 226.824 171.913 226.079C172.615 219.852 173.239 216.383 175.557 210.065C164.546 207.722 154.16 204.94 148.189 200.237C147.461 203.135 146.6 208.807 144.765 214.429C142.807 220.382 139.752 226.269 134.572 228.803C144.739 234.467 153.809 241.505 161.28 249.569Z" fill="#F9A07B"/>
<path d="M171.913 226.087C171.834 226.832 171.939 227.553 172.238 228.223C165.723 235.675 151.157 225.938 144.765 214.437C146.6 208.815 147.461 203.143 148.189 200.245C154.151 204.948 164.546 207.739 175.557 210.074C173.239 216.391 172.615 219.852 171.913 226.087Z" fill="#E06A58"/>
<path d="M190.052 316.173C188.612 325.166 198.902 334.845 199.157 339.647C177.304 339.647 131.525 340.906 108.214 337.917C107.151 332.369 118.662 319.891 118.662 307.571C118.662 305.939 118.592 304.151 118.451 302.23C118.083 296.732 117.222 290.191 116.265 283.484C113.666 265.492 110.207 246.249 112.762 242.258C117.766 234.483 129.47 229.2 135.274 226.932C137.267 226.153 138.566 225.731 138.663 225.681C145.941 237.389 160.753 247.375 166.346 246.928C167.9 246.812 172.51 245.297 175.556 230.832C176.742 231.469 177.927 232.057 179.104 232.628C184.89 235.468 190.316 237.812 191.878 241.463C196.005 251.076 200.053 275.312 199.157 283.931C198.253 292.625 194.548 299.266 191.949 307.993C191.343 310.038 190.79 312.207 190.342 314.542C190.228 315.064 190.14 315.61 190.052 316.173Z" fill="#FFC73C"/>
<path d="M199.157 339.647C177.304 339.647 131.525 340.906 108.214 337.917C107.151 332.369 118.662 319.891 118.662 307.571C118.662 305.939 118.592 304.151 118.451 302.23C118.083 296.732 117.222 290.191 116.265 283.484C120.4 287.599 126.432 270.211 129.101 275.303C143.545 302.793 154.932 310.021 174.722 310.021C180.622 310.021 186.066 309.251 191.949 307.993C191.343 310.038 190.79 312.207 190.342 314.542C190.237 315.072 190.14 315.619 190.052 316.182C188.612 325.157 198.902 334.837 199.157 339.647Z" fill="#FFBB33"/>
<path d="M179.103 232.628C178.164 239.062 175.381 247.731 167.286 250.016C156.346 253.105 140.515 233.829 135.274 226.932C137.267 226.153 138.566 225.731 138.663 225.681C145.941 237.389 160.753 247.375 166.346 246.928C167.9 246.812 172.51 245.297 175.556 230.832C176.742 231.461 177.927 232.049 179.103 232.628Z" fill="#FCE172"/>
<path d="M183.599 329.968L183.52 337.147L319.61 337.909L319.891 329.769L183.599 329.968Z" fill="#325F73"/>
<path d="M378.594 265.922L375.565 263.024L276.439 262.411L226.709 330.233L229.308 332.204L378.594 265.922Z" fill="#325F73"/>
<path d="M278.353 264.92L229.308 332.203L322.99 332.642L378.594 265.922L278.353 264.92Z" fill="#0B2D50"/>
<path d="M302.024 307.868C308.046 307.868 312.928 305.566 312.928 302.727C312.928 299.887 308.046 297.585 302.024 297.585C296.001 297.585 291.119 299.887 291.119 302.727C291.119 305.566 296.001 307.868 302.024 307.868Z" fill="#3C738C"/>
<path d="M185.611 198.501C187.157 190.683 192.841 185.124 198.309 186.085C203.777 187.046 206.957 194.162 205.412 201.98C203.867 209.798 198.183 215.356 192.714 214.396C187.247 213.435 184.067 206.319 185.611 198.501Z" fill="#56C4F9"/>
<path d="M205.426 177.442C204.408 184.248 201.185 191.75 196.488 200.038C194.837 193.249 193.784 184.977 192.326 176.705C190.843 168.417 188.955 160.129 185.68 153.356C184.942 151.857 184.143 150.424 183.274 149.1C185.215 148.926 187.181 149.1 189.051 149.588C191.975 150.325 194.715 151.749 196.953 153.654C200.676 156.775 203.17 161.031 204.653 165.519C205.874 169.245 206.093 173.203 205.426 177.442Z" fill="#0B2D50"/>
<path d="M199.912 184.48C199.86 185.822 199.763 187.188 199.631 188.546C197.63 210.57 187.822 225.681 172.817 225.681C151.631 225.681 137.899 203.276 137.899 181.326C137.899 159.673 151.965 143.999 168.427 145.813C177.918 146.839 184.855 149.812 189.78 154.167C193.038 157.065 195.391 160.568 196.997 164.55C198.832 169.013 199.719 174.064 199.904 179.504C199.904 179.52 199.921 179.537 199.921 179.554C199.991 181.16 199.974 182.799 199.912 184.48Z" fill="#F9A07B"/>
<path d="M199.912 184.48C199.28 182.352 198.341 180.274 197.059 178.411C184.565 184.571 169.674 186.948 155.556 184.695C152.869 186.807 150.244 188.885 147.601 190.963C147.654 180.945 147.803 174.163 151.947 169.311C155.837 164.757 162.325 163.043 168.471 162.298C175.39 161.445 182.423 161.478 189.324 162.422C191.966 162.77 194.706 163.308 197.006 164.567C198.841 169.03 199.728 174.08 199.912 179.52C199.912 179.537 199.93 179.554 199.93 179.57C199.991 181.16 199.974 182.799 199.912 184.48Z" fill="#E06A58"/>
<path d="M202.968 170.917C200.062 173.236 196.418 175.157 192.326 176.713C180.684 181.143 165.556 182.609 153.765 182.071C147.97 194.077 145.626 198.382 144.142 208.856C138.479 203.847 133.869 194.673 132.499 187.461C131.147 180.274 131.279 172.731 133.404 165.668C136.749 154.531 145.187 148.57 151.034 145.672C152.492 144.918 153.809 144.397 154.827 144.016C162.299 141.292 170.719 141.54 178.384 143.751C182.563 144.976 186.084 147.046 189.043 149.596C195.022 154.689 198.718 161.586 201.106 166.753C201.861 168.334 202.467 169.767 202.968 170.917Z" fill="#0B2D50"/>
<path d="M205.426 177.442C204.943 175.033 204.223 172.698 203.205 170.446C202.634 169.17 201.932 167.937 201.115 166.744C198.455 162.803 194.583 159.557 189.903 158.125C188.568 156.361 187.164 154.771 185.689 153.364C180.377 148.272 174.143 145.357 167.54 144.339C162.044 143.502 156.328 143.974 151.052 145.663C152.509 144.91 153.826 144.388 154.844 144.007C162.316 141.283 170.736 141.532 178.401 143.743C182.58 144.968 186.101 147.038 189.06 149.588C191.984 150.325 194.723 151.749 196.962 153.654C200.685 156.775 203.178 161.031 204.662 165.519C205.874 169.245 206.093 173.203 205.426 177.442Z" fill="#225570"/>
<path d="M160.516 190.947C164.432 188.835 168.497 187.883 174.196 189.845" stroke="#0B2D50" stroke-width="2" stroke-miterlimit="10" stroke-linecap="round"/>
<path d="M187.331 190.798C190.685 188.438 195.654 188.198 198.244 190.798" stroke="#0B2D50" stroke-width="2" stroke-miterlimit="10" stroke-linecap="round"/>
<path d="M183.284 202.837C183.627 204.509 183.442 208.211 182.598 209.875" stroke="#CC454E" stroke-width="2" stroke-miterlimit="10" stroke-linecap="round"/>
<path d="M170.051 203.963C170.944 203.963 171.667 202.888 171.667 201.562C171.667 200.235 170.944 199.16 170.051 199.16C169.159 199.16 168.436 200.235 168.436 201.562C168.436 202.888 169.159 203.963 170.051 203.963Z" fill="#262D40"/>
<path d="M191.167 202.845C192.06 202.845 192.783 201.77 192.783 200.444C192.783 199.118 192.06 198.043 191.167 198.043C190.275 198.043 189.552 199.118 189.552 200.444C189.552 201.77 190.275 202.845 191.167 202.845Z" fill="#262D40"/>
<path d="M181.281 213.145C181.281 213.145 180.965 213.725 180.359 214.512C179.411 215.712 177.795 217.368 175.592 218.014H175.583C174.652 218.296 173.643 218.395 172.519 218.204C169.217 217.65 168.348 214.777 168.19 212.566C168.155 212.135 168.155 211.738 168.164 211.373C168.181 210.479 168.287 209.883 168.287 209.883C173.546 212.615 181.281 213.145 181.281 213.145Z" fill="#CC454E"/>
<path d="M181.281 213.145C181.281 213.145 180.965 213.725 180.359 214.512C177.673 214.478 172.177 213.178 168.164 211.373C168.182 210.479 168.287 209.883 168.287 209.883C173.546 212.615 181.281 213.145 181.281 213.145Z" fill="white"/>
<path d="M175.583 218.006C174.652 218.287 173.643 218.387 172.519 218.196C169.217 217.642 168.348 214.768 168.19 212.558C169.788 212.74 171.333 213.319 172.615 214.238C173.959 215.207 174.986 216.524 175.583 218.006Z" fill="#E8729B"/>
<path d="M144.194 187.146C144.194 187.146 144.01 176.821 148.567 166.562C154.283 153.687 165.934 148.181 177.234 147.808C190.851 147.353 199.377 155.972 199.377 155.972C199.377 155.972 194.943 148.595 186.198 146.475C180.456 145.084 171.79 144.86 164.836 147.526C157.672 150.267 148.742 157.876 145.511 165.916C142.289 173.956 140.718 186.476 140.718 186.476L144.194 187.146Z" fill="#3D86E0"/>
<path d="M143.965 214.024C149.795 213.453 153.777 206.236 152.857 197.904C151.938 189.572 146.466 183.281 140.635 183.852C134.804 184.423 130.822 191.64 131.742 199.972C132.661 208.304 138.134 214.595 143.965 214.024Z" fill="#56C4F9"/>
<path d="M137.68 188.736C141.444 188.203 145.303 192.833 146.298 199.078C147.293 205.323 145.049 210.818 141.284 211.351C137.52 211.885 133.661 207.254 132.666 201.01C131.671 194.765 133.916 189.269 137.68 188.736Z" fill="#3D86E0"/>
<path d="M177.321 225.988C180.444 225.988 182.976 224.501 182.976 222.667C182.976 220.834 180.444 219.347 177.321 219.347C174.199 219.347 171.667 220.834 171.667 222.667C171.667 224.501 174.199 225.988 177.321 225.988Z" fill="#3A92C9"/>
<path d="M148.918 211.564C148.918 211.564 157.224 221.632 171.667 222.667" stroke="#3A92C9" stroke-width="2" stroke-miterlimit="10" stroke-linecap="round"/>
<path d="M183.52 310.8L182.976 324.04C182.976 324.04 132.201 338.389 123.816 333.852C119.725 331.633 115.905 319.428 113.052 307.513C110.067 294.994 108.153 282.806 108.153 282.806L137.917 277.308C137.917 277.308 137.934 294.422 138.944 304.317C139.304 308.002 139.822 310.684 140.516 311.123C143.141 312.754 183.52 310.8 183.52 310.8Z" fill="#F9A07B"/>
<path d="M138.944 304.3C133.536 305.956 123.096 308.514 113.052 307.504C110.067 294.985 108.153 282.797 108.153 282.797L137.917 277.299C137.917 277.291 137.934 294.405 138.944 304.3Z" fill="#E06A58"/>
<path d="M182.071 310.932C189.622 309.409 202.406 305.749 207.709 304.49C211.476 303.596 221.283 308.382 223.873 312.894C225.005 314.865 226.077 326.027 222.152 324.876C220.185 324.296 220.51 319.51 219.896 317.556C219.395 315.966 217.797 314.426 215.365 313.101C216.989 316.919 216.928 320.247 216.752 324.371C216.717 325.281 216.656 326.234 216.19 327.02C215.716 327.807 214.698 328.37 213.82 328.022C212.924 327.674 212.617 326.623 212.415 325.704C211.721 322.524 211.019 319.345 210.738 315.751C210.808 319.287 210.729 322.83 210.492 326.358C210.317 329.057 208.894 330.539 207.147 330.067C206.366 329.86 206.049 329.181 205.716 328.287C205.189 330.018 203.872 331.93 202.169 331.202C201.133 330.763 200.492 327.235 200.676 323.609C197.41 325.521 193.722 326.333 189.473 326.515C185.662 326.681 181.764 326.01 179.472 323.567C179.701 319.75 181.035 314.103 182.071 310.932Z" fill="#F9A07B"/>
<path d="M205.796 327.741C206.051 324.876 205.787 321.969 205.013 319.204" stroke="#CC454E" stroke-miterlimit="10" stroke-linecap="round"/>
<path d="M134.572 249.536C132.412 243.798 124.501 232.057 124.501 232.057C124.501 232.057 112.428 236.793 108.144 244.833C100.891 258.445 104.579 297.527 104.579 297.527C114.351 301.385 133.966 301.443 142.315 300.334C142.315 300.334 138.9 261.004 134.572 249.536Z" fill="#FFC73C"/>
<path d="M136.108 251.937C139.401 266.8 141.165 280.661 141.727 294.24" stroke="#F2AE30" stroke-miterlimit="10" stroke-linecap="round"/>
<path d="M394.504 335.549H48.3257V343.738H394.504V335.549Z" fill="#0B2D50"/>
</g>
<defs>
<clipPath id="clip0_123_4302">
<rect width="439" height="414" fill="white" transform="translate(0.509766)"/>
</clipPath>
</defs>
</svg>
