<svg width="439" height="414" viewBox="0 0 439 414" fill="none" xmlns="http://www.w3.org/2000/svg">
<path d="M439 0H0V414H439V0Z" fill="white"/>
<path d="M219.327 354.021C313.271 354.021 389.427 349.823 389.427 344.645C389.427 339.467 313.271 335.27 219.327 335.27C125.383 335.27 49.2266 339.467 49.2266 344.645C49.2266 349.823 125.383 354.021 219.327 354.021Z" fill="#F5F5F5"/>
<path d="M157.094 74.4629C159.615 78.5847 158.118 83.8541 153.751 86.2329C149.383 88.6118 143.8 87.1992 141.28 83.0774C138.759 78.9556 140.256 73.6862 144.623 71.3074C148.99 68.9286 154.574 70.3411 157.094 74.4629Z" fill="#407BFF"/>
<path opacity="0.6" d="M157.094 74.4629C159.615 78.5847 158.118 83.8541 153.751 86.2329C149.383 88.6118 143.8 87.1992 141.28 83.0774C138.759 78.9556 140.256 73.6862 144.623 71.3074C148.99 68.9286 154.574 70.3411 157.094 74.4629Z" fill="white"/>
<path opacity="0.3" d="M146.888 78.0134C147.17 78.4746 147.736 78.4472 148.426 78.2891L147.381 76.5809C146.724 77.0802 146.631 77.5911 146.888 78.0134Z" fill="white"/>
<path opacity="0.3" d="M150.093 79.1974L151.132 80.8956C151.81 80.3856 151.925 79.888 151.673 79.4748C151.386 79.0053 150.803 79.0285 150.093 79.1974Z" fill="white"/>
<path opacity="0.3" d="M145.293 72.4004C141.565 74.4306 140.288 78.9283 142.439 82.4465C144.59 85.9647 149.356 87.1702 153.083 85.14C156.811 83.1097 158.088 78.612 155.937 75.0938C153.785 71.5757 149.019 70.3701 145.293 72.4004ZM151.772 81.9422L152.429 83.017L151.595 83.4715L150.943 82.4067C149.912 82.8919 148.758 83.1114 147.965 82.9673L147.83 81.7485C148.562 81.8611 149.496 81.7236 150.31 81.3701L149.136 79.4508C147.849 79.8068 146.428 80.1206 145.612 78.7859C145.014 77.8072 145.244 76.5437 146.742 75.5352L146.079 74.4505L146.912 73.9959L147.564 75.0607C148.34 74.6898 149.232 74.4853 149.986 74.5217L150.162 75.7182C149.441 75.714 148.772 75.8614 148.197 76.0974L149.383 78.0357C150.67 77.6797 152.105 77.3452 152.922 78.6799C153.52 79.6594 153.274 80.9188 151.772 81.9422Z" fill="white"/>
<path d="M175.343 88.8585C174.454 91.8824 171.136 93.6535 167.932 92.8139C164.728 91.9743 162.851 88.8428 163.741 85.8189C164.63 82.7951 167.948 81.024 171.152 81.8636C174.357 82.7032 176.233 85.8347 175.343 88.8585Z" fill="#407BFF"/>
<path opacity="0.6" d="M175.343 88.8585C174.454 91.8824 171.136 93.6535 167.932 92.8139C164.728 91.9743 162.851 88.8428 163.741 85.8189C164.63 82.7951 167.948 81.024 171.152 81.8636C174.357 82.7032 176.233 85.8347 175.343 88.8585Z" fill="white"/>
<path opacity="0.3" d="M168.857 85.9688C168.758 86.3066 169.033 86.5459 169.431 86.7786L169.8 85.525C169.246 85.4645 168.949 85.6591 168.857 85.9688Z" fill="white"/>
<path opacity="0.3" d="M169.748 87.9386L169.381 89.1847C169.949 89.2501 170.25 89.0713 170.34 88.7683C170.441 88.4238 170.161 88.1754 169.748 87.9386Z" fill="white"/>
<path opacity="0.3" d="M170.917 82.6659C168.183 81.9497 165.35 83.4608 164.591 86.0417C163.832 88.6225 165.433 91.2962 168.168 92.0124C170.902 92.7286 173.735 91.2175 174.494 88.6366C175.253 86.0549 173.652 83.3821 170.917 82.6659ZM169.155 89.9523L168.924 90.7406L168.312 90.5808L168.542 89.7991C167.824 89.5648 167.181 89.1541 166.887 88.736L167.432 88.1125C167.714 88.4901 168.214 88.8411 168.766 89.0382L169.18 87.6298C168.408 87.2224 167.595 86.7364 167.882 85.7577C168.094 85.0398 168.83 84.5579 170.025 84.7574L170.259 83.9617L170.871 84.1215L170.641 84.9032C171.185 85.0762 171.699 85.3776 172.029 85.7295L171.514 86.3604C171.182 86.0384 170.8 85.809 170.417 85.6641L169.999 87.0858C170.771 87.4932 171.6 87.9759 171.313 88.9546C171.101 89.6733 170.36 90.1469 169.155 89.9523Z" fill="white"/>
<path d="M161.522 100.508C162.431 102.465 161.486 104.747 159.412 105.605C157.338 106.463 154.92 105.571 154.011 103.613C153.102 101.656 154.047 99.3741 156.121 98.5163C158.194 97.6585 160.613 98.5503 161.522 100.508Z" fill="#407BFF"/>
<path opacity="0.6" d="M161.522 100.508C162.431 102.465 161.486 104.747 159.412 105.605C157.338 106.463 154.92 105.571 154.011 103.613C153.102 101.656 154.047 99.3741 156.121 98.5163C158.194 97.6585 160.613 98.5503 161.522 100.508Z" fill="white"/>
<path opacity="0.3" d="M156.779 101.616C156.881 101.834 157.135 101.849 157.452 101.81L157.075 100.999C156.755 101.191 156.686 101.415 156.779 101.616Z" fill="white"/>
<path opacity="0.3" d="M158.148 102.294L158.523 103.1C158.852 102.904 158.93 102.688 158.839 102.492C158.735 102.268 158.473 102.251 158.148 102.294Z" fill="white"/>
<path opacity="0.3" d="M156.362 99.0355C154.591 99.7675 153.785 101.716 154.56 103.387C155.336 105.058 157.4 105.818 159.171 105.087C160.941 104.355 161.747 102.406 160.972 100.735C160.196 99.0645 158.132 98.3036 156.362 99.0355ZM158.753 103.598L158.99 104.109L158.594 104.273L158.359 103.767C157.873 103.935 157.347 103.979 157 103.878L157.004 103.327C157.325 103.411 157.749 103.394 158.13 103.274L157.707 102.362C157.114 102.461 156.463 102.535 156.169 101.901C155.954 101.436 156.123 100.883 156.845 100.503L156.605 99.9877L157.001 99.8238L157.236 100.33C157.602 100.2 158.011 100.151 158.346 100.202L158.362 100.744C158.04 100.709 157.734 100.744 157.465 100.821L157.892 101.742C158.485 101.644 159.144 101.562 159.438 102.195C159.653 102.66 159.477 103.211 158.753 103.598Z" fill="white"/>
<path d="M317.426 289.734C315.645 294.185 310.376 296.431 305.66 294.749C300.944 293.067 298.564 288.095 300.346 283.644C302.128 279.192 307.396 276.946 312.113 278.628C316.829 280.31 319.208 285.282 317.426 289.734Z" fill="#407BFF"/>
<path opacity="0.6" d="M317.426 289.734C315.645 294.185 310.376 296.431 305.66 294.749C300.944 293.067 298.564 288.095 300.346 283.644C302.128 279.192 307.396 276.946 312.113 278.628C316.829 280.31 319.208 285.282 317.426 289.734Z" fill="white"/>
<path opacity="0.3" d="M308.05 284.531C307.851 285.029 308.231 285.425 308.798 285.829L309.537 283.984C308.71 283.819 308.232 284.075 308.05 284.531Z" fill="white"/>
<path opacity="0.3" d="M309.109 287.621L308.374 289.456C309.222 289.628 309.703 289.398 309.881 288.951C310.085 288.443 309.697 288.032 309.109 287.621Z" fill="white"/>
<path opacity="0.3" d="M311.64 279.809C307.614 278.374 303.117 280.29 301.596 284.09C300.076 287.89 302.106 292.134 306.132 293.569C310.158 295.005 314.654 293.088 316.175 289.288C317.697 285.489 315.666 281.244 311.64 279.809ZM307.923 290.586L307.458 291.747L306.557 291.425L307.018 290.275C305.967 289.829 305.056 289.125 304.671 288.455L305.585 287.584C305.957 288.19 306.66 288.785 307.466 289.155L308.296 287.082C307.189 286.367 306.031 285.528 306.608 284.087C307.031 283.029 308.213 282.397 309.99 282.852L310.458 281.681L311.358 282.002L310.898 283.152C311.693 283.483 312.426 284.005 312.874 284.579L312.005 285.465C311.551 284.936 311.007 284.541 310.449 284.271L309.611 286.365C310.719 287.08 311.902 287.916 311.326 289.357C310.902 290.416 309.713 291.035 307.923 290.586Z" fill="white"/>
<path d="M324.477 305.708C321.434 306.974 317.88 305.673 316.539 302.801C315.197 299.93 316.576 296.576 319.618 295.31C322.661 294.044 326.215 295.344 327.556 298.216C328.898 301.087 327.519 304.442 324.477 305.708Z" fill="#407BFF"/>
<path opacity="0.6" d="M324.477 305.708C321.434 306.974 317.88 305.673 316.539 302.801C315.197 299.93 316.576 296.576 319.618 295.31C322.661 294.044 326.215 295.344 327.556 298.216C328.898 301.087 327.519 304.442 324.477 305.708Z" fill="white"/>
<path opacity="0.3" d="M322.737 299.14C322.396 299.281 322.375 299.633 322.436 300.071L323.697 299.546C323.397 299.105 323.048 299.011 322.737 299.14Z" fill="white"/>
<path opacity="0.3" d="M321.686 301.038L320.432 301.56C320.738 302.015 321.075 302.123 321.38 301.996C321.728 301.852 321.752 301.49 321.686 301.038Z" fill="white"/>
<path opacity="0.3" d="M326.75 298.552C325.605 296.101 322.571 294.991 319.974 296.071C317.377 297.152 316.201 300.015 317.346 302.466C318.491 304.917 321.524 306.027 324.121 304.947C326.718 303.866 327.895 301.003 326.75 298.552ZM319.66 301.882L318.866 302.213L318.61 301.664L319.396 301.337C319.133 300.664 319.063 299.935 319.219 299.454L320.075 299.458C319.945 299.903 319.973 300.49 320.162 301.019L321.579 300.43C321.424 299.609 321.307 298.706 322.291 298.296C323.014 297.996 323.876 298.227 324.469 299.227L325.269 298.894L325.525 299.442L324.739 299.769C324.942 300.276 325.02 300.842 324.941 301.307L324.097 301.331C324.151 300.884 324.097 300.461 323.973 300.089L322.542 300.684C322.697 301.505 322.828 302.418 321.843 302.828C321.122 303.127 320.264 302.885 319.66 301.882Z" fill="white"/>
<path d="M142.309 305.67C142.485 307.801 140.798 309.663 138.541 309.829C136.284 309.996 134.311 308.403 134.134 306.273C133.958 304.143 135.645 302.28 137.902 302.114C140.16 301.948 142.133 303.54 142.309 305.67Z" fill="#407BFF"/>
<path opacity="0.6" d="M142.309 305.67C142.485 307.801 140.798 309.663 138.541 309.829C136.284 309.996 134.311 308.403 134.134 306.273C133.958 304.143 135.645 302.28 137.902 302.114C140.16 301.948 142.133 303.54 142.309 305.67Z" fill="white"/>
<path opacity="0.3" d="M137.445 305.246C137.464 305.484 137.7 305.576 138.012 305.638L137.939 304.755C137.57 304.837 137.427 305.027 137.445 305.246Z" fill="white"/>
<path opacity="0.3" d="M138.5 306.311L138.573 307.189C138.953 307.106 139.102 306.926 139.084 306.712C139.064 306.469 138.824 306.372 138.5 306.311Z" fill="white"/>
<path opacity="0.3" d="M137.949 302.68C136.021 302.822 134.582 304.411 134.733 306.23C134.883 308.049 136.567 309.408 138.494 309.265C140.422 309.123 141.862 307.534 141.711 305.715C141.56 303.896 139.876 302.537 137.949 302.68ZM138.618 307.73L138.664 308.285L138.233 308.317L138.187 307.766C137.67 307.774 137.157 307.653 136.865 307.449L137.06 306.931C137.334 307.11 137.74 307.224 138.143 307.23L138.06 306.238C137.465 306.147 136.825 306.015 136.768 305.325C136.726 304.819 137.078 304.349 137.893 304.214L137.846 303.653L138.277 303.622L138.322 304.172C138.713 304.164 139.116 304.244 139.415 304.397L139.24 304.914C138.949 304.78 138.648 304.717 138.366 304.708L138.449 305.71C139.044 305.801 139.694 305.928 139.751 306.618C139.795 307.123 139.437 307.59 138.618 307.73Z" fill="white"/>
<path d="M341.326 138.376V141.34L342.944 141.485C343.162 142.478 343.579 143.402 344.15 144.223L343.111 145.407L345.333 147.503L346.587 146.523C347.457 147.062 348.436 147.455 349.488 147.661L349.641 149.188H352.783L352.935 147.661C353.988 147.455 354.967 147.062 355.837 146.523L357.091 147.503L359.312 145.407L358.274 144.223C358.844 143.402 359.262 142.478 359.48 141.485L361.098 141.34V138.376L359.48 138.232C359.262 137.239 358.845 136.315 358.274 135.494L359.312 134.31L357.091 132.213L355.837 133.194C354.967 132.656 353.988 132.261 352.935 132.055L352.783 130.528H349.641L349.488 132.055C348.436 132.261 347.457 132.656 346.587 133.194L345.333 132.213L343.111 134.31L344.15 135.494C343.579 136.315 343.162 137.239 342.944 138.232L341.326 138.376ZM351.211 135.845C353.559 135.845 355.463 137.642 355.463 139.858C355.463 142.075 353.559 143.872 351.211 143.872C348.862 143.872 346.958 142.075 346.958 139.858C346.958 137.642 348.862 135.845 351.211 135.845Z" fill="#407BFF"/>
<path d="M344.341 162.616C345.242 162.44 346.078 162.103 346.822 161.642L347.896 162.481L349.796 160.688L348.908 159.674C349.396 158.973 349.753 158.182 349.939 157.332L351.323 157.209V154.673L349.939 154.55C349.753 153.7 349.396 152.91 348.908 152.208L349.796 151.195L347.896 149.402L346.822 150.241C346.078 149.78 345.242 149.443 344.341 149.267L344.211 147.961H341.523L341.394 149.267C340.493 149.443 339.656 149.78 338.912 150.241L337.838 149.402L335.938 151.195L336.826 152.208C336.339 152.91 335.982 153.7 335.795 154.55L334.411 154.673V157.209L335.795 157.332C335.982 158.182 336.339 158.972 336.826 159.674L335.938 160.688L337.838 162.481L338.912 161.642C339.656 162.103 340.493 162.44 341.394 162.616L341.523 163.922H344.211L344.341 162.616ZM339.229 155.941C339.229 154.044 340.858 152.508 342.867 152.508C344.876 152.508 346.504 154.044 346.504 155.941C346.504 157.837 344.876 159.373 342.867 159.373C340.858 159.373 339.229 157.837 339.229 155.941Z" fill="#407BFF"/>
<path d="M336.59 147.233L337.492 147.938L339.088 146.432L338.341 145.581C338.751 144.991 339.051 144.327 339.208 143.613L340.371 143.51V141.38L339.208 141.277C339.051 140.562 338.751 139.899 338.341 139.309L339.088 138.458L337.492 136.952L336.59 137.657C335.966 137.27 335.262 136.987 334.506 136.839L334.396 135.742H332.139L332.029 136.838C331.273 136.986 330.569 137.269 329.945 137.656L329.043 136.951L327.447 138.457L328.194 139.309C327.784 139.898 327.484 140.562 327.327 141.276L326.165 141.379V143.509L327.327 143.613C327.484 144.326 327.784 144.99 328.194 145.58L327.447 146.431L329.043 147.937L329.945 147.233C330.569 147.619 331.273 147.902 332.029 148.051L332.139 149.148H334.396L334.506 148.051C335.262 147.903 335.965 147.62 336.59 147.233ZM330.212 142.444C330.212 140.852 331.58 139.561 333.268 139.561C334.955 139.561 336.324 140.852 336.324 142.444C336.324 144.036 334.956 145.328 333.268 145.328C331.58 145.328 330.212 144.037 330.212 142.444Z" fill="#407BFF"/>
<g opacity="0.6">
<path d="M341.326 138.376V141.34L342.944 141.485C343.162 142.478 343.579 143.402 344.15 144.223L343.111 145.407L345.333 147.503L346.587 146.523C347.457 147.062 348.436 147.455 349.488 147.661L349.641 149.188H352.783L352.935 147.661C353.988 147.455 354.967 147.062 355.837 146.523L357.091 147.503L359.312 145.407L358.274 144.223C358.844 143.402 359.262 142.478 359.48 141.485L361.098 141.34V138.376L359.48 138.232C359.262 137.239 358.845 136.315 358.274 135.494L359.312 134.31L357.091 132.213L355.837 133.194C354.967 132.656 353.988 132.261 352.935 132.055L352.783 130.528H349.641L349.488 132.055C348.436 132.261 347.457 132.656 346.587 133.194L345.333 132.213L343.111 134.31L344.15 135.494C343.579 136.315 343.162 137.239 342.944 138.232L341.326 138.376ZM351.211 135.845C353.559 135.845 355.463 137.642 355.463 139.858C355.463 142.075 353.559 143.872 351.211 143.872C348.862 143.872 346.958 142.075 346.958 139.858C346.958 137.642 348.862 135.845 351.211 135.845Z" fill="white"/>
<path d="M344.341 162.616C345.242 162.44 346.078 162.103 346.822 161.642L347.896 162.481L349.796 160.688L348.908 159.674C349.396 158.973 349.753 158.182 349.939 157.332L351.323 157.209V154.673L349.939 154.55C349.753 153.7 349.396 152.91 348.908 152.208L349.796 151.195L347.896 149.402L346.822 150.241C346.078 149.78 345.242 149.443 344.341 149.267L344.211 147.961H341.523L341.394 149.267C340.493 149.443 339.656 149.78 338.912 150.241L337.838 149.402L335.938 151.195L336.826 152.208C336.339 152.91 335.982 153.7 335.795 154.55L334.411 154.673V157.209L335.795 157.332C335.982 158.182 336.339 158.972 336.826 159.674L335.938 160.688L337.838 162.481L338.912 161.642C339.656 162.103 340.493 162.44 341.394 162.616L341.523 163.922H344.211L344.341 162.616ZM339.229 155.941C339.229 154.044 340.858 152.508 342.867 152.508C344.876 152.508 346.504 154.044 346.504 155.941C346.504 157.837 344.876 159.373 342.867 159.373C340.858 159.373 339.229 157.837 339.229 155.941Z" fill="white"/>
<path d="M336.59 147.233L337.492 147.938L339.088 146.432L338.341 145.581C338.751 144.991 339.051 144.327 339.208 143.613L340.371 143.51V141.38L339.208 141.277C339.051 140.562 338.751 139.899 338.341 139.309L339.088 138.458L337.492 136.952L336.59 137.657C335.966 137.27 335.262 136.987 334.506 136.839L334.396 135.742H332.139L332.029 136.838C331.273 136.986 330.569 137.269 329.945 137.656L329.043 136.951L327.447 138.457L328.194 139.309C327.784 139.898 327.484 140.562 327.327 141.276L326.165 141.379V143.509L327.327 143.613C327.484 144.326 327.784 144.99 328.194 145.58L327.447 146.431L329.043 147.937L329.945 147.233C330.569 147.619 331.273 147.902 332.029 148.051L332.139 149.148H334.396L334.506 148.051C335.262 147.903 335.965 147.62 336.59 147.233ZM330.212 142.444C330.212 140.852 331.58 139.561 333.268 139.561C334.955 139.561 336.324 140.852 336.324 142.444C336.324 144.036 334.956 145.328 333.268 145.328C331.58 145.328 330.212 144.037 330.212 142.444Z" fill="white"/>
</g>
<path d="M90.7251 210.984L88.3949 212.972L89.367 214.2C88.7327 215.02 88.2862 215.932 88.0238 216.881L86.3964 216.949L86.2385 219.909L87.851 220.131C88.0107 221.101 88.3581 222.05 88.902 222.925L87.8045 224.055L89.9109 226.254L91.2129 225.337C92.0814 225.936 93.0473 226.357 94.0536 226.605L94.1246 228.141L97.2619 228.29L97.4961 226.768C98.5235 226.616 99.5297 226.289 100.457 225.776L101.655 226.812L103.986 224.824L103.014 223.595C103.648 222.775 104.094 221.864 104.357 220.914L105.984 220.847L106.142 217.886L104.53 217.665C104.37 216.695 104.022 215.745 103.478 214.87L104.575 213.74L102.469 211.541L101.167 212.458C100.298 211.86 99.3323 211.438 98.3261 211.191L98.255 209.655L95.1178 209.506L94.8835 211.028C93.8562 211.179 92.8499 211.507 91.9226 212.021L90.7251 210.984ZM99.3446 216.205C100.92 217.849 100.785 220.387 99.0428 221.873C97.3014 223.36 94.6115 223.232 93.0368 221.589C91.4611 219.944 91.5962 217.406 93.3386 215.92C95.08 214.434 97.769 214.561 99.3446 216.205Z" fill="#407BFF"/>
<path d="M80.5885 213.608L80.6394 214.712L82.8932 214.819L83.0617 213.726C83.8004 213.617 84.5233 213.382 85.1891 213.013L86.0498 213.757L87.7237 212.329L87.0254 211.446C87.4816 210.858 87.8018 210.203 87.9904 209.521L89.1598 209.472L89.273 207.345L88.115 207.187C88 206.49 87.7509 205.809 87.3596 205.179L88.1483 204.367L86.6341 202.787L85.6989 203.446C85.0751 203.016 84.3803 202.714 83.6574 202.535L83.6065 201.432L81.3527 201.325L81.1842 202.418C80.4464 202.526 79.7235 202.762 79.0568 203.131L78.1961 202.386L76.5222 203.815L77.2206 204.697C76.7652 205.286 76.4441 205.941 76.2555 206.624L75.0861 206.672L74.9729 208.8L76.1318 208.958C76.2468 209.655 76.4959 210.337 76.8872 210.966L76.0985 211.778L77.6118 213.358L78.547 212.699C79.1708 213.128 79.8648 213.431 80.5885 213.608ZM80.0736 205.932C81.3255 204.864 83.2573 204.956 84.389 206.136C85.5208 207.317 85.4234 209.141 84.1723 210.209C82.9204 211.278 80.9886 211.186 79.8569 210.005C78.7251 208.824 78.8217 207 80.0736 205.932Z" fill="#407BFF"/>
<g opacity="0.6">
<path d="M90.7251 210.984L88.3949 212.972L89.367 214.2C88.7327 215.02 88.2862 215.932 88.0238 216.881L86.3964 216.949L86.2385 219.909L87.851 220.131C88.0107 221.101 88.3581 222.05 88.902 222.925L87.8045 224.055L89.9109 226.254L91.2129 225.337C92.0814 225.936 93.0473 226.357 94.0536 226.605L94.1246 228.141L97.2619 228.29L97.4961 226.768C98.5235 226.616 99.5297 226.289 100.457 225.776L101.655 226.812L103.986 224.824L103.014 223.595C103.648 222.775 104.094 221.864 104.357 220.914L105.984 220.847L106.142 217.886L104.53 217.665C104.37 216.695 104.022 215.745 103.478 214.87L104.575 213.74L102.469 211.541L101.167 212.458C100.298 211.86 99.3323 211.438 98.3261 211.191L98.255 209.655L95.1178 209.506L94.8835 211.028C93.8562 211.179 92.8499 211.507 91.9226 212.021L90.7251 210.984ZM99.3446 216.205C100.92 217.849 100.785 220.387 99.0428 221.873C97.3014 223.36 94.6115 223.232 93.0368 221.589C91.4611 219.944 91.5962 217.406 93.3386 215.92C95.08 214.434 97.769 214.561 99.3446 216.205Z" fill="white"/>
<path d="M80.5885 213.608L80.6394 214.712L82.8932 214.819L83.0617 213.726C83.8004 213.617 84.5233 213.382 85.1891 213.013L86.0498 213.757L87.7237 212.329L87.0254 211.446C87.4816 210.858 87.8018 210.203 87.9904 209.521L89.1598 209.472L89.273 207.345L88.115 207.187C88 206.49 87.7509 205.809 87.3596 205.179L88.1483 204.367L86.6341 202.787L85.6989 203.446C85.0751 203.016 84.3803 202.714 83.6574 202.535L83.6065 201.432L81.3527 201.325L81.1842 202.418C80.4464 202.526 79.7235 202.762 79.0568 203.131L78.1961 202.386L76.5222 203.815L77.2206 204.697C76.7652 205.286 76.4441 205.941 76.2555 206.624L75.0861 206.672L74.9729 208.8L76.1318 208.958C76.2468 209.655 76.4959 210.337 76.8872 210.966L76.0985 211.778L77.6118 213.358L78.547 212.699C79.1708 213.128 79.8648 213.431 80.5885 213.608ZM80.0736 205.932C81.3255 204.864 83.2573 204.956 84.389 206.136C85.5208 207.317 85.4234 209.141 84.1723 210.209C82.9204 211.278 80.9886 211.186 79.8569 210.005C78.7251 208.824 78.8217 207 80.0736 205.932Z" fill="white"/>
</g>
<path d="M219.645 93.9573L219.696 95.0611L221.951 95.1679L222.119 94.0749C222.858 93.9664 223.581 93.7313 224.247 93.362L225.108 94.1064L226.781 92.6781L226.083 91.7954C226.539 91.2067 226.86 90.5518 227.048 89.8695L228.218 89.8215L228.331 87.6943L227.173 87.5362C227.058 86.8398 226.809 86.1576 226.417 85.5283L227.206 84.716L225.692 83.1362L224.757 83.7953C224.133 83.3647 223.438 83.0625 222.715 82.8845L222.664 81.7808L220.41 81.674L220.241 82.7677C219.503 82.8762 218.78 83.1114 218.114 83.4806L217.253 82.7363L215.579 84.1654L216.277 85.048C215.822 85.6368 215.501 86.2917 215.312 86.9748L214.143 87.0228L214.03 89.1508L215.189 89.3089C215.304 90.0053 215.553 90.6884 215.944 91.3168L215.155 92.1291L216.669 93.7089L217.604 93.0498C218.229 93.4763 218.923 93.7793 219.645 93.9573ZM219.131 86.2801C220.382 85.212 222.315 85.3039 223.447 86.4846C224.579 87.6654 224.481 89.4894 223.23 90.5576C221.979 91.6257 220.046 91.5338 218.915 90.353C217.782 89.1723 217.879 87.3491 219.131 86.2801Z" fill="#407BFF"/>
<path opacity="0.6" d="M219.645 93.9573L219.696 95.0611L221.951 95.1679L222.119 94.0749C222.858 93.9664 223.581 93.7313 224.247 93.362L225.108 94.1064L226.781 92.6781L226.083 91.7954C226.539 91.2067 226.86 90.5518 227.048 89.8695L228.218 89.8215L228.331 87.6943L227.173 87.5362C227.058 86.8398 226.809 86.1576 226.417 85.5283L227.206 84.716L225.692 83.1362L224.757 83.7953C224.133 83.3647 223.438 83.0625 222.715 82.8845L222.664 81.7808L220.41 81.674L220.241 82.7677C219.503 82.8762 218.78 83.1114 218.114 83.4806L217.253 82.7363L215.579 84.1654L216.277 85.048C215.822 85.6368 215.501 86.2917 215.312 86.9748L214.143 87.0228L214.03 89.1508L215.189 89.3089C215.304 90.0053 215.553 90.6884 215.944 91.3168L215.155 92.1291L216.669 93.7089L217.604 93.0498C218.229 93.4763 218.923 93.7793 219.645 93.9573ZM219.131 86.2801C220.382 85.212 222.315 85.3039 223.447 86.4846C224.579 87.6654 224.481 89.4894 223.23 90.5576C221.979 91.6257 220.046 91.5338 218.915 90.353C217.782 89.1723 217.879 87.3491 219.131 86.2801Z" fill="white"/>
<path d="M348.805 238.218L348.759 238.332L342.554 253.162L340.223 258.741L335.849 251.267L327.244 253.906L335.831 233.383L341.282 235.415L348.477 238.099L348.805 238.218Z" fill="#407BFF"/>
<g opacity="0.2">
<path d="M340.281 256.008L336.54 249.614L329.179 251.872L336.609 234.109L347.711 238.246L340.281 256.008ZM336.676 249.287L340.237 255.373L347.337 238.399L336.77 234.461L329.67 251.435L336.676 249.287Z" fill="white"/>
</g>
<path opacity="0.2" d="M348.759 238.332L342.554 253.163C338.79 245.069 338.502 236.86 338.502 236.86L341.282 235.415L348.477 238.099L348.759 238.332Z" fill="black"/>
<path d="M347.349 258.74L351.722 251.267L360.325 253.905L351.74 233.382L338.764 238.216L347.349 258.74Z" fill="#407BFF"/>
<g opacity="0.2">
<path d="M339.859 238.246L350.962 234.109L358.392 251.872L351.031 249.614L347.289 256.008L339.859 238.246ZM357.9 251.435L350.8 234.461L340.233 238.399L347.333 255.373L350.894 249.287L357.9 251.435Z" fill="white"/>
</g>
<path d="M343.784 209.167L345.32 208.035L346.616 209.408L348.341 208.553L349.357 210.122L351.216 209.571L351.919 211.286L353.852 211.057L354.219 212.863L356.165 212.964L356.184 214.803L358.079 215.23L357.75 217.043L359.535 217.782L358.868 219.509L360.483 220.538L359.5 222.126L360.895 223.41L359.628 224.807L360.758 226.305L359.246 227.466L360.074 229.131L358.368 230.018L358.868 231.795L357.02 232.382L357.176 234.214L355.248 234.479L355.054 236.309L353.107 236.245L352.57 238.013L350.666 237.621L349.803 239.27L348.004 238.564L346.843 240.041L345.206 239.043L343.784 240.301L342.363 239.043L340.726 240.041L339.565 238.564L337.766 239.27L336.904 237.621L335 238.013L334.463 236.245L332.515 236.309L332.321 234.479L330.393 234.214L330.548 232.382L328.702 231.795L329.202 230.018L327.495 229.131L328.323 227.466L326.812 226.305L327.941 224.807L326.673 223.41L328.068 222.126L327.086 220.538L328.702 219.509L328.035 217.782L329.818 217.043L329.489 215.23L331.385 214.803L331.405 212.964L333.351 212.863L333.717 211.057L335.65 211.286L336.353 209.571L338.212 210.122L339.228 208.553L340.952 209.408L342.249 208.035L343.784 209.167Z" fill="#407BFF"/>
<path opacity="0.3" d="M343.784 209.167L345.32 208.035L346.616 209.408L348.341 208.553L349.357 210.122L351.216 209.571L351.919 211.286L353.852 211.057L354.219 212.863L356.165 212.964L356.184 214.803L358.079 215.23L357.75 217.043L359.535 217.782L358.868 219.509L360.483 220.538L359.5 222.126L360.895 223.41L359.628 224.807L360.758 226.305L359.246 227.466L360.074 229.131L358.368 230.018L358.868 231.795L357.02 232.382L357.176 234.214L355.248 234.479L355.054 236.309L353.107 236.245L352.57 238.013L350.666 237.621L349.803 239.27L348.004 238.564L346.843 240.041L345.206 239.043L343.784 240.301L342.363 239.043L340.726 240.041L339.565 238.564L337.766 239.27L336.904 237.621L335 238.013L334.463 236.245L332.515 236.309L332.321 234.479L330.393 234.214L330.548 232.382L328.702 231.795L329.202 230.018L327.495 229.131L328.323 227.466L326.812 226.305L327.941 224.807L326.673 223.41L328.068 222.126L327.086 220.538L328.702 219.509L328.035 217.782L329.818 217.043L329.489 215.23L331.385 214.803L331.405 212.964L333.351 212.863L333.717 211.057L335.65 211.286L336.353 209.571L338.212 210.122L339.228 208.553L340.952 209.408L342.249 208.035L343.784 209.167Z" fill="white"/>
<path opacity="0.3" d="M343.784 238.074C351.922 238.074 358.519 231.848 358.519 224.168C358.519 216.488 351.922 210.261 343.784 210.261C335.647 210.261 329.05 216.488 329.05 224.168C329.05 231.848 335.647 238.074 343.784 238.074Z" fill="white"/>
<path d="M334.945 224.168C334.945 224.168 336.127 221.815 337.663 221.674C340.614 221.401 343.631 227.297 343.631 227.297C343.631 227.297 346.803 220.582 353.339 217.579C353.339 217.579 349.545 221.019 346.282 230.081C346.031 230.779 342.58 231.774 341.77 231.337C340.96 230.9 338.184 224.86 334.945 224.168Z" fill="#407BFF"/>
<path d="M95.623 135.374C93.6201 131.993 89.7284 130.449 86.9306 131.925C84.1329 133.402 83.4889 137.339 85.4918 140.72C87.4947 144.101 91.3865 145.645 94.1842 144.169C96.9819 142.693 97.6259 138.755 95.623 135.374Z" fill="#407BFF"/>
<path d="M118.369 123.523L111.481 111.566C111.481 111.566 106.67 121.309 99.7517 124.959L103.262 130.884L103.815 131.817L107.33 137.75C114.248 134.099 125.559 135.327 125.559 135.327L118.369 123.523Z" fill="#407BFF"/>
<path opacity="0.8" d="M95.623 135.374C93.6201 131.993 89.7284 130.449 86.9306 131.925C84.1329 133.402 83.4889 137.339 85.4918 140.72C87.4947 144.101 91.3865 145.645 94.1842 144.169C96.9819 142.693 97.6259 138.755 95.623 135.374Z" fill="white"/>
<path opacity="0.8" d="M118.369 123.523L111.481 111.566C111.481 111.566 106.67 121.309 99.7517 124.959L103.262 130.884L103.815 131.817L107.33 137.75C114.248 134.099 125.559 135.327 125.559 135.327L118.369 123.523Z" fill="white"/>
<path d="M95.1536 142.375C95.1536 142.375 100.134 149.184 104.787 151.67C105.115 151.844 105.529 151.753 105.765 151.477L109.729 146.832C110.052 146.453 109.912 145.892 109.441 145.696C107.478 144.883 102.912 142.777 100.274 139.838C96.8494 136.021 95.1536 142.375 95.1536 142.375Z" fill="#407BFF"/>
<path opacity="0.3" d="M95.1536 142.375C95.1536 142.375 100.134 149.184 104.787 151.67C105.115 151.844 105.529 151.753 105.765 151.477L109.729 146.832C110.052 146.453 109.912 145.892 109.441 145.696C107.478 144.883 102.912 142.777 100.274 139.838C96.8494 136.021 95.1536 142.375 95.1536 142.375Z" fill="black"/>
<path d="M125.49 135.672C123.905 136.508 119.406 131.764 115.442 125.073C111.479 118.383 109.551 112.282 111.136 111.445C112.722 110.608 117.221 115.353 121.184 122.043C125.148 128.733 127.075 134.836 125.49 135.672Z" fill="white"/>
<path opacity="0.4" d="M124.844 133.699C123.657 134.325 120.149 130.592 116.839 125.225C116.647 124.922 116.459 124.606 116.271 124.288C116.045 123.905 115.824 123.533 115.618 123.163C112.58 117.751 111.083 113.079 112.259 112.458C113.525 111.791 117.371 116.005 120.847 121.872C124.318 127.73 126.109 133.031 124.844 133.699Z" fill="black"/>
<path d="M93.541 145.412C93.541 145.412 91.8373 144.27 88.7518 139.062C85.4128 133.426 85.5049 131.847 85.5049 131.847L100.948 123.697C100.948 123.697 101.133 125.743 104.264 131.028C107.374 136.276 108.984 137.262 108.984 137.262L93.541 145.412Z" fill="#407BFF"/>
<path d="M116.839 125.224C116.647 124.921 116.459 124.605 116.271 124.287C116.045 123.904 115.824 123.532 115.618 123.162L117.216 122.686C117.581 122.58 117.909 122.761 118.092 123.069L118.219 123.283C118.401 123.591 118.393 123.95 118.106 124.187L116.839 125.224Z" fill="white"/>
<path opacity="0.2" d="M116.839 125.224C116.647 124.921 116.459 124.605 116.271 124.287C116.045 123.904 115.824 123.532 115.618 123.162L117.216 122.686C117.581 122.58 117.909 122.761 118.092 123.069L118.219 123.283C118.401 123.591 118.393 123.95 118.106 124.187L116.839 125.224Z" fill="black"/>
<path d="M115.985 278.522H97.8813V285.947H115.985V278.522Z" fill="#263238"/>
<path opacity="0.6" d="M115.985 278.522H97.8813V285.947H115.985V278.522Z" fill="white"/>
<path d="M95.7757 279.275C95.7757 279.275 91.3225 273.392 91.3225 270.309C91.3225 267.227 93.9948 265.545 95.7757 266.667C95.7757 266.667 94.8853 260.733 95.7757 258.657C96.6662 256.58 101.119 257.822 101.119 257.822C101.119 257.822 102.01 255.879 104.534 255.879C107.057 255.879 108.097 257.822 108.097 257.822C108.097 257.822 109.433 256.47 111.808 257.015C114.183 257.561 113.882 258.772 113.882 258.772C113.882 258.772 117.3 258.767 118.042 259.775C118.784 260.783 120.268 274.085 117.151 278.292C114.033 282.497 100.525 283.898 95.7757 279.275Z" fill="#407BFF"/>
<path opacity="0.7" d="M118.989 270.927C118.831 273.902 118.314 276.728 117.155 278.29C114.037 282.497 100.529 283.899 95.7784 279.277C95.7784 279.277 91.3208 273.392 91.3208 270.311C91.3208 267.23 94.0001 265.552 95.7784 266.667C95.7784 266.667 94.8888 260.728 95.7784 258.656C96.6671 256.584 101.126 257.816 101.126 257.816C101.126 257.816 102.014 255.883 104.537 255.883C107.058 255.883 108.094 257.816 108.094 257.816C108.094 257.816 109.434 256.468 111.809 257.02C114.183 257.561 113.886 258.769 113.886 258.769C113.886 258.769 117.301 258.762 118.044 259.771C118.505 260.409 119.271 265.891 118.989 270.927Z" fill="white"/>
<path opacity="0.1" d="M118.989 270.927C118.595 270.778 116.49 270.023 115.893 271.129C115.218 272.34 109.657 277.578 107.541 275.58C105.424 273.583 99.3228 271.692 99.3228 271.692C99.3228 271.692 100.569 271.751 101.856 271.065C104.422 269.696 103.976 267.595 102.599 267.697C102.257 267.722 95.7776 266.666 95.7776 266.666C95.7776 266.666 100.528 266.538 101.079 265.911C101.642 265.285 101.191 259.718 101.642 259.824C102.081 259.92 101.856 265.497 101.969 266.443C102.081 267.389 106.227 267.437 106.779 266.906C107.342 266.385 107.185 259.269 107.984 259.747C108.784 260.236 107.519 267.074 108.319 267.489C109.118 267.914 110.849 268.313 111.602 267.888C112.357 267.474 113.045 260.197 113.483 260.516C113.933 260.824 113.325 267.367 113.55 267.888C113.776 268.419 115.098 268.437 116.111 268.224C117.113 268.011 118.043 259.77 118.043 259.77C118.505 260.409 119.271 265.891 118.989 270.927Z" fill="black"/>
<path d="M97.8812 283.776C97.8812 283.776 106.809 286.402 115.984 283.776L117.224 284.359V293.442C117.224 293.442 107.428 294.914 96.5161 293.442L97.1364 284.406L97.8812 283.776Z" fill="#407BFF"/>
<path d="M261.417 105.056H254.639V102.952C254.639 102.367 255.142 101.891 255.763 101.891H260.294C260.914 101.891 261.418 102.367 261.418 102.952L261.417 105.056Z" fill="#407BFF"/>
<path d="M271.43 105.056H264.652V93.2477C264.652 92.6623 265.155 92.187 265.776 92.187H270.307C270.928 92.187 271.431 92.6615 271.431 93.2477L271.43 105.056Z" fill="#407BFF"/>
<path d="M281.443 105.056H274.665V95.3575C274.665 94.7721 275.168 94.2968 275.789 94.2968H280.32C280.941 94.2968 281.444 94.7721 281.444 95.3575L281.443 105.056Z" fill="#407BFF"/>
<path d="M291.457 105.056H284.678V84.5976C284.678 84.0122 285.181 83.5369 285.802 83.5369H290.334C290.954 83.5369 291.457 84.0122 291.457 84.5976L291.457 105.056Z" fill="#407BFF"/>
<path d="M291.486 68.43L289.734 69.0055L287.157 69.8484L288.412 70.7335L276.162 86.6891L265.324 82.1028L251.859 96.7866L254.487 98.816L266.24 85.9961L277.292 90.6676L291.135 72.6322L292.231 73.4105L292.469 68.1096L291.486 68.43Z" fill="#407BFF"/>
<path opacity="0.6" d="M261.417 105.056H254.639V102.952C254.639 102.367 255.142 101.891 255.763 101.891H260.294C260.914 101.891 261.418 102.367 261.418 102.952L261.417 105.056Z" fill="white"/>
<path opacity="0.5" d="M271.43 105.056H264.652V93.2477C264.652 92.6623 265.155 92.187 265.776 92.187H270.307C270.928 92.187 271.431 92.6615 271.431 93.2477L271.43 105.056Z" fill="white"/>
<path opacity="0.3" d="M281.443 105.056H274.665V95.3574C274.665 94.772 275.168 94.2968 275.789 94.2968H280.32C280.941 94.2968 281.444 94.772 281.444 95.3574L281.443 105.056Z" fill="white"/>
<path opacity="0.2" d="M291.457 105.056H284.678V84.5976C284.678 84.0122 285.181 83.5369 285.802 83.5369H290.334C290.954 83.5369 291.457 84.0122 291.457 84.5976L291.457 105.056Z" fill="white"/>
<path opacity="0.1" d="M291.486 68.43L289.734 69.0055L287.157 69.8484L288.412 70.7335L276.162 86.6891L265.324 82.1028L251.859 96.7866L254.487 98.816L266.24 85.9961L277.292 90.6676L291.135 72.6322L292.231 73.4105L292.469 68.1096L291.486 68.43Z" fill="black"/>
<path d="M293.344 106.954H253.332C252.777 106.954 252.326 106.53 252.326 106.006C252.326 105.481 252.776 105.056 253.332 105.056H293.344C293.899 105.056 294.35 105.481 294.35 106.006C294.35 106.529 293.9 106.954 293.344 106.954Z" fill="#263238"/>
<path opacity="0.3" d="M293.344 106.954H253.332C252.777 106.954 252.326 106.53 252.326 106.006C252.326 105.481 252.776 105.056 253.332 105.056H293.344C293.899 105.056 294.35 105.481 294.35 106.006C294.35 106.529 293.9 106.954 293.344 106.954Z" fill="white"/>
<path d="M74.2641 279.535C76.9258 295.653 92.927 306.683 110.005 304.171C127.082 301.659 138.769 286.557 136.107 270.439C133.445 254.321 117.444 243.291 100.367 245.803C83.2898 248.315 71.6032 263.417 74.2641 279.535Z" stroke="#263238" stroke-width="1.2175" stroke-linecap="round" stroke-linejoin="round" stroke-dasharray="8.96 2.24 18.67 7.47"/>
<path d="M365.934 250.334C354.379 262.465 334.591 263.458 321.738 252.552C308.885 241.647 307.833 222.972 319.388 210.841C330.943 198.71 350.731 197.717 363.583 208.623C376.436 219.529 377.489 238.204 365.934 250.334Z" stroke="#263238" stroke-width="1.2175" stroke-linecap="round" stroke-linejoin="round" stroke-dasharray="8.96 2.24 18.67 7.47"/>
<path d="M304.064 100.935C310.178 85.6768 302.027 68.6298 285.86 62.8601C269.693 57.0904 251.63 64.7827 245.517 80.0414C239.404 95.3002 247.554 112.347 263.722 118.117C279.889 123.887 297.951 116.194 304.064 100.935Z" stroke="#263238" stroke-width="1.2175" stroke-linecap="round" stroke-linejoin="round" stroke-dasharray="8.96 2.24 18.67 7.47"/>
<path d="M111.916 160.687C128.799 157.193 139.48 141.443 135.772 125.51C132.063 109.576 115.37 99.4926 98.4865 102.987C81.603 106.482 70.9226 122.232 74.631 138.165C78.3394 154.099 95.0325 164.182 111.916 160.687Z" stroke="#263238" stroke-width="1.2175" stroke-linecap="round" stroke-linejoin="round" stroke-dasharray="8.96 2.24 18.67 7.47"/>
<path d="M207.278 199.079C199.124 193.135 197.62 182.077 203.918 174.382C210.216 166.686 221.932 165.266 230.085 171.211C238.239 177.155 239.744 188.212 233.445 195.908C227.147 203.604 215.432 205.024 207.278 199.079Z" stroke="#263238" stroke-width="1.2175" stroke-linecap="round" stroke-linejoin="round" stroke-dasharray="10.69 2.67 22.26 8.9"/>
<path d="M202.01 177.252L132.011 147.047" stroke="#263238" stroke-width="1.2175" stroke-miterlimit="10" stroke-linecap="round" stroke-linejoin="round"/>
<path d="M227.966 169.877L260.566 116.805" stroke="#263238" stroke-width="1.2175" stroke-miterlimit="10" stroke-linecap="round" stroke-linejoin="round"/>
<path d="M235.488 192.791L312.286 223.464" stroke="#263238" stroke-width="1.2175" stroke-miterlimit="10" stroke-linecap="round" stroke-linejoin="round"/>
<path d="M203.606 195.515L129.054 255.883" stroke="#263238" stroke-width="1.2175" stroke-miterlimit="10" stroke-linecap="round" stroke-linejoin="round"/>
<g opacity="0.5">
<path d="M74.2641 279.535C76.9258 295.653 92.927 306.683 110.005 304.171C127.082 301.659 138.769 286.557 136.107 270.439C133.445 254.321 117.444 243.291 100.367 245.803C83.2898 248.315 71.6032 263.417 74.2641 279.535Z" stroke="white" stroke-width="1.2175" stroke-linecap="round" stroke-linejoin="round" stroke-dasharray="8.96 2.24 18.67 7.47"/>
<path d="M365.934 250.334C354.379 262.465 334.592 263.458 321.738 252.552C308.885 241.647 307.833 222.972 319.388 210.841C330.943 198.71 350.73 197.717 363.583 208.623C376.437 219.529 377.489 238.204 365.934 250.334Z" stroke="white" stroke-width="1.2175" stroke-linecap="round" stroke-linejoin="round" stroke-dasharray="8.96 2.24 18.67 7.47"/>
<path d="M306.085 90.5379C306.104 74.2254 292.108 60.9844 274.824 60.9633C257.54 60.9422 243.513 74.149 243.494 90.4615C243.475 106.774 257.471 120.015 274.755 120.036C292.038 120.057 306.065 106.85 306.085 90.5379Z" stroke="white" stroke-width="1.2175" stroke-linecap="round" stroke-linejoin="round" stroke-dasharray="8.96 2.24 18.67 7.47"/>
<path d="M111.916 160.687C128.799 157.193 139.48 141.443 135.772 125.51C132.063 109.576 115.37 99.4926 98.4865 102.987C81.603 106.482 70.9226 122.232 74.631 138.165C78.3394 154.099 95.0325 164.182 111.916 160.687Z" stroke="white" stroke-width="1.2175" stroke-linecap="round" stroke-linejoin="round" stroke-dasharray="8.96 2.24 18.67 7.47"/>
<path d="M207.278 199.079C199.124 193.135 197.62 182.077 203.918 174.382C210.216 166.686 221.932 165.266 230.085 171.211C238.239 177.155 239.744 188.212 233.445 195.908C227.147 203.604 215.432 205.024 207.278 199.079Z" stroke="white" stroke-width="1.2175" stroke-linecap="round" stroke-linejoin="round" stroke-dasharray="10.69 2.67 22.26 8.9"/>
<path d="M202.01 177.252L132.011 147.047" stroke="white" stroke-width="1.2175" stroke-miterlimit="10" stroke-linecap="round" stroke-linejoin="round"/>
<path d="M227.966 169.877L260.566 116.805" stroke="white" stroke-width="1.2175" stroke-miterlimit="10" stroke-linecap="round" stroke-linejoin="round"/>
<path d="M235.488 192.791L312.286 223.464" stroke="white" stroke-width="1.2175" stroke-miterlimit="10" stroke-linecap="round" stroke-linejoin="round"/>
<path d="M203.606 195.515L129.054 255.883" stroke="white" stroke-width="1.2175" stroke-miterlimit="10" stroke-linecap="round" stroke-linejoin="round"/>
</g>
<path d="M255.918 167.177C253.315 167.573 247.436 185.74 245.072 188.113C243.832 189.358 230.302 185.74 230.302 185.74L228.706 190.431C228.706 190.431 243.506 196.196 247.536 194.794C254.284 192.445 257.622 179.333 257.622 179.333L255.918 167.177Z" fill="#263238"/>
<path opacity="0.2" d="M257.626 179.336C257.626 179.336 256.959 181.96 255.608 185.074C254.424 187.831 252.695 190.969 250.441 193.006C249.555 193.801 248.59 194.43 247.537 194.794C243.51 196.194 228.71 190.431 228.71 190.431L230.298 185.736C230.298 185.736 243.834 189.354 245.072 188.112C247.431 185.736 253.318 167.57 255.915 167.172L257.626 179.336Z" fill="white"/>
<path d="M229.743 185.812L224.609 181.445L221.997 187.208C221.997 187.208 227.507 190.578 228.943 189.191L229.743 185.812Z" fill="#EEC1BB"/>
<path d="M218.464 182.106L217.751 186.557L221.997 187.208L224.609 181.446L218.464 182.106Z" fill="#EEC1BB"/>
<path d="M232.07 185.759L230.142 191.526L227.679 190.496L229.428 185.085L232.07 185.759Z" fill="#407BFF"/>
<path opacity="0.7" d="M232.07 185.759L230.142 191.526L227.679 190.496L229.428 185.085L232.07 185.759Z" fill="white"/>
<path opacity="0.2" d="M255.608 185.074C254.424 187.831 252.695 190.969 250.441 193.006C249.888 185.339 254.994 179.253 254.994 179.253C255.511 180.851 255.678 182.913 255.608 185.074Z" fill="black"/>
<path d="M261.124 150.14C261.731 153.184 261.124 157.173 261.124 157.173C261.124 157.173 276.134 159.138 279.779 156.518C283.423 153.897 285.034 138.32 276.915 136.823C268.797 135.327 259.215 140.568 261.124 150.14Z" fill="#263238"/>
<path d="M249.278 345.115L248.022 345.113L247.673 343.649L243.514 345.421H232.978C232.978 345.421 231.302 343.831 236.32 342.564C236.549 342.506 236.785 342.424 237.031 342.308C239.707 341.124 243.514 337.124 243.514 337.124H249.296C249.296 337.124 249.498 337.398 249.77 337.911C250.401 339.112 251.493 341.631 249.278 345.115Z" fill="#263238"/>
<path d="M249.77 337.911C249.77 337.919 249.77 337.928 249.77 337.928C249.006 337.124 245.532 340.652 242.988 341.852C240.716 342.92 238.163 343.392 237.031 342.308C239.707 341.124 243.914 335.954 243.914 335.954H248.563C248.563 335.954 249.498 337.398 249.77 337.911Z" fill="#FFC2BC"/>
<path d="M243.514 337.124L246.166 315.719L254.482 318.032L248.697 337.306" fill="#FFC2BC"/>
<path d="M279.515 206.009L256.798 205.002C256.798 205.002 250.728 241.915 250.171 265.502C248.394 281.325 246.29 308.356 244.25 324.901C244.25 324.901 245.774 325.936 248.569 326.424C250.906 326.832 252.389 326.593 252.389 326.593C257.639 312.391 263.828 288.85 263.405 266.088C279.44 229.3 279.515 206.009 279.515 206.009Z" fill="#263238"/>
<path opacity="0.4" d="M279.515 206.006C279.515 206.006 279.48 219.08 272.715 241.096C270.935 246.892 268.689 253.309 265.855 260.273C265.083 262.169 264.267 264.106 263.407 266.085C263.828 288.847 257.643 312.395 252.388 326.596C252.388 326.596 250.906 326.827 248.572 326.422C245.773 325.933 244.247 324.898 244.247 324.898C246.291 308.355 248.396 281.329 250.169 265.497C250.73 241.916 256.801 205.004 256.801 205.004L279.515 206.006Z" fill="white"/>
<path opacity="0.2" d="M272.715 241.096C270.934 246.892 268.689 253.309 265.855 260.273C263.916 241.469 268.531 230.846 268.531 230.846C270.584 233.255 271.917 236.915 272.715 241.096Z" fill="black"/>
<path d="M281.759 345.115L280.502 345.113L280.153 343.649L275.995 345.421H265.458C265.458 345.421 263.783 343.831 268.801 342.564C269.029 342.506 269.266 342.424 269.512 342.308C272.187 341.124 275.995 337.124 275.995 337.124H281.776C281.776 337.124 281.978 337.398 282.25 337.911C282.882 339.112 283.973 341.631 281.759 345.115Z" fill="#263238"/>
<path d="M282.25 337.911C282.25 337.919 282.25 337.928 282.25 337.928C281.487 337.124 278.013 340.652 275.468 341.852C273.196 342.92 270.643 343.392 269.511 342.308C272.187 341.124 276.395 335.954 276.395 335.954H281.044C281.044 335.954 281.978 337.398 282.25 337.911Z" fill="#FFC2BC"/>
<path d="M275.995 337.124L275.881 314.21L284.758 314.579L280.907 337.14L275.995 337.124Z" fill="#FFC2BC"/>
<path d="M275.079 326.955C275.079 326.955 277.369 327.69 279.35 327.894C281.686 328.134 282.934 327.761 282.934 327.761C286.983 311.638 291.121 285.652 286.477 270.007C295.337 219.448 283.585 205.93 283.585 205.93L263.649 203.884C263.649 203.884 270.07 246.674 272.242 267.585C274.109 285.55 275.762 306.517 275.079 326.955Z" fill="#263238"/>
<path opacity="0.4" d="M275.079 326.955C275.079 326.955 277.369 327.69 279.35 327.894C281.686 328.134 282.934 327.761 282.934 327.761C286.983 311.638 291.121 285.652 286.477 270.007C295.337 219.448 283.585 205.93 283.585 205.93L263.649 203.884C263.649 203.884 270.07 246.674 272.242 267.585C274.109 285.55 275.762 306.517 275.079 326.955Z" fill="white"/>
<path d="M279.706 165.02C279.706 165.02 264.188 172.275 265.52 165.645C265.52 165.645 259.8 165.594 256.037 167.764C256.037 167.764 253.801 176.583 256.037 200.288L254.441 211.753L263.624 214.372L266.651 206.056L270.313 214.806L286.266 210.103L283.048 201.27C283.048 201.27 284.667 180.962 289.526 171.681C289.526 171.681 288.754 164.924 279.706 165.02Z" fill="#407BFF"/>
<path opacity="0.7" d="M279.706 165.02C279.706 165.02 264.188 172.275 265.52 165.645C265.52 165.645 259.8 165.594 256.037 167.764C256.037 167.764 253.995 177.282 256.037 200.288L254.441 211.753L263.624 214.372L266.651 206.056L270.313 214.806L286.266 210.103L283.048 201.27C283.048 201.27 284.667 180.962 289.526 171.681C289.526 171.681 288.754 164.924 279.706 165.02Z" fill="white"/>
<path d="M278.736 152.407C277.664 156.146 276.348 162.999 278.923 165.493C278.923 165.493 282.443 168.15 271.984 167.851C271.075 169.906 267.635 174.3 267.635 174.3C267.635 174.3 266.037 170.134 266.763 168.636C260.036 168.088 266.608 165.493 266.608 165.493C271.106 164.497 271.235 161.404 270.696 158.498L278.736 152.407Z" fill="#EEC1BB"/>
<path opacity="0.2" d="M275.459 154.892L270.7 158.495C270.831 159.183 270.92 159.88 270.917 160.558C272.623 160.328 275.08 158.579 275.391 156.911C275.546 156.08 275.572 155.28 275.459 154.892Z" fill="black"/>
<path d="M282.12 144.901C280.918 150.939 280.545 153.512 276.894 156.408C271.403 160.765 263.858 158.46 263.136 152.304C262.487 146.763 264.562 137.819 271.155 135.825C277.65 133.861 283.322 138.863 282.12 144.901Z" fill="#EEC1BB"/>
<path d="M276.619 140.539C280.15 144.839 272.898 149.784 280.15 149.497C287.402 149.211 284.455 139.546 280.15 137.349C275.845 135.153 276.619 140.539 276.619 140.539Z" fill="#263238"/>
<path d="M271.986 145.907C271.908 146.418 271.564 146.813 271.217 146.789C270.871 146.765 270.652 146.331 270.73 145.82C270.808 145.309 271.152 144.914 271.499 144.939C271.845 144.963 272.064 145.396 271.986 145.907Z" fill="#263238"/>
<path d="M265.45 145.543C265.372 146.054 265.028 146.449 264.682 146.424C264.335 146.4 264.117 145.966 264.195 145.456C264.273 144.945 264.617 144.55 264.964 144.574C265.31 144.599 265.529 145.032 265.45 145.543Z" fill="#263238"/>
<path d="M265.114 144.614L263.892 144.171C263.892 144.171 264.401 145.176 265.114 144.614Z" fill="#263238"/>
<path d="M267.141 146.508C267.141 146.508 265.907 148.645 264.755 149.637C265.359 150.315 266.593 150.111 266.593 150.111L267.141 146.508Z" fill="#D4827D"/>
<path d="M269.355 152.21C269.074 152.239 268.774 152.244 268.455 152.222C268.369 152.216 268.31 152.144 268.323 152.061C268.335 151.979 268.413 151.917 268.502 151.921C270.827 152.085 272.154 150.593 272.167 150.578C272.224 150.511 272.324 150.498 272.389 150.549C272.454 150.599 272.461 150.694 272.403 150.759C272.351 150.819 271.284 152.021 269.355 152.21Z" fill="#263238"/>
<path d="M273.81 143.161C273.727 143.163 273.646 143.132 273.588 143.071C272.68 142.113 271.53 142.318 271.517 142.321C271.347 142.351 271.187 142.248 271.165 142.085C271.143 141.922 271.266 141.764 271.439 141.73C271.5 141.72 272.943 141.461 274.068 142.65C274.181 142.768 274.164 142.958 274.032 143.075C273.967 143.131 273.888 143.16 273.81 143.161Z" fill="#263238"/>
<path d="M263.982 142.609C263.903 142.615 263.825 142.593 263.763 142.542C263.637 142.437 263.632 142.248 263.753 142.12C264.96 140.84 266.399 140.975 266.46 140.982C266.632 141 266.745 141.148 266.714 141.312C266.682 141.476 266.517 141.595 266.346 141.577C266.29 141.571 265.171 141.482 264.212 142.5C264.148 142.567 264.064 142.603 263.982 142.609Z" fill="#263238"/>
<path d="M271.649 144.977L270.427 144.535C270.427 144.535 270.936 145.539 271.649 144.977Z" fill="#263238"/>
<path d="M274.143 137.191C274.143 137.191 275.399 144.309 280.409 145.5C285.419 146.69 281.352 138.182 281.352 138.182C281.352 138.182 280.3 134.325 273.532 134.325C266.765 134.325 258.956 140.813 261.125 150.14C261.125 150.14 260.753 147.026 262.253 144.574C263.752 142.121 265.296 144.234 274.143 137.191Z" fill="#263238"/>
<path d="M278.699 135.392C285.852 138.092 288.455 142.515 287.848 147.428C287.241 152.341 280.82 157.541 279.779 157.726L276.564 158.155C276.564 158.155 281.51 151.665 280.558 149.465C279.605 147.265 278.65 147.048 278.65 147.048L278.699 135.392Z" fill="#263238"/>
<path d="M282.741 150.724C282.086 151.962 281.01 152.725 280.021 152.973C278.532 153.346 277.885 151.735 278.382 150.126C278.829 148.677 280.141 146.738 281.596 147.088C283.029 147.433 283.491 149.308 282.741 150.724Z" fill="#EEC1BB"/>
<path d="M282.282 165.294C277.436 169.538 274.835 191.926 275.528 199.157C276.221 206.388 282.282 225.738 282.282 225.738L291.84 224.998C291.84 224.998 289.528 211.575 283.629 200.875C283.629 200.875 287.386 174.27 290.856 167.65C290.856 167.65 287.566 166.42 286.547 166.14C285.421 165.83 282.282 165.294 282.282 165.294Z" fill="#263238"/>
<path opacity="0.2" d="M291.841 225L282.278 225.737C282.278 225.737 280.251 219.27 278.418 212.414C277.646 209.558 276.918 206.635 276.374 204.093C275.961 202.172 275.654 200.466 275.532 199.158C275.453 198.338 275.417 197.312 275.417 196.144C275.453 187.069 277.988 169.06 282.278 165.293C282.278 165.293 283.024 165.417 283.919 165.583C284.866 165.765 285.971 165.98 286.551 166.137C287.568 166.419 290.858 167.653 290.858 167.653C290.393 168.547 289.919 169.797 289.446 171.296C289.314 171.735 289.174 172.198 289.042 172.679C287.516 178.052 286.077 185.753 285.059 191.747C284.182 196.956 283.629 200.872 283.629 200.872C284.252 202.006 284.84 203.166 285.375 204.341C289.99 214.269 291.841 225 291.841 225Z" fill="white"/>
<path d="M282.283 165.294C282.283 165.294 286.026 172.568 285.158 180.02L279.516 175.843L282.728 179.774L275.527 192.221C275.527 192.221 276.109 169.975 282.283 165.294Z" fill="#263238"/>
<path d="M263.665 165.675C263.665 165.675 257.828 175.106 258.868 199.346L255.397 223.914H251.579L255.826 199.346C255.826 199.346 251.291 180.785 255.918 167.177C255.918 167.177 259.678 165.675 263.665 165.675Z" fill="#263238"/>
<path opacity="0.2" d="M263.665 165.675C263.665 165.675 257.828 175.106 258.868 199.346L255.397 223.914H251.579L255.826 199.346C255.826 199.346 251.291 180.785 255.918 167.177C255.918 167.177 259.678 165.675 263.665 165.675Z" fill="white"/>
<path d="M264.502 165.675C264.502 165.675 263.604 165.208 261.582 165.981C259.561 166.753 254.703 176.853 254.703 176.853L258.405 174.834L256.322 176.853L258.838 188.97C258.838 188.97 261.634 167.161 264.502 165.675Z" fill="#263238"/>
<path d="M269.802 163.984C269.802 163.984 266.351 166.254 266.764 168.637L260.878 170.005C260.878 170.005 264.358 164.379 269.802 163.984Z" fill="#407BFF"/>
<path d="M280.304 170.998L272.066 168.472C272.066 168.472 276.426 165.152 277.786 163.355L280.506 165.285C280.506 165.285 280.506 165.285 280.515 165.293C280.576 165.434 281.383 167.321 280.304 170.998Z" fill="#407BFF"/>
<path opacity="0.6" d="M269.802 163.984C269.802 163.984 266.351 166.254 266.764 168.637L260.878 170.005C260.878 170.005 264.358 164.379 269.802 163.984Z" fill="white"/>
<path opacity="0.6" d="M280.304 170.998L272.066 168.472C272.066 168.472 276.426 165.152 277.786 163.355L280.506 165.285C280.506 165.285 280.506 165.285 280.515 165.293C280.576 165.434 281.383 167.321 280.304 170.998Z" fill="white"/>
<path opacity="0.2" d="M285.375 204.341C284.989 204.35 284.585 204.35 284.173 204.35C281.804 204.341 279.014 204.234 276.374 204.093C271.277 203.82 266.706 203.439 266.706 203.439L267.083 197.436L272.189 197.502L272.443 197.055C273.303 196.873 274.321 196.55 275.417 196.144C278.392 195.043 281.892 193.354 284.112 192.236C284.463 192.054 284.778 191.888 285.059 191.747C284.182 196.956 283.629 200.872 283.629 200.872C284.252 202.006 284.84 203.166 285.375 204.341Z" fill="black"/>
<path d="M290.856 167.65C293.922 170.202 299.379 193.266 297.605 196.197C295.832 199.128 275.109 202.458 275.109 202.458L273.115 197.49C273.115 197.49 289.528 193.218 289.528 191.526C289.528 189.894 286.658 182.983 286.658 182.983C286.658 182.983 285.998 175.107 288.311 171.244C289.839 168.693 290.856 167.65 290.856 167.65Z" fill="#263238"/>
<path opacity="0.2" d="M290.856 167.65C293.922 170.202 299.379 193.266 297.605 196.197C295.832 199.128 275.109 202.458 275.109 202.458L273.115 197.49C273.115 197.49 289.528 193.218 289.528 191.526C289.528 189.894 286.658 182.983 286.658 182.983C286.658 182.983 285.998 175.107 288.311 171.244C289.839 168.693 290.856 167.65 290.856 167.65Z" fill="white"/>
<path d="M273.567 197.933L266.71 197.111L268.049 203.25C268.049 203.25 274.611 203.05 274.953 201.138L273.567 197.933Z" fill="#EEC1BB"/>
<path d="M262.063 200.962L264.169 205.002L268.048 203.25L266.709 197.111L262.063 200.962Z" fill="#EEC1BB"/>
<path d="M275.445 196.635L277.349 202.41L274.704 202.891L272.868 197.505L275.445 196.635Z" fill="#407BFF"/>
<path opacity="0.7" d="M275.445 196.635L277.349 202.41L274.704 202.891L272.868 197.505L275.445 196.635Z" fill="white"/>
<path d="M204.867 209.369L209.006 216.857L200.506 218.082C200.506 218.082 197.814 210.472 200.12 209.222L204.867 209.369Z" fill="#FFB573"/>
<path d="M206.14 223.913L199.996 223.316L200.506 218.082L209.006 216.857L206.14 223.913Z" fill="#FFB573"/>
<path d="M203.806 205.661L205.694 210.263L198.833 211.865L196.869 207.297L203.806 205.661Z" fill="#407BFF"/>
<path opacity="0.7" d="M203.806 205.661L205.694 210.263L198.833 211.865L196.869 207.297L203.806 205.661Z" fill="white"/>
<path d="M186.864 150.29C184.54 152.462 186.733 179.193 186.803 182.383C186.873 185.573 196.791 209.222 196.791 209.222L204.797 206.902C204.797 206.902 197.805 185.842 196.611 182.246C195.417 178.651 195.653 169.444 195.563 165.535C195.494 162.498 195.318 157.723 193.039 154.929C190.76 152.136 186.864 150.29 186.864 150.29Z" fill="#263238"/>
<path opacity="0.3" d="M186.864 150.29C184.54 152.462 186.733 179.193 186.803 182.383C186.873 185.573 196.791 209.222 196.791 209.222L204.797 206.902C204.797 206.902 197.805 185.842 196.611 182.246C195.417 178.651 195.653 169.444 195.563 165.535C195.494 162.498 195.318 157.723 193.039 154.929C190.76 152.136 186.864 150.29 186.864 150.29Z" fill="black"/>
<path d="M207.701 181.418L216.351 179.255L215.747 187.35C215.747 187.35 207.289 188.155 206.504 185.756L207.701 181.418Z" fill="#FFB573"/>
<path d="M223.013 183.446L221.045 188.97L215.748 187.35L216.351 179.255L223.013 183.446Z" fill="#FFB573"/>
<path d="M186.331 159.659L185.522 151.689C184.12 151.463 183.386 149.033 181.807 148.895C177.821 148.558 171.27 148.693 166.747 148.895C165.253 148.962 163.744 149.091 162.326 149.242L157.849 166.211C158.422 170.876 158.758 175.397 158.944 179.608C159.489 191.983 158.757 194.243 159.007 197.23H194.445C193.288 177.589 192.212 166.007 191.497 159.66H186.331V159.659Z" fill="#407BFF"/>
<path opacity="0.7" d="M186.331 159.659L185.521 151.689C184.119 151.463 183.386 149.033 181.807 148.895C177.82 148.558 171.27 148.693 166.747 148.895C165.811 148.937 164.868 149.004 163.945 149.084L158.07 168.176C158.505 172.143 158.785 175.992 158.944 179.607C159.489 191.982 158.757 194.242 159.007 197.229H194.445C193.453 177.733 192.341 166.07 191.571 159.659H186.331Z" fill="white"/>
<path d="M180.561 150.983C180.561 150.983 179.55 151.963 178.362 153.5L177.927 157.349C177.927 157.349 184.105 174.663 184.584 182.715L182.323 184.759L178.362 181.507C178.362 181.507 178.304 169.682 176.587 157.39L175.09 153.972C175.09 153.972 171.24 152.399 169.627 150.684C168.015 148.971 180.561 150.983 180.561 150.983Z" fill="#407BFF"/>
<path d="M167.068 134.538L171.099 137.693L176.587 141.995C176.427 142.695 176.301 143.404 176.239 144.087C175.944 146.896 176.939 147.706 179.988 148.78C179.988 148.78 180.123 150.564 178.145 152.559C178.122 153.018 176.83 153.755 176.83 153.755C176.83 153.755 176.132 153.024 175.709 152.758C167.278 152.615 166.166 148.929 166.166 148.929C169.446 145.875 168.186 139.119 167.068 134.538Z" fill="#FFB573"/>
<path opacity="0.2" d="M176.587 141.995C176.427 142.695 176.301 143.404 176.238 144.087C174.191 143.699 171.457 141.64 171.171 139.666C171.064 138.924 171.045 138.207 171.1 137.692L176.587 141.995Z" fill="black"/>
<path d="M183.487 117.847C183.487 117.847 187.088 125.923 183.228 130.279C179.369 134.635 175.186 119 175.186 119L183.487 117.847Z" fill="#263238"/>
<path d="M171.301 140.223C174.424 142.786 178.38 142.709 181.366 140.967C183.286 139.849 184.802 138.037 185.443 135.797C185.531 135.504 185.598 135.199 185.655 134.889C186.606 129.202 184.943 120.048 178.292 118.054C173.56 116.6 168.464 119.044 166.926 123.518C166.48 124.787 166.37 126.141 166.585 127.467C167.485 133.636 167.706 137.302 171.301 140.223Z" fill="#FFB573"/>
<path d="M176.712 128.464C176.717 128.968 177.068 129.357 177.423 129.33C177.778 129.304 178.02 128.87 177.982 128.367C177.943 127.863 177.618 127.474 177.271 127.5C176.925 127.526 176.674 127.953 176.712 128.464Z" fill="#263238"/>
<path d="M182.767 128.015C182.771 128.519 183.131 128.908 183.477 128.882C183.825 128.855 184.075 128.421 184.036 127.918C183.997 127.414 183.672 127.025 183.325 127.052C182.978 127.078 182.728 127.536 182.767 128.015Z" fill="#263238"/>
<path d="M180.864 128.406C181.63 129.905 182.611 131.297 183.782 132.541C183.079 133.099 182.15 133.335 181.245 133.185L180.864 128.406Z" fill="#ED893E"/>
<path d="M184.784 125.506C184.681 125.56 184.556 125.56 184.454 125.503C183.78 125.093 182.94 125.006 182.189 125.269C182.032 125.339 181.846 125.277 181.77 125.129C181.695 124.982 181.762 124.805 181.918 124.735L181.919 124.734C182.861 124.378 183.926 124.475 184.778 124.994C184.928 125.075 184.981 125.256 184.895 125.398C184.894 125.401 184.892 125.402 184.892 125.404C184.862 125.443 184.825 125.478 184.784 125.506Z" fill="#263238"/>
<path d="M175.332 126.28C175.269 126.283 175.206 126.268 175.153 126.236C175.027 126.124 175.022 125.936 175.141 125.818C175.143 125.816 175.145 125.815 175.146 125.813C175.841 125.112 176.855 124.775 177.863 124.908C178.033 124.94 178.142 125.096 178.108 125.257C178.07 125.415 177.907 125.517 177.738 125.489C176.94 125.406 176.146 125.683 175.598 126.238C175.52 126.287 175.424 126.303 175.332 126.28Z" fill="#263238"/>
<path d="M170.769 119.366L171.496 120.47C169.424 121.395 170.169 123.712 170.748 124.732C171.987 126.912 171.086 130.628 169.415 132.267C169.415 132.267 169.225 131.282 168.369 131.623C167.514 131.964 168.346 136.232 168.346 136.232C168.346 136.232 167.596 137.443 165.391 132.195C163.351 127.342 162.62 123.182 163.453 121.111L170.769 119.366Z" fill="#263238"/>
<path d="M164.135 132.769C164.982 134.119 166.361 135.098 167.97 135.49C170.105 135.995 171.113 134.177 170.476 132.301C169.892 130.639 168.084 128.317 165.962 128.665C163.841 129.013 163.119 131.099 164.135 132.769Z" fill="#FFB573"/>
<path d="M180.956 134.429C180.356 135.235 179.61 136.809 179.61 136.809C179.447 136.771 179.283 136.733 179.123 136.687C176.92 136.119 176.098 135.169 175.855 134.288C175.723 133.806 175.77 133.34 175.861 132.974C175.96 132.549 176.134 132.266 176.134 132.266C177.11 133.225 179.119 133.904 180.209 134.225C180.663 134.363 180.956 134.429 180.956 134.429Z" fill="#263238"/>
<path d="M180.209 134.225L179.793 134.917C177.721 134.377 176.338 133.735 175.861 132.974C175.96 132.549 176.134 132.266 176.134 132.266C177.11 133.226 179.119 133.904 180.209 134.225Z" fill="white"/>
<path d="M179.122 136.687C176.92 136.119 176.098 135.169 175.854 134.288C176.597 134.51 177.466 134.853 178.166 135.376C178.704 135.774 178.978 136.245 179.122 136.687Z" fill="#DE5753"/>
<path d="M182.323 120.659C182.323 120.659 184.524 118.299 184.041 115.404C184.041 115.404 171.416 113.353 165.665 115.404C159.915 117.454 163.477 126.291 163.477 126.291C163.477 126.291 169.403 121.675 171.496 120.47C173.589 119.264 180.1 121.435 180.1 121.435L182.323 120.659Z" fill="#263238"/>
<path d="M167.617 145.517C167.617 145.517 169.226 149.529 175.411 152.366L177.073 153.814L174.308 153.149L171.495 156.495L163.681 149.109C163.681 149.109 166.25 145.563 167.617 145.517Z" fill="#407BFF"/>
<path d="M177.073 153.814L177.52 151.507C177.52 151.507 177.885 148.937 176.91 147.151C176.91 147.151 176.526 147.07 176.307 146.087L177.347 146.336C177.347 146.336 182.871 148.383 183.669 155.152L179.284 152.282L177.073 153.814Z" fill="#407BFF"/>
<path opacity="0.6" d="M177.073 153.814L177.52 151.507C177.52 151.507 177.885 148.937 176.91 147.151C176.91 147.151 176.526 147.07 176.307 146.087L177.347 146.336C177.347 146.336 182.871 148.383 183.669 155.152L179.284 152.282L177.073 153.814Z" fill="white"/>
<path opacity="0.6" d="M167.617 145.517C167.617 145.517 169.226 149.529 175.411 152.366L177.073 153.814L174.308 153.149L171.495 156.495L163.681 149.109C163.681 149.109 166.25 145.563 167.617 145.517Z" fill="white"/>
<path d="M191.295 338.961L198.749 339.698L199.126 335.621L200.146 324.526L192.692 323.78L191.561 336.037L191.295 338.961Z" fill="#9F5B53"/>
<path d="M154.087 338.067H161.311L161.375 336.523L161.385 336.332L161.753 326.442L161.761 326.243L161.909 322.452H154.674L154.087 338.067Z" fill="#9F5B53"/>
<path opacity="0.2" d="M192.692 323.78L191.561 336.037L199.126 335.621L200.146 324.526L192.692 323.78Z" fill="black"/>
<path opacity="0.2" d="M154.132 337.2H154.142L161.375 336.332H161.385L161.761 326.789H161.753L154.51 327.336L154.142 336.9L154.132 337.2Z" fill="black"/>
<path d="M162.313 337.657H153.535C153.239 337.658 152.983 337.852 152.919 338.125L151.494 344.198C151.372 344.742 151.741 345.276 152.317 345.391C152.394 345.407 152.472 345.414 152.551 345.413C155.392 345.37 157.46 345.205 161.026 345.205C163.223 345.205 169.85 345.422 172.884 345.422C175.917 345.422 176.312 342.594 175.071 342.333C169.501 341.188 165.309 339.601 163.527 338.092C163.196 337.804 162.762 337.649 162.313 337.657Z" fill="#263238"/>
<path d="M199.539 337.44H190.761C190.465 337.442 190.209 337.636 190.145 337.909L188.72 343.981C188.598 344.525 188.967 345.059 189.542 345.174C189.619 345.19 189.698 345.197 189.777 345.196C192.617 345.153 194.686 344.988 198.252 344.988C200.449 344.988 207.076 345.205 210.11 345.205C213.143 345.205 213.538 342.377 212.298 342.116C206.728 340.971 202.536 339.384 200.753 337.875C200.422 337.587 199.987 337.432 199.539 337.44Z" fill="#263238"/>
<path d="M153.162 335.463H163.628C163.628 335.463 172.051 305.332 175.384 283.646C175.911 280.276 176.463 275.863 177.025 270.713C177.92 262.4 178.823 252.431 179.639 242.826C182.14 249.168 184.043 258.243 185.517 268.527C190.755 305.39 190.228 334.593 190.228 334.593H200.826C207.634 285.543 201.23 235.689 196.791 209.805C195.887 204.556 195.062 200.3 194.448 197.228H159.014C159.005 197.924 159.251 202.999 159.566 210.418C160.277 227.309 161.295 256.347 160.224 273.272C159.303 287.977 153.162 335.463 153.162 335.463Z" fill="#263238"/>
<path d="M203.198 338.638C202.616 338.816 201.933 338.9 201.445 338.939C201.384 338.944 201.326 338.915 201.297 338.865C201.268 338.814 201.272 338.752 201.309 338.707C201.465 338.513 202.853 336.816 203.721 336.865C203.921 336.877 204.086 336.975 204.198 337.153C204.381 337.446 204.406 337.717 204.272 337.962C204.103 338.272 203.686 338.488 203.198 338.638ZM201.78 338.615C202.98 338.481 203.799 338.194 203.999 337.828C204.081 337.677 204.06 337.504 203.933 337.301C203.874 337.207 203.801 337.161 203.704 337.156C203.236 337.129 202.36 337.952 201.78 338.615Z" fill="#407BFF"/>
<path d="M201.48 338.933C201.457 338.939 201.432 338.942 201.407 338.938C201.354 338.929 201.311 338.897 201.289 338.85C201.258 338.78 200.529 337.112 200.966 336.339C201.083 336.13 201.271 336.002 201.522 335.954C201.824 335.898 202.064 335.99 202.198 336.211C202.567 336.816 202.054 338.345 201.547 338.89C201.53 338.91 201.506 338.924 201.48 338.933ZM201.512 336.258C201.39 336.296 201.3 336.368 201.239 336.477C200.977 336.938 201.263 337.933 201.475 338.493C201.872 337.889 202.174 336.753 201.932 336.358C201.886 336.282 201.804 336.2 201.583 336.242C201.557 336.245 201.534 336.251 201.512 336.258Z" fill="#407BFF"/>
<path d="M165.972 338.638C165.39 338.816 164.706 338.9 164.219 338.939C164.158 338.944 164.1 338.915 164.07 338.865C164.041 338.814 164.046 338.752 164.083 338.707C164.239 338.513 165.627 336.816 166.494 336.865C166.695 336.877 166.86 336.975 166.972 337.153C167.154 337.446 167.18 337.717 167.046 337.962C166.877 338.272 166.459 338.488 165.972 338.638ZM164.554 338.615C165.754 338.481 166.573 338.194 166.773 337.828C166.855 337.677 166.834 337.504 166.707 337.301C166.648 337.207 166.575 337.161 166.478 337.156C166.01 337.129 165.134 337.952 164.554 338.615Z" fill="#407BFF"/>
<path d="M164.253 338.933C164.23 338.939 164.206 338.942 164.18 338.938C164.127 338.929 164.084 338.897 164.063 338.85C164.032 338.78 163.302 337.112 163.739 336.339C163.856 336.13 164.044 336.002 164.295 335.954C164.597 335.898 164.837 335.99 164.971 336.211C165.34 336.816 164.827 338.345 164.32 338.89C164.303 338.91 164.279 338.924 164.253 338.933ZM164.285 336.258C164.163 336.296 164.073 336.368 164.012 336.477C163.75 336.938 164.036 337.933 164.248 338.493C164.645 337.889 164.947 336.753 164.705 336.358C164.659 336.282 164.578 336.2 164.356 336.242C164.331 336.245 164.307 336.251 164.285 336.258Z" fill="#407BFF"/>
<path opacity="0.3" d="M179.638 242.822C182.141 249.171 184.048 258.239 185.517 268.529C189.078 254.767 180.562 229.315 180.562 229.315L179.638 242.822Z" fill="black"/>
<path d="M195.421 203.18L194.856 194.753H159.851C159.851 194.753 158.76 196.734 158.874 202.427L195.421 203.18Z" fill="#263238"/>
<path d="M195.421 195.817H191.672V198.26H195.421V195.817Z" fill="black"/>
<path d="M190.618 195.817H174.802V198.26H190.618V195.817Z" fill="black"/>
<path d="M173.748 195.817H160.042V198.26H173.748V195.817Z" fill="black"/>
<path opacity="0.3" d="M159.014 197.228C159.005 197.924 159.251 202.999 159.566 210.418C166.33 212.066 181.324 211.519 181.324 211.519L182.71 210.517L183.227 211.519L196.791 209.805C195.887 204.556 195.062 200.3 194.448 197.228H159.014Z" fill="black"/>
<path d="M181.8 198.425H185.123C185.388 198.425 185.602 198.222 185.602 197.973V196.104C185.602 195.854 185.387 195.651 185.123 195.651H181.8C181.535 195.651 181.321 195.854 181.321 196.104V197.973C181.321 198.223 181.535 198.425 181.8 198.425Z" fill="white"/>
<path d="M182.8 202.29C182.502 204.84 182.028 207.291 181.317 209.51L157.376 208.847C157.376 208.847 157.849 191.054 158.051 183.817C158.13 181.076 157.604 175.611 156.928 169.89C156.507 166.28 156.016 162.57 155.577 159.366C155.542 159.126 155.516 158.894 155.507 158.654C155.209 153.852 158.63 149.488 163.684 148.403L181.274 174.055L181.317 174.121C181.317 174.121 181.44 174.734 181.616 175.818C181.984 178.037 182.598 182.219 182.949 187.162C183.283 191.873 183.388 197.272 182.8 202.29Z" fill="#263238"/>
<path d="M164.899 147.591L162.701 148.465L163.682 154.419L167.764 157.726L166.48 161.953L181.322 174.124C181.322 174.124 169.544 157.159 164.899 147.591Z" fill="#263238"/>
<path opacity="0.1" d="M164.899 147.591L162.701 148.465L163.682 154.419L167.764 157.726L166.48 161.953L181.322 174.124C181.322 174.124 169.544 157.159 164.899 147.591Z" fill="white"/>
<path d="M197.504 207.871L183.458 208.773L182.8 202.29V202.282L181.23 186.748L180.212 176.688C180.37 176.316 180.528 175.951 180.668 175.587C180.888 175.065 181.089 174.56 181.274 174.055C188.196 155.814 180.721 148.693 180.721 148.693C186.818 148.9 190.619 153.029 190.619 153.029C193.198 158.403 195.276 167.514 195.495 176.995C195.618 182.244 195.548 186.864 195.486 189.464C195.46 190.88 195.425 191.7 195.425 191.7L197.504 207.871Z" fill="#263238"/>
<path d="M180.719 148.69C180.719 148.69 186.277 151.264 188.465 155.95L187.204 157.5L189.924 161.842L180.208 176.688C180.208 176.688 184.393 154.167 180.719 148.69Z" fill="#263238"/>
<path opacity="0.1" d="M180.719 148.69C180.719 148.69 186.277 151.264 188.465 155.95L187.204 157.5L189.924 161.842L180.208 176.688C180.208 176.688 184.393 154.167 180.719 148.69Z" fill="white"/>
<path opacity="0.3" d="M195.486 189.464C192.363 189.017 187.581 188.255 182.949 187.162C182.37 187.038 181.8 186.897 181.23 186.748C178.501 186.061 175.904 185.249 173.825 184.33C167.886 181.689 160.648 174.104 156.928 169.89C156.507 166.28 156.016 162.57 155.577 159.366C155.542 159.126 155.516 158.894 155.507 158.654H164.684C164.684 158.654 178.212 174.146 180.668 175.587C180.747 175.628 180.817 175.661 180.87 175.678C181.019 175.719 181.274 175.769 181.616 175.818C184.081 176.183 191.064 176.696 195.495 176.994C195.618 182.244 195.547 186.864 195.486 189.464Z" fill="black"/>
<path d="M203.801 180.623L209.006 181.095L207.445 187.602L202.238 187.208L203.801 180.623Z" fill="#407BFF"/>
<path opacity="0.7" d="M203.801 180.623L209.006 181.095L207.445 187.602L202.238 187.208L203.801 180.623Z" fill="white"/>
<path d="M155.964 155.152C151.798 166.994 169.416 179.879 173.829 183.284C178.242 186.691 204.439 188.122 204.439 188.122L205.819 180.341C205.819 180.341 181.959 177.773 180.208 176.687C178.457 175.601 167.058 162.122 164.113 157.861C161.168 153.6 155.964 155.152 155.964 155.152Z" fill="#263238"/>
</svg>
