<svg width="440" height="414" viewBox="0 0 440 414" fill="none" xmlns="http://www.w3.org/2000/svg">
<path d="M439.711 0H0.91748V411.022H439.711V0Z" fill="white"/>
<path d="M220.694 353.569C314.593 353.569 390.714 349.372 390.714 344.194C390.714 339.016 314.593 334.818 220.694 334.818C126.794 334.818 50.6731 339.016 50.6731 344.194C50.6731 349.372 126.794 353.569 220.694 353.569Z" fill="#F5F5F5"/>
<path d="M363.176 141.91C362.22 144.503 360.007 146.552 357.189 147.227C357.175 147.23 357.161 147.233 357.146 147.237C355.936 147.528 354.713 147.733 353.472 147.877C353.274 147.906 353.067 147.93 352.868 147.952C348.674 148.421 344.375 148.33 340.176 148.901C339.969 148.932 339.754 148.962 339.548 148.992C337.441 149.306 335.347 149.736 333.221 149.768C332.749 149.776 332.282 149.76 331.807 149.721C329.932 149.572 328.075 149.013 326.677 147.844C324.824 146.29 324.065 143.97 323.562 141.641C324.828 141.269 326.225 140.862 327.761 140.387C338.914 136.924 326.742 131.132 330.691 121.869C336.205 108.922 358.737 109.833 358.362 118.671C365.422 120.321 366.43 133.083 363.176 141.91Z" fill="#263238"/>
<path d="M332.116 126.395C331.604 128.416 331.434 130.522 330.664 132.468C329.894 134.415 328.338 136.261 326.182 136.675C329.431 138.038 333.441 136.54 335.64 133.901C337.838 131.262 338.531 127.766 338.603 124.409C338.62 123.633 338.752 122.696 338.169 122.149C334.026 118.257 332.629 124.374 332.116 126.395Z" fill="#263238"/>
<path d="M329.001 160.967C328.693 161.243 328.418 161.48 328.151 161.714C327.926 161.908 327.699 162.102 327.458 162.299C326.948 162.723 326.445 163.105 325.929 163.507C324.906 164.275 323.866 165.047 322.805 165.76C322.592 165.902 322.371 166.046 322.156 166.174C321.945 166.324 321.73 166.459 321.515 166.586C321.339 166.704 321.161 166.815 320.99 166.916C319.4 167.912 317.786 168.841 316.124 169.715C314.929 170.336 313.707 170.914 312.467 171.456C311.312 171.964 310.132 172.437 308.943 172.871L307.07 173.509C306.429 173.712 305.789 173.882 305.163 174.074L304.199 174.348L303.16 174.597C302.475 174.753 301.784 174.895 301.112 175C295.9 175.71 290.615 175.76 285.388 175.147C282.848 174.893 280.325 174.537 277.832 174.128C276.076 173.841 274.34 173.501 272.599 173.097C271.869 172.933 271.135 172.755 270.398 172.56L271.16 168.856C271.855 168.915 272.559 168.972 273.263 169.029C274.982 169.163 276.724 169.285 278.446 169.362C280.873 169.464 283.306 169.589 285.724 169.588C290.407 169.684 295.094 169.305 299.697 168.438C300.231 168.322 300.751 168.186 301.27 168.042L302.024 167.814L302.83 167.519C303.361 167.324 303.888 167.177 304.443 166.936L306.002 166.269C308.106 165.355 310.169 164.345 312.172 163.228C313.552 162.454 314.911 161.63 316.244 160.769C316.509 160.6 316.772 160.422 317.036 160.244C317.199 160.144 317.361 160.037 317.52 159.921C317.69 159.812 317.866 159.694 318.033 159.577C318.084 159.542 318.136 159.507 318.187 159.472C319.087 158.867 319.961 158.219 320.826 157.573L322.157 156.529C322.585 156.187 323.054 155.804 323.395 155.521L327.553 159.56L329.001 160.967Z" fill="#FFC3BD"/>
<path d="M274.119 169.28L266.31 166.991L267.742 174.34C267.742 174.34 271.93 174.323 273.932 172.029L274.119 169.28Z" fill="#FFC3BD"/>
<path d="M260.826 168.499L262.323 173.285L267.742 174.341L266.309 166.992L260.826 168.499Z" fill="#FFC3BD"/>
<path d="M266.995 169.062C266.995 169.062 265.579 166.958 265.669 164.776C265.749 162.804 266.934 162.945 266.934 162.945C266.934 162.945 266.71 165.283 269.958 169.236L270.036 169.339L266.995 169.062Z" fill="#FFC3BD"/>
<path d="M334.717 158.934C334.043 160.857 331.506 162.653 328.85 164.065C326.349 165.41 323.746 166.409 322.532 166.848C322.086 167.008 321.826 167.097 321.826 167.097L321.515 166.585L317.52 159.921L316.86 158.818C316.86 158.818 317.074 158.611 317.441 158.265C318.903 156.919 322.834 153.39 326.226 151.434C327.879 150.489 329.401 149.918 330.447 150.15C335.185 151.175 336.041 155.196 334.717 158.934Z" fill="#407BFF"/>
<path opacity="0.3" d="M334.717 158.934C334.043 160.857 331.506 162.653 328.85 164.065C326.349 165.41 323.746 166.409 322.532 166.848C322.086 167.008 321.826 167.097 321.826 167.097L321.515 166.585L317.52 159.921L316.86 158.818C316.86 158.818 317.074 158.611 317.441 158.265C318.903 156.919 322.834 153.39 326.226 151.434C327.879 150.489 329.401 149.918 330.447 150.15C335.185 151.175 336.041 155.196 334.717 158.934Z" fill="black"/>
<path d="M322.532 166.848C322.63 167.148 322.485 167.461 322.182 167.615C321.863 167.773 321.464 167.674 321.267 167.388L320.99 166.916L317.036 160.244L316.34 159.06C316.152 158.738 316.266 158.335 316.607 158.157C316.607 158.157 316.607 158.157 316.615 158.155C316.676 158.126 316.73 158.107 316.795 158.092C317.021 158.044 317.268 158.111 317.442 158.266C317.485 158.305 317.533 158.359 317.564 158.417L318.187 159.473L322.157 166.174L322.489 166.737C322.506 166.773 322.523 166.81 322.532 166.848Z" fill="#407BFF"/>
<path d="M365.337 149.314C368.131 150.528 368.476 151.228 368.035 153.134C367.179 156.838 366.474 160.115 365.894 163.059C365.755 163.769 365.623 164.464 365.498 165.135C365.469 165.262 365.449 165.388 365.429 165.515V165.523C365.401 165.657 365.38 165.776 365.352 165.902C365.317 166.099 365.283 166.297 365.241 166.487C362.475 172.497 361.343 179.809 362.062 190.582C362.116 191.396 362.132 192.228 362.171 193.073L360.751 193.081L359.313 193.09L349.928 193.112L348.499 193.12L337.544 193.187L336.115 193.204L333.008 193.221C332.925 192.762 332.85 192.316 332.767 191.872V191.864C331.967 187.357 331.293 183.331 330.735 179.749C330.418 177.705 330.13 175.799 329.882 174.035C329.882 174.035 325.2 168.582 326.911 165.238C327.918 163.275 328.383 151.264 328.562 150.748C328.736 150.287 328.883 150.236 328.883 150.236C329.741 150.058 330.606 149.888 331.474 149.734C334.023 149.249 336.591 148.841 339.171 148.513C340.073 148.396 340.965 148.288 341.868 148.195C345.414 147.936 348.975 147.857 352.535 147.965C352.759 147.965 352.975 147.966 353.201 147.983C354.066 148.008 354.939 148.051 355.805 148.099C356.837 148.152 357.879 148.226 358.904 148.31C360.962 148.484 360.977 148.413 363.016 148.722C363.016 148.72 365.325 149.309 365.337 149.314Z" fill="#407BFF"/>
<path d="M350.97 133.422C350.241 137.691 349.639 145.477 352.886 148.205C352.886 148.205 351.221 157.395 343.012 158.782C339.046 157.844 338.939 148.655 338.939 148.655C343.875 147.358 342.223 142.705 342.576 137.994L350.97 133.422Z" fill="#FFC3BD"/>
<path opacity="0.2" d="M341.611 133.423C342.452 136.799 343.384 142.462 342.1 146.083C344.742 145.559 348.622 143.574 349.172 141.406C349.328 139.924 349.359 138.432 349.263 136.945L341.611 133.423Z" fill="black"/>
<path d="M356.916 127.847C355.931 134.881 355.677 137.875 351.632 141.249C345.548 146.323 336.62 143.644 335.356 136.484C334.216 130.032 336.013 119.625 343.543 117.293C348.918 115.612 354.718 118.364 356.498 123.439C356.996 124.859 357.139 126.368 356.916 127.847Z" fill="#FFC3BD"/>
<path d="M355.133 119.431C350.547 124.176 335.982 125.06 333.769 123.752C338.245 117.862 345.148 114.534 349.071 115.311C352.993 116.086 355.133 119.431 355.133 119.431Z" fill="#263238"/>
<path d="M358.254 118.656C358.233 118.662 358.212 118.654 358.19 118.654C358.148 118.705 358.114 118.761 358.07 118.811L358.254 118.656Z" fill="#263238"/>
<path d="M358.379 118.546L358.252 118.656C358.31 118.638 358.36 118.601 358.379 118.546Z" fill="#263238"/>
<path d="M358.187 118.654C358.201 118.637 358.213 118.618 358.227 118.601C358.186 118.618 358.146 118.638 358.103 118.652C358.13 118.666 358.159 118.655 358.187 118.654Z" fill="#263238"/>
<path d="M358.691 114.001C359.457 115.455 359.255 117.302 358.23 118.601C359.138 118.251 359.823 117.421 359.939 116.5C360.06 115.536 359.555 114.526 358.691 114.001Z" fill="#263238"/>
<path d="M359.102 134.786C358.296 135.929 357.043 136.725 355.617 136.998C353.731 137.34 352.942 135.714 353.596 134.109C354.18 132.657 355.884 130.764 357.708 131.106C359.035 131.405 359.854 132.664 359.537 133.917C359.457 134.232 359.309 134.528 359.102 134.786Z" fill="#FFC3BD"/>
<path d="M352.39 119.978C351.26 121.226 351.382 123.013 351.405 124.655C351.476 129.46 352.08 135.487 348.195 137.59C352.789 136.381 356.465 134.332 358.807 130.41C360.658 127.309 360.58 125.417 359.159 122.098C358.103 119.632 354.94 117.164 352.39 119.978Z" fill="#263238"/>
<path opacity="0.1" d="M359.034 154.118C359.034 154.118 358.714 167.025 359.944 172.745C361.174 178.465 362.073 177.043 362.073 177.043C362.073 177.043 362.664 168.161 363.8 165.683C364.937 163.204 359.034 154.118 359.034 154.118Z" fill="black"/>
<path d="M372.336 164.841C372.258 165.712 372.201 166.782 372.152 167.768C372.103 168.752 372.075 169.788 372.076 170.801C372.09 172.829 372.084 174.862 372.243 176.877C372.491 180.864 373.144 184.819 374.192 188.688C374.476 189.6 374.768 190.576 375.101 191.461C375.433 192.347 375.829 193.262 376.237 194.178C377.086 196.02 378.057 197.889 379.055 199.749C381.058 203.463 383.195 207.206 385.301 210.928L381.939 213.161C378.908 209.869 376.089 206.408 373.499 202.795C372.196 200.985 370.949 199.131 369.792 197.147C369.214 196.149 368.65 195.14 368.142 194.03C367.633 192.921 367.257 191.864 366.825 190.773C365.337 186.45 364.391 181.977 364.005 177.446C363.778 175.213 363.671 172.972 363.686 170.729C363.676 169.597 363.716 168.494 363.778 167.374C363.839 166.255 363.91 165.173 364.062 163.924L372.336 164.841Z" fill="#FFC3BD"/>
<path d="M384.202 210.117L389.898 213.886L382.942 218.094C382.942 218.094 379.85 214.12 381.235 210.078L384.202 210.117Z" fill="#FFC3BD"/>
<path d="M391.833 220.091L385.859 223.073L382.948 218.1L389.898 213.886L391.833 220.091Z" fill="#FFC3BD"/>
<path d="M373.689 155.272C375.003 164.603 372.04 166.12 372.04 166.12L362.788 166.96C362.788 166.96 358.238 153.953 360.919 150.769C363.711 147.452 373.048 150.746 373.689 155.272Z" fill="#407BFF"/>
<path opacity="0.3" d="M373.689 155.272C375.003 164.603 372.04 166.12 372.04 166.12L362.788 166.96C362.788 166.96 358.238 153.953 360.919 150.769C363.711 147.452 373.048 150.746 373.689 155.272Z" fill="black"/>
<path d="M372.915 165.993C372.951 166.367 372.66 166.697 372.264 166.731C372.262 166.731 372.261 166.731 372.26 166.732L362.854 167.547C362.459 167.581 362.109 167.306 362.073 166.933C362.073 166.931 362.073 166.931 362.072 166.929C362.032 166.56 362.314 166.231 362.704 166.192C362.712 166.191 362.719 166.19 362.727 166.19L372.126 165.38C372.522 165.347 372.874 165.619 372.915 165.993Z" fill="#407BFF"/>
<path d="M332.777 191.838L331.494 194.483C331.395 194.69 331.631 194.894 332.009 194.87L362.183 193.58C362.464 193.576 362.687 193.429 362.701 193.274L362.879 190.667C362.893 190.486 362.646 190.337 362.34 190.349L333.283 191.58C333.078 191.58 332.888 191.677 332.777 191.838Z" fill="#263238"/>
<path d="M337.095 194.972L336.268 194.998C336.101 195.004 335.972 194.927 335.979 194.836L336.243 191.449C336.213 191.361 336.388 191.265 336.554 191.259L337.39 191.231C337.549 191.227 337.686 191.302 337.671 191.395L337.415 194.78C337.367 194.905 337.237 194.983 337.095 194.972Z" fill="#407BFF"/>
<path d="M360.032 194.183L359.205 194.208C359.038 194.214 358.909 194.137 358.913 194.038L359.177 190.652C359.148 190.563 359.322 190.467 359.489 190.462L360.324 190.433C360.478 190.387 360.621 190.505 360.608 190.606L360.352 193.99C360.348 194.088 360.2 194.177 360.032 194.183Z" fill="#407BFF"/>
<path d="M349.514 194.586L348.678 194.614C348.525 194.659 348.382 194.543 348.395 194.442L348.65 191.058C348.621 190.969 348.806 190.878 348.973 190.872L349.797 190.838C349.965 190.832 350.094 190.909 350.089 191.008L349.825 194.394C349.821 194.494 349.65 194.544 349.514 194.586Z" fill="#407BFF"/>
<path d="M345.429 129.074C345.386 129.646 345.024 130.082 344.634 130.066C344.244 130.049 343.946 129.553 343.989 128.982C344.032 128.41 344.393 127.974 344.783 127.991C345.173 128.006 345.472 128.502 345.429 129.074Z" fill="#263238"/>
<path d="M338.552 128.621C338.5 129.194 338.148 129.628 337.749 129.614C337.35 129.601 337.06 129.102 337.109 128.52C337.159 127.938 337.505 127.514 337.904 127.529C338.303 127.542 338.618 128.033 338.552 128.621Z" fill="#263238"/>
<path d="M338.078 127.573L336.656 127.112C336.656 127.112 337.304 128.178 338.078 127.573Z" fill="#263238"/>
<path d="M340.295 129.731C339.653 131.004 338.832 132.19 337.851 133.255C338.448 133.719 339.23 133.91 339.989 133.777L340.295 129.731Z" fill="#ED847E"/>
<path d="M343.09 136.132C342.719 136.175 342.344 136.184 341.971 136.156C341.887 136.151 341.822 136.084 341.826 136.005V136.003C341.838 135.928 341.909 135.872 341.989 135.875C343.533 136.013 345.054 135.443 346.077 134.342C346.117 134.278 346.202 134.252 346.274 134.283C346.342 134.31 346.375 134.384 346.347 134.449C346.344 134.456 346.34 134.462 346.336 134.469C345.524 135.402 344.359 135.998 343.09 136.132Z" fill="#263238"/>
<path d="M348.265 125.184C348.162 125.197 348.059 125.156 347.995 125.079C347.439 124.367 346.551 123.955 345.614 123.973C345.451 123.983 345.309 123.869 345.293 123.715C345.278 123.562 345.398 123.426 345.56 123.412C345.562 123.412 345.564 123.412 345.566 123.411C346.701 123.376 347.781 123.868 348.459 124.727C348.558 124.85 348.538 125.024 348.413 125.122C348.37 125.154 348.32 125.175 348.265 125.184Z" fill="#263238"/>
<path d="M336.074 124.537C335.973 124.566 335.864 124.541 335.789 124.472C335.67 124.366 335.664 124.189 335.777 124.077L335.778 124.076C336.541 123.283 337.666 122.894 338.791 123.033C338.948 123.053 339.058 123.19 339.037 123.338C339.036 123.346 339.034 123.353 339.032 123.36C339.001 123.512 338.846 123.61 338.685 123.581L338.683 123.58C337.757 123.481 336.835 123.809 336.209 124.462C336.171 124.497 336.126 124.524 336.074 124.537Z" fill="#263238"/>
<path d="M318.911 338.414C318.894 338.407 318.886 338.408 318.861 338.4C318.652 338.345 318.031 338.185 317.32 338.052C316.173 337.831 314.779 337.666 314.354 338.048C314.217 338.163 314.174 338.352 314.23 338.515C314.292 338.827 314.509 339.087 314.805 339.226C315.378 339.45 316.011 339.491 316.613 339.354C317.264 339.231 317.906 339.06 318.521 338.827C318.652 338.784 318.766 338.74 318.889 338.682H318.897C318.905 338.682 318.922 338.681 318.93 338.673C318.987 338.655 319.027 338.599 319.016 338.536C319.023 338.48 318.979 338.427 318.911 338.414ZM314.985 338.961C314.757 338.859 314.6 338.66 314.558 338.433C314.531 338.364 314.553 338.284 314.609 338.235C314.706 338.162 314.82 338.119 314.946 338.115L314.947 338.138C316.125 338.099 317.31 338.24 318.444 338.554C317.525 338.876 315.798 339.365 314.985 338.961Z" fill="#407BFF"/>
<path d="M328.507 340.265L321.256 340.659L319.718 323.479L326.96 323.083L328.507 340.265Z" fill="#FFC3BD"/>
<path d="M378.324 328.569L371.294 331.122L365.252 315.505L372.281 312.96L378.324 328.569Z" fill="#FFC3BD"/>
<path d="M371.044 330.524L377.668 325.5C377.903 325.32 378.244 325.333 378.465 325.527L384.125 330.371C384.599 330.815 384.602 331.538 384.132 331.985C384.098 332.017 384.063 332.047 384.025 332.075C381.688 333.786 380.461 334.505 377.581 336.719C375.785 338.108 371.404 342.093 368.923 343.967C366.442 345.841 363.616 343.161 364.504 342.18C368.336 337.722 369.854 334.033 370.358 331.619C370.447 331.192 370.689 330.804 371.044 330.524Z" fill="#263238"/>
<path d="M320.313 337.353L329.166 335.972C329.506 335.915 329.843 336.084 329.984 336.382L333.066 342.698C333.33 343.227 333.09 343.856 332.53 344.105C332.432 344.149 332.327 344.179 332.219 344.195C329.1 344.701 327.623 344.899 323.728 345.526C321.324 345.898 314.445 348.061 311.112 347.703C307.778 347.344 307.537 344.178 308.925 344.039C315.12 343.416 317.605 339.951 319.17 338.018C319.449 337.667 319.857 337.431 320.313 337.353Z" fill="#263238"/>
<path opacity="0.2" d="M319.716 323.487L320.511 332.339L327.824 332.646L326.967 323.093L319.716 323.487Z" fill="black"/>
<path opacity="0.2" d="M373.008 314.804L365.978 317.357L369.1 325.4L376.128 322.855L373.008 314.804Z" fill="black"/>
<path d="M332.422 194.501C332.422 194.501 314.618 231.944 313.859 263.122C313.348 284.005 317.116 327.299 317.116 327.299L329.894 329.844C329.894 329.844 330.575 285.481 332.211 268.346C335.007 239.025 354.905 193.754 354.905 193.754L332.422 194.501Z" fill="#407BFF"/>
<path opacity="0.4" d="M332.422 194.501C332.422 194.501 314.618 231.944 313.859 263.122C313.348 284.005 317.116 327.299 317.116 327.299L329.894 329.844C329.894 329.844 330.575 285.481 332.211 268.346C335.007 239.025 354.905 193.754 354.905 193.754L332.422 194.501Z" fill="white"/>
<path opacity="0.2" d="M343.331 208.358L345.713 216.942C341.775 227.607 338.406 238.452 335.619 249.436C332.851 233.117 340.012 215.677 343.331 208.358Z" fill="black"/>
<path d="M314.764 329.248L330.99 330.421L331.217 324.597L314.164 323.933L314.764 329.248Z" fill="#407BFF"/>
<path d="M339.133 194.351C339.133 194.351 335.506 236.926 342.171 264.177C347.553 286.185 366.834 322.058 366.834 322.058L375.624 316.77C375.624 316.77 368.746 288.759 364.355 273.952C353.581 237.633 372.995 216.951 363.13 193.44L339.133 194.351Z" fill="#407BFF"/>
<path opacity="0.4" d="M339.133 194.351C339.133 194.351 335.506 236.926 342.171 264.177C347.553 286.185 366.834 322.058 366.834 322.058L375.624 316.77C375.624 316.77 368.746 288.759 364.355 273.952C353.581 237.633 372.995 216.951 363.13 193.44L339.133 194.351Z" fill="white"/>
<path d="M365.145 323.502L377.448 319.317L376.37 314.469L362.709 319.547L365.145 323.502Z" fill="#407BFF"/>
<path d="M371.044 331.482C371.035 331.475 371.035 331.475 371.027 331.475C371.018 331.467 371.009 331.46 370.984 331.445C370.959 331.438 370.917 331.439 370.884 331.448C370.818 331.466 370.63 331.527 370.367 331.607C370.145 331.684 369.858 331.78 369.571 331.892H369.563C368.761 332.217 367.881 332.662 367.732 333.146C367.682 333.344 367.739 333.546 367.886 333.682C368.033 333.858 368.246 333.984 368.48 334.039C368.564 334.044 368.655 334.033 368.745 334.014C369.143 333.962 369.539 333.682 369.898 333.302L369.906 333.293C370.378 332.807 370.778 332.166 371.034 331.687C371.05 331.663 371.058 331.647 371.065 331.631C371.073 331.622 371.073 331.615 371.072 331.607C371.08 331.591 371.079 331.583 371.079 331.567C371.079 331.536 371.07 331.505 371.044 331.482ZM370.625 331.849C370.617 331.849 370.617 331.849 370.609 331.857C370.437 332.146 370.272 332.41 370.106 332.635C369.616 333.31 369.133 333.719 368.729 333.787C368.488 333.811 368.244 333.709 368.103 333.518C368.026 333.45 367.989 333.349 368.01 333.254C368.151 332.786 369.378 332.267 370.28 331.963C370.395 331.92 370.51 331.885 370.608 331.857C370.608 331.85 370.616 331.833 370.624 331.826L370.625 331.849Z" fill="#407BFF"/>
<path d="M371.027 331.475C371.018 331.467 371.009 331.46 370.984 331.445C370.916 331.385 370.761 331.272 370.548 331.13C369.969 330.742 368.958 330.156 368.223 330.258C367.958 330.291 367.722 330.432 367.572 330.641C367.389 330.851 367.391 331.141 367.557 331.347C367.832 331.605 368.188 331.765 368.571 331.808C368.897 331.86 369.23 331.895 369.563 331.892H369.57C369.819 331.892 370.068 331.876 370.309 331.852C370.54 331.82 370.763 331.774 370.985 331.719C371.001 331.711 371.017 331.702 371.033 331.686C371.049 331.662 371.057 331.646 371.064 331.63C371.072 331.621 371.072 331.614 371.071 331.606C371.079 331.59 371.078 331.582 371.078 331.566C371.079 331.536 371.061 331.505 371.027 331.475ZM367.801 331.175C367.757 331.114 367.687 331.006 367.82 330.806C367.914 330.653 368.085 330.562 368.267 330.54C368.4 330.528 368.541 330.531 368.675 330.557C369.305 330.733 369.905 331.019 370.426 331.401C370.486 331.438 370.546 331.483 370.606 331.529C370.532 331.539 370.458 331.557 370.382 331.559C369.498 331.683 368.139 331.571 367.801 331.175Z" fill="#407BFF"/>
<path d="M319.089 338.502C319.08 338.479 319.044 338.394 318.972 338.263C318.613 337.553 317.491 335.543 316.053 335.959C315.633 336.075 315.533 336.298 315.54 336.463C315.557 336.94 316.42 337.579 317.319 338.051C317.709 338.258 318.105 338.425 318.443 338.554C318.527 338.575 318.611 338.604 318.678 338.625C318.753 338.645 318.821 338.667 318.888 338.68H318.895L318.954 338.694C318.988 338.685 319.028 338.669 319.06 338.644C319.094 338.604 319.109 338.557 319.089 338.502ZM315.847 336.461C315.838 336.422 315.833 336.32 316.13 336.24L316.253 336.204C317.369 336.041 318.319 337.681 318.66 338.336C317.525 337.981 315.867 336.97 315.847 336.461Z" fill="#407BFF"/>
<path d="M344.955 128.027L343.533 127.565C343.533 127.565 344.191 128.664 344.955 128.027Z" fill="#263238"/>
<path d="M168.391 95.196L170.557 95.5694L168.768 94.262C168.288 93.9109 167.8 93.5665 167.313 93.2295L167.199 93.15L167.064 93.126C155.954 91.1073 142.428 87.4095 126.858 82.1351L126.723 82.0887L126.586 82.1061C126.07 82.1715 125.555 82.2519 125.041 82.3454L123.099 82.7015L125.044 83.368C142.012 89.1814 156.597 93.1608 168.391 95.196Z" fill="#407BFF"/>
<path d="M176.396 101.905L178.143 102.294L176.875 101.038C176.545 100.712 176.202 100.393 175.849 100.074L175.725 99.9611L175.56 99.9239C160.053 96.4454 140.435 91.3491 117.253 84.7756L117.048 84.7177L116.864 84.7963C116.524 84.9412 116.187 85.0927 115.849 85.2525L114.602 85.8404L116.018 86.242C140.216 93.1094 160.531 98.3796 176.396 101.905Z" fill="#407BFF"/>
<path d="M183.76 109.86L185.478 110.439L184.346 109.058C184.178 108.853 184.007 108.653 183.837 108.452L183.612 108.187L183.593 107.977L183.21 107.849C169.803 103.377 146.198 96.4578 109.885 88.8866L109.643 88.8361L109.452 88.9652C109.186 89.1466 108.925 89.3279 108.66 89.5233L107.719 90.2163L108.957 90.4738C146.182 98.2148 170.182 105.288 183.76 109.86Z" fill="#407BFF"/>
<path d="M190.548 119.081L192.302 119.93L191.243 118.355C190.989 117.977 190.734 117.598 190.472 117.219L190.378 117.083L190.225 117.01C174.082 109.332 145.958 99.0967 103.644 93.9309L103.383 93.8986L103.204 94.0633C102.978 94.2736 102.753 94.4831 102.528 94.7083L101.756 95.4784L102.932 95.62C146.032 100.81 174.367 111.243 190.548 119.081Z" fill="#407BFF"/>
<path d="M179.146 119.561C185.284 122.426 191.125 125.616 196.504 129.042L198.218 130.134L197.294 128.405C197.11 128.06 196.923 127.726 196.734 127.389L196.651 127.24L196.635 127.067L196.38 126.908C191.255 123.71 185.712 120.711 179.905 117.997C163.235 110.203 135.515 100.695 98.1193 99.6614L97.8527 99.6539L97.6948 99.8435C97.5081 100.069 97.3125 100.293 97.1108 100.525L96.3611 101.386L97.5966 101.416C134.916 102.335 162.542 111.791 179.146 119.561Z" fill="#407BFF"/>
<path d="M101.347 116.029L101.911 116.075L101.916 114.302L101.346 114.257C95.7438 113.812 90.8841 114.646 87.7939 115.423L87.5615 115.481L87.4633 115.686C87.33 115.966 87.1967 116.254 87.0643 116.548L86.5776 117.631L87.7878 117.304C90.8718 116.475 95.7263 115.579 101.347 116.029Z" fill="#407BFF"/>
<path d="M179.771 125.374C187.52 129.448 194.849 134.119 201.554 139.257L203.189 140.51L202.411 138.695C202.216 138.241 202.007 137.793 201.798 137.354L201.735 137.221L201.613 137.129C195.1 132.229 188.035 127.764 180.616 123.858C162.091 114.108 131.885 103.083 93.1981 105.93L92.9377 105.949L92.8035 106.151C92.6439 106.391 92.4852 106.637 92.3265 106.884L92.7965 107.221L92.3045 106.917L91.7083 107.844L92.8912 107.752C131.348 104.773 161.364 115.69 179.771 125.374Z" fill="#407BFF"/>
<path d="M121.319 112.618C141.426 114.713 172.158 122.171 204.375 145.809L205.874 146.909L205.229 145.255C205.113 144.958 204.987 144.657 204.865 144.357L204.759 144.099L204.742 143.919L204.521 143.759C172.22 120.347 141.455 112.94 121.332 110.848C107.941 109.461 96.981 110.133 90.1447 110.942L89.8772 110.973L88.8057 112.915L89.9588 112.774C96.831 111.929 107.848 111.217 121.319 112.618Z" fill="#407BFF"/>
<path d="M84.7178 181.274L82.9219 180.582L82.7404 181.06C82.7036 181.156 78.9847 191.601 77.4343 205.919L77.4255 206.001L77.4439 206.084C77.6114 206.828 77.7938 207.572 77.9841 208.316L78.8075 211.545L79.0987 208.326C80.4763 193.076 84.4837 181.894 84.5293 181.769L84.7178 181.274Z" fill="#407BFF"/>
<path d="M81.7783 151.23L81.7634 150.698L79.8737 150.591L79.8895 151.122C80.2175 162.293 78.8618 175.858 75.4927 195.107L75.4805 195.189L75.4901 195.264C75.5962 196.085 75.7164 196.893 75.8444 197.701L76.3793 201.072L76.9642 197.8C80.6296 177.279 82.1142 162.916 81.7783 151.23Z" fill="#407BFF"/>
<path d="M86.9265 175.638L89.3485 168.445L87.5386 167.788L85.1262 174.977L86.9265 175.638Z" fill="#407BFF"/>
<path d="M82.0773 146.532C82.7937 141.03 86.7003 137.467 86.7327 137.437L87.1449 137.087L85.7778 135.752L85.3858 136.088C85.342 136.125 81.0048 139.991 80.1998 146.163L80.1323 146.683L82.008 147.055L82.0773 146.532Z" fill="#407BFF"/>
<path d="M82.8174 161.178L84.7106 161.39L84.7308 160.863C84.9097 156.04 90.0228 149.302 90.2473 149.008L90.5577 148.597L89.0083 147.481L88.6882 147.888C88.4576 148.182 83.0454 155.139 82.8376 160.648L82.8174 161.178Z" fill="#407BFF"/>
<path d="M93.8619 152.668L94.2618 152.303L92.821 150.997L92.4457 151.377C91.7705 152.06 85.7585 158.42 82.5649 171.442L82.4395 171.953L84.2888 172.485L84.4125 171.98C87.6412 158.809 93.8075 152.721 93.8619 152.668Z" fill="#407BFF"/>
<path d="M94.9502 159.419L93.3157 158.391L89.1978 164.721L90.8323 165.747L94.9502 159.419Z" fill="#407BFF"/>
<path d="M95.998 137.609L96.5197 137.453L95.8173 135.751L95.2894 135.909C94.8887 136.029 85.4533 138.948 82.8375 148.156L82.6946 148.66L84.5212 149.248L84.6632 148.749C87.0475 140.375 95.6332 137.718 95.998 137.609Z" fill="#407BFF"/>
<path d="M98.7988 125.968L99.3557 125.892L98.9111 124.135L98.3639 124.209C89.4336 125.43 84.3467 128.473 81.652 130.812L81.4687 130.978L81.4828 131.127L80.356 134.814L82.0256 133.109C84.0722 131.019 88.9741 127.31 98.7988 125.968Z" fill="#407BFF"/>
<path d="M123.979 119.194C144.032 119.928 174.73 126.386 207.1 152.979L208.616 154.225L207.987 152.462C207.842 152.056 207.696 151.649 207.545 151.248L207.529 151.079L207.334 150.921C174.793 124.545 143.975 118.144 123.851 117.419C103.218 116.662 88.5314 121.476 84.5223 122.967L84.3179 123.043L84.2381 123.235C84.1373 123.48 84.0426 123.734 83.9488 123.986L83.4314 125.363L84.6731 124.876C87.4414 123.788 102.345 118.403 123.979 119.194Z" fill="#407BFF"/>
<path d="M126.364 123.983C103.456 124.802 88.0157 133.575 87.3624 133.952L86.8906 134.222L88.0034 135.745L88.462 135.48C89.0934 135.116 104.196 126.546 126.631 125.759C146.525 125.046 177.064 130.456 209.546 160.24L211.04 161.611L210.465 159.767C210.324 159.316 210.177 158.872 210.03 158.428L209.981 158.284L209.863 158.177C177.184 128.631 146.419 123.278 126.364 123.983Z" fill="#407BFF"/>
<path d="M168.789 135.891C155.666 130.864 142.239 129.07 128.871 130.559C106.161 133.098 91.3066 144.479 91.1663 144.593L90.7673 144.917L92.0222 146.318L92.4422 145.994C92.5869 145.882 107.176 134.792 129.256 132.328C148.938 130.123 179.223 134.449 211.721 167.542L213.224 169.073L212.668 167.106C212.532 166.627 212.398 166.155 212.256 165.684L212.215 165.546L212.11 165.44C198.267 151.545 183.692 141.603 168.789 135.891Z" fill="#407BFF"/>
<path d="M150.499 136.121C118.045 133.339 95.2324 154.988 95.0062 155.208L94.6248 155.576L96.0436 156.856L96.4171 156.496C96.6381 156.282 118.927 135.178 150.493 137.893C172.276 139.769 193.523 152.204 213.645 174.853L215.17 176.569L214.616 174.449C214.492 173.973 214.375 173.506 214.258 173.03L214.244 172.881L214.115 172.738C193.898 150.337 172.496 138.018 150.499 136.121Z" fill="#407BFF"/>
<path d="M96.1665 169.482C111.809 148.292 143.352 134.389 178.567 151.101C196.884 159.788 204.548 170.103 213.424 182.046C214.267 183.177 215.127 184.329 216.002 185.488L217.439 187.39L217.012 185.156C216.91 184.62 216.808 184.093 216.706 183.606L216.691 183.455L216.595 183.326C216.037 182.581 215.488 181.842 214.941 181.103C205.893 168.945 198.079 158.444 179.301 149.532C143.08 132.342 110.652 146.613 94.5828 168.384C79.8966 188.273 80.9462 211.148 82.8789 223.013L82.9105 223.125C83.3638 224.266 83.8224 225.394 84.296 226.506L85.3754 226.289C81.0514 205.337 84.9852 184.632 96.1665 169.482Z" fill="#407BFF"/>
<path d="M173.026 226.4C169.704 218.315 168.125 217.467 166.921 217.749C163.855 218.441 166.693 228.983 166.723 229.089C168.302 234.797 193.271 247.884 203.933 253.245L204.419 253.491L205.307 251.989L204.757 251.712C187.981 243.256 169.659 232.792 168.545 228.786C167.302 224.277 167.268 220.749 167.531 219.691C168.01 220.198 169.182 221.826 171.27 226.906C176.244 239.004 195.417 246.038 206.403 249.154L206.832 249.276L207.029 248.923C207.153 248.701 207.269 248.479 207.388 248.252L207.689 247.674L206.996 247.475C196.282 244.402 177.621 237.577 173.026 226.4Z" fill="#407BFF"/>
<path d="M175.577 223.552C172.207 216.214 169.559 212.996 167.004 213.153C164.388 213.267 162.646 216.861 161.353 224.809C159.614 235.475 191.511 252.361 201.329 257.283L201.772 257.505L202.036 257.144C202.181 256.946 202.318 256.74 202.448 256.542L202.764 256.059L202.191 255.77C182.558 245.874 162.01 232.653 163.219 225.229C164.722 216.023 166.545 214.954 167.299 214.922C167.846 214.922 169.932 215.586 173.85 224.126C177.78 232.767 189.23 240.209 207.881 246.242L208.354 246.395L208.544 245.99C208.592 245.886 208.643 245.785 208.694 245.683C208.748 245.575 208.802 245.467 208.854 245.357L209.111 244.81L208.473 244.604C190.591 238.841 179.216 231.561 175.577 223.552Z" fill="#407BFF"/>
<path d="M178.127 220.703C173.874 212.294 169.956 208.188 166.099 208.149C162.268 208.149 158.977 212.275 156.038 220.764C150.704 236.143 187.178 255.618 198.483 261.22L198.914 261.434L199.997 260.027L199.378 259.718C191.575 255.826 152.896 235.693 157.836 221.442C160.449 213.907 163.363 209.925 166.295 209.925C169.166 209.958 172.67 213.91 176.43 221.353C180.602 229.604 191.333 236.779 209.234 243.291L209.701 243.461L209.91 243.065C210.026 242.844 210.126 242.617 210.217 242.388L210.423 241.877L209.848 241.668C192.424 235.332 182.05 228.474 178.127 220.703Z" fill="#407BFF"/>
<path d="M180.67 217.863C175.204 208.051 169.827 203.005 164.691 202.863C159.594 202.755 154.902 207.412 150.714 216.783C146.531 226.128 153.232 237.572 170.095 249.88C180.591 257.54 192.103 263.396 195.381 265.008L195.787 265.208L196.057 264.901C196.216 264.721 196.375 264.541 196.533 264.354L196.956 263.854L196.305 263.533C187.494 259.19 143.971 236.568 152.464 217.588C156.357 208.889 160.501 204.532 164.803 204.64C169.146 204.761 173.93 209.45 179.019 218.575C184.804 228.951 199.758 235.951 210.503 240.314L211.03 240.528L211.309 239.838C211.369 239.692 211.429 239.545 211.483 239.4L211.66 238.917L211.13 238.702C200.677 234.456 186.15 227.676 180.67 217.863Z" fill="#407BFF"/>
<path d="M183.218 215.013C176.062 203.352 169.412 197.591 162.885 197.398C156.573 197.22 150.706 202.414 145.379 212.832C142.713 218.032 142.582 223.664 144.99 229.57C152.767 248.654 185.505 265.482 191.988 268.661L192.367 268.847L192.64 268.578C192.808 268.413 192.969 268.246 193.156 268.052L193.645 267.547L192.949 267.206C186.558 264.085 154.294 247.573 146.747 229.06C144.536 223.642 144.653 218.478 147.095 213.708C152.029 204.061 157.304 199.173 162.778 199.173C162.85 199.173 162.922 199.174 162.994 199.175C168.753 199.339 174.841 204.776 181.601 215.797C187.53 225.465 200.782 232.351 211.665 237.27L212.206 237.514L212.405 237.019C212.494 236.8 212.574 236.58 212.654 236.353L212.816 235.893L212.323 235.669C201.719 230.866 188.829 224.178 183.218 215.013Z" fill="#407BFF"/>
<path d="M185.757 212.164C179.467 202.815 170.951 192.055 160.824 191.828L160.523 191.821C153.224 191.821 146.332 197.563 140.04 208.888C136.373 215.488 135.968 222.539 138.835 229.846C147.183 251.138 181.48 268.821 188.27 272.149L188.626 272.323L188.899 272.087C189.09 271.921 189.281 271.754 189.471 271.583L190.029 271.076L189.283 270.715C182.586 267.461 148.758 250.175 140.598 229.363C137.929 222.554 138.311 215.98 141.735 209.82C147.795 198.901 154.258 193.421 160.96 193.604C170.097 193.81 178.175 204.087 184.19 213.016C190.293 222.095 202.046 228.8 212.738 234.159L213.316 234.448L213.509 233.899C213.59 233.671 213.663 233.44 213.728 233.211L213.848 232.787L213.412 232.568C203 227.328 191.572 220.806 185.757 212.164Z" fill="#407BFF"/>
<path d="M188.294 209.304L188.14 209.105C181.855 200.582 171.336 186.318 158.555 186.18H158.382C149.973 186.18 142.005 192.498 134.701 204.956C129.976 212.971 129.26 221.454 132.572 230.168C141.149 252.741 174.235 270.537 184.172 275.454L184.502 275.618L184.836 275.371C185.03 275.228 185.22 275.087 185.408 274.936L186.029 274.436L185.245 274.051C178.255 270.619 142.949 252.35 134.34 229.706C131.221 221.497 131.904 213.493 136.371 205.917C143.407 193.91 150.93 187.86 158.705 187.958C170.455 188.09 180.58 201.832 186.629 210.042L186.775 210.242C193.142 218.88 204.52 225.855 213.721 230.967L214.339 231.31L214.848 229.61L214.433 229.38C205.478 224.391 194.414 217.605 188.294 209.304Z" fill="#407BFF"/>
<path d="M190.838 206.473C190.518 206.077 190.186 205.659 189.841 205.224L189.012 204.182C182.029 195.348 170.341 180.559 156.248 180.53C146.738 180.53 137.691 187.425 129.36 201.026C123.553 210.518 122.524 220.465 126.304 230.591C135.283 254.68 169.378 273.372 179.614 278.528L179.92 278.682L181.645 277.597L180.773 277.162C170.64 272.111 136.897 253.789 128.082 230.141C124.495 220.518 125.481 211.055 131.014 202.015C139.021 188.937 147.566 182.307 156.448 182.307C169.49 182.335 180.785 196.623 187.533 205.159C188.183 205.985 188.798 206.763 189.368 207.467C196.041 215.737 206.363 222.599 214.61 227.654L215.258 228.05L215.439 227.389C215.503 227.155 215.566 226.914 215.621 226.673L215.706 226.301L215.346 226.08C207.334 221.156 197.307 214.478 190.838 206.473Z" fill="#407BFF"/>
<path d="M196.73 204.699C179.972 181.031 165.007 175.976 155.403 175.904C144.038 175.857 134.077 182.556 127.375 194.857C119.448 209.403 118.411 223.677 124.291 237.282C134.451 260.797 162.648 275.977 174.3 281.413L174.552 281.531L174.791 281.426C175.074 281.301 175.356 281.162 175.631 281.023L176.571 280.547L175.542 280.073C166.528 275.924 136.318 260.538 126.032 236.735C120.37 223.642 121.391 209.858 129.068 195.768C135.424 184.103 144.762 177.68 155.361 177.68H155.553C164.666 177.743 178.941 182.635 195.191 205.588C200.173 212.631 209.081 218.996 215.679 223.095L216.362 223.52L216.531 222.739C216.579 222.517 216.627 222.295 216.67 222.08L216.74 221.718L216.396 221.504C210.045 217.537 201.478 211.4 196.73 204.699Z" fill="#407BFF"/>
<path d="M199.018 200.909C192.122 191.266 185.439 184.444 177.988 179.438C167.939 172.692 157.634 169.994 148.189 171.635C137.913 173.433 128.857 180.336 122.688 191.075C109.023 214.826 116.081 234.703 124.407 247.192C137.309 266.708 160.954 278.752 170.522 283.024L170.753 283.127L170.975 283.044C171.288 282.928 171.586 282.812 171.897 282.68L172.989 282.22L171.83 281.711C162.316 277.535 138.803 265.728 125.985 246.351C117.934 234.279 111.118 215.052 124.372 192.02C130.303 181.704 138.94 175.086 148.69 173.387C157.603 171.831 167.386 174.412 176.979 180.856C184.215 185.707 190.73 192.364 197.482 201.805C201.378 207.253 207.737 213.089 216.383 219.155L217.091 219.652L217.252 218.883C217.305 218.625 217.353 218.367 217.39 218.101L217.437 217.776L217.142 217.569C208.827 211.708 202.729 206.103 199.018 200.909Z" fill="#407BFF"/>
<path d="M201.307 197.119C193.63 186.486 186.716 179.704 178.19 174.443C167.171 167.642 155.895 165.062 145.585 166.989C134.461 169.054 124.666 176.263 118 187.285C106.633 206.102 106.829 227.74 118.538 246.65C131.501 267.59 156.208 280.038 166.23 284.418L166.427 284.504L166.625 284.452C166.955 284.366 167.277 284.268 167.605 284.168L169.035 283.733L167.675 283.151C157.678 278.87 133.036 266.666 120.152 245.863C113.481 235.087 104.547 213.274 119.665 188.262C126.08 177.643 135.469 170.707 146.103 168.731C155.922 166.902 166.693 169.383 177.252 175.901C185.534 181.014 192.27 187.631 199.773 198.025C203.558 203.278 209.345 208.962 216.973 214.921L217.735 215.516L217.873 214.646C217.916 214.367 217.946 214.095 217.975 213.817L218.005 213.524L217.752 213.324C210.465 207.601 204.932 202.149 201.307 197.119Z" fill="#407BFF"/>
<path d="M203.597 193.33C197.497 184.95 190.224 176.258 178.404 169.452C148.005 151.943 124.346 166.079 113.322 183.504C101.243 202.591 101.003 225.995 112.679 246.11C125.008 267.366 148.342 279.908 161.153 285.491L161.32 285.564L161.493 285.537C161.914 285.471 162.334 285.4 162.761 285.321L164.433 285.01L162.801 284.315C149.961 278.847 126.59 266.517 114.314 245.373C102.969 225.826 103.212 203.074 114.964 184.512C125.57 167.741 148.318 154.126 177.525 170.944C188.987 177.545 196.094 186.042 202.066 194.24C205.782 199.353 210.944 204.772 217.409 210.346L218.244 211.066L218.337 210.06C218.363 209.774 218.381 209.482 218.4 209.189L217.835 209.101L218.401 209.179L218.417 208.914L218.2 208.724C212.04 203.371 207.128 198.192 203.597 193.33Z" fill="#407BFF"/>
<path d="M205.885 189.541C198.345 179.279 190.822 171.089 178.622 164.47C164.553 156.827 150.198 154.734 137.11 158.417C125.696 161.635 115.583 169.201 108.635 179.724C95.6771 199.341 94.9957 223.957 106.814 245.572C118.731 267.369 141.925 280.245 154.69 285.98L154.814 286.035H154.946C155.506 286.035 156.057 286.028 156.621 285.999L158.813 285.886L156.741 284.986C143.842 279.379 120.419 266.712 108.48 244.874C96.9775 223.832 97.6457 199.863 110.268 180.753C121.792 163.289 146.392 148.945 177.795 165.992C189.664 172.431 196.998 180.429 204.358 190.455C207.932 195.335 212.401 200.354 217.64 205.372L218.562 206.255L218.593 205.076C218.602 204.759 218.603 204.442 218.604 204.119L218.605 203.89L218.428 203.718C213.458 198.896 209.239 194.126 205.885 189.541Z" fill="#407BFF"/>
<path d="M208.174 185.752C201.427 176.637 193.605 167.101 178.848 159.489C163.772 151.71 148.359 149.744 134.278 153.799C122.128 157.293 111.359 165.157 103.956 175.943C87.6684 199.646 91.7275 227.178 100.958 245.042C111.433 265.313 130.999 278.066 145.57 285.196L145.709 285.26H145.8C146.548 285.391 147.319 285.504 148.093 285.596L151.28 285.976L148.33 284.594C133.34 277.576 113.244 264.902 102.644 244.374C93.6374 226.958 89.6756 200.114 105.566 177.001C119.041 157.38 146.683 144.832 178.054 161.024C192.429 168.442 200.064 177.763 206.651 186.675C210.017 191.23 213.698 195.637 217.591 199.777L218.609 200.859L218.563 199.339C218.553 199.021 218.544 198.712 218.526 198.371L218.508 198.179L218.373 198.034C214.746 194.135 211.315 190.002 208.174 185.752Z" fill="#407BFF"/>
<path d="M218.004 191.776L217.987 191.615L217.877 191.482C215.041 188.056 212.539 184.748 210.465 181.964C203.028 171.988 195.03 162.382 179.071 154.511C144.729 137.556 114.246 151.16 99.2708 172.164C81.9144 196.506 86.1734 226.348 95.095 244.505C101.388 257.372 111.855 268.706 126.145 278.147L126.309 278.252C128.453 279.458 130.626 280.526 132.77 281.425L133.227 280.493C116.089 270.571 103.833 258.254 96.8014 243.882C88.0824 226.152 83.9146 197.013 100.863 173.243C115.404 152.84 144.99 139.616 178.312 156.065C193.836 163.728 201.663 173.128 208.95 182.893C211.071 185.74 213.918 189.503 217.14 193.35L218.294 194.729L218.138 193.044C218.097 192.621 218.051 192.199 218.004 191.776Z" fill="#407BFF"/>
<path d="M141.378 82.1937C140.206 82.0993 138.999 82.0968 137.757 82.2632C144.559 84.5676 156.089 87.7529 159.879 88.4418C156.28 85.9628 145.819 82.5481 141.378 82.1937Z" fill="#407BFF"/>
<path d="M65.1435 74.6774L65.7223 80.9279H50.3029L51.6516 95.4875H45.0328L43.1045 74.6774H65.1435Z" fill="#407BFF"/>
<path d="M85.1456 295.468L84.5669 289.218H69.1467L67.798 274.658H61.1792L63.1066 295.468H85.1456Z" fill="#407BFF"/>
<path d="M219.208 295.473L218.628 289.222H234.049L232.699 274.663H239.319L241.247 295.473H219.208Z" fill="#407BFF"/>
<path d="M198.326 75.1849L198.905 81.4355H214.325L215.674 95.9951H222.293L220.365 75.1849H198.326Z" fill="#407BFF"/>
</svg>
